<svg width="200" height="200" viewBox="0 0 200 200" fill="none" xmlns="http://www.w3.org/2000/svg">
<g id="Empty-bro 1">
<g id="freepik--background-simple--inject-485">
<path id="Vector" opacity="0.7" d="M40.4678 137.716C40.4678 137.716 56.6318 158.184 84.2558 159.016C111.88 159.848 136.584 142.616 156.964 129.208C177.344 115.8 184.032 93.3365 173.856 74.8085C163.68 56.2805 145.216 62.6285 123.056 49.6085C100.896 36.5885 96.9238 29.7605 71.1998 30.9285C45.4758 32.0965 24.2158 59.5685 25.1518 90.3445C26.0878 121.12 40.4678 137.716 40.4678 137.716Z" fill="white"/>
</g>
<g id="freepik--Plants--inject-485">
<path id="Vector_2" d="M45.4916 36.4321C45.4676 36.4321 45.7716 34.9401 45.7996 34.8321C46.1436 33.7641 47.4396 31.9081 48.6916 31.9121C48.9001 31.918 49.1051 31.9678 49.2931 32.0582C49.4811 32.1487 49.648 32.2778 49.7827 32.4371C49.9175 32.5964 50.0171 32.7823 50.0752 32.9827C50.1332 33.1831 50.1483 33.3935 50.1196 33.6001C50.0276 34.4801 49.2356 35.2321 48.5196 35.6641C47.6796 36.1881 45.4916 36.4321 45.4916 36.4321Z" fill="#C5C7C2"/>
<path id="Vector_3" d="M43.0635 26.3999C44.2635 26.8239 44.8315 29.0079 44.7915 30.1279C44.7915 30.2239 44.5675 31.7279 44.5475 31.7279H44.5235C44.6155 32.0719 44.7155 32.4439 44.8155 32.8519C44.9915 33.6039 45.1835 34.4519 45.3315 35.3959C45.5031 36.4071 45.6153 37.4275 45.6675 38.4519C45.7313 39.5997 45.6925 40.7509 45.5515 41.8919C45.5496 41.9051 45.5496 41.9186 45.5515 41.9319C45.7075 41.5999 46.1715 40.6799 46.2115 40.6159C46.8275 39.6799 48.5635 38.2159 49.7755 38.5639C49.9745 38.6246 50.1585 38.7265 50.3154 38.8631C50.4723 38.9997 50.5987 39.1678 50.6863 39.3566C50.7738 39.5453 50.8206 39.7503 50.8236 39.9584C50.8266 40.1664 50.7856 40.3727 50.7035 40.5639C50.3835 41.3879 49.4235 41.9039 48.6195 42.1319C47.7115 42.3919 45.6875 42.0879 45.5275 42.0599C45.3564 43.2179 45.1079 44.3631 44.7835 45.4879C44.5968 46.1439 44.3942 46.7985 44.1755 47.4519C44.3155 47.1679 44.4475 46.9159 44.4675 46.8839C45.0835 45.9439 46.8235 44.4839 48.0315 44.8319C48.2305 44.8926 48.4145 44.9945 48.5714 45.1311C48.7283 45.2677 48.8547 45.4358 48.9423 45.6246C49.0298 45.8133 49.0766 46.0183 49.0796 46.2264C49.0826 46.4344 49.0416 46.6407 48.9595 46.8319C48.6395 47.6559 47.6795 48.1719 46.8755 48.3999C46.0715 48.6279 44.3275 48.3999 43.8715 48.3399L43.6195 49.0919C43.2195 50.2919 42.7835 51.4919 42.4195 52.6679C42.2875 53.0679 42.1715 53.4999 42.0555 53.9159C42.1835 53.6639 42.2915 53.4519 42.3115 53.4199C42.9235 52.4839 44.6635 51.0199 45.8715 51.3679C46.0701 51.4292 46.2537 51.5315 46.4104 51.6681C46.5671 51.8047 46.6934 51.9727 46.7812 52.1611C46.869 52.3495 46.9163 52.5543 46.9202 52.7621C46.924 52.97 46.8843 53.1763 46.8035 53.3679C46.4835 54.1959 45.5195 54.7079 44.7155 54.9399C43.9115 55.1719 42.3395 54.9679 41.7955 54.8919C41.6875 55.3199 41.5835 55.7479 41.4995 56.1679C41.4475 56.4599 41.3795 56.7319 41.3435 57.0239L41.2235 57.8839C41.1675 58.4319 41.1035 58.9959 41.0635 59.5319C41.0315 59.9039 41.0075 60.2599 40.9835 60.6199C41.1115 60.2199 41.3835 59.3919 41.3835 59.3279C41.8265 58.4478 42.4875 57.6959 43.3035 57.1439C43.347 57.0419 43.402 56.9453 43.4675 56.8559C43.5807 56.6811 43.7296 56.5322 43.9043 56.4189C44.079 56.3056 44.2757 56.2305 44.4815 56.1984C44.6872 56.1663 44.8974 56.178 45.0984 56.2327C45.2993 56.2874 45.4864 56.3839 45.6475 56.5159C46.5995 57.3359 46.3595 59.5839 45.9235 60.6159C45.8995 60.6759 45.5435 61.3039 45.3155 61.6999C45.4875 61.4879 45.6475 61.2799 45.8275 61.0679C46.1755 60.6399 46.5355 60.2239 46.9195 59.7759L47.5075 59.1399C47.6995 58.9239 47.9315 58.7399 48.1435 58.5039C48.6435 58.0199 49.1755 57.5519 49.7235 57.0919C49.3515 56.7879 48.0395 55.6839 47.6635 54.9319C47.2875 54.1799 47.0195 53.1279 47.4115 52.3319C47.4977 52.142 47.6228 51.9724 47.7788 51.8341C47.9348 51.6957 48.1181 51.5917 48.3168 51.5287C48.5156 51.4657 48.7253 51.4452 48.9325 51.4685C49.1397 51.4918 49.3397 51.5583 49.5195 51.6639C50.5795 52.3319 50.6875 54.5919 50.4115 55.6639C50.4115 55.7319 50.1075 56.4879 49.9435 56.8999C50.2755 56.6279 50.6035 56.3559 50.9475 56.0999C51.9395 55.3359 52.9675 54.5879 53.9875 53.8399L54.9195 53.1519C54.7875 53.0439 53.2035 51.7639 52.7795 50.9199C52.4075 50.1719 52.1355 49.1159 52.5275 48.3239C52.6132 48.1336 52.7381 47.9636 52.894 47.8248C53.0499 47.6861 53.2333 47.5818 53.4322 47.5188C53.6311 47.4557 53.8411 47.4354 54.0485 47.459C54.2558 47.4826 54.4558 47.5497 54.6355 47.6559C55.6995 48.3199 55.8035 50.5799 55.5275 51.6559C55.5075 51.7359 55.0955 52.8239 54.9795 53.0959C55.6595 52.5879 56.3355 52.0759 56.9795 51.5399C57.8557 50.8256 58.6842 50.0546 59.4595 49.2319C59.3995 49.1799 57.7395 47.8519 57.3075 46.9919C56.9315 46.2439 56.6635 45.1839 57.0555 44.3919C57.1413 44.2022 57.266 44.0326 57.4216 43.8943C57.5772 43.7559 57.7602 43.6519 57.9586 43.5889C58.157 43.5259 58.3665 43.5053 58.5734 43.5286C58.7803 43.5519 58.98 43.6184 59.1595 43.7239C60.2235 44.3919 60.3315 46.6519 60.0555 47.7239C60.0555 47.7959 59.7235 48.6239 59.5675 49.0159L59.6275 49.0559C60.3853 48.2055 61.0666 47.2899 61.6635 46.3199C61.9995 45.7879 62.2875 45.2639 62.5595 44.7479C62.2235 44.5319 60.7075 43.5279 60.2315 42.7959C59.7555 42.0639 59.3955 41.0719 59.6955 40.2399C59.7598 40.0415 59.8651 39.859 60.0047 39.7041C60.1443 39.5492 60.3149 39.4254 60.5055 39.3409C60.696 39.2564 60.9023 39.2129 61.1108 39.2135C61.3193 39.214 61.5253 39.2584 61.7155 39.3439C62.8475 39.8919 63.1995 42.1439 63.0435 43.2359C63.0435 43.2959 62.8835 43.8999 62.7675 44.3359C62.8835 44.0999 63.0115 43.8599 63.1195 43.6319C63.5195 42.7799 63.8595 41.9719 64.1395 41.2319C64.2995 40.8319 64.4315 40.4519 64.5395 40.0999C64.3195 39.6999 63.4635 38.1639 63.3795 37.2999C63.2955 36.4359 63.4315 35.3879 64.0835 34.7879C64.2319 34.6418 64.4095 34.5285 64.6046 34.4556C64.7997 34.3826 65.0079 34.3515 65.2158 34.3644C65.4237 34.3772 65.6266 34.4336 65.8112 34.53C65.9958 34.6264 66.1581 34.7606 66.2875 34.9239C67.0395 35.9279 66.3235 38.0759 65.6755 38.9879C65.6195 39.0679 64.5995 40.1879 64.5875 40.1879V40.1639C64.4755 40.5039 64.3555 40.8679 64.2115 41.2599C63.9475 41.9879 63.6395 42.8039 63.2435 43.6599C62.8249 44.5965 62.3534 45.5086 61.8315 46.3919C61.249 47.3826 60.5797 48.3196 59.8315 49.1919L59.8035 49.2239C60.1155 49.0319 61.0035 48.5199 61.0795 48.4879C62.1115 48.0479 64.3595 47.7999 65.1835 48.7439C65.3161 48.9045 65.4134 49.0913 65.4691 49.292C65.5248 49.4928 65.5376 49.703 65.5066 49.909C65.4757 50.115 65.4017 50.3122 65.2895 50.4878C65.1773 50.6633 65.0294 50.8132 64.8555 50.9279C64.1315 51.4399 63.0475 51.3279 62.2475 51.0879C61.3475 50.7999 59.8475 49.4319 59.7115 49.3199C58.9302 50.1915 58.091 51.0093 57.1995 51.7679C56.6835 52.2119 56.1475 52.6439 55.5995 53.0719C55.8755 52.9119 56.1235 52.7719 56.1595 52.7559C57.1875 52.3159 59.4355 52.0679 60.2595 53.0119C60.3927 53.1723 60.4905 53.359 60.5466 53.5598C60.6026 53.7607 60.6156 53.9711 60.5846 54.1773C60.5536 54.3835 60.4794 54.5808 60.3669 54.7564C60.2543 54.9319 60.106 55.0817 59.9315 55.1959C59.2115 55.7079 58.1235 55.5959 57.3275 55.3559C56.5315 55.1159 55.1995 53.9559 54.8555 53.6479C54.6435 53.8079 54.4555 53.9719 54.2275 54.1359C53.2235 54.9039 52.2275 55.6679 51.2475 56.4519C50.9075 56.7239 50.5835 57.0079 50.2555 57.2919L50.7435 57.0199C51.7715 56.5799 54.0195 56.3279 54.8435 57.2719C54.9762 57.4328 55.0736 57.6199 55.1293 57.821C55.185 58.0221 55.1978 58.2326 55.1668 58.4389C55.1359 58.6452 55.0619 58.8428 54.9497 59.0186C54.8375 59.1945 54.6896 59.3449 54.5155 59.4599C53.7955 59.9719 52.7075 59.8599 51.9115 59.6159C51.1155 59.3719 49.9115 58.3279 49.5115 57.9639C49.1875 58.2639 48.8595 58.5639 48.5595 58.8679C48.3555 59.0799 48.1595 59.2679 47.9595 59.4959L47.3835 60.1439C47.0355 60.5719 46.6715 61.0079 46.3395 61.4319C46.1075 61.7239 45.8915 62.0079 45.6755 62.2959C46.0075 62.0159 46.6795 61.4959 46.7395 61.4479C47.6875 60.8559 49.8755 60.2479 50.8315 61.0799C50.9864 61.219 51.1103 61.3893 51.1951 61.5795C51.28 61.7697 51.3238 61.9756 51.3238 62.1839C51.3238 62.3921 51.28 62.598 51.1951 62.7883C51.1103 62.9785 50.9864 63.1487 50.8315 63.2879C50.1915 63.9039 49.1035 63.9679 48.2795 63.8399C47.3675 63.6959 45.7195 62.6399 45.5155 62.4879C45.1555 62.9639 44.8115 63.4239 44.4915 63.8679C43.3835 65.3999 42.5195 66.7199 41.9275 67.6479L41.8675 67.7439L41.0995 67.3719L41.2195 67.1879C41.8395 66.2599 42.7435 64.9479 43.8955 63.4279C44.2595 62.9439 44.6555 62.4359 45.0675 61.9199C44.639 61.4517 44.2383 60.9589 43.8675 60.4439C42.9835 60.7919 41.1515 60.8039 40.9115 60.8039C40.8755 61.3959 40.8435 61.9759 40.8195 62.5199C40.7395 64.4079 40.7475 65.9839 40.7675 67.0879V67.2159L39.9235 66.8159C39.9235 65.7199 39.9675 64.2399 40.0795 62.4879C40.1155 61.8879 40.1675 61.2439 40.2275 60.5839C39.9915 60.5239 38.0835 60.0359 37.3635 59.4599C36.7115 58.9359 36.0235 58.0919 36.0475 57.2039C36.0459 56.9955 36.0882 56.7892 36.1716 56.5983C36.255 56.4074 36.3776 56.2362 36.5316 56.0958C36.6855 55.9555 36.8673 55.8491 37.0651 55.7836C37.2629 55.7182 37.4722 55.6951 37.6795 55.7159C38.9235 55.8759 39.9675 57.8839 40.1715 58.9839C40.1715 59.0519 40.2355 59.7839 40.2595 60.2239C40.2875 59.9559 40.3075 59.6919 40.3395 59.4239C40.3915 58.8759 40.4635 58.3319 40.5395 57.7439C40.5835 57.4599 40.6315 57.1759 40.6755 56.8879C40.7195 56.5999 40.7955 56.3039 40.8555 56.0079C41.0075 55.3279 41.1915 54.6439 41.3955 53.9599C40.9155 53.9119 39.2155 53.7119 38.4875 53.2919C37.7595 52.8719 36.9515 52.1439 36.8435 51.2639C36.81 51.058 36.8204 50.8474 36.8738 50.6459C36.9272 50.4443 37.0224 50.2562 37.1534 50.0939C37.2844 49.9316 37.4481 49.7988 37.6338 49.704C37.8196 49.6092 38.0232 49.5546 38.2315 49.5439C39.4835 49.5159 40.8195 51.3399 41.1875 52.3999C41.2115 52.4639 41.3915 53.2519 41.4835 53.6879C41.6075 53.2879 41.7275 52.8679 41.8835 52.4559C42.2835 51.2559 42.7355 50.0839 43.1755 48.8959C43.3115 48.5319 43.4395 48.1679 43.5755 47.8039C43.4035 47.8039 41.3755 47.5919 40.5595 47.1239C39.8355 46.7239 39.0275 45.9759 38.9155 45.0959C38.8827 44.8901 38.8935 44.6798 38.9471 44.4784C39.0008 44.2771 39.0961 44.0893 39.227 43.9272C39.3578 43.765 39.5212 43.6322 39.7067 43.5372C39.8921 43.4422 40.0954 43.3873 40.3035 43.3759C41.5595 43.3479 42.8955 45.1719 43.2635 46.2319C43.2915 46.3119 43.5475 47.4319 43.5995 47.7359C43.8875 46.9359 44.1715 46.1359 44.3995 45.3359C44.7378 44.2558 45.005 43.1548 45.1995 42.0399C45.1195 42.0399 43.0035 41.8399 42.1675 41.3599C41.4395 40.9599 40.6315 40.2119 40.5235 39.3319C40.49 39.1262 40.5003 38.9158 40.5538 38.7145C40.6072 38.5131 40.7025 38.3253 40.8336 38.1633C40.9646 38.0013 41.1283 37.8688 41.3141 37.7745C41.4998 37.6802 41.7034 37.6261 41.9115 37.6159C43.1635 37.5839 44.4995 39.4079 44.8675 40.4679C44.8915 40.5359 45.0915 41.3999 45.1755 41.8159H45.2435C45.4087 40.6892 45.473 39.55 45.4355 38.4119C45.4355 37.7839 45.3755 37.1879 45.3155 36.6079C44.9155 36.6079 43.0995 36.6079 42.2995 36.2599C41.4995 35.9119 40.6475 35.2879 40.4395 34.4279C40.384 34.2264 40.3717 34.0155 40.4033 33.809C40.435 33.6024 40.5099 33.4049 40.6232 33.2293C40.7365 33.0537 40.8856 32.904 41.0607 32.79C41.2358 32.6761 41.4331 32.6003 41.6395 32.5679C42.8835 32.3959 44.4115 34.0679 44.8955 35.0759C44.9195 35.1319 45.1275 35.7199 45.2675 36.1519C45.2395 35.8879 45.2115 35.6159 45.1755 35.3519C45.0515 34.4119 44.8755 33.5599 44.7155 32.8039C44.6195 32.3759 44.5275 32.0039 44.4355 31.6319C44.0355 31.4319 42.4675 30.6079 41.9315 29.9439C41.3955 29.2799 40.9155 28.3159 41.1315 27.4599C41.1793 27.2577 41.269 27.0679 41.3948 26.9026C41.5206 26.7373 41.6797 26.6003 41.8618 26.5003C42.0439 26.4004 42.245 26.3399 42.452 26.3225C42.659 26.3052 42.8673 26.3316 43.0635 26.3999Z" fill="#C5C7C2"/>
<path id="Vector_4" d="M65.7359 45.7156C64.7559 45.6756 62.7959 44.6716 62.7959 44.6716C62.7959 44.6716 63.8479 43.5796 63.9239 43.5196C64.7999 42.8236 66.9039 41.9876 67.9479 42.6836C68.1186 42.8031 68.262 42.9574 68.369 43.1362C68.4759 43.315 68.5439 43.5145 68.5684 43.7214C68.593 43.9283 68.5735 44.1381 68.5114 44.337C68.4493 44.5359 68.3459 44.7194 68.2079 44.8756C67.6479 45.5596 66.5719 45.7516 65.7359 45.7156Z" fill="#C5C7C2"/>
<g id="Group" opacity="0.5">
<path id="Vector_5" d="M45.4916 36.4321C45.4676 36.4321 45.7716 34.9401 45.7996 34.8321C46.1436 33.7641 47.4396 31.9081 48.6916 31.9121C48.9001 31.918 49.1051 31.9678 49.2931 32.0582C49.4811 32.1487 49.648 32.2778 49.7827 32.4371C49.9175 32.5964 50.0171 32.7823 50.0752 32.9827C50.1332 33.1831 50.1483 33.3935 50.1196 33.6001C50.0276 34.4801 49.2356 35.2321 48.5196 35.6641C47.6796 36.1881 45.4916 36.4321 45.4916 36.4321Z" fill="white"/>
<path id="Vector_6" d="M43.0635 26.3999C44.2635 26.8239 44.8315 29.0079 44.7915 30.1279C44.7915 30.2239 44.5675 31.7279 44.5475 31.7279H44.5235C44.6155 32.0719 44.7155 32.4439 44.8155 32.8519C44.9915 33.6039 45.1835 34.4519 45.3315 35.3959C45.5031 36.4071 45.6153 37.4275 45.6675 38.4519C45.7313 39.5997 45.6925 40.7509 45.5515 41.8919C45.5496 41.9051 45.5496 41.9186 45.5515 41.9319C45.7075 41.5999 46.1715 40.6799 46.2115 40.6159C46.8275 39.6799 48.5635 38.2159 49.7755 38.5639C49.9745 38.6246 50.1585 38.7265 50.3154 38.8631C50.4723 38.9997 50.5987 39.1678 50.6863 39.3566C50.7738 39.5453 50.8206 39.7503 50.8236 39.9584C50.8266 40.1664 50.7856 40.3727 50.7035 40.5639C50.3835 41.3879 49.4235 41.9039 48.6195 42.1319C47.7115 42.3919 45.6875 42.0879 45.5275 42.0599C45.3564 43.2179 45.1079 44.3631 44.7835 45.4879C44.5968 46.1439 44.3942 46.7985 44.1755 47.4519C44.3155 47.1679 44.4475 46.9159 44.4675 46.8839C45.0835 45.9439 46.8235 44.4839 48.0315 44.8319C48.2305 44.8926 48.4145 44.9945 48.5714 45.1311C48.7283 45.2677 48.8547 45.4358 48.9423 45.6246C49.0298 45.8133 49.0766 46.0183 49.0796 46.2264C49.0826 46.4344 49.0416 46.6407 48.9595 46.8319C48.6395 47.6559 47.6795 48.1719 46.8755 48.3999C46.0715 48.6279 44.3275 48.3999 43.8715 48.3399L43.6195 49.0919C43.2195 50.2919 42.7835 51.4919 42.4195 52.6679C42.2875 53.0679 42.1715 53.4999 42.0555 53.9159C42.1835 53.6639 42.2915 53.4519 42.3115 53.4199C42.9235 52.4839 44.6635 51.0199 45.8715 51.3679C46.0701 51.4292 46.2537 51.5315 46.4104 51.6681C46.5671 51.8047 46.6934 51.9727 46.7812 52.1611C46.869 52.3495 46.9163 52.5543 46.9202 52.7621C46.924 52.97 46.8843 53.1763 46.8035 53.3679C46.4835 54.1959 45.5195 54.7079 44.7155 54.9399C43.9115 55.1719 42.3395 54.9679 41.7955 54.8919C41.6875 55.3199 41.5835 55.7479 41.4995 56.1679C41.4475 56.4599 41.3795 56.7319 41.3435 57.0239L41.2235 57.8839C41.1675 58.4319 41.1035 58.9959 41.0635 59.5319C41.0315 59.9039 41.0075 60.2599 40.9835 60.6199C41.1115 60.2199 41.3835 59.3919 41.3835 59.3279C41.8265 58.4478 42.4875 57.6959 43.3035 57.1439C43.347 57.0419 43.402 56.9453 43.4675 56.8559C43.5807 56.6811 43.7296 56.5322 43.9043 56.4189C44.079 56.3056 44.2757 56.2305 44.4815 56.1984C44.6872 56.1663 44.8974 56.178 45.0984 56.2327C45.2993 56.2874 45.4864 56.3839 45.6475 56.5159C46.5995 57.3359 46.3595 59.5839 45.9235 60.6159C45.8995 60.6759 45.5435 61.3039 45.3155 61.6999C45.4875 61.4879 45.6475 61.2799 45.8275 61.0679C46.1755 60.6399 46.5355 60.2239 46.9195 59.7759L47.5075 59.1399C47.6995 58.9239 47.9315 58.7399 48.1435 58.5039C48.6435 58.0199 49.1755 57.5519 49.7235 57.0919C49.3515 56.7879 48.0395 55.6839 47.6635 54.9319C47.2875 54.1799 47.0195 53.1279 47.4115 52.3319C47.4977 52.142 47.6228 51.9724 47.7788 51.8341C47.9348 51.6957 48.1181 51.5917 48.3168 51.5287C48.5156 51.4657 48.7253 51.4452 48.9325 51.4685C49.1397 51.4918 49.3397 51.5583 49.5195 51.6639C50.5795 52.3319 50.6875 54.5919 50.4115 55.6639C50.4115 55.7319 50.1075 56.4879 49.9435 56.8999C50.2755 56.6279 50.6035 56.3559 50.9475 56.0999C51.9395 55.3359 52.9675 54.5879 53.9875 53.8399L54.9195 53.1519C54.7875 53.0439 53.2035 51.7639 52.7795 50.9199C52.4075 50.1719 52.1355 49.1159 52.5275 48.3239C52.6132 48.1336 52.7381 47.9636 52.894 47.8248C53.0499 47.6861 53.2333 47.5818 53.4322 47.5188C53.6311 47.4557 53.8411 47.4354 54.0485 47.459C54.2558 47.4826 54.4558 47.5497 54.6355 47.6559C55.6995 48.3199 55.8035 50.5799 55.5275 51.6559C55.5075 51.7359 55.0955 52.8239 54.9795 53.0959C55.6595 52.5879 56.3355 52.0759 56.9795 51.5399C57.8557 50.8256 58.6842 50.0546 59.4595 49.2319C59.3995 49.1799 57.7395 47.8519 57.3075 46.9919C56.9315 46.2439 56.6635 45.1839 57.0555 44.3919C57.1413 44.2022 57.266 44.0326 57.4216 43.8943C57.5772 43.7559 57.7602 43.6519 57.9586 43.5889C58.157 43.5259 58.3665 43.5053 58.5734 43.5286C58.7803 43.5519 58.98 43.6184 59.1595 43.7239C60.2235 44.3919 60.3315 46.6519 60.0555 47.7239C60.0555 47.7959 59.7235 48.6239 59.5675 49.0159L59.6275 49.0559C60.3853 48.2055 61.0666 47.2899 61.6635 46.3199C61.9995 45.7879 62.2875 45.2639 62.5595 44.7479C62.2235 44.5319 60.7075 43.5279 60.2315 42.7959C59.7555 42.0639 59.3955 41.0719 59.6955 40.2399C59.7598 40.0415 59.8651 39.859 60.0047 39.7041C60.1443 39.5492 60.3149 39.4254 60.5055 39.3409C60.696 39.2564 60.9023 39.2129 61.1108 39.2135C61.3193 39.214 61.5253 39.2584 61.7155 39.3439C62.8475 39.8919 63.1995 42.1439 63.0435 43.2359C63.0435 43.2959 62.8835 43.8999 62.7675 44.3359C62.8835 44.0999 63.0115 43.8599 63.1195 43.6319C63.5195 42.7799 63.8595 41.9719 64.1395 41.2319C64.2995 40.8319 64.4315 40.4519 64.5395 40.0999C64.3195 39.6999 63.4635 38.1639 63.3795 37.2999C63.2955 36.4359 63.4315 35.3879 64.0835 34.7879C64.2319 34.6418 64.4095 34.5285 64.6046 34.4556C64.7997 34.3826 65.0079 34.3515 65.2158 34.3644C65.4237 34.3772 65.6266 34.4336 65.8112 34.53C65.9958 34.6264 66.1581 34.7606 66.2875 34.9239C67.0395 35.9279 66.3235 38.0759 65.6755 38.9879C65.6195 39.0679 64.5995 40.1879 64.5875 40.1879V40.1639C64.4755 40.5039 64.3555 40.8679 64.2115 41.2599C63.9475 41.9879 63.6395 42.8039 63.2435 43.6599C62.8249 44.5965 62.3534 45.5086 61.8315 46.3919C61.249 47.3826 60.5797 48.3196 59.8315 49.1919L59.8035 49.2239C60.1155 49.0319 61.0035 48.5199 61.0795 48.4879C62.1115 48.0479 64.3595 47.7999 65.1835 48.7439C65.3161 48.9045 65.4134 49.0913 65.4691 49.292C65.5248 49.4928 65.5376 49.703 65.5066 49.909C65.4757 50.115 65.4017 50.3122 65.2895 50.4878C65.1773 50.6633 65.0294 50.8132 64.8555 50.9279C64.1315 51.4399 63.0475 51.3279 62.2475 51.0879C61.3475 50.7999 59.8475 49.4319 59.7115 49.3199C58.9302 50.1915 58.091 51.0093 57.1995 51.7679C56.6835 52.2119 56.1475 52.6439 55.5995 53.0719C55.8755 52.9119 56.1235 52.7719 56.1595 52.7559C57.1875 52.3159 59.4355 52.0679 60.2595 53.0119C60.3927 53.1723 60.4905 53.359 60.5466 53.5598C60.6026 53.7607 60.6156 53.9711 60.5846 54.1773C60.5536 54.3835 60.4794 54.5808 60.3669 54.7564C60.2543 54.9319 60.106 55.0817 59.9315 55.1959C59.2115 55.7079 58.1235 55.5959 57.3275 55.3559C56.5315 55.1159 55.1995 53.9559 54.8555 53.6479C54.6435 53.8079 54.4555 53.9719 54.2275 54.1359C53.2235 54.9039 52.2275 55.6679 51.2475 56.4519C50.9075 56.7239 50.5835 57.0079 50.2555 57.2919L50.7435 57.0199C51.7715 56.5799 54.0195 56.3279 54.8435 57.2719C54.9762 57.4328 55.0736 57.6199 55.1293 57.821C55.185 58.0221 55.1978 58.2326 55.1668 58.4389C55.1359 58.6452 55.0619 58.8428 54.9497 59.0186C54.8375 59.1945 54.6896 59.3449 54.5155 59.4599C53.7955 59.9719 52.7075 59.8599 51.9115 59.6159C51.1155 59.3719 49.9115 58.3279 49.5115 57.9639C49.1875 58.2639 48.8595 58.5639 48.5595 58.8679C48.3555 59.0799 48.1595 59.2679 47.9595 59.4959L47.3835 60.1439C47.0355 60.5719 46.6715 61.0079 46.3395 61.4319C46.1075 61.7239 45.8915 62.0079 45.6755 62.2959C46.0075 62.0159 46.6795 61.4959 46.7395 61.4479C47.6875 60.8559 49.8755 60.2479 50.8315 61.0799C50.9864 61.219 51.1103 61.3893 51.1951 61.5795C51.28 61.7697 51.3238 61.9756 51.3238 62.1839C51.3238 62.3921 51.28 62.598 51.1951 62.7883C51.1103 62.9785 50.9864 63.1487 50.8315 63.2879C50.1915 63.9039 49.1035 63.9679 48.2795 63.8399C47.3675 63.6959 45.7195 62.6399 45.5155 62.4879C45.1555 62.9639 44.8115 63.4239 44.4915 63.8679C43.3835 65.3999 42.5195 66.7199 41.9275 67.6479L41.8675 67.7439L41.0995 67.3719L41.2195 67.1879C41.8395 66.2599 42.7435 64.9479 43.8955 63.4279C44.2595 62.9439 44.6555 62.4359 45.0675 61.9199C44.639 61.4517 44.2383 60.9589 43.8675 60.4439C42.9835 60.7919 41.1515 60.8039 40.9115 60.8039C40.8755 61.3959 40.8435 61.9759 40.8195 62.5199C40.7395 64.4079 40.7475 65.9839 40.7675 67.0879V67.2159L39.9235 66.8159C39.9235 65.7199 39.9675 64.2399 40.0795 62.4879C40.1155 61.8879 40.1675 61.2439 40.2275 60.5839C39.9915 60.5239 38.0835 60.0359 37.3635 59.4599C36.7115 58.9359 36.0235 58.0919 36.0475 57.2039C36.0459 56.9955 36.0882 56.7892 36.1716 56.5983C36.255 56.4074 36.3776 56.2362 36.5316 56.0958C36.6855 55.9555 36.8673 55.8491 37.0651 55.7836C37.2629 55.7182 37.4722 55.6951 37.6795 55.7159C38.9235 55.8759 39.9675 57.8839 40.1715 58.9839C40.1715 59.0519 40.2355 59.7839 40.2595 60.2239C40.2875 59.9559 40.3075 59.6919 40.3395 59.4239C40.3915 58.8759 40.4635 58.3319 40.5395 57.7439C40.5835 57.4599 40.6315 57.1759 40.6755 56.8879C40.7195 56.5999 40.7955 56.3039 40.8555 56.0079C41.0075 55.3279 41.1915 54.6439 41.3955 53.9599C40.9155 53.9119 39.2155 53.7119 38.4875 53.2919C37.7595 52.8719 36.9515 52.1439 36.8435 51.2639C36.81 51.058 36.8204 50.8474 36.8738 50.6459C36.9272 50.4443 37.0224 50.2562 37.1534 50.0939C37.2844 49.9316 37.4481 49.7988 37.6338 49.704C37.8196 49.6092 38.0232 49.5546 38.2315 49.5439C39.4835 49.5159 40.8195 51.3399 41.1875 52.3999C41.2115 52.4639 41.3915 53.2519 41.4835 53.6879C41.6075 53.2879 41.7275 52.8679 41.8835 52.4559C42.2835 51.2559 42.7355 50.0839 43.1755 48.8959C43.3115 48.5319 43.4395 48.1679 43.5755 47.8039C43.4035 47.8039 41.3755 47.5919 40.5595 47.1239C39.8355 46.7239 39.0275 45.9759 38.9155 45.0959C38.8827 44.8901 38.8935 44.6798 38.9471 44.4784C39.0008 44.2771 39.0961 44.0893 39.227 43.9272C39.3578 43.765 39.5212 43.6322 39.7067 43.5372C39.8921 43.4422 40.0954 43.3873 40.3035 43.3759C41.5595 43.3479 42.8955 45.1719 43.2635 46.2319C43.2915 46.3119 43.5475 47.4319 43.5995 47.7359C43.8875 46.9359 44.1715 46.1359 44.3995 45.3359C44.7378 44.2558 45.005 43.1548 45.1995 42.0399C45.1195 42.0399 43.0035 41.8399 42.1675 41.3599C41.4395 40.9599 40.6315 40.2119 40.5235 39.3319C40.49 39.1262 40.5003 38.9158 40.5538 38.7145C40.6072 38.5131 40.7025 38.3253 40.8336 38.1633C40.9646 38.0013 41.1283 37.8688 41.3141 37.7745C41.4998 37.6802 41.7034 37.6261 41.9115 37.6159C43.1635 37.5839 44.4995 39.4079 44.8675 40.4679C44.8915 40.5359 45.0915 41.3999 45.1755 41.8159H45.2435C45.4087 40.6892 45.473 39.55 45.4355 38.4119C45.4355 37.7839 45.3755 37.1879 45.3155 36.6079C44.9155 36.6079 43.0995 36.6079 42.2995 36.2599C41.4995 35.9119 40.6475 35.2879 40.4395 34.4279C40.384 34.2264 40.3717 34.0155 40.4033 33.809C40.435 33.6024 40.5099 33.4049 40.6232 33.2293C40.7365 33.0537 40.8856 32.904 41.0607 32.79C41.2358 32.6761 41.4331 32.6003 41.6395 32.5679C42.8835 32.3959 44.4115 34.0679 44.8955 35.0759C44.9195 35.1319 45.1275 35.7199 45.2675 36.1519C45.2395 35.8879 45.2115 35.6159 45.1755 35.3519C45.0515 34.4119 44.8755 33.5599 44.7155 32.8039C44.6195 32.3759 44.5275 32.0039 44.4355 31.6319C44.0355 31.4319 42.4675 30.6079 41.9315 29.9439C41.3955 29.2799 40.9155 28.3159 41.1315 27.4599C41.1793 27.2577 41.269 27.0679 41.3948 26.9026C41.5206 26.7373 41.6797 26.6003 41.8618 26.5003C42.0439 26.4004 42.245 26.3399 42.452 26.3225C42.659 26.3052 42.8673 26.3316 43.0635 26.3999Z" fill="white"/>
<path id="Vector_7" d="M65.7359 45.7156C64.7559 45.6756 62.7959 44.6716 62.7959 44.6716C62.7959 44.6716 63.8479 43.5796 63.9239 43.5196C64.7999 42.8236 66.9039 41.9876 67.9479 42.6836C68.1186 42.8031 68.262 42.9574 68.369 43.1362C68.4759 43.315 68.5439 43.5145 68.5684 43.7214C68.593 43.9283 68.5735 44.1381 68.5114 44.337C68.4493 44.5359 68.3459 44.7194 68.2079 44.8756C67.6479 45.5596 66.5719 45.7516 65.7359 45.7156Z" fill="white"/>
</g>
<path id="Vector_8" d="M54.2918 70.2601C54.2918 70.2601 48.3438 55.9241 45.0158 56.5481C41.6878 57.1721 50.7238 79.4041 50.7238 79.4041C50.7238 79.4041 40.2598 59.6641 33.1238 59.6641C25.9878 59.6641 35.7398 81.4801 44.7998 88.7521C44.7998 88.7521 30.5278 73.3761 22.2038 76.7001C13.8798 80.0241 38.8318 95.6001 38.8318 95.6001C38.8318 95.6001 24.3238 91.0361 25.9998 94.5721C27.6758 98.1081 32.1838 98.7241 32.1838 98.7241L35.9998 99.5561H56.7998L59.9998 98.3121C59.9998 98.3121 73.3198 91.6601 69.7518 88.9601C66.1838 86.2601 58.3358 92.0761 58.3358 92.0761C58.3358 92.0761 71.8918 77.1161 69.2758 71.5081C66.6598 65.9001 55.0038 81.6881 55.0038 81.6881C55.0038 81.6881 64.5198 61.5321 62.6038 58.0001C60.6878 54.4681 54.2918 70.2601 54.2918 70.2601Z" fill="#C5C7C2"/>
<path id="Vector_9" opacity="0.4" d="M54.2918 70.2601C54.2918 70.2601 48.3438 55.9241 45.0158 56.5481C41.6878 57.1721 50.7238 79.4041 50.7238 79.4041C50.7238 79.4041 40.2598 59.6641 33.1238 59.6641C25.9878 59.6641 35.7398 81.4801 44.7998 88.7521C44.7998 88.7521 30.5278 73.3761 22.2038 76.7001C13.8798 80.0241 38.8318 95.6001 38.8318 95.6001C38.8318 95.6001 24.3238 91.0361 25.9998 94.5721C27.6758 98.1081 32.1838 98.7241 32.1838 98.7241L38.3998 99.5561H55.1998L59.9998 98.3121C59.9998 98.3121 73.3198 91.6601 69.7518 88.9601C66.1838 86.2601 58.3358 92.0761 58.3358 92.0761C58.3358 92.0761 71.8918 77.1161 69.2758 71.5081C66.6598 65.9001 55.0038 81.6881 55.0038 81.6881C55.0038 81.6881 64.5198 61.5321 62.6038 58.0001C60.6878 54.4681 54.2918 70.2601 54.2918 70.2601Z" fill="white"/>
<path id="Vector_10" d="M56.1959 71.0156C50.9639 86.4756 50.9639 97.4156 50.9639 97.4156C50.9639 97.4156 57.1479 97.6556 63.5679 92.8956" stroke="#263238" stroke-linecap="round" stroke-linejoin="round"/>
<path id="Vector_11" d="M53.5994 79.3402C52.5198 74.7187 51.0877 70.1868 49.3154 65.7842" stroke="#263238" stroke-linecap="round" stroke-linejoin="round"/>
<path id="Vector_12" d="M38.1201 70.2998L51.4361 90.0438C51.4361 90.0438 60.4761 82.4438 63.5681 78.1518" stroke="#263238" stroke-linecap="round" stroke-linejoin="round"/>
<path id="Vector_13" d="M51.2 94.7999C51.2 94.7999 37.168 88.1399 31.46 84.3359" stroke="#263238" stroke-linecap="round" stroke-linejoin="round"/>
</g>
<g id="freepik--Shelf--inject-485">
<path id="Vector_14" d="M93.4438 38.252H90.5518V158.768H93.4438V38.252Z" fill="#C2C2C2" stroke="#ABABAB" stroke-linecap="round" stroke-linejoin="round"/>
<path id="Vector_15" d="M41.4193 38.252H38.5273V158.768H41.4193V38.252Z" fill="#C2C2C2" stroke="#ABABAB" stroke-linecap="round" stroke-linejoin="round"/>
<path id="Vector_16" d="M67.432 38.252H64.54V158.768H67.432V38.252Z" fill="#C2C2C2" stroke="#ABABAB" stroke-linecap="round" stroke-linejoin="round"/>
<path id="Vector_17" d="M119.452 38.252H116.56V158.768H119.452V38.252Z" fill="#C2C2C2" stroke="#ABABAB" stroke-linecap="round" stroke-linejoin="round"/>
<path id="Vector_18" d="M118.584 42.0078H37.5957V47.4998H118.584V42.0078Z" fill="#C2C2C2" stroke="#ABABAB" stroke-linecap="round" stroke-linejoin="round"/>
<path id="Vector_19" d="M118.584 42.0078H66.4639V47.4998H118.584V42.0078Z" fill="#A6A6A6" stroke="#ABABAB" stroke-linecap="round" stroke-linejoin="round"/>
<path id="Vector_20" d="M118.584 97.3076H37.5957V102.8H118.584V97.3076Z" fill="#C2C2C2" stroke="#ABABAB" stroke-linecap="round" stroke-linejoin="round"/>
<path id="Vector_21" d="M118.584 97.3076H66.4639V102.8H118.584V97.3076Z" fill="#A6A6A6" stroke="#ABABAB" stroke-linecap="round" stroke-linejoin="round"/>
<path id="Vector_22" d="M118.584 152.604H37.5957V158.096H118.584V152.604Z" fill="#C2C2C2" stroke="#ABABAB" stroke-linecap="round" stroke-linejoin="round"/>
<path id="Vector_23" d="M118.584 152.604H66.4639V158.096H118.584V152.604Z" fill="#A6A6A6" stroke="#ABABAB" stroke-linecap="round" stroke-linejoin="round"/>
</g>
<g id="freepik--Boxes--inject-485">
<path id="Vector_24" d="M66.4758 123.12H24.0918V158.724H66.4758V123.12Z" fill="#C5C7C2"/>
<g id="Clip path group">
<mask id="mask0_54957_111140" style="mask-type:luminance" maskUnits="userSpaceOnUse" x="24" y="123" width="43" height="36">
<g id="freepik--clip-path--inject-485">
<path id="Vector_25" d="M66.4758 123.12H24.0918V158.724H66.4758V123.12Z" fill="white"/>
</g>
</mask>
<g mask="url(#mask0_54957_111140)">
<g id="Group_2">
<path id="Vector_26" opacity="0.6" d="M66.4758 123.12H24.0918V158.724H66.4758V123.12Z" fill="white" stroke="#696969" stroke-linecap="round" stroke-linejoin="round"/>
</g>
</g>
</g>
<path id="Vector_27" d="M66.4758 123.12H24.0918V158.724H66.4758V123.12Z" stroke="#696969" stroke-linecap="round" stroke-linejoin="round"/>
<path id="Vector_28" d="M66.4756 123.12H52.3916V158.724H66.4756V123.12Z" fill="#C5C7C2"/>
<g id="Clip path group_2">
<mask id="mask1_54957_111140" style="mask-type:luminance" maskUnits="userSpaceOnUse" x="52" y="123" width="15" height="36">
<g id="freepik--clip-path-2--inject-485">
<path id="Vector_29" d="M66.4756 123.12H52.3916V158.724H66.4756V123.12Z" fill="white"/>
</g>
</mask>
<g mask="url(#mask1_54957_111140)">
<g id="Group_3">
<path id="Vector_30" opacity="0.39" d="M66.4756 123.12H52.3916V158.724H66.4756V123.12Z" fill="white" stroke="#696969" stroke-linecap="round" stroke-linejoin="round"/>
</g>
</g>
</g>
<path id="Vector_31" d="M66.4756 123.12H52.3916V158.724H66.4756V123.12Z" stroke="#696969" stroke-linecap="round" stroke-linejoin="round"/>
<path id="Vector_32" d="M59.5801 123.216V158.768" stroke="#696969" stroke-linecap="round" stroke-linejoin="round"/>
<path id="Vector_33" d="M68.6154 87.5723H26.2314V123.176H68.6154V87.5723Z" fill="#C5C7C2"/>
<g id="Clip path group_3">
<mask id="mask2_54957_111140" style="mask-type:luminance" maskUnits="userSpaceOnUse" x="26" y="87" width="43" height="37">
<g id="freepik--clip-path-3--inject-485">
<path id="Vector_34" d="M68.6154 87.5723H26.2314V123.176H68.6154V87.5723Z" fill="white"/>
</g>
</mask>
<g mask="url(#mask2_54957_111140)">
<g id="Group_4">
<path id="Vector_35" opacity="0.6" d="M68.6154 87.5723H26.2314V123.176H68.6154V87.5723Z" fill="white" stroke="#696969" stroke-linecap="round" stroke-linejoin="round"/>
</g>
</g>
</g>
<path id="Vector_36" d="M68.6154 87.5723H26.2314V123.176H68.6154V87.5723Z" stroke="#696969" stroke-linecap="round" stroke-linejoin="round"/>
<path id="Vector_37" d="M68.6162 87.5723H54.5322V123.176H68.6162V87.5723Z" fill="#C5C7C2"/>
<g id="Clip path group_4">
<mask id="mask3_54957_111140" style="mask-type:luminance" maskUnits="userSpaceOnUse" x="54" y="87" width="15" height="37">
<g id="freepik--clip-path-4--inject-485">
<path id="Vector_38" d="M68.6162 87.5723H54.5322V123.176H68.6162V87.5723Z" fill="white"/>
</g>
</mask>
<g mask="url(#mask3_54957_111140)">
<g id="Group_5">
<path id="Vector_39" opacity="0.39" d="M68.6162 87.5723H54.5322V123.176H68.6162V87.5723Z" fill="white" stroke="#696969" stroke-linecap="round" stroke-linejoin="round"/>
</g>
</g>
</g>
<path id="Vector_40" d="M68.6162 87.5723H54.5322V123.176H68.6162V87.5723Z" stroke="#696969" stroke-linecap="round" stroke-linejoin="round"/>
<path id="Vector_41" d="M61.7197 87.668V123.22" stroke="#696969" stroke-linecap="round" stroke-linejoin="round"/>
<path id="Vector_42" d="M178.911 123.12H136.527V158.724H178.911V123.12Z" fill="#C5C7C2"/>
<g id="Clip path group_5">
<mask id="mask4_54957_111140" style="mask-type:luminance" maskUnits="userSpaceOnUse" x="136" y="123" width="43" height="36">
<g id="freepik--clip-path-5--inject-485">
<path id="Vector_43" d="M178.911 123.12H136.527V158.724H178.911V123.12Z" fill="white"/>
</g>
</mask>
<g mask="url(#mask4_54957_111140)">
<g id="Group_6">
<path id="Vector_44" opacity="0.6" d="M178.911 123.12H136.527V158.724H178.911V123.12Z" fill="white" stroke="#919191" stroke-linecap="round" stroke-linejoin="round"/>
</g>
</g>
</g>
<path id="Vector_45" d="M178.911 123.12H136.527V158.724H178.911V123.12Z" stroke="#919191" stroke-linecap="round" stroke-linejoin="round"/>
<path id="Vector_46" d="M178.912 123.12H164.828V158.724H178.912V123.12Z" fill="#C5C7C2"/>
<g id="Clip path group_6">
<mask id="mask5_54957_111140" style="mask-type:luminance" maskUnits="userSpaceOnUse" x="164" y="123" width="15" height="36">
<g id="freepik--clip-path-6--inject-485">
<path id="Vector_47" d="M178.912 123.12H164.828V158.724H178.912V123.12Z" fill="white"/>
</g>
</mask>
<g mask="url(#mask5_54957_111140)">
<g id="Group_7">
<path id="Vector_48" opacity="0.39" d="M178.912 123.12H164.828V158.724H178.912V123.12Z" fill="white" stroke="#919191" stroke-linecap="round" stroke-linejoin="round"/>
</g>
</g>
</g>
<path id="Vector_49" d="M178.912 123.12H164.828V158.724H178.912V123.12Z" stroke="#919191" stroke-linecap="round" stroke-linejoin="round"/>
<path id="Vector_50" d="M172.016 123.216V158.768" stroke="#919191" stroke-linecap="round" stroke-linejoin="round"/>
<path id="Vector_51" d="M178.911 87.4805H136.527V123.084H178.911V87.4805Z" fill="#C5C7C2"/>
<g id="Clip path group_7">
<mask id="mask6_54957_111140" style="mask-type:luminance" maskUnits="userSpaceOnUse" x="136" y="87" width="43" height="37">
<g id="freepik--clip-path-7--inject-485">
<path id="Vector_52" d="M178.911 87.4805H136.527V123.084H178.911V87.4805Z" fill="white"/>
</g>
</mask>
<g mask="url(#mask6_54957_111140)">
<g id="Group_8">
<path id="Vector_53" opacity="0.6" d="M178.911 87.4805H136.527V123.084H178.911V87.4805Z" fill="white" stroke="#919191" stroke-linecap="round" stroke-linejoin="round"/>
</g>
</g>
</g>
<path id="Vector_54" d="M178.911 87.4805H136.527V123.084H178.911V87.4805Z" stroke="#919191" stroke-linecap="round" stroke-linejoin="round"/>
<path id="Vector_55" d="M178.912 87.4805H164.828V123.084H178.912V87.4805Z" fill="#C5C7C2"/>
<g id="Clip path group_8">
<mask id="mask7_54957_111140" style="mask-type:luminance" maskUnits="userSpaceOnUse" x="164" y="87" width="15" height="37">
<g id="freepik--clip-path-8--inject-485">
<path id="Vector_56" d="M178.912 87.4805H164.828V123.084H178.912V87.4805Z" fill="white"/>
</g>
</mask>
<g mask="url(#mask7_54957_111140)">
<g id="Group_9">
<path id="Vector_57" opacity="0.39" d="M178.912 87.4805H164.828V123.084H178.912V87.4805Z" fill="white" stroke="#919191" stroke-linecap="round" stroke-linejoin="round"/>
</g>
</g>
</g>
<path id="Vector_58" d="M178.912 87.4805H164.828V123.084H178.912V87.4805Z" stroke="#919191" stroke-linecap="round" stroke-linejoin="round"/>
<path id="Vector_59" d="M172.016 87.5762V123.128" stroke="#919191" stroke-linecap="round" stroke-linejoin="round"/>
<path id="Vector_60" d="M175.188 58H140.128V87.452H175.188V58Z" fill="#C5C7C2"/>
<g id="Clip path group_9">
<mask id="mask8_54957_111140" style="mask-type:luminance" maskUnits="userSpaceOnUse" x="140" y="58" width="36" height="30">
<g id="freepik--clip-path-9--inject-485">
<path id="Vector_61" d="M175.188 58H140.128V87.452H175.188V58Z" fill="white"/>
</g>
</mask>
<g mask="url(#mask8_54957_111140)">
<g id="Group_10">
<path id="Vector_62" opacity="0.6" d="M175.188 58H140.128V87.452H175.188V58Z" fill="white" stroke="#919191" stroke-linecap="round" stroke-linejoin="round"/>
</g>
</g>
</g>
<path id="Vector_63" d="M175.188 58H140.128V87.452H175.188V58Z" stroke="#919191" stroke-linecap="round" stroke-linejoin="round"/>
<path id="Vector_64" d="M175.188 58H163.54V87.452H175.188V58Z" fill="#C5C7C2"/>
<g id="Clip path group_10">
<mask id="mask9_54957_111140" style="mask-type:luminance" maskUnits="userSpaceOnUse" x="163" y="58" width="13" height="30">
<g id="freepik--clip-path-10--inject-485">
<path id="Vector_65" d="M175.188 58H163.54V87.452H175.188V58Z" fill="white"/>
</g>
</mask>
<g mask="url(#mask9_54957_111140)">
<g id="Group_11">
<path id="Vector_66" opacity="0.39" d="M175.188 58H163.54V87.452H175.188V58Z" fill="white" stroke="#919191" stroke-linecap="round" stroke-linejoin="round"/>
</g>
</g>
</g>
<path id="Vector_67" d="M175.188 58H163.54V87.452H175.188V58Z" stroke="#919191" stroke-linecap="round" stroke-linejoin="round"/>
<path id="Vector_68" d="M169.483 58.0801V87.4881" stroke="#919191" stroke-linecap="round" stroke-linejoin="round"/>
</g>
<g id="freepik--hand-truck--inject-485">
<path id="Vector_69" d="M170.704 145.34H165.212V148.776H170.704V145.34Z" fill="white" stroke="#263238" stroke-linecap="round" stroke-linejoin="round"/>
<path id="Vector_70" d="M119.024 158.768C120.858 158.768 122.344 157.282 122.344 155.448C122.344 153.614 120.858 152.128 119.024 152.128C117.191 152.128 115.704 153.614 115.704 155.448C115.704 157.282 117.191 158.768 119.024 158.768Z" fill="#263238" stroke="#263238" stroke-linecap="round" stroke-linejoin="round"/>
<path id="Vector_71" d="M173.656 100.496H171.696V155.524H173.656V100.496Z" fill="#263238" stroke="#263238" stroke-linecap="round" stroke-linejoin="round"/>
<path id="Vector_72" d="M172.612 119.744L167.976 116.056C166.004 114.485 164.525 112.38 163.714 109.993C162.904 107.605 162.796 105.035 163.404 102.588C163.582 101.874 163.994 101.239 164.574 100.785C165.153 100.331 165.867 100.083 166.604 100.08H178.604C179.34 100.082 180.055 100.329 180.635 100.784C181.215 101.238 181.626 101.873 181.804 102.588C182.412 105.035 182.306 107.605 181.496 109.992C180.686 112.38 179.207 114.485 177.236 116.056L172.612 119.744ZM166.612 101.956C166.291 101.955 165.98 102.062 165.727 102.259C165.475 102.456 165.296 102.733 165.22 103.044C164.697 105.141 164.788 107.344 165.483 109.391C166.177 111.438 167.445 113.242 169.136 114.588L172.604 117.348L176.076 114.588C177.767 113.242 179.036 111.439 179.732 109.392C180.428 107.345 180.521 105.142 180 103.044C179.923 102.733 179.744 102.457 179.492 102.26C179.239 102.063 178.928 101.956 178.608 101.956H166.612Z" fill="#263238"/>
<path id="Vector_73" d="M161.104 147.061H100.412V154.125H161.104V147.061Z" fill="white"/>
<g id="Clip path group_11">
<mask id="mask10_54957_111140" style="mask-type:luminance" maskUnits="userSpaceOnUse" x="100" y="147" width="62" height="8">
<g id="freepik--clip-path-11--inject-485">
<path id="Vector_74" d="M161.104 147.061H100.412V154.125H161.104V147.061Z" fill="white"/>
</g>
</mask>
<g mask="url(#mask10_54957_111140)">
<g id="Group_12">
<path id="Vector_75" opacity="0.28" d="M161.104 147.061H100.412V154.125H161.104V147.061Z" fill="black" stroke="#263238" stroke-linecap="round" stroke-linejoin="round"/>
</g>
</g>
</g>
<path id="Vector_76" d="M161.104 147.061H100.412V154.125H161.104V147.061Z" stroke="#263238" stroke-linecap="round" stroke-linejoin="round"/>
<path id="Vector_77" d="M107.212 147.061H100.412V154.125H107.212V147.061Z" stroke="#263238" stroke-linecap="round" stroke-linejoin="round"/>
<path id="Vector_78" d="M161.1 147.061H154.3V154.125H161.1V147.061Z" stroke="#263238" stroke-linecap="round" stroke-linejoin="round"/>
<path id="Vector_79" d="M134.156 147.061H127.356V154.125H134.156V147.061Z" stroke="#263238" stroke-linecap="round" stroke-linejoin="round"/>
<path id="Vector_80" d="M161.104 154.124H165.288L170.52 134.24H166.336L161.104 154.124Z" fill="white" stroke="#263238" stroke-linecap="round" stroke-linejoin="round"/>
<path id="Vector_81" d="M175.424 142.612H169.932V151.508H175.424V142.612Z" fill="white" stroke="#263238" stroke-linecap="round" stroke-linejoin="round"/>
<path id="Vector_82" d="M171.332 158.768C171.021 158.763 170.724 158.637 170.504 158.417C170.283 158.197 170.157 157.9 170.152 157.588V153.16C170.157 152.849 170.283 152.552 170.504 152.332C170.724 152.112 171.021 151.986 171.332 151.98C171.644 151.986 171.941 152.112 172.161 152.332C172.381 152.552 172.507 152.849 172.512 153.16V157.6C172.504 157.91 172.377 158.204 172.157 158.421C171.937 158.639 171.642 158.763 171.332 158.768Z" fill="#263238"/>
<path id="Vector_83" d="M174.136 158.768C173.825 158.763 173.528 158.637 173.307 158.417C173.087 158.197 172.961 157.9 172.956 157.588V153.16C172.961 152.849 173.087 152.552 173.307 152.332C173.528 152.112 173.825 151.986 174.136 151.98C174.451 151.98 174.753 152.104 174.978 152.325C175.202 152.546 175.331 152.846 175.336 153.16V157.6C175.328 157.913 175.198 158.21 174.973 158.428C174.749 158.647 174.449 158.769 174.136 158.768Z" fill="#263238"/>
</g>
<g id="freepik--Floor--inject-485">
<path id="Vector_84" d="M18.7275 158.768H184.252" stroke="#263238" stroke-linecap="round" stroke-linejoin="round"/>
</g>
<g id="freepik--Character--inject-485">
<path id="Vector_85" d="M75.8364 170.324C91.7952 170.324 104.732 168.751 104.732 166.812C104.732 164.872 91.7952 163.3 75.8364 163.3C59.8776 163.3 46.9404 164.872 46.9404 166.812C46.9404 168.751 59.8776 170.324 75.8364 170.324Z" fill="#C5C7C2"/>
<path id="Vector_86" opacity="0.5" d="M75.8364 170.324C91.7952 170.324 104.732 168.751 104.732 166.812C104.732 164.872 91.7952 163.3 75.8364 163.3C59.8776 163.3 46.9404 164.872 46.9404 166.812C46.9404 168.751 59.8776 170.324 75.8364 170.324Z" fill="white"/>
<path id="Vector_87" d="M135.632 166.8C135.632 167.768 129.18 168.552 121.232 168.552C113.284 168.552 106.832 167.752 106.832 166.8C106.832 165.848 113.28 165.052 121.232 165.052C129.184 165.052 135.632 165.848 135.632 166.8Z" fill="#C5C7C2"/>
<path id="Vector_88" opacity="0.5" d="M135.632 166.8C135.632 167.768 129.18 168.552 121.232 168.552C113.284 168.552 106.832 167.752 106.832 166.8C106.832 165.848 113.28 165.052 121.232 165.052C129.184 165.052 135.632 165.848 135.632 166.8Z" fill="white"/>
<path id="Vector_89" d="M81.6006 51.1161C81.6006 51.1161 79.3646 49.3601 76.8006 50.2361C74.2366 51.1121 72.2926 55.3841 71.6006 58.8561C70.9086 62.3281 68.2486 64.9601 68.8886 69.0321C69.5286 73.1041 74.1566 73.7401 79.7446 74.3401C85.3326 74.9401 88.3646 74.2601 90.9966 70.5881C93.6286 66.9161 92.5126 62.4481 90.9566 58.4961C89.4006 54.5441 86.8086 50.8761 84.6526 50.1961C82.4966 49.5161 81.6006 51.1161 81.6006 51.1161Z" fill="#263238" stroke="#263238" stroke-linecap="round" stroke-linejoin="round"/>
<path id="Vector_90" d="M72.3604 72C72.7377 72.1697 73.13 72.3036 73.5324 72.4" stroke="white" stroke-linecap="round" stroke-linejoin="round"/>
<path id="Vector_91" d="M81.0404 53.96C80.129 55.9961 78.9739 57.9141 77.6004 59.672C75.3124 62.612 70.2524 65.388 69.9284 68.472C69.8763 68.8849 69.9125 69.3041 70.0345 69.702C70.1566 70.0999 70.3617 70.4673 70.6364 70.78" stroke="white" stroke-linecap="round" stroke-linejoin="round"/>
<path id="Vector_92" d="M90.3244 68.708C90.159 69.0952 89.9468 69.4606 89.6924 69.796" stroke="white" stroke-linecap="round" stroke-linejoin="round"/>
<path id="Vector_93" d="M88.4004 60.9805C88.4004 60.9805 90.9724 63.9485 90.7244 67.1165" stroke="white" stroke-linecap="round" stroke-linejoin="round"/>
<path id="Vector_94" d="M80.5522 52.3244C79.5498 52.2224 78.5375 52.362 77.6 52.7315C76.6626 53.1011 75.8274 53.6898 75.1642 54.4484C75.0722 54.5524 74.9882 54.6564 74.9082 54.7604" stroke="white" stroke-linecap="round" stroke-linejoin="round"/>
<path id="Vector_95" d="M65.7962 127.72L65.2962 135.416C65.2962 135.416 63.1682 145.74 62.4962 149.996C61.8242 154.252 60.5922 160.724 60.3682 160.724C60.1442 160.724 56.4723 162.944 55.2963 164.756C54.1203 166.568 55.6122 167.336 57.2442 166.756C58.8762 166.176 61.0922 164.536 61.8162 162.588C62.5402 160.64 62.9002 159.916 62.9482 159.6C62.9962 159.284 70.7362 138.504 71.5042 136.284C72.2722 134.064 73.9042 127.544 73.9042 127.544L77.7082 114.64C77.7082 114.64 81.7802 127.908 81.8282 128.496C81.8762 129.084 86.0362 162.996 86.2282 164.264C86.4202 165.532 86.3642 166.436 87.1322 166.708C87.9002 166.98 89.7122 166.98 90.6642 166.98C91.6162 166.98 94.9202 167.48 96.5482 167.072C98.1762 166.664 98.3602 166.392 97.2282 165.576C96.0962 164.76 89.8082 164.24 89.2282 161.864C89.1802 161.684 89.1362 126.776 89.1362 126.776C89.1362 126.776 88.5922 115.232 87.6882 111.976H66.7682L65.7962 127.72Z" fill="white" stroke="#263238" stroke-linecap="round" stroke-linejoin="round"/>
<path id="Vector_96" d="M57.2406 166.748C58.8686 166.156 61.0886 164.528 61.8126 162.58L61.9646 162.18C61.0406 163.164 59.5646 164.532 59.5646 164.532C59.4741 164.068 59.2723 163.633 58.9766 163.264C58.8475 163.122 58.6822 163.018 58.4983 162.962C58.3144 162.906 58.1189 162.902 57.9326 162.948L59.5326 161.188C58.3326 161.932 56.1726 163.452 55.3246 164.76C54.1126 166.564 55.6006 167.336 57.2406 166.748Z" fill="#263238" stroke="#263238" stroke-linecap="round" stroke-linejoin="round"/>
<path id="Vector_97" d="M97.2004 165.568C96.4244 165.012 93.2364 164.592 91.1084 163.62C91.0206 163.695 90.952 163.789 90.9084 163.896C90.7733 164.28 90.6677 164.673 90.5924 165.072L86.1924 164.132V164.256C86.3724 165.524 86.3284 166.428 87.0964 166.7C87.8644 166.972 89.6764 166.972 90.6284 166.972C91.5804 166.972 94.8844 167.472 96.5124 167.064C98.1404 166.656 98.3484 166.4 97.2004 165.568Z" fill="#263238" stroke="#263238" stroke-linecap="round" stroke-linejoin="round"/>
<path id="Vector_98" d="M71.8921 93.2002C71.8921 93.2002 69.8161 94.1562 67.3041 98.6682C64.5561 103.592 65.0281 106.328 64.9881 112.268C64.9481 118.208 64.8281 128.068 64.8281 128.068C64.8281 128.068 72.4281 130.104 77.8801 129.784C83.3321 129.464 90.2481 128.228 90.2481 128.228C90.2481 128.228 88.7721 108.116 87.3761 102.332C85.9801 96.5482 85.1401 93.9322 85.1401 93.9322C82.442 94.3067 79.7081 94.347 77.0001 94.0522C72.3721 93.6002 71.8921 93.2002 71.8921 93.2002Z" fill="#263238" stroke="#263238" stroke-linecap="round" stroke-linejoin="round"/>
<path id="Vector_99" d="M80.6367 110.988C80.8447 111.672 81.0367 112.364 81.2047 113.056" stroke="white" stroke-linecap="round" stroke-linejoin="round"/>
<path id="Vector_100" d="M75.8164 99.668C77.4277 102.641 78.8104 105.733 79.9524 108.916" stroke="white" stroke-linecap="round" stroke-linejoin="round"/>
<path id="Vector_101" d="M122.848 89.3757C122.608 89.2157 118.676 88.5997 118.676 88.5997L117.908 88.2837C117.908 88.2837 122.668 88.6637 122.708 88.4637C122.748 88.2637 122.908 88.0237 122.588 87.9837C122.268 87.9437 116.144 86.6997 116.144 86.6997C116.144 86.6997 117.7 85.2277 117.9 84.9077C118.1 84.5877 118.376 83.9477 118.056 83.9477C117.736 83.9477 117.656 84.1477 117.22 84.4277C116.784 84.7077 115.064 85.3877 114.584 85.7837C114.104 86.1797 112.672 87.2197 112.672 87.2197L96.0402 84.9317C96.0402 84.9317 90.2002 77.7317 88.9322 76.1957C88.0507 75.1707 87.0473 74.2572 85.9442 73.4757C84.7202 72.9357 84.7442 73.8397 84.7442 73.8397L87.3002 85.1997C87.3002 85.1997 93.9122 89.1397 94.3202 89.1397C94.7282 89.1397 112.592 89.7317 112.592 89.7317C112.592 89.7317 113.792 90.2917 114.544 90.7677C115.296 91.2437 120.092 92.7677 120.092 92.7677C120.092 92.7677 120.412 92.6077 120.052 92.3277C119.692 92.0477 117.38 90.9317 117.38 90.9317L122.18 91.9717C122.18 91.9717 122.46 91.7717 122.34 91.5717C122.22 91.3717 117.94 89.7357 117.94 89.7357L122.74 89.9757C122.74 89.9757 123.084 89.5357 122.848 89.3757Z" fill="white" stroke="#263238" stroke-linecap="round" stroke-linejoin="round"/>
<path id="Vector_102" d="M95.0362 83.6957C93.3122 81.5717 89.8682 77.3317 88.9322 76.1957C88.0507 75.1707 87.0473 74.2572 85.9442 73.4757C84.7202 72.9357 84.7442 73.8397 84.7442 73.8397L87.3002 85.1997C87.3002 85.1997 90.2842 86.9757 92.3642 88.1437L95.0362 83.6957Z" fill="white" stroke="#263238" stroke-linecap="round" stroke-linejoin="round"/>
<path id="Vector_103" d="M77.3609 72.5045C77.3609 72.5045 73.8889 72.6645 71.7609 75.0205C69.6329 77.3765 69.8849 82.5605 70.7649 85.6725C71.6449 88.7845 72.7649 90.5005 72.5209 91.5805C72.2769 92.6605 71.4049 93.0165 71.8809 94.0125C72.3569 95.0085 75.1129 96.0885 79.9809 95.9285C84.8489 95.7685 85.7689 94.7285 85.8089 93.8165C85.8489 92.9045 85.4889 92.1405 85.6089 91.5805C85.7289 91.0205 89.2409 87.9085 89.2409 84.4765C89.2409 81.0445 87.7249 79.8485 87.3649 77.3725C87.0049 74.8965 87.1249 74.5405 85.6489 73.4605C84.1729 72.3805 79.3169 71.8245 77.3609 72.5045Z" fill="white" stroke="#263238" stroke-linecap="round" stroke-linejoin="round"/>
<path id="Vector_104" d="M75.7841 84.4004C74.6236 85.3714 73.3357 86.1789 71.9561 86.8004" stroke="#263238" stroke-linecap="round" stroke-linejoin="round"/>
<path id="Vector_105" d="M76.1682 84.7998C76.1682 84.7998 75.3082 87.5758 73.2002 89.1078" stroke="#263238" stroke-linecap="round" stroke-linejoin="round"/>
<path id="Vector_106" d="M84.7849 75.0156L85.1849 78.8476L83.5049 76.8916L84.7849 75.0156Z" fill="white" stroke="#263238" stroke-linecap="round" stroke-linejoin="round"/>
<path id="Vector_107" d="M82.5488 79.1682L84.7848 75.0162L82.7488 72.8242L82.5488 79.1682Z" fill="white" stroke="#263238" stroke-linecap="round" stroke-linejoin="round"/>
<path id="Vector_108" d="M78.2402 65.7197C78.5889 67.1032 78.7622 68.525 78.7562 69.9517C78.7446 70.8755 78.6509 71.7965 78.4762 72.7037L82.5482 79.1677L83.7042 73.1677L84.4642 69.0157C84.4642 69.0157 79.8362 68.7517 78.2402 65.7197Z" fill="white" stroke="#263238" stroke-linecap="round" stroke-linejoin="round"/>
<path id="Vector_109" d="M82.3085 75.6963L82.5485 79.1683L81.3525 77.2923L82.3085 75.6963Z" fill="white" stroke="#263238" stroke-linecap="round" stroke-linejoin="round"/>
<path id="Vector_110" d="M77.1201 72.5446L80.8321 79.2086L82.3081 75.6966L78.3601 70.2686L77.1201 72.5446Z" fill="white" stroke="#263238" stroke-linecap="round" stroke-linejoin="round"/>
<path id="Vector_111" d="M142.153 75.6523H108.469V103.292H142.153V75.6523Z" fill="#C5C7C2"/>
<g id="Clip path group_12">
<mask id="mask11_54957_111140" style="mask-type:luminance" maskUnits="userSpaceOnUse" x="108" y="75" width="35" height="29">
<g id="freepik--clip-path-12--inject-485">
<path id="Vector_112" d="M142.153 75.6523H108.469V103.292H142.153V75.6523Z" fill="white"/>
</g>
</mask>
<g mask="url(#mask11_54957_111140)">
<g id="Group_13">
<path id="Vector_113" opacity="0.2" d="M142.153 75.6523H108.469V103.292H142.153V75.6523Z" fill="black"/>
</g>
</g>
</g>
<path id="Vector_114" d="M142.153 75.6523H108.469V103.292H142.153V75.6523Z" stroke="#263238" stroke-linecap="round" stroke-linejoin="round"/>
<path id="Vector_115" d="M135.02 75.6523H101.336V103.292H135.02V75.6523Z" fill="#C5C7C2" stroke="#263238" stroke-linecap="round" stroke-linejoin="round"/>
<path id="Vector_116" d="M147.7 112.596C146.62 110.884 142.152 103.292 142.152 103.292H135.024L138.692 112.596H147.7Z" fill="#C5C7C2"/>
<g id="Clip path group_13">
<mask id="mask12_54957_111140" style="mask-type:luminance" maskUnits="userSpaceOnUse" x="135" y="103" width="13" height="10">
<g id="freepik--clip-path-13--inject-485">
<path id="Vector_117" d="M147.7 112.596C146.62 110.884 142.152 103.292 142.152 103.292H135.024L138.692 112.596H147.7Z" fill="white"/>
</g>
</mask>
<g mask="url(#mask12_54957_111140)">
<g id="Group_14">
<path id="Vector_118" opacity="0.2" d="M147.7 112.596C146.62 110.884 142.152 103.292 142.152 103.292H135.024L138.692 112.596H147.7Z" fill="black"/>
</g>
</g>
</g>
<path id="Vector_119" d="M147.7 112.596C146.62 110.884 142.152 103.292 142.152 103.292H135.024L138.692 112.596H147.7Z" stroke="#263238" stroke-linecap="round" stroke-linejoin="round"/>
<path id="Vector_120" d="M95.7686 112.596C96.8486 110.884 101.313 103.292 101.313 103.292H108.445L104.777 112.596H95.7686Z" fill="#C5C7C2" stroke="#263238" stroke-linecap="round" stroke-linejoin="round"/>
<path id="Vector_121" d="M101.313 103.292L98.2129 112.596H133.393L135.025 103.292H101.313Z" fill="#C5C7C2" stroke="#263238" stroke-linecap="round" stroke-linejoin="round"/>
<path id="Vector_122" d="M146.488 85.6523V94.9083" stroke="#263238" stroke-linecap="round" stroke-linejoin="round"/>
<path id="Vector_123" d="M148.24 89.6562V97.1602" stroke="#263238" stroke-linecap="round" stroke-linejoin="round"/>
<path id="Vector_124" d="M97.7168 94.9082V100.66" stroke="#263238" stroke-linecap="round" stroke-linejoin="round"/>
<path id="Vector_125" d="M96.2168 98.1602V102.66" stroke="#263238" stroke-linecap="round" stroke-linejoin="round"/>
<g id="Vector_126">
<path d="M71.5723 82.4403C72.766 83.7923 74.1514 84.962 75.6843 85.9123C78.0843 87.3483 86.8843 92.3363 87.5763 92.6163C88.2683 92.8963 109.284 89.4643 109.284 89.4643C109.284 89.4643 110.484 90.0243 111.24 90.5003C111.996 90.9763 116.788 92.5003 116.788 92.5003C116.788 92.5003 117.108 92.3403 116.748 92.0643C116.388 91.7883 114.076 90.6643 114.076 90.6643L118.876 91.7043C118.876 91.7043 119.156 91.5043 119.036 91.3043C118.916 91.1043 114.636 89.4683 114.636 89.4683L119.436 89.7083C119.436 89.7083 119.796 89.2683 119.556 89.1083C119.316 88.9483 114.4 87.8283 114.4 87.8283C114.4 87.8283 119.628 87.3883 119.668 87.1883C119.708 86.9883 119.868 86.7523 119.548 86.7123C119.228 86.6723 112.684 86.0323 112.684 86.0323C112.684 86.0323 114.4 84.9563 114.6 84.6363C114.8 84.3163 115.08 83.6763 114.76 83.6763C114.44 83.6763 114.36 83.8763 113.924 84.1563C113.488 84.4363 111.768 85.1163 111.288 85.5123C110.808 85.9083 109.372 86.9523 109.372 86.9523L90.1403 86.9923L78.2003 77.5723" fill="white"/>
<path d="M71.5723 82.4403C72.766 83.7923 74.1514 84.962 75.6843 85.9123C78.0843 87.3483 86.8843 92.3363 87.5763 92.6163C88.2683 92.8963 109.284 89.4643 109.284 89.4643C109.284 89.4643 110.484 90.0243 111.24 90.5003C111.996 90.9763 116.788 92.5003 116.788 92.5003C116.788 92.5003 117.108 92.3403 116.748 92.0643C116.388 91.7883 114.076 90.6643 114.076 90.6643L118.876 91.7043C118.876 91.7043 119.156 91.5043 119.036 91.3043C118.916 91.1043 114.636 89.4683 114.636 89.4683L119.436 89.7083C119.436 89.7083 119.796 89.2683 119.556 89.1083C119.316 88.9483 114.4 87.8283 114.4 87.8283C114.4 87.8283 119.628 87.3883 119.668 87.1883C119.708 86.9883 119.868 86.7523 119.548 86.7123C119.228 86.6723 112.684 86.0323 112.684 86.0323C112.684 86.0323 114.4 84.9563 114.6 84.6363C114.8 84.3163 115.08 83.6763 114.76 83.6763C114.44 83.6763 114.36 83.8763 113.924 84.1563C113.488 84.4363 111.768 85.1163 111.288 85.5123C110.808 85.9083 109.372 86.9523 109.372 86.9523L90.1403 86.9923L78.2003 77.5723" stroke="#263238" stroke-linecap="round" stroke-linejoin="round"/>
</g>
<path id="Vector_127" d="M119.54 86.7118C119.224 86.6718 112.676 86.0318 112.676 86.0318C112.676 86.0318 114.392 84.9558 114.592 84.6358C114.792 84.3158 115.072 83.6758 114.752 83.6758C114.432 83.6758 114.352 83.8758 113.916 84.1558C113.48 84.4358 111.76 85.1158 111.28 85.5118C110.8 85.9078 109.364 86.9518 109.364 86.9518L90.1324 86.9918L88.0004 85.2998C87.2004 86.7038 85.7044 89.3358 84.7324 91.0718C86.2284 91.9038 87.3604 92.5238 87.5884 92.6158C88.2684 92.8958 109.296 89.4638 109.296 89.4638C109.296 89.4638 110.496 90.0238 111.252 90.4998C112.008 90.9758 116.8 92.4998 116.8 92.4998C116.8 92.4998 117.12 92.3398 116.76 92.0638C116.4 91.7878 114.088 90.6638 114.088 90.6638L118.888 91.7038C118.888 91.7038 119.168 91.5038 119.048 91.3038C118.928 91.1038 114.648 89.4678 114.648 89.4678L119.448 89.7078C119.448 89.7078 119.808 89.2678 119.568 89.1078C119.328 88.9478 114.4 87.8278 114.4 87.8278C114.4 87.8278 119.628 87.3878 119.668 87.1878C119.708 86.9878 119.86 86.7518 119.54 86.7118Z" fill="white" stroke="#263238" stroke-linecap="round" stroke-linejoin="round"/>
<path id="Vector_128" d="M87.3364 62.3685C87.4046 62.2857 87.4947 62.2238 87.5963 62.1898C87.698 62.1557 87.8072 62.1509 87.9115 62.176C88.0157 62.201 88.1108 62.2548 88.186 62.3313C88.2611 62.4078 88.3133 62.5038 88.3364 62.6085C88.4033 63.0424 88.381 63.4854 88.2709 63.9104C88.1609 64.3354 87.9654 64.7335 87.6964 65.0805C87.2564 65.5205 86.8564 65.6405 86.8564 65.0805C86.9675 64.1685 87.1278 63.2632 87.3364 62.3685Z" fill="white" stroke="#263238" stroke-linecap="round" stroke-linejoin="round"/>
<path id="Vector_129" d="M82.4245 55.376C82.2842 57.3226 81.4512 59.1546 80.0765 60.54C78.7957 61.7994 77.3474 62.8762 75.7725 63.74C75.7725 63.74 76.0045 64.992 76.4765 65.384C76.9485 65.776 77.8845 65.7 77.8845 65.7C78.4286 67.1878 79.3136 68.5275 80.4685 69.612C82.3445 71.332 84.5365 71.176 85.7885 68.596C87.0405 66.016 87.6685 63.428 87.5125 61.94L87.3565 60.452C87.3565 60.452 83.2845 58.192 82.4245 55.376Z" fill="white" stroke="#263238" stroke-linecap="round" stroke-linejoin="round"/>
<path id="Vector_130" d="M82.1881 63.112C82.3869 63.112 82.5481 62.8255 82.5481 62.472C82.5481 62.1186 82.3869 61.832 82.1881 61.832C81.9893 61.832 81.8281 62.1186 81.8281 62.472C81.8281 62.8255 81.9893 63.112 82.1881 63.112Z" fill="#263238"/>
<path id="Vector_131" d="M84.1442 68.2204C84.343 68.2204 84.5042 67.9339 84.5042 67.5804C84.5042 67.227 84.343 66.9404 84.1442 66.9404C83.9454 66.9404 83.7842 67.227 83.7842 67.5804C83.7842 67.9339 83.9454 68.2204 84.1442 68.2204Z" fill="#263238"/>
<path id="Vector_132" d="M85.6608 63.112C85.8596 63.112 86.0208 62.8255 86.0208 62.472C86.0208 62.1186 85.8596 61.832 85.6608 61.832C85.462 61.832 85.3008 62.1186 85.3008 62.472C85.3008 62.8255 85.462 63.112 85.6608 63.112Z" fill="#263238"/>
<path id="Vector_133" d="M84.9401 61.792C84.8026 62.2712 84.7618 62.7729 84.8201 63.268C84.9401 63.948 85.5001 65.104 85.0201 65.304C84.801 65.4039 84.5588 65.4418 84.3197 65.4136C84.0806 65.3854 83.8538 65.2921 83.6641 65.144" stroke="#263238" stroke-linecap="round" stroke-linejoin="round"/>
<path id="Vector_134" d="M81.1484 61.3159C81.1484 61.3159 81.3404 60.0919 82.9444 60.2319" stroke="#263238" stroke-linecap="round" stroke-linejoin="round"/>
<path id="Vector_135" d="M85.4443 60.6085C85.4443 60.6085 86.9403 59.4085 87.4243 61.6045" stroke="#263238" stroke-linecap="round" stroke-linejoin="round"/>
</g>
</g>
</svg>
