<svg width="236" height="236" viewBox="0 0 236 236" fill="none" xmlns="http://www.w3.org/2000/svg">
<g filter="url(#filter0_bd_55247_57352)">
<g clip-path="url(#clip0_55247_57352)">
<rect x="4" y="3" width="228" height="228" rx="16" fill="#8F918D"/>
<path d="M232 3H4V231H232V3Z" fill="white"/>
<path d="M79.9999 16.8184H73.0908V23.7275H79.9999V16.8184Z" fill="black"/>
<path d="M86.9091 16.8184H80V23.7275H86.9091V16.8184Z" fill="black"/>
<path d="M93.8183 16.8184H86.9092V23.7275H93.8183V16.8184Z" fill="black"/>
<path d="M128.364 16.8184H121.455V23.7275H128.364V16.8184Z" fill="black"/>
<path d="M135.273 16.8184H128.364V23.7275H135.273V16.8184Z" fill="black"/>
<path d="M142.182 16.8184H135.272V23.7275H142.182V16.8184Z" fill="black"/>
<path d="M93.8183 23.7275H86.9092V30.6366H93.8183V23.7275Z" fill="black"/>
<path d="M100.727 23.7275H93.8184V30.6366H100.727V23.7275Z" fill="black"/>
<path d="M107.637 23.7275H100.728V30.6366H107.637V23.7275Z" fill="black"/>
<path d="M114.546 23.7275H107.637V30.6366H114.546V23.7275Z" fill="black"/>
<path d="M121.455 23.7275H114.546V30.6366H121.455V23.7275Z" fill="black"/>
<path d="M135.273 23.7275H128.364V30.6366H135.273V23.7275Z" fill="black"/>
<path d="M142.182 23.7275H135.272V30.6366H142.182V23.7275Z" fill="black"/>
<path d="M162.909 23.7275H156V30.6366H162.909V23.7275Z" fill="black"/>
<path d="M79.9999 30.6367H73.0908V37.5458H79.9999V30.6367Z" fill="black"/>
<path d="M93.8183 30.6367H86.9092V37.5458H93.8183V30.6367Z" fill="black"/>
<path d="M100.727 30.6367H93.8184V37.5458H100.727V30.6367Z" fill="black"/>
<path d="M121.455 30.6367H114.546V37.5458H121.455V30.6367Z" fill="black"/>
<path d="M128.364 30.6367H121.455V37.5458H128.364V30.6367Z" fill="black"/>
<path d="M135.273 30.6367H128.364V37.5458H135.273V30.6367Z" fill="black"/>
<path d="M142.182 30.6367H135.272V37.5458H142.182V30.6367Z" fill="black"/>
<path d="M162.909 30.6367H156V37.5458H162.909V30.6367Z" fill="black"/>
<path d="M86.9091 37.5459H80V44.455H86.9091V37.5459Z" fill="black"/>
<path d="M93.8183 37.5459H86.9092V44.455H93.8183V37.5459Z" fill="black"/>
<path d="M107.637 37.5459H100.728V44.455H107.637V37.5459Z" fill="black"/>
<path d="M121.455 37.5459H114.546V44.455H121.455V37.5459Z" fill="black"/>
<path d="M142.182 37.5459H135.272V44.455H142.182V37.5459Z" fill="black"/>
<path d="M156 37.5459H149.091V44.455H156V37.5459Z" fill="black"/>
<path d="M86.9091 44.4551H80V51.3642H86.9091V44.4551Z" fill="black"/>
<path d="M93.8183 44.4551H86.9092V51.3642H93.8183V44.4551Z" fill="black"/>
<path d="M100.727 44.4551H93.8184V51.3642H100.727V44.4551Z" fill="black"/>
<path d="M114.546 44.4551H107.637V51.3642H114.546V44.4551Z" fill="black"/>
<path d="M121.455 44.4551H114.546V51.3642H121.455V44.4551Z" fill="black"/>
<path d="M128.364 44.4551H121.455V51.3642H128.364V44.4551Z" fill="black"/>
<path d="M149.091 44.4551H142.182V51.3642H149.091V44.4551Z" fill="black"/>
<path d="M79.9999 51.3643H73.0908V58.2733H79.9999V51.3643Z" fill="black"/>
<path d="M93.8183 51.3643H86.9092V58.2733H93.8183V51.3643Z" fill="black"/>
<path d="M100.727 51.3643H93.8184V58.2733H100.727V51.3643Z" fill="black"/>
<path d="M107.637 51.3643H100.728V58.2733H107.637V51.3643Z" fill="black"/>
<path d="M128.364 51.3643H121.455V58.2733H128.364V51.3643Z" fill="black"/>
<path d="M142.182 51.3643H135.272V58.2733H142.182V51.3643Z" fill="black"/>
<path d="M149.091 51.3643H142.182V58.2733H149.091V51.3643Z" fill="black"/>
<path d="M79.9999 58.2725H73.0908V65.1816H79.9999V58.2725Z" fill="black"/>
<path d="M93.8183 58.2725H86.9092V65.1816H93.8183V58.2725Z" fill="black"/>
<path d="M107.637 58.2725H100.728V65.1816H107.637V58.2725Z" fill="black"/>
<path d="M121.455 58.2725H114.546V65.1816H121.455V58.2725Z" fill="black"/>
<path d="M135.273 58.2725H128.364V65.1816H135.273V58.2725Z" fill="black"/>
<path d="M149.091 58.2725H142.182V65.1816H149.091V58.2725Z" fill="black"/>
<path d="M162.909 58.2725H156V65.1816H162.909V58.2725Z" fill="black"/>
<path d="M86.9091 65.1816H80V72.0907H86.9091V65.1816Z" fill="black"/>
<path d="M100.727 65.1816H93.8184V72.0907H100.727V65.1816Z" fill="black"/>
<path d="M107.637 65.1816H100.728V72.0907H107.637V65.1816Z" fill="black"/>
<path d="M121.455 65.1816H114.546V72.0907H121.455V65.1816Z" fill="black"/>
<path d="M128.364 65.1816H121.455V72.0907H128.364V65.1816Z" fill="black"/>
<path d="M135.273 65.1816H128.364V72.0907H135.273V65.1816Z" fill="black"/>
<path d="M156 65.1816H149.091V72.0907H156V65.1816Z" fill="black"/>
<path d="M162.909 65.1816H156V72.0907H162.909V65.1816Z" fill="black"/>
<path d="M24.7275 72.0908H17.8184V78.9999H24.7275V72.0908Z" fill="black"/>
<path d="M38.5458 72.0908H31.6367V78.9999H38.5458V72.0908Z" fill="black"/>
<path d="M66.1816 72.0908H59.2725V78.9999H66.1816V72.0908Z" fill="black"/>
<path d="M73.0907 72.0908H66.1816V78.9999H73.0907V72.0908Z" fill="black"/>
<path d="M114.546 72.0908H107.637V78.9999H114.546V72.0908Z" fill="black"/>
<path d="M121.455 72.0908H114.546V78.9999H121.455V72.0908Z" fill="black"/>
<path d="M162.909 72.0908H156V78.9999H162.909V72.0908Z" fill="black"/>
<path d="M183.637 72.0908H176.728V78.9999H183.637V72.0908Z" fill="black"/>
<path d="M204.364 72.0908H197.455V78.9999H204.364V72.0908Z" fill="black"/>
<path d="M218.182 72.0908H211.273V78.9999H218.182V72.0908Z" fill="black"/>
<path d="M24.7275 79H17.8184V85.9091H24.7275V79Z" fill="black"/>
<path d="M31.6366 79H24.7275V85.9091H31.6366V79Z" fill="black"/>
<path d="M38.5458 79H31.6367V85.9091H38.5458V79Z" fill="black"/>
<path d="M45.455 79H38.5459V85.9091H45.455V79Z" fill="black"/>
<path d="M59.2733 79H52.3643V85.9091H59.2733V79Z" fill="black"/>
<path d="M73.0907 79H66.1816V85.9091H73.0907V79Z" fill="black"/>
<path d="M86.9091 79H80V85.9091H86.9091V79Z" fill="black"/>
<path d="M114.546 79H107.637V85.9091H114.546V79Z" fill="black"/>
<path d="M121.455 79H114.546V85.9091H121.455V79Z" fill="black"/>
<path d="M156 79H149.091V85.9091H156V79Z" fill="black"/>
<path d="M162.909 79H156V85.9091H162.909V79Z" fill="black"/>
<path d="M176.727 79H169.818V85.9091H176.727V79Z" fill="black"/>
<path d="M183.637 79H176.728V85.9091H183.637V79Z" fill="black"/>
<path d="M211.273 79H204.364V85.9091H211.273V79Z" fill="black"/>
<path d="M218.182 79H211.273V85.9091H218.182V79Z" fill="black"/>
<path d="M31.6366 85.9092H24.7275V92.8183H31.6366V85.9092Z" fill="black"/>
<path d="M38.5458 85.9092H31.6367V92.8183H38.5458V85.9092Z" fill="black"/>
<path d="M45.455 85.9092H38.5459V92.8183H45.455V85.9092Z" fill="black"/>
<path d="M52.3642 85.9092H45.4551V92.8183H52.3642V85.9092Z" fill="black"/>
<path d="M66.1816 85.9092H59.2725V92.8183H66.1816V85.9092Z" fill="black"/>
<path d="M73.0907 85.9092H66.1816V92.8183H73.0907V85.9092Z" fill="black"/>
<path d="M100.727 85.9092H93.8184V92.8183H100.727V85.9092Z" fill="black"/>
<path d="M107.637 85.9092H100.728V92.8183H107.637V85.9092Z" fill="black"/>
<path d="M128.364 85.9092H121.455V92.8183H128.364V85.9092Z" fill="black"/>
<path d="M149.091 85.9092H142.182V92.8183H149.091V85.9092Z" fill="black"/>
<path d="M156 85.9092H149.091V92.8183H156V85.9092Z" fill="black"/>
<path d="M183.637 85.9092H176.728V92.8183H183.637V85.9092Z" fill="black"/>
<path d="M197.455 85.9092H190.545V92.8183H197.455V85.9092Z" fill="black"/>
<path d="M204.364 85.9092H197.455V92.8183H204.364V85.9092Z" fill="black"/>
<path d="M218.182 85.9092H211.273V92.8183H218.182V85.9092Z" fill="black"/>
<path d="M24.7275 92.8184H17.8184V99.7275H24.7275V92.8184Z" fill="black"/>
<path d="M52.3642 92.8184H45.4551V99.7275H52.3642V92.8184Z" fill="black"/>
<path d="M73.0907 92.8184H66.1816V99.7275H73.0907V92.8184Z" fill="black"/>
<path d="M79.9999 92.8184H73.0908V99.7275H79.9999V92.8184Z" fill="black"/>
<path d="M86.9091 92.8184H80V99.7275H86.9091V92.8184Z" fill="black"/>
<path d="M93.8183 92.8184H86.9092V99.7275H93.8183V92.8184Z" fill="black"/>
<path d="M100.727 92.8184H93.8184V99.7275H100.727V92.8184Z" fill="black"/>
<path d="M107.637 92.8184H100.728V99.7275H107.637V92.8184Z" fill="black"/>
<path d="M114.546 92.8184H107.637V99.7275H114.546V92.8184Z" fill="black"/>
<path d="M149.091 92.8184H142.182V99.7275H149.091V92.8184Z" fill="black"/>
<path d="M169.818 92.8184H162.909V99.7275H169.818V92.8184Z" fill="black"/>
<path d="M183.637 92.8184H176.728V99.7275H183.637V92.8184Z" fill="black"/>
<path d="M190.546 92.8184H183.637V99.7275H190.546V92.8184Z" fill="black"/>
<path d="M197.455 92.8184H190.545V99.7275H197.455V92.8184Z" fill="black"/>
<path d="M52.3642 99.7275H45.4551V106.637H52.3642V99.7275Z" fill="black"/>
<path d="M59.2733 99.7275H52.3643V106.637H59.2733V99.7275Z" fill="black"/>
<path d="M66.1816 99.7275H59.2725V106.637H66.1816V99.7275Z" fill="black"/>
<path d="M73.0907 99.7275H66.1816V106.637H73.0907V99.7275Z" fill="black"/>
<path d="M86.9091 99.7275H80V106.637H86.9091V99.7275Z" fill="black"/>
<path d="M93.8183 99.7275H86.9092V106.637H93.8183V99.7275Z" fill="black"/>
<path d="M114.546 99.7275H107.637V106.637H114.546V99.7275Z" fill="black"/>
<path d="M128.364 99.7275H121.455V106.637H128.364V99.7275Z" fill="black"/>
<path d="M135.273 99.7275H128.364V106.637H135.273V99.7275Z" fill="black"/>
<path d="M162.909 99.7275H156V106.637H162.909V99.7275Z" fill="black"/>
<path d="M176.727 99.7275H169.818V106.637H176.727V99.7275Z" fill="black"/>
<path d="M183.637 99.7275H176.728V106.637H183.637V99.7275Z" fill="black"/>
<path d="M218.182 99.7275H211.273V106.637H218.182V99.7275Z" fill="black"/>
<path d="M45.455 106.637H38.5459V113.546H45.455V106.637Z" fill="black"/>
<path d="M52.3642 106.637H45.4551V113.546H52.3642V106.637Z" fill="black"/>
<path d="M86.9091 106.637H80V113.546H86.9091V106.637Z" fill="black"/>
<path d="M100.727 106.637H93.8184V113.546H100.727V106.637Z" fill="black"/>
<path d="M135.273 106.637H128.364V113.546H135.273V106.637Z" fill="black"/>
<path d="M142.182 106.637H135.272V113.546H142.182V106.637Z" fill="black"/>
<path d="M156 106.637H149.091V113.546H156V106.637Z" fill="black"/>
<path d="M162.909 106.637H156V113.546H162.909V106.637Z" fill="black"/>
<path d="M176.727 106.637H169.818V113.546H176.727V106.637Z" fill="black"/>
<path d="M211.273 106.637H204.364V113.546H211.273V106.637Z" fill="black"/>
<path d="M218.182 106.637H211.273V113.546H218.182V106.637Z" fill="black"/>
<path d="M24.7275 113.546H17.8184V120.455H24.7275V113.546Z" fill="black"/>
<path d="M31.6366 113.546H24.7275V120.455H31.6366V113.546Z" fill="black"/>
<path d="M52.3642 113.546H45.4551V120.455H52.3642V113.546Z" fill="black"/>
<path d="M66.1816 113.546H59.2725V120.455H66.1816V113.546Z" fill="black"/>
<path d="M86.9091 113.546H80V120.455H86.9091V113.546Z" fill="black"/>
<path d="M107.637 113.546H100.728V120.455H107.637V113.546Z" fill="black"/>
<path d="M114.546 113.546H107.637V120.455H114.546V113.546Z" fill="black"/>
<path d="M121.455 113.546H114.546V120.455H121.455V113.546Z" fill="black"/>
<path d="M135.273 113.546H128.364V120.455H135.273V113.546Z" fill="black"/>
<path d="M156 113.546H149.091V120.455H156V113.546Z" fill="black"/>
<path d="M162.909 113.546H156V120.455H162.909V113.546Z" fill="black"/>
<path d="M176.727 113.546H169.818V120.455H176.727V113.546Z" fill="black"/>
<path d="M218.182 113.546H211.273V120.455H218.182V113.546Z" fill="black"/>
<path d="M45.455 120.455H38.5459V127.364H45.455V120.455Z" fill="black"/>
<path d="M59.2733 120.455H52.3643V127.364H59.2733V120.455Z" fill="black"/>
<path d="M79.9999 120.455H73.0908V127.364H79.9999V120.455Z" fill="black"/>
<path d="M121.455 120.455H114.546V127.364H121.455V120.455Z" fill="black"/>
<path d="M128.364 120.455H121.455V127.364H128.364V120.455Z" fill="black"/>
<path d="M135.273 120.455H128.364V127.364H135.273V120.455Z" fill="black"/>
<path d="M149.091 120.455H142.182V127.364H149.091V120.455Z" fill="black"/>
<path d="M162.909 120.455H156V127.364H162.909V120.455Z" fill="black"/>
<path d="M169.818 120.455H162.909V127.364H169.818V120.455Z" fill="black"/>
<path d="M183.637 120.455H176.728V127.364H183.637V120.455Z" fill="black"/>
<path d="M24.7275 127.364H17.8184V134.273H24.7275V127.364Z" fill="black"/>
<path d="M31.6366 127.364H24.7275V134.273H31.6366V127.364Z" fill="black"/>
<path d="M38.5458 127.364H31.6367V134.273H38.5458V127.364Z" fill="black"/>
<path d="M52.3642 127.364H45.4551V134.273H52.3642V127.364Z" fill="black"/>
<path d="M59.2733 127.364H52.3643V134.273H59.2733V127.364Z" fill="black"/>
<path d="M66.1816 127.364H59.2725V134.273H66.1816V127.364Z" fill="black"/>
<path d="M73.0907 127.364H66.1816V134.273H73.0907V127.364Z" fill="black"/>
<path d="M86.9091 127.364H80V134.273H86.9091V127.364Z" fill="black"/>
<path d="M93.8183 127.364H86.9092V134.273H93.8183V127.364Z" fill="black"/>
<path d="M100.727 127.364H93.8184V134.273H100.727V127.364Z" fill="black"/>
<path d="M107.637 127.364H100.728V134.273H107.637V127.364Z" fill="black"/>
<path d="M114.546 127.364H107.637V134.273H114.546V127.364Z" fill="black"/>
<path d="M121.455 127.364H114.546V134.273H121.455V127.364Z" fill="black"/>
<path d="M135.273 127.364H128.364V134.273H135.273V127.364Z" fill="black"/>
<path d="M162.909 127.364H156V134.273H162.909V127.364Z" fill="black"/>
<path d="M176.727 127.364H169.818V134.273H176.727V127.364Z" fill="black"/>
<path d="M218.182 127.364H211.273V134.273H218.182V127.364Z" fill="black"/>
<path d="M31.6366 134.272H24.7275V141.182H31.6366V134.272Z" fill="black"/>
<path d="M52.3642 134.272H45.4551V141.182H52.3642V134.272Z" fill="black"/>
<path d="M73.0907 134.272H66.1816V141.182H73.0907V134.272Z" fill="black"/>
<path d="M79.9999 134.272H73.0908V141.182H79.9999V134.272Z" fill="black"/>
<path d="M86.9091 134.272H80V141.182H86.9091V134.272Z" fill="black"/>
<path d="M100.727 134.272H93.8184V141.182H100.727V134.272Z" fill="black"/>
<path d="M114.546 134.272H107.637V141.182H114.546V134.272Z" fill="black"/>
<path d="M121.455 134.272H114.546V141.182H121.455V134.272Z" fill="black"/>
<path d="M142.182 134.272H135.272V141.182H142.182V134.272Z" fill="black"/>
<path d="M156 134.272H149.091V141.182H156V134.272Z" fill="black"/>
<path d="M162.909 134.272H156V141.182H162.909V134.272Z" fill="black"/>
<path d="M176.727 134.272H169.818V141.182H176.727V134.272Z" fill="black"/>
<path d="M183.637 134.272H176.728V141.182H183.637V134.272Z" fill="black"/>
<path d="M204.364 134.272H197.455V141.182H204.364V134.272Z" fill="black"/>
<path d="M211.273 134.272H204.364V141.182H211.273V134.272Z" fill="black"/>
<path d="M218.182 134.272H211.273V141.182H218.182V134.272Z" fill="black"/>
<path d="M24.7275 141.182H17.8184V148.091H24.7275V141.182Z" fill="black"/>
<path d="M31.6366 141.182H24.7275V148.091H31.6366V141.182Z" fill="black"/>
<path d="M52.3642 141.182H45.4551V148.091H52.3642V141.182Z" fill="black"/>
<path d="M59.2733 141.182H52.3643V148.091H59.2733V141.182Z" fill="black"/>
<path d="M66.1816 141.182H59.2725V148.091H66.1816V141.182Z" fill="black"/>
<path d="M73.0907 141.182H66.1816V148.091H73.0907V141.182Z" fill="black"/>
<path d="M86.9091 141.182H80V148.091H86.9091V141.182Z" fill="black"/>
<path d="M93.8183 141.182H86.9092V148.091H93.8183V141.182Z" fill="black"/>
<path d="M100.727 141.182H93.8184V148.091H100.727V141.182Z" fill="black"/>
<path d="M128.364 141.182H121.455V148.091H128.364V141.182Z" fill="black"/>
<path d="M135.273 141.182H128.364V148.091H135.273V141.182Z" fill="black"/>
<path d="M142.182 141.182H135.272V148.091H142.182V141.182Z" fill="black"/>
<path d="M156 141.182H149.091V148.091H156V141.182Z" fill="black"/>
<path d="M197.455 141.182H190.545V148.091H197.455V141.182Z" fill="black"/>
<path d="M218.182 141.182H211.273V148.091H218.182V141.182Z" fill="black"/>
<path d="M52.3642 148.091H45.4551V155H52.3642V148.091Z" fill="black"/>
<path d="M59.2733 148.091H52.3643V155H59.2733V148.091Z" fill="black"/>
<path d="M86.9091 148.091H80V155H86.9091V148.091Z" fill="black"/>
<path d="M93.8183 148.091H86.9092V155H93.8183V148.091Z" fill="black"/>
<path d="M107.637 148.091H100.728V155H107.637V148.091Z" fill="black"/>
<path d="M114.546 148.091H107.637V155H114.546V148.091Z" fill="black"/>
<path d="M135.273 148.091H128.364V155H135.273V148.091Z" fill="black"/>
<path d="M149.091 148.091H142.182V155H149.091V148.091Z" fill="black"/>
<path d="M169.818 148.091H162.909V155H169.818V148.091Z" fill="black"/>
<path d="M183.637 148.091H176.728V155H183.637V148.091Z" fill="black"/>
<path d="M24.7275 155H17.8184V161.909H24.7275V155Z" fill="black"/>
<path d="M31.6366 155H24.7275V161.909H31.6366V155Z" fill="black"/>
<path d="M45.455 155H38.5459V161.909H45.455V155Z" fill="black"/>
<path d="M52.3642 155H45.4551V161.909H52.3642V155Z" fill="black"/>
<path d="M66.1816 155H59.2725V161.909H66.1816V155Z" fill="black"/>
<path d="M73.0907 155H66.1816V161.909H73.0907V155Z" fill="black"/>
<path d="M93.8183 155H86.9092V161.909H93.8183V155Z" fill="black"/>
<path d="M100.727 155H93.8184V161.909H100.727V155Z" fill="black"/>
<path d="M114.546 155H107.637V161.909H114.546V155Z" fill="black"/>
<path d="M128.364 155H121.455V161.909H128.364V155Z" fill="black"/>
<path d="M149.091 155H142.182V161.909H149.091V155Z" fill="black"/>
<path d="M162.909 155H156V161.909H162.909V155Z" fill="black"/>
<path d="M169.818 155H162.909V161.909H169.818V155Z" fill="black"/>
<path d="M176.727 155H169.818V161.909H176.727V155Z" fill="black"/>
<path d="M183.637 155H176.728V161.909H183.637V155Z" fill="black"/>
<path d="M190.546 155H183.637V161.909H190.546V155Z" fill="black"/>
<path d="M197.455 155H190.545V161.909H197.455V155Z" fill="black"/>
<path d="M211.273 155H204.364V161.909H211.273V155Z" fill="black"/>
<path d="M79.9999 161.909H73.0908V168.818H79.9999V161.909Z" fill="black"/>
<path d="M86.9091 161.909H80V168.818H86.9091V161.909Z" fill="black"/>
<path d="M93.8183 161.909H86.9092V168.818H93.8183V161.909Z" fill="black"/>
<path d="M100.727 161.909H93.8184V168.818H100.727V161.909Z" fill="black"/>
<path d="M107.637 161.909H100.728V168.818H107.637V161.909Z" fill="black"/>
<path d="M128.364 161.909H121.455V168.818H128.364V161.909Z" fill="black"/>
<path d="M142.182 161.909H135.272V168.818H142.182V161.909Z" fill="black"/>
<path d="M156 161.909H149.091V168.818H156V161.909Z" fill="black"/>
<path d="M162.909 161.909H156V168.818H162.909V161.909Z" fill="black"/>
<path d="M190.546 161.909H183.637V168.818H190.546V161.909Z" fill="black"/>
<path d="M197.455 161.909H190.545V168.818H197.455V161.909Z" fill="black"/>
<path d="M204.364 161.909H197.455V168.818H204.364V161.909Z" fill="black"/>
<path d="M218.182 161.909H211.273V168.818H218.182V161.909Z" fill="black"/>
<path d="M79.9999 168.818H73.0908V175.727H79.9999V168.818Z" fill="black"/>
<path d="M86.9091 168.818H80V175.727H86.9091V168.818Z" fill="black"/>
<path d="M93.8183 168.818H86.9092V175.727H93.8183V168.818Z" fill="black"/>
<path d="M100.727 168.818H93.8184V175.727H100.727V168.818Z" fill="black"/>
<path d="M107.637 168.818H100.728V175.727H107.637V168.818Z" fill="black"/>
<path d="M114.546 168.818H107.637V175.727H114.546V168.818Z" fill="black"/>
<path d="M121.455 168.818H114.546V175.727H121.455V168.818Z" fill="black"/>
<path d="M128.364 168.818H121.455V175.727H128.364V168.818Z" fill="black"/>
<path d="M162.909 168.818H156V175.727H162.909V168.818Z" fill="black"/>
<path d="M176.727 168.818H169.818V175.727H176.727V168.818Z" fill="black"/>
<path d="M190.546 168.818H183.637V175.727H190.546V168.818Z" fill="black"/>
<path d="M218.182 168.818H211.273V175.727H218.182V168.818Z" fill="black"/>
<path d="M93.8183 175.728H86.9092V182.637H93.8183V175.728Z" fill="black"/>
<path d="M100.727 175.728H93.8184V182.637H100.727V175.728Z" fill="black"/>
<path d="M107.637 175.728H100.728V182.637H107.637V175.728Z" fill="black"/>
<path d="M121.455 175.728H114.546V182.637H121.455V175.728Z" fill="black"/>
<path d="M128.364 175.728H121.455V182.637H128.364V175.728Z" fill="black"/>
<path d="M149.091 175.728H142.182V182.637H149.091V175.728Z" fill="black"/>
<path d="M156 175.728H149.091V182.637H156V175.728Z" fill="black"/>
<path d="M162.909 175.728H156V182.637H162.909V175.728Z" fill="black"/>
<path d="M190.546 175.728H183.637V182.637H190.546V175.728Z" fill="black"/>
<path d="M86.9091 182.637H80V189.546H86.9091V182.637Z" fill="black"/>
<path d="M93.8183 182.637H86.9092V189.546H93.8183V182.637Z" fill="black"/>
<path d="M100.727 182.637H93.8184V189.546H100.727V182.637Z" fill="black"/>
<path d="M107.637 182.637H100.728V189.546H107.637V182.637Z" fill="black"/>
<path d="M114.546 182.637H107.637V189.546H114.546V182.637Z" fill="black"/>
<path d="M121.455 182.637H114.546V189.546H121.455V182.637Z" fill="black"/>
<path d="M128.364 182.637H121.455V189.546H128.364V182.637Z" fill="black"/>
<path d="M149.091 182.637H142.182V189.546H149.091V182.637Z" fill="black"/>
<path d="M156 182.637H149.091V189.546H156V182.637Z" fill="black"/>
<path d="M162.909 182.637H156V189.546H162.909V182.637Z" fill="black"/>
<path d="M169.818 182.637H162.909V189.546H169.818V182.637Z" fill="black"/>
<path d="M176.727 182.637H169.818V189.546H176.727V182.637Z" fill="black"/>
<path d="M183.637 182.637H176.728V189.546H183.637V182.637Z" fill="black"/>
<path d="M190.546 182.637H183.637V189.546H190.546V182.637Z" fill="black"/>
<path d="M197.455 182.637H190.545V189.546H197.455V182.637Z" fill="black"/>
<path d="M211.273 182.637H204.364V189.546H211.273V182.637Z" fill="black"/>
<path d="M218.182 182.637H211.273V189.546H218.182V182.637Z" fill="black"/>
<path d="M86.9091 189.546H80V196.455H86.9091V189.546Z" fill="black"/>
<path d="M93.8183 189.546H86.9092V196.455H93.8183V189.546Z" fill="black"/>
<path d="M100.727 189.546H93.8184V196.455H100.727V189.546Z" fill="black"/>
<path d="M107.637 189.546H100.728V196.455H107.637V189.546Z" fill="black"/>
<path d="M114.546 189.546H107.637V196.455H114.546V189.546Z" fill="black"/>
<path d="M121.455 189.546H114.546V196.455H121.455V189.546Z" fill="black"/>
<path d="M128.364 189.546H121.455V196.455H128.364V189.546Z" fill="black"/>
<path d="M149.091 189.546H142.182V196.455H149.091V189.546Z" fill="black"/>
<path d="M162.909 189.546H156V196.455H162.909V189.546Z" fill="black"/>
<path d="M169.818 189.546H162.909V196.455H169.818V189.546Z" fill="black"/>
<path d="M183.637 189.546H176.728V196.455H183.637V189.546Z" fill="black"/>
<path d="M190.546 189.546H183.637V196.455H190.546V189.546Z" fill="black"/>
<path d="M197.455 189.546H190.545V196.455H197.455V189.546Z" fill="black"/>
<path d="M204.364 189.546H197.455V196.455H204.364V189.546Z" fill="black"/>
<path d="M218.182 189.546H211.273V196.455H218.182V189.546Z" fill="black"/>
<path d="M79.9999 196.455H73.0908V203.364H79.9999V196.455Z" fill="black"/>
<path d="M86.9091 196.455H80V203.364H86.9091V196.455Z" fill="black"/>
<path d="M93.8183 196.455H86.9092V203.364H93.8183V196.455Z" fill="black"/>
<path d="M128.364 196.455H121.455V203.364H128.364V196.455Z" fill="black"/>
<path d="M149.091 196.455H142.182V203.364H149.091V196.455Z" fill="black"/>
<path d="M156 196.455H149.091V203.364H156V196.455Z" fill="black"/>
<path d="M162.909 196.455H156V203.364H162.909V196.455Z" fill="black"/>
<path d="M169.818 196.455H162.909V203.364H169.818V196.455Z" fill="black"/>
<path d="M190.546 196.455H183.637V203.364H190.546V196.455Z" fill="black"/>
<path d="M211.273 196.455H204.364V203.364H211.273V196.455Z" fill="black"/>
<path d="M218.182 196.455H211.273V203.364H218.182V196.455Z" fill="black"/>
<path d="M86.9091 203.364H80V210.273H86.9091V203.364Z" fill="black"/>
<path d="M100.727 203.364H93.8184V210.273H100.727V203.364Z" fill="black"/>
<path d="M107.637 203.364H100.728V210.273H107.637V203.364Z" fill="black"/>
<path d="M121.455 203.364H114.546V210.273H121.455V203.364Z" fill="black"/>
<path d="M135.273 203.364H128.364V210.273H135.273V203.364Z" fill="black"/>
<path d="M156 203.364H149.091V210.273H156V203.364Z" fill="black"/>
<path d="M162.909 203.364H156V210.273H162.909V203.364Z" fill="black"/>
<path d="M169.818 203.364H162.909V210.273H169.818V203.364Z" fill="black"/>
<path d="M176.727 203.364H169.818V210.273H176.727V203.364Z" fill="black"/>
<path d="M183.637 203.364H176.728V210.273H183.637V203.364Z" fill="black"/>
<path d="M190.546 203.364H183.637V210.273H190.546V203.364Z" fill="black"/>
<path d="M197.455 203.364H190.545V210.273H197.455V203.364Z" fill="black"/>
<path d="M79.9999 210.272H73.0908V217.182H79.9999V210.272Z" fill="black"/>
<path d="M86.9091 210.272H80V217.182H86.9091V210.272Z" fill="black"/>
<path d="M93.8183 210.272H86.9092V217.182H93.8183V210.272Z" fill="black"/>
<path d="M107.637 210.272H100.728V217.182H107.637V210.272Z" fill="black"/>
<path d="M121.455 210.272H114.546V217.182H121.455V210.272Z" fill="black"/>
<path d="M128.364 210.272H121.455V217.182H128.364V210.272Z" fill="black"/>
<path d="M149.091 210.272H142.182V217.182H149.091V210.272Z" fill="black"/>
<path d="M162.909 210.272H156V217.182H162.909V210.272Z" fill="black"/>
<path d="M190.546 210.272H183.637V217.182H190.546V210.272Z" fill="black"/>
<path d="M218.182 210.272H211.273V217.182H218.182V210.272Z" fill="black"/>
<path d="M58.9274 16.8184H25.0729H17.8184V24.0729V57.9274V65.182H25.0729H58.9274H66.182V57.9274V24.0729V16.8184H58.9274ZM58.9274 57.9274H25.0729V24.0729H58.9274V57.9274Z" fill="black"/>
<path d="M210.927 16.8184H177.073H169.818V24.0729V57.9274V65.182H177.073H210.927H218.182V57.9274V24.0729V16.8184H210.927ZM210.927 57.9274H177.073V24.0729H210.927V57.9274Z" fill="black"/>
<path d="M58.9274 168.818H25.0729H17.8184V176.073V209.927V217.182H25.0729H58.9274H66.182V209.927V176.073V168.818H58.9274ZM58.9274 209.927H25.0729V176.073H58.9274V209.927Z" fill="black"/>
<path d="M52.364 30.6367H31.6367V51.364H52.364V30.6367Z" fill="black"/>
<path d="M204.364 30.6367H183.637V51.364H204.364V30.6367Z" fill="black"/>
<path d="M52.364 182.637H31.6367V203.364H52.364V182.637Z" fill="black"/>
</g>
</g>
<defs>
<filter id="filter0_bd_55247_57352" x="0" y="0" width="236" height="236" filterUnits="userSpaceOnUse" color-interpolation-filters="sRGB">
<feFlood flood-opacity="0" result="BackgroundImageFix"/>
<feGaussianBlur in="BackgroundImageFix" stdDeviation="1"/>
<feComposite in2="SourceAlpha" operator="in" result="effect1_backgroundBlur_55247_57352"/>
<feColorMatrix in="SourceAlpha" type="matrix" values="0 0 0 0 0 0 0 0 0 0 0 0 0 0 0 0 0 0 127 0" result="hardAlpha"/>
<feMorphology radius="1" operator="dilate" in="SourceAlpha" result="effect2_dropShadow_55247_57352"/>
<feOffset dy="1"/>
<feGaussianBlur stdDeviation="1.5"/>
<feColorMatrix type="matrix" values="0 0 0 0 0 0 0 0 0 0 0 0 0 0 0 0 0 0 0.15 0"/>
<feBlend mode="normal" in2="effect1_backgroundBlur_55247_57352" result="effect2_dropShadow_55247_57352"/>
<feBlend mode="normal" in="SourceGraphic" in2="effect2_dropShadow_55247_57352" result="shape"/>
</filter>
<clipPath id="clip0_55247_57352">
<rect x="4" y="3" width="228" height="228" rx="16" fill="white"/>
</clipPath>
</defs>
</svg>
