<svg width="148" height="148" viewBox="0 0 148 148" fill="none" xmlns="http://www.w3.org/2000/svg">
<g id="Vector">
<path d="M127.302 69.0098C126.987 68.9824 126.619 68.9961 126.194 69.0556C125.633 69.1334 125.081 69.2615 124.528 69.3942C123.607 69.6184 122.689 69.8609 121.758 69.9226C121.691 69.9272 121.621 69.9318 121.554 69.9364C121.451 69.9432 121.35 69.9501 121.246 69.9592C121.056 69.973 120.866 69.9844 120.677 69.9935C119.136 70.0622 117.696 69.8449 117.174 67.4976C117.015 66.7884 115.167 65.9717 114.071 65.99C114.034 65.99 114.001 65.99 113.967 65.9946C104.818 66.6397 97.0963 69.4102 90.7571 74.1915C90.685 74.2464 90.6129 74.3013 90.5432 74.354C90.2523 74.5759 89.9638 74.8047 89.6778 75.0357C89.4326 75.2347 89.1874 75.4384 88.947 75.6443C88.0792 76.3855 87.2378 77.1656 86.4228 77.9869C86.4228 77.9869 86.418 77.9915 86.4156 77.9938C82.7232 81.7273 79.6101 86.3005 77.0571 91.6813C76.9345 91.9398 76.8191 92.2257 76.7205 92.5231C76.622 92.8205 76.5402 93.1317 76.485 93.4428C76.4705 93.5206 76.4585 93.5984 76.4489 93.6739C76.4056 93.9827 76.3936 94.2847 76.4152 94.5707C76.4321 94.7834 76.4705 94.987 76.5354 95.1746C76.7999 95.9502 76.985 96.7166 77.1028 97.4761C77.1484 97.7712 77.1821 98.064 77.2061 98.3569C77.2061 98.3729 77.2085 98.3889 77.2109 98.4049C77.2254 98.6039 77.2374 98.803 77.2422 99.002C77.2422 99.0089 77.2422 99.0134 77.2422 99.0203C77.2614 99.6609 77.2302 100.295 77.1532 100.926C77.1316 101.107 77.1052 101.287 77.0763 101.468C77.0715 101.5 77.0667 101.532 77.0595 101.564C77.0306 101.731 76.9994 101.898 76.9657 102.065C76.9561 102.109 76.9465 102.152 76.9369 102.196C76.7181 103.2 76.3912 104.195 75.9657 105.186C75.1267 107.144 74.9488 108.981 75.3815 110.745C75.4056 110.839 75.4296 110.93 75.4561 111.024C75.7181 111.948 76.1508 112.857 76.7422 113.751C76.86 113.929 76.985 114.108 77.1172 114.286C77.2614 114.483 77.4129 114.687 77.5643 114.897C77.6148 114.968 77.6653 115.039 77.7158 115.11C77.8672 115.325 78.0139 115.545 78.1485 115.769C78.1942 115.844 78.2374 115.918 78.2807 115.993C78.3648 116.144 78.4442 116.295 78.5139 116.446C78.5836 116.597 78.6437 116.748 78.6942 116.899C78.7927 117.199 78.848 117.498 78.8408 117.787C78.8312 118.125 78.836 118.457 78.8552 118.782C78.8552 118.802 78.8576 118.823 78.86 118.844C78.8793 119.141 78.9105 119.431 78.9514 119.72C79.0692 120.546 79.2759 121.337 79.538 122.104C79.5884 122.252 79.6437 122.401 79.699 122.55C80.2567 124.03 81.0188 125.428 81.776 126.825C81.853 126.965 81.9275 127.105 82.0044 127.244C82.8362 128.781 83.6391 130.33 84.1391 131.996C84.3098 132.563 85.3531 133.245 86.019 133.279C86.0622 133.281 86.1055 133.279 86.1464 133.279C87.8844 133.126 89.5864 132.577 91.5721 132.122C90.7355 131.014 90.0624 130.124 89.3893 129.234C85.9493 124.675 83.7857 119.45 82.9203 114.058C82.8866 113.849 82.8554 113.643 82.8266 113.435C82.6222 111.98 82.5092 110.516 82.4948 109.05C82.4948 108.839 82.4924 108.631 82.4948 108.421C82.5092 106.325 82.7184 104.232 83.1222 102.168C83.4444 100.516 83.8939 98.8853 84.466 97.2862C85.2545 95.0877 86.281 92.9509 87.5455 90.9172C88.959 88.6431 90.5913 86.5842 92.4038 84.7563C93.613 83.5369 94.8991 82.4228 96.2549 81.4162C97.2093 80.707 98.1949 80.055 99.2118 79.4556C99.6998 79.1674 100.197 78.8905 100.7 78.6297C101.008 78.4696 101.318 78.3118 101.628 78.1608C102.452 77.7627 103.291 77.4012 104.145 77.0718C104.39 76.978 104.637 76.8865 104.885 76.7973C105.791 76.4724 106.712 76.1887 107.645 75.9439C108.157 75.809 108.671 75.6877 109.191 75.5779C109.275 75.5596 109.359 75.5436 109.443 75.5253C109.777 75.4567 110.114 75.3949 110.45 75.3377C110.515 75.3263 110.58 75.3148 110.643 75.3057C111.003 75.2462 111.366 75.1936 111.732 75.1455C111.965 75.1158 112.2 75.086 112.436 75.0609C112.854 75.0151 113.277 74.9785 113.698 74.9488C113.909 74.9351 114.121 74.9213 114.333 74.9099C114.756 74.8893 115.181 74.8756 115.607 74.8687C116.672 74.855 117.744 74.8939 118.818 74.9831C119.249 75.0197 119.679 75.0632 120.112 75.1158C120.328 75.1432 120.542 75.1707 120.758 75.2004C121.405 75.2919 122.054 75.4018 122.703 75.5322C122.934 75.5779 123.153 75.6191 123.359 75.6557C123.984 75.7632 124.518 75.8204 124.98 75.8135C125.064 75.8135 125.145 75.809 125.225 75.8044C125.352 75.7952 125.475 75.7815 125.593 75.7609C125.617 75.7564 125.641 75.7518 125.665 75.7472C125.797 75.722 125.924 75.6877 126.045 75.6443C126.855 75.356 127.388 74.6765 127.896 73.4457C127.97 73.2673 128.042 73.0751 128.114 72.8738C128.225 72.5695 128.336 72.2378 128.449 71.8764C128.535 71.5995 128.6 71.3433 128.643 71.1077C128.653 71.0482 128.662 70.991 128.672 70.9338C128.696 70.7645 128.708 70.6067 128.706 70.458C128.699 69.5749 128.239 69.0968 127.295 69.0121L127.302 69.0098Z" fill="#066938"/>
<path d="M86.0743 133.911C86.0454 133.911 86.0166 133.911 85.9877 133.911C85.1055 133.862 83.8025 133.055 83.5405 132.179C83.0573 130.57 82.2784 129.07 81.4563 127.546L81.2063 127.084C80.4587 125.704 79.6846 124.279 79.1173 122.774C79.0596 122.621 79.0043 122.465 78.949 122.309C78.6533 121.452 78.4514 120.633 78.3336 119.809C78.2879 119.498 78.2567 119.187 78.2374 118.885L78.2326 118.821C78.211 118.468 78.2062 118.114 78.2182 117.766C78.2254 117.569 78.1869 117.345 78.1052 117.098C78.0643 116.977 78.0139 116.846 77.9514 116.711C77.8913 116.583 77.8215 116.446 77.7422 116.306C77.7038 116.238 77.6629 116.169 77.6196 116.098C77.5042 115.911 77.3696 115.705 77.2085 115.474C77.1605 115.405 77.1124 115.336 77.0619 115.268C76.9369 115.096 76.8143 114.927 76.6941 114.764L76.6196 114.662C76.4826 114.476 76.3503 114.286 76.2253 114.099C75.5931 113.145 75.1339 112.168 74.8575 111.196C74.8286 111.095 74.8022 110.997 74.7782 110.896C74.3022 108.963 74.5041 107.011 75.3936 104.934C75.8094 103.962 76.1244 102.996 76.3263 102.061L76.3527 101.933C76.3864 101.775 76.4152 101.617 76.4417 101.457L76.4585 101.363C76.4874 101.191 76.5114 101.017 76.5306 100.848C76.6027 100.242 76.6316 99.6334 76.6148 99.0363V99.018C76.6076 98.8304 76.5979 98.6405 76.5835 98.4507L76.5787 98.4026C76.5571 98.1304 76.5234 97.849 76.4801 97.5699C76.3696 96.8401 76.1869 96.1034 75.9393 95.3759C75.8599 95.1449 75.8095 94.8909 75.7878 94.6187C75.7614 94.3007 75.7734 93.9507 75.8239 93.5824C75.8359 93.4954 75.8503 93.4108 75.8647 93.3238C75.9224 92.9967 76.0114 92.6581 76.122 92.3195C76.2253 92.0038 76.3479 91.6973 76.4874 91.4044C79.0716 85.9551 82.2592 81.2927 85.9661 77.5431C86.7906 76.708 87.6537 75.9073 88.5359 75.157C88.7739 74.9534 89.0239 74.7452 89.2787 74.5393C89.5648 74.3082 89.8605 74.0749 90.1586 73.8461L90.1826 73.8278C90.2475 73.7797 90.31 73.7294 90.3749 73.6814C96.8415 68.8062 104.762 66.006 113.917 65.3609C113.96 65.3586 114.006 65.3563 114.054 65.354C114.066 65.354 114.08 65.354 114.092 65.354C115.224 65.354 117.518 66.1799 117.78 67.3558C118.176 69.1379 119.054 69.4285 120.643 69.3598C120.826 69.3507 121.011 69.3393 121.196 69.3255L121.713 69.2889C122.499 69.2386 123.282 69.0464 124.109 68.8428L124.374 68.7788C124.891 68.6529 125.494 68.5111 126.102 68.4265C126.578 68.3601 126.987 68.3441 127.352 68.3784C128.622 68.4928 129.326 69.2272 129.336 70.4488C129.336 70.625 129.324 70.8171 129.295 71.0185C129.285 71.0825 129.275 71.1489 129.263 71.2152C129.215 71.476 129.143 71.7597 129.049 72.0617C128.927 72.4506 128.816 72.7846 128.708 73.0843C128.629 73.3039 128.554 73.4984 128.477 73.6837C127.884 75.1295 127.218 75.8936 126.256 76.2368C126.107 76.2894 125.951 76.3329 125.787 76.3649C125.754 76.3717 125.727 76.3763 125.698 76.3809C125.561 76.4038 125.415 76.4221 125.268 76.4312C125.179 76.4381 125.085 76.4404 124.992 76.4427C124.508 76.4472 123.96 76.3946 123.258 76.2757C123.044 76.2391 122.818 76.1979 122.583 76.1498C121.951 76.024 121.309 75.9142 120.674 75.8227C120.463 75.793 120.251 75.7655 120.04 75.738C119.619 75.6877 119.191 75.642 118.77 75.6076C117.725 75.5207 116.664 75.4841 115.616 75.4956C115.2 75.5001 114.78 75.5138 114.366 75.5344C114.159 75.5459 113.95 75.5573 113.744 75.571C113.33 75.6008 112.914 75.6374 112.506 75.6809C112.275 75.706 112.044 75.7335 111.816 75.7632C111.462 75.809 111.102 75.8616 110.748 75.9211L110.57 75.9508C110.231 76.008 109.897 76.0698 109.57 76.1384C109.489 76.1544 109.405 76.1727 109.323 76.1887C108.82 76.294 108.308 76.4152 107.806 76.5479C106.897 76.7858 105.986 77.0672 105.099 77.3852C104.856 77.4721 104.613 77.5614 104.373 77.6552C103.529 77.98 102.7 78.3392 101.904 78.7235C101.625 78.8585 101.325 79.0095 100.993 79.1834C100.503 79.4396 100.012 79.7118 99.5339 79.9932C98.5315 80.5858 97.5555 81.2332 96.6324 81.9172C95.3006 82.9055 94.0289 84.0105 92.8534 85.1955C91.0552 87.0074 89.4518 89.0435 88.0816 91.2443C86.8579 93.2117 85.8411 95.3142 85.0598 97.4921C84.5021 99.0455 84.0574 100.658 83.74 102.283C83.3458 104.296 83.1391 106.359 83.1222 108.416C83.1222 108.622 83.1222 108.828 83.1222 109.031C83.1391 110.466 83.2472 111.914 83.4492 113.337C83.478 113.541 83.5093 113.744 83.5405 113.948C84.4011 119.331 86.5983 124.48 89.8893 128.843C90.3268 129.422 90.762 130.001 91.2451 130.637L92.6611 132.51L91.7115 132.728C91.137 132.858 90.5841 133 90.048 133.135C88.7282 133.469 87.4806 133.787 86.2017 133.899C86.1608 133.904 86.1175 133.904 86.0719 133.904L86.0743 133.911ZM114.114 66.6214C114.114 66.6214 114.092 66.6214 114.08 66.6214C114.056 66.6214 114.032 66.6214 114.01 66.6237C105.099 67.2529 97.4016 69.9684 91.1322 74.6971C91.0697 74.7452 91.0072 74.7909 90.9471 74.839L90.923 74.8573C90.6345 75.0769 90.3485 75.3034 90.072 75.5276C89.8244 75.7266 89.584 75.9279 89.3508 76.127C88.4974 76.8545 87.6609 77.63 86.8676 78.433C83.2544 82.0865 80.1461 86.6345 77.6244 91.9535C77.509 92.1983 77.4057 92.4568 77.3167 92.7222C77.223 93.0058 77.1508 93.285 77.1028 93.5549C77.0907 93.6235 77.0787 93.6922 77.0691 93.7608C77.0306 94.0376 77.021 94.2916 77.0403 94.518C77.0547 94.6873 77.0835 94.8383 77.1292 94.971C77.4009 95.7671 77.6004 96.5793 77.723 97.3823C77.7711 97.6888 77.8071 98 77.8312 98.3065L77.836 98.3523C77.8528 98.565 77.8648 98.7778 77.8696 98.9837V99.0066C77.8889 99.6631 77.8576 100.336 77.7783 101.004C77.7566 101.189 77.7278 101.379 77.6989 101.571L77.6821 101.674C77.6533 101.848 77.6196 102.022 77.5836 102.196L77.5547 102.333C77.3335 103.349 76.997 104.392 76.5475 105.437C75.771 107.252 75.5907 108.94 75.997 110.594C76.0186 110.681 76.0402 110.766 76.0643 110.85C76.3047 111.697 76.7109 112.555 77.2686 113.399C77.3816 113.568 77.5018 113.74 77.6244 113.909L77.6989 114.01C77.8215 114.177 77.9489 114.348 78.0764 114.527C78.1292 114.6 78.1797 114.673 78.2326 114.746C78.4105 115 78.5596 115.227 78.687 115.439C78.735 115.519 78.7831 115.599 78.8288 115.68C78.925 115.851 79.0115 116.018 79.086 116.178C79.1678 116.357 79.2375 116.531 79.2928 116.698C79.4226 117.087 79.4803 117.457 79.4706 117.805C79.461 118.114 79.4658 118.429 79.4851 118.743L79.4899 118.798C79.5067 119.07 79.538 119.349 79.5764 119.626C79.6846 120.372 79.8673 121.113 80.1365 121.895C80.187 122.039 80.2375 122.181 80.2904 122.323C80.8265 123.746 81.5813 125.135 82.3073 126.475L82.5573 126.94C83.4131 128.523 84.2232 130.085 84.7425 131.81C84.817 132.062 85.5815 132.623 86.055 132.648C86.0671 132.648 86.0815 132.648 86.0959 132.648C87.2738 132.545 88.4734 132.24 89.7427 131.918C89.9879 131.856 90.2379 131.792 90.4927 131.73L90.2523 131.412C89.7691 130.774 89.3316 130.195 88.8941 129.616C85.4781 125.089 83.2016 119.745 82.3073 114.158C82.2736 113.948 82.2424 113.735 82.2111 113.525C82.002 112.049 81.889 110.546 81.8722 109.057C81.8698 108.844 81.8698 108.631 81.8722 108.416C81.8866 106.279 82.103 104.138 82.5116 102.047C82.841 100.359 83.3025 98.6863 83.8819 97.0712C84.6944 94.8086 85.7497 92.6261 87.019 90.5809C88.4373 88.2977 90.1009 86.1884 91.9663 84.3079C93.1875 83.0771 94.5049 81.9332 95.8872 80.906C96.8439 80.1945 97.8584 79.522 98.8993 78.9088C99.3945 78.616 99.9041 78.3323 100.414 78.067C100.76 77.8862 101.068 77.7307 101.361 77.5888C102.188 77.1885 103.048 76.8156 103.924 76.4793C104.174 76.3832 104.426 76.2894 104.678 76.2002C105.601 75.8707 106.546 75.5779 107.491 75.3308C108.013 75.1936 108.544 75.07 109.066 74.9579C109.152 74.9396 109.236 74.9213 109.323 74.9053C109.664 74.8367 110.01 74.7726 110.349 74.7131L110.546 74.6811C110.914 74.6216 111.287 74.5644 111.655 74.5164C111.893 74.4844 112.133 74.4569 112.371 74.4295C112.796 74.3837 113.229 74.3448 113.657 74.3151C113.873 74.2991 114.087 74.2876 114.304 74.2762C114.734 74.2533 115.169 74.2396 115.602 74.235C116.686 74.2213 117.787 74.2602 118.874 74.3517C119.309 74.3883 119.753 74.434 120.191 74.4867C120.41 74.5141 120.631 74.5416 120.85 74.5736C121.508 74.6674 122.174 74.7818 122.828 74.9122C123.052 74.9579 123.266 74.9968 123.468 75.0311C124.085 75.1364 124.578 75.1844 124.977 75.1798C125.049 75.1798 125.119 75.1753 125.189 75.1707C125.295 75.1638 125.396 75.1524 125.494 75.1341L125.545 75.1249C125.653 75.1043 125.751 75.0769 125.84 75.0449C126.441 74.8321 126.869 74.2968 127.321 73.201C127.391 73.0339 127.458 72.8555 127.53 72.6542C127.631 72.3728 127.737 72.0548 127.855 71.6819C127.934 71.4302 127.994 71.1969 128.03 70.9887C128.04 70.9384 128.047 70.8903 128.054 70.84C128.073 70.7005 128.083 70.5723 128.083 70.458C128.081 69.973 127.944 69.7007 127.242 69.6367C126.977 69.6138 126.65 69.6275 126.275 69.6801C125.725 69.7556 125.16 69.8883 124.672 70.0073L124.41 70.0713C123.566 70.2795 122.693 70.4923 121.794 70.5518L121.287 70.5884C121.092 70.6021 120.895 70.6158 120.701 70.6227C118.999 70.6982 117.176 70.4008 116.559 67.6326C116.431 67.3329 115.08 66.6191 114.111 66.6191L114.114 66.6214Z" fill="#066938"/>
<path d="M47.241 44.1765C47.4526 44.1147 47.6641 44.0507 47.8757 43.9889C48.0872 43.9271 48.2988 43.8631 48.5103 43.8013C53.061 42.4493 57.6453 41.7584 62.2512 41.7812C65.4052 41.795 68.5688 42.1427 71.7396 42.8359C77.4081 44.0758 82.49 46.2011 87.0262 49.1523C87.3291 49.3491 87.6296 49.5504 87.9253 49.754C88.5215 50.1612 89.1056 50.5844 89.6826 51.0214C92.274 52.9888 94.6707 55.2491 96.8824 57.7862C97.3728 58.3513 97.856 58.9278 98.3295 59.5203C99.0387 60.4079 99.7286 61.3253 100.397 62.2747C100.503 62.4234 100.628 62.579 100.767 62.7369C100.813 62.7895 100.861 62.8398 100.911 62.8924C101.455 63.4598 102.157 63.9768 102.69 63.9997C102.738 63.9997 102.786 63.9997 102.832 63.9928C105.775 63.5742 108.662 62.7552 111.996 61.9865C108.445 56.1505 104.996 50.4815 101.546 44.8102C101.635 44.7484 101.722 44.6889 101.81 44.6272C102.409 45.135 103.008 45.6452 103.666 46.2057C103.974 45.1351 104.063 44.2588 103.926 43.5771C103.844 43.1676 103.683 42.8267 103.44 42.5591C103.116 42.1999 102.647 41.9642 102.034 41.8544C101.957 41.8407 101.878 41.8293 101.796 41.8178C101.551 41.7881 101.286 41.7767 101.003 41.7812C100.623 41.7881 100.205 41.827 99.7527 41.8956C98.4425 42.0969 97.1516 42.2228 95.8799 42.2251C93.4544 42.2296 91.0985 41.7789 88.8027 40.5367C88.1032 40.1569 87.4758 40.0769 86.9132 40.2507C86.2858 40.4452 85.7377 40.9577 85.2521 41.7446C85.1728 41.8727 85.067 42.01 84.9444 42.145C84.5742 42.5522 84.0477 42.9526 83.6246 43.1104C83.4828 43.163 83.3554 43.1905 83.2472 43.1813C83.2112 43.179 83.1775 43.1722 83.1463 43.1607C82.7929 43.0349 82.4371 42.9091 82.0837 42.781C81.7279 42.6552 81.3722 42.527 81.0164 42.3966C80.3048 42.1358 79.5981 41.8659 78.9009 41.5731C78.2062 41.2802 77.521 40.9691 76.86 40.6236C76.1989 40.2782 75.5594 39.9007 74.9512 39.4798C74.8094 39.3814 74.6988 39.2373 74.6099 39.0588C74.557 38.9513 74.5137 38.8323 74.4777 38.7019C74.1844 37.661 74.3406 35.959 74.1579 34.7327C74.1507 34.6916 74.1315 34.6504 74.0978 34.6069C74.0113 34.4902 73.8358 34.3461 73.5834 34.0533C72.2035 34.1242 70.7636 34.1631 69.302 34.2271C68.2058 34.2752 67.0952 34.3347 65.9845 34.4285C65.6143 34.4605 65.2441 34.4971 64.8739 34.536C64.071 34.6252 63.2681 34.7282 62.4676 34.8448C60.066 35.1903 57.6765 35.641 55.287 36.0733C54.6764 36.1832 54.0346 36.5675 53.5754 37.0044C52.4383 38.0911 51.3133 39.1938 50.1955 40.3011C49.6353 40.8547 49.0776 41.4083 48.5199 41.9643C47.9622 42.5179 47.4021 43.0738 46.8444 43.6274C46.9766 43.8105 47.1112 43.9958 47.2434 44.1788L47.241 44.1765Z" fill="#066938"/>
<path d="M102.724 64.6288C102.705 64.6288 102.683 64.6288 102.664 64.6288C101.791 64.5922 100.907 63.7984 100.457 63.3294C100.402 63.2722 100.349 63.215 100.298 63.1578C100.142 62.9839 100.003 62.8101 99.8825 62.6385C99.2214 61.7028 98.5339 60.7877 97.8367 59.9161C97.3704 59.3327 96.8896 58.7562 96.4064 58.2026C94.2164 55.6884 91.8269 53.4418 89.3003 51.5247C88.7354 51.0969 88.1537 50.6759 87.5695 50.2733C87.2762 50.072 86.9781 49.8729 86.6825 49.6808C82.1775 46.7502 77.1052 44.6546 71.6025 43.4513C68.5111 42.7764 65.3619 42.4264 62.244 42.4126C57.7703 42.3943 53.2028 43.0646 48.6834 44.4075L46.991 44.9086L46.015 43.5565L46.4021 43.1745C46.9622 42.6208 47.5199 42.0672 48.0776 41.5136C48.6353 40.9576 49.1954 40.404 49.7555 39.8504C51.1162 38.5052 52.1595 37.4872 53.1427 36.5469C53.7317 35.9864 54.4889 35.5769 55.174 35.4511L56.1212 35.2795C58.1669 34.9066 60.28 34.5223 62.3762 34.2203C63.2344 34.0967 64.0277 33.9961 64.8018 33.9091C65.1624 33.8703 65.5398 33.8337 65.9268 33.7993C66.9004 33.7147 67.9341 33.6529 69.2707 33.5957C69.8525 33.5706 70.4318 33.55 71.004 33.5294C71.8862 33.4974 72.718 33.4653 73.5449 33.4241L73.8478 33.4081L74.0474 33.6392C74.1676 33.7787 74.2709 33.884 74.3551 33.9686C74.4464 34.0624 74.5257 34.1425 74.593 34.2317C74.6916 34.3644 74.7493 34.4994 74.7709 34.6435C74.8551 35.2063 74.8719 35.8514 74.8887 36.4714C74.908 37.2309 74.9296 38.0156 75.0738 38.5327C75.1003 38.631 75.1315 38.7157 75.1652 38.7843C75.2061 38.869 75.2541 38.933 75.2998 38.9628C75.8599 39.3517 76.4609 39.7108 77.1412 40.0654C77.7422 40.3789 78.3937 40.6831 79.1341 40.9943C79.7399 41.2482 80.4034 41.5067 81.2207 41.8064C81.5741 41.9368 81.9275 42.0626 82.2832 42.1907L83.3001 42.5522C83.3169 42.5476 83.3482 42.5408 83.3963 42.5225C83.7088 42.4035 84.1511 42.0741 84.4732 41.7218C84.5742 41.6119 84.6559 41.5067 84.7112 41.4152C85.2882 40.4772 85.9637 39.8847 86.7209 39.6491C87.4613 39.4203 88.2594 39.5324 89.0912 39.9831C91.0961 41.0697 93.3053 41.5982 95.8415 41.5982H95.8679C97.0098 41.5982 98.2454 41.4907 99.6469 41.2756C100.125 41.2024 100.575 41.1613 100.981 41.1521C101.296 41.1475 101.589 41.159 101.861 41.1933C101.955 41.2047 102.044 41.2184 102.133 41.2345C102.883 41.3694 103.476 41.6737 103.895 42.1381C104.214 42.4927 104.428 42.9365 104.532 43.4581C104.688 44.2474 104.599 45.206 104.26 46.3864L103.991 47.3198L103.589 46.979L112.977 62.4097L112.126 62.6065C111.207 62.8192 110.318 63.0343 109.457 63.2447C107.2 63.7961 105.068 64.3154 102.909 64.622C102.847 64.6311 102.782 64.6357 102.714 64.6357L102.724 64.6288ZM62.0517 41.1498C62.119 41.1498 62.1863 41.1498 62.2536 41.1498C65.4581 41.1635 68.6938 41.5227 71.8718 42.2182C77.521 43.4536 82.7328 45.6063 87.3652 48.6216C87.6705 48.8206 87.9758 49.0242 88.2787 49.2301C88.8797 49.6419 89.4782 50.0743 90.06 50.5158C92.6538 52.4855 95.1059 54.7893 97.3535 57.3698C97.8488 57.9372 98.3416 58.5274 98.8175 59.1245C99.5315 60.0168 100.233 60.9524 100.909 61.9087C101 62.0368 101.111 62.1764 101.234 62.3136C101.274 62.3594 101.318 62.4074 101.363 62.4532C101.923 63.0388 102.469 63.3568 102.717 63.366C102.731 63.366 102.738 63.366 102.746 63.366C104.844 63.0686 106.948 62.5561 109.174 62.0117C109.77 61.8652 110.38 61.7165 111.008 61.5678L100.702 44.6272L101.851 43.8333L103.291 45.0573C103.38 44.5242 103.387 44.069 103.313 43.6983C103.253 43.3987 103.145 43.1653 102.976 42.98C102.748 42.7284 102.395 42.5568 101.923 42.4721C101.859 42.4607 101.791 42.4492 101.722 42.4424C101.508 42.4172 101.27 42.4058 101.015 42.4104C100.664 42.4172 100.272 42.4538 99.8464 42.5179C98.3824 42.7421 97.0867 42.8519 95.8799 42.8542H95.8511C93.101 42.8542 90.697 42.2777 88.5071 41.0903C87.9734 40.8021 87.5142 40.7243 87.0983 40.8524C86.6392 40.9943 86.1969 41.406 85.7858 42.0764C85.6896 42.2342 85.5598 42.4012 85.406 42.5705C84.9492 43.0715 84.3362 43.5153 83.8434 43.7006C83.6102 43.7899 83.3915 43.8265 83.1943 43.8105C83.103 43.8036 83.0165 43.7853 82.9347 43.7555L81.8698 43.3758C81.5116 43.2477 81.1558 43.1196 80.7976 42.9892C79.961 42.6826 79.2807 42.4172 78.6581 42.1564C77.8864 41.8316 77.2037 41.5136 76.5715 41.1841C75.8455 40.8044 75.1988 40.4177 74.5978 39.9991C74.3719 39.8435 74.1892 39.6216 74.0498 39.3379C73.9824 39.2007 73.9247 39.0451 73.8767 38.8735C73.6868 38.2032 73.6651 37.3362 73.6435 36.4989C73.6291 35.959 73.6146 35.403 73.5545 34.9363C73.5305 34.9112 73.5017 34.8814 73.4752 34.854C73.4319 34.8105 73.3791 34.7579 73.3214 34.6961C72.5833 34.7327 71.8381 34.7579 71.0569 34.7876C70.4871 34.8082 69.9102 34.8288 69.3308 34.854C68.0111 34.9112 66.9942 34.9729 66.0398 35.0553C65.6624 35.0873 65.2946 35.1239 64.9436 35.1628C64.1816 35.2475 63.4027 35.3458 62.5589 35.4671C60.4867 35.7668 58.3833 36.1488 56.3495 36.5194L55.4 36.691C54.9529 36.7711 54.4216 37.0662 54.0105 37.4597C53.0321 38.3931 51.9912 39.4089 50.6378 40.7472C50.0777 41.3008 49.52 41.8544 48.9622 42.4081C48.6762 42.6918 48.3901 42.9754 48.104 43.2614L48.3348 43.1928C52.9047 41.8339 57.5203 41.1452 62.0541 41.1452L62.0517 41.1498Z" fill="#066938"/>
<path d="M111.799 92.6741C105.325 93.7608 101.962 98.3912 99.8801 104.534C98.2262 109.411 99.8897 116.071 104.308 120.159C104.789 118.924 105.654 117.8 105.537 116.794C105.171 113.671 106.592 111.832 109.01 110.223C111.984 108.247 114.527 105.753 113.912 101.72C113.474 98.8419 112.599 96.0302 111.799 92.6741Z" fill="#066938"/>
<path d="M104.558 121.246L103.885 120.623C99.4209 116.494 97.4882 109.642 99.2887 104.33C101.789 96.9568 105.731 93.0539 111.698 92.0519L112.275 91.9558L112.412 92.5277C112.667 93.5938 112.929 94.605 113.183 95.5841C113.724 97.666 114.234 99.6334 114.537 101.626C115.234 106.199 112.135 108.906 109.361 110.752C106.794 112.458 105.868 114.188 106.164 116.72C106.265 117.59 105.851 118.411 105.412 119.28C105.229 119.642 105.039 120.017 104.895 120.39L104.561 121.248L104.558 121.246ZM111.332 93.4039C106.186 94.4746 102.726 98.0938 100.474 104.737C98.9137 109.343 100.44 115.233 104.106 119.077C104.169 118.953 104.229 118.83 104.291 118.709C104.642 118.015 104.972 117.359 104.916 116.869C104.467 113.046 106.561 111.1 108.666 109.697C111.284 107.956 113.881 105.659 113.294 101.818C113.001 99.8919 112.498 97.9542 111.967 95.9044C111.758 95.0991 111.544 94.271 111.332 93.4062V93.4039Z" fill="#066938"/>
<path d="M75.7253 85.3831C76.17 84.571 76.5787 83.7657 76.9369 82.9352C77.0186 82.7431 77.0595 82.5189 77.0643 82.2787C77.0691 82.0979 77.0523 81.9081 77.0234 81.7136C76.9345 81.1325 76.7157 80.5171 76.485 80.0298C74.9416 76.7629 71.9944 74.9534 69.1025 73.0751C68.8092 72.8852 68.5015 72.7137 68.1793 72.5604C67.8572 72.4071 67.5207 72.2721 67.1745 72.1532C66.4798 71.9152 65.7417 71.7437 64.9773 71.6339C64.785 71.6064 64.5927 71.5812 64.3979 71.5606C64.1936 71.5401 63.9893 71.5218 63.7825 71.508C63.4027 71.4829 63.0181 71.4714 62.631 71.4714C62.6286 71.4714 62.6238 71.4714 62.6214 71.4714C62.2224 71.4714 61.8209 71.4852 61.4219 71.5103C61.2223 71.524 61.0228 71.5378 60.8233 71.5584C60.2247 71.6156 59.6309 71.6979 59.0492 71.8031C58.6621 71.8741 58.2799 71.9541 57.9049 72.0434C55.6572 72.581 53.6932 73.4549 52.5297 74.4615C52.3975 74.5759 52.2845 74.7337 52.1883 74.9168C52.1499 74.9923 52.1138 75.0723 52.0802 75.157C52.0657 75.1959 52.0513 75.2347 52.0369 75.2759C51.9816 75.4338 51.9383 75.6031 51.9047 75.7769C51.8999 75.7998 51.8951 75.8204 51.8927 75.8433C51.8326 76.1842 51.8109 76.541 51.8326 76.8636C51.847 77.0649 51.8758 77.2525 51.9215 77.4195C51.9552 77.5431 52.0778 77.6597 52.2532 77.7673C52.4287 77.8725 52.6595 77.9663 52.9119 78.0441C53.2268 78.1402 53.5778 78.2065 53.8999 78.2362C54.0298 78.2477 54.1524 78.2523 54.2701 78.25C54.3278 78.25 54.3831 78.2454 54.4384 78.2408C55.0298 78.1882 55.6212 78.0921 56.2077 77.9709C56.4024 77.9297 56.5996 77.8862 56.7943 77.8405C57.5756 77.6552 58.3496 77.431 59.1165 77.2045C61.5998 76.4724 63.845 76.4175 65.9052 76.9139C66.2225 76.9894 66.5351 77.0787 66.8428 77.1816C66.9966 77.2319 67.1505 77.2868 67.3019 77.344C69.7371 78.2591 71.9103 79.9635 73.9224 82.2215C74.7421 83.1412 74.8431 83.784 74.307 84.3399C74.3046 84.3422 74.2998 84.3468 74.2974 84.3491C74.1916 84.4566 74.0618 84.5618 73.9079 84.6648C73.8022 84.7357 73.6916 84.8066 73.5642 84.8753C72.8935 85.2459 72.4415 85.6416 72.1915 86.0763C72.117 86.2067 72.0593 86.3394 72.0208 86.4767C71.9944 86.5682 71.9776 86.662 71.9655 86.7558C71.9607 86.8038 71.9559 86.8519 71.9559 86.8999C71.9535 86.996 71.9559 87.0944 71.9704 87.195C71.9776 87.2453 71.9848 87.2957 71.9944 87.3483C72.1242 88.014 72.5737 88.7621 73.3045 89.6246C74.1507 88.1055 74.9849 86.7352 75.7253 85.3831Z" fill="#066938"/>
<path d="M73.4127 90.7227L72.8286 90.0364C71.9896 89.0504 71.528 88.2359 71.379 87.4718C71.367 87.4078 71.3549 87.3414 71.3477 87.2774C71.3309 87.1424 71.3237 87.012 71.3285 86.8839C71.3285 86.8198 71.3357 86.7535 71.3429 86.6894C71.3573 86.5613 71.3814 86.4309 71.4174 86.3051C71.4703 86.1175 71.5497 85.9345 71.6506 85.7606C71.9607 85.223 72.4872 84.754 73.2637 84.3239C73.3646 84.269 73.4608 84.2095 73.5594 84.1409C73.682 84.0562 73.7805 83.9785 73.8502 83.9053L73.8695 83.8847C74.0305 83.7131 74.194 83.4706 73.456 82.6401C71.3718 80.2998 69.2876 78.7601 67.0831 77.932C66.9389 77.8771 66.7923 77.8267 66.648 77.7787C66.3547 77.6826 66.0567 77.5957 65.7586 77.5248C63.7176 77.0329 61.6022 77.1267 59.292 77.8062C58.5395 78.0281 57.7366 78.2614 56.9361 78.4513C56.7366 78.4993 56.5347 78.5451 56.3327 78.5863C55.6716 78.7235 55.0683 78.8173 54.4913 78.8677C54.424 78.8745 54.3543 78.8768 54.2822 78.8791C54.1451 78.8814 53.9985 78.8768 53.8471 78.8631C53.4841 78.8311 53.0874 78.7556 52.7316 78.648C52.4167 78.552 52.1475 78.4376 51.9311 78.3072C51.6018 78.1081 51.3974 77.8679 51.3181 77.5888C51.2604 77.3829 51.2243 77.1542 51.2051 76.9071C51.1787 76.5296 51.2027 76.1247 51.2724 75.7312L51.2869 75.6557C51.3253 75.4521 51.3782 75.2553 51.4431 75.07C51.4599 75.022 51.4768 74.9739 51.496 74.9282C51.5369 74.823 51.5825 74.7223 51.633 74.6285C51.7725 74.3608 51.9359 74.1458 52.121 73.9856C53.3422 72.9287 55.3976 71.9976 57.7583 71.4325C58.1453 71.3387 58.5419 71.2564 58.9386 71.1855C59.5444 71.0756 60.1574 70.991 60.7656 70.9338C60.9723 70.9155 61.1767 70.8972 61.3834 70.8858C61.7993 70.8583 62.2176 70.8446 62.6238 70.8446H62.6455C62.6455 70.8446 62.6551 70.8446 62.6623 70.8446C63.0445 70.8446 63.4412 70.8583 63.8282 70.8835C64.0566 70.8995 64.2657 70.9155 64.4677 70.9384C64.6696 70.959 64.8715 70.9841 65.071 71.0139C65.8956 71.1328 66.6721 71.3181 67.3812 71.5606C67.7538 71.6888 68.1144 71.8352 68.451 71.9953C68.7996 72.1623 69.1337 72.3476 69.4438 72.5489L69.814 72.7892C72.6074 74.601 75.4969 76.4724 77.0523 79.7622C77.223 80.1213 77.5259 80.842 77.6436 81.6221C77.6797 81.8577 77.6965 82.0865 77.6917 82.2947C77.6845 82.6287 77.6244 82.9307 77.5138 83.1892C77.1821 83.9579 76.7903 84.7517 76.2782 85.6897C75.8768 86.4218 75.4561 87.1493 75.0113 87.9156C74.6339 88.5654 74.2445 89.2357 73.855 89.9357L73.4151 90.7227H73.4127ZM74.7301 84.8066C74.6003 84.937 74.4464 85.0629 74.2565 85.191C74.1267 85.2802 73.9969 85.358 73.8647 85.4335C73.3045 85.7446 72.9223 86.0694 72.7324 86.3966C72.6819 86.4812 72.6459 86.5659 72.6218 86.6551C72.605 86.7123 72.593 86.7718 72.5882 86.829C72.5858 86.8587 72.5834 86.8885 72.5809 86.9205C72.5809 86.9868 72.581 87.0532 72.5906 87.1218C72.5954 87.1561 72.6002 87.1927 72.6074 87.2293C72.6771 87.5885 72.8838 88.0117 73.2204 88.4967C73.4584 88.0804 73.694 87.6754 73.9223 87.2797C74.3647 86.5178 74.7806 85.7995 75.1724 85.0811C75.6652 84.1798 76.0426 83.418 76.3575 82.6882C76.4032 82.5807 76.4297 82.4411 76.4321 82.2695C76.4345 82.1323 76.4248 81.979 76.3984 81.8143C76.3287 81.3613 76.1532 80.81 75.9152 80.3066C74.5137 77.3417 71.8982 75.6465 69.1313 73.853L68.7587 73.6127C68.4943 73.4412 68.2082 73.281 67.9077 73.1392C67.612 72.9996 67.2971 72.8692 66.9702 72.7571C66.3331 72.5398 65.6312 72.3728 64.8835 72.2653C64.7008 72.2378 64.5157 72.2149 64.3306 72.1966C64.1431 72.176 63.9484 72.16 63.7393 72.1463C63.3787 72.1234 63.0085 72.1097 62.6407 72.1097H62.6094C62.2416 72.1097 61.8498 72.1234 61.4603 72.1486C61.2656 72.16 61.0733 72.176 60.8786 72.1943C60.3064 72.247 59.7271 72.327 59.1574 72.43C58.7847 72.4963 58.4121 72.5764 58.0467 72.6633C55.8736 73.1849 54.0105 74.0154 52.936 74.9465C52.8927 74.9854 52.823 75.0632 52.7436 75.2164C52.7148 75.2714 52.6884 75.3331 52.6619 75.3972C52.6499 75.4269 52.6379 75.4589 52.6283 75.4887C52.5826 75.6191 52.5465 75.7586 52.5177 75.9028L52.5081 75.96C52.4552 76.2505 52.4383 76.5502 52.4576 76.8247C52.4672 76.9551 52.484 77.0787 52.5081 77.1839C52.5225 77.1953 52.5441 77.2113 52.5754 77.2296C52.698 77.3029 52.8807 77.3806 53.0922 77.4424C53.3663 77.5248 53.674 77.5842 53.9528 77.6094C54.061 77.6186 54.1644 77.6231 54.2581 77.6209C54.3014 77.6209 54.3423 77.6186 54.3831 77.614C54.912 77.5682 55.4673 77.4813 56.0803 77.3532C56.2702 77.3143 56.4601 77.2708 56.65 77.2251C57.4193 77.0421 58.203 76.8156 58.941 76.5982C61.4315 75.8639 63.8234 75.7632 66.0518 76.3008C66.3812 76.3809 66.7129 76.4747 67.0399 76.5822C67.2033 76.6348 67.3644 76.692 67.5231 76.7538C69.9222 77.6552 72.1675 79.3069 74.3911 81.8005C75.4224 82.9581 75.545 83.9602 74.7613 84.7815L74.7349 84.8066H74.7301Z" fill="#066938"/>
<path d="M126.134 105.316C124.956 106.076 123.831 106.78 122.746 107.478C122.475 107.652 122.208 107.826 121.941 108C121.143 108.521 120.366 109.045 119.604 109.594C119.59 109.603 119.578 109.615 119.566 109.626C119.52 109.663 119.475 109.704 119.434 109.75C119.407 109.78 119.381 109.809 119.357 109.844C119.035 110.269 118.864 110.946 118.753 111.495C118.674 111.882 118.612 112.271 118.556 112.662C118.527 112.857 118.501 113.053 118.475 113.25C118.371 114.035 118.275 114.819 118.121 115.59C118.083 115.783 118.042 115.975 117.994 116.167C117.938 116.396 117.862 116.631 117.775 116.869C117.412 117.887 116.883 118.974 117.059 119.857C117.068 119.91 117.083 119.96 117.097 120.01C117.128 120.111 117.169 120.209 117.222 120.303C117.249 120.351 117.277 120.397 117.311 120.443C117.539 120.761 117.924 121.033 118.523 121.239C118.804 121.337 119.064 121.397 119.299 121.426C119.378 121.436 119.455 121.442 119.53 121.445C119.612 121.447 119.689 121.445 119.765 121.44C119.898 121.431 120.023 121.413 120.14 121.381C120.263 121.349 120.378 121.305 120.487 121.25C120.578 121.204 120.665 121.15 120.746 121.088C120.809 121.042 120.869 120.994 120.927 120.939C121.809 120.115 122.085 118.461 122.523 117.288C123.136 115.641 123.371 113.859 123.78 112.136C123.831 111.921 123.886 111.706 123.944 111.493C124.347 109.999 124.936 108.567 126.083 107.322C126.456 106.918 126.134 105.861 126.134 105.318V105.316Z" fill="#066938"/>
<path d="M119.607 122.076C119.573 122.076 119.54 122.076 119.508 122.076C119.417 122.074 119.323 122.065 119.227 122.053C118.941 122.019 118.638 121.946 118.323 121.836C117.626 121.596 117.131 121.262 116.809 120.813C116.763 120.749 116.72 120.683 116.681 120.614C116.607 120.484 116.547 120.342 116.501 120.196C116.479 120.125 116.462 120.054 116.446 119.981C116.265 119.077 116.628 118.123 116.982 117.199C117.051 117.016 117.121 116.835 117.186 116.654C117.277 116.398 117.34 116.194 117.386 116.014C117.429 115.84 117.47 115.657 117.506 115.465C117.636 114.817 117.725 114.138 117.811 113.481L117.852 113.163C117.878 112.964 117.905 112.767 117.934 112.568C118.001 112.102 118.066 111.72 118.138 111.365C118.261 110.754 118.455 109.983 118.857 109.455C118.893 109.407 118.929 109.363 118.967 109.32C119.03 109.251 119.095 109.189 119.174 109.127C119.196 109.109 119.217 109.093 119.237 109.077C119.936 108.572 120.686 108.061 121.597 107.467C121.864 107.293 122.133 107.117 122.407 106.943C122.895 106.629 123.393 106.314 123.9 105.991C124.518 105.6 125.148 105.199 125.795 104.781L126.761 104.159V105.314C126.761 105.431 126.785 105.614 126.811 105.808C126.898 106.446 127.006 107.24 126.54 107.746C125.621 108.743 125.006 109.949 124.545 111.653C124.489 111.861 124.436 112.07 124.386 112.278C124.261 112.808 124.148 113.358 124.04 113.891C123.797 115.089 123.544 116.329 123.105 117.507C122.996 117.798 122.898 118.125 122.792 118.473C122.477 119.507 122.121 120.678 121.347 121.401C121.278 121.465 121.203 121.527 121.112 121.596C120.991 121.683 120.879 121.754 120.763 121.813C120.614 121.888 120.458 121.948 120.294 121.989C120.14 122.03 119.975 122.055 119.802 122.067C119.732 122.071 119.667 122.074 119.602 122.074L119.607 122.076ZM119.979 110.1L119.953 110.12C119.929 110.139 119.91 110.157 119.895 110.175C119.881 110.191 119.866 110.207 119.852 110.226C119.573 110.592 119.422 111.34 119.364 111.621C119.297 111.951 119.237 112.31 119.172 112.754C119.143 112.946 119.116 113.14 119.092 113.335L119.051 113.65C118.963 114.328 118.871 115.028 118.734 115.716C118.693 115.924 118.648 116.128 118.6 116.32C118.544 116.544 118.47 116.787 118.364 117.084C118.297 117.272 118.225 117.464 118.15 117.654C117.862 118.409 117.563 119.189 117.672 119.731C117.679 119.763 117.686 119.793 117.696 119.823C117.715 119.882 117.737 119.937 117.768 119.99C117.782 120.017 117.799 120.042 117.818 120.07C117.982 120.296 118.287 120.488 118.727 120.639C118.96 120.719 119.179 120.772 119.376 120.797C119.436 120.804 119.494 120.809 119.552 120.811C119.607 120.811 119.662 120.811 119.725 120.809C119.818 120.802 119.903 120.788 119.979 120.77C120.059 120.749 120.133 120.722 120.203 120.685C120.256 120.658 120.311 120.623 120.374 120.578C120.424 120.539 120.465 120.507 120.499 120.477C121.025 119.985 121.316 119.029 121.597 118.105C121.708 117.739 121.814 117.393 121.936 117.066C122.34 115.982 122.571 114.845 122.816 113.641C122.927 113.099 123.04 112.539 123.169 111.989C123.222 111.768 123.278 111.546 123.338 111.326C123.852 109.42 124.554 108.057 125.612 106.904C125.648 106.815 125.641 106.606 125.621 106.396C125.268 106.62 124.92 106.842 124.576 107.059C124.069 107.382 123.573 107.695 123.085 108.011C122.816 108.185 122.549 108.357 122.285 108.53C121.395 109.111 120.665 109.613 119.982 110.102L119.979 110.1Z" fill="#066938"/>
<path d="M47.2482 73.432C47.5367 73.1621 47.83 72.899 48.1281 72.645C48.5608 72.2744 49.0055 71.9244 49.4575 71.5904C49.6642 71.4371 49.8757 71.2884 50.0873 71.142C50.2724 71.0162 50.4575 70.8903 50.645 70.7691C51.282 70.3573 51.9335 69.9775 52.5994 69.6367C53.2653 69.2958 53.9432 68.9915 54.6331 68.7216C55.0731 68.55 55.5178 68.3921 55.9649 68.2503C56.126 68.2 56.287 68.1496 56.4481 68.1039C57.0539 67.9277 57.6645 67.779 58.2823 67.6601C66.1432 66.1296 74.7998 69.218 81.0813 78.5634C82.6607 76.8133 84.0766 75.0311 85.7185 73.4915C86.7834 72.4918 86.7137 71.7482 86.1296 70.7828C86.0887 70.7142 86.043 70.6433 85.9973 70.5723C85.9517 70.5014 85.9012 70.4282 85.8507 70.3527C80.3937 62.4623 71.1001 58.4359 61.8425 58.4702C59.1189 58.4817 56.4 58.8431 53.7821 59.5615C53.2581 59.7056 52.7388 59.8635 52.2244 60.035C51.7099 60.2066 51.2003 60.3942 50.6955 60.5955C50.1907 60.7969 49.693 61.0119 49.2002 61.2407C48.7074 61.4695 48.2218 61.7142 47.7434 61.9728C46.5463 62.6179 45.3972 63.3545 44.3034 64.1827C43.8659 64.5144 43.438 64.8599 43.0197 65.2191C41.974 66.1181 40.9908 67.1087 40.0821 68.1908C40.0532 68.2251 40.0244 68.2617 39.9955 68.3029C39.9378 68.3807 39.8802 68.4676 39.8249 68.5614C39.796 68.6072 39.7696 68.6552 39.7431 68.7033C39.6446 68.884 39.5556 69.0807 39.4835 69.2752C39.4739 69.3027 39.4643 69.3301 39.4547 69.3576C39.4234 69.4491 39.397 69.5383 39.3753 69.6275C39.3032 69.9272 39.2984 70.1949 39.397 70.3573C40.7648 72.6382 42.373 74.7726 44.0173 77.1313C44.9765 75.7975 46.0415 74.5827 47.1881 73.4961C47.2098 73.4755 47.2314 73.4549 47.253 73.4343L47.2482 73.432Z" fill="#066938"/>
<path d="M81.0068 79.5791L80.5596 78.9134C74.9104 70.5106 66.8331 66.6329 58.4001 68.2755C57.8063 68.3921 57.2078 68.5363 56.6212 68.7078C56.4649 68.7536 56.3087 68.8016 56.1524 68.8497C55.7221 68.9869 55.287 69.1402 54.8591 69.3072C54.1788 69.5726 53.5153 69.8723 52.8831 70.1972C52.2508 70.522 51.6138 70.8926 50.984 71.2998C50.8013 71.4165 50.621 71.5378 50.4407 71.6613C50.2339 71.8031 50.0296 71.9496 49.8277 72.0983C49.3805 72.4277 48.9454 72.7731 48.5319 73.1255C48.2387 73.3771 47.9502 73.6356 47.6737 73.8941L47.6088 73.9559C46.4838 75.022 45.4429 76.2139 44.5174 77.4996L44.0005 78.2157L43.4957 77.4905C43.0654 76.8728 42.6375 76.2711 42.2168 75.6786C41.0124 73.9834 39.8729 72.3819 38.8513 70.6776C38.671 70.3756 38.6397 69.9707 38.7575 69.4742C38.7816 69.3759 38.8128 69.2683 38.8513 69.1494C38.8633 69.1151 38.8729 69.083 38.8849 69.051C38.9667 68.8291 39.07 68.6003 39.183 68.3921C39.2143 68.3372 39.2455 68.28 39.2768 68.2274C39.3441 68.1153 39.4138 68.0124 39.4835 67.9186C39.5196 67.8683 39.558 67.8225 39.5941 67.779C40.51 66.6901 41.522 65.6652 42.6038 64.7341C43.0269 64.3703 43.4692 64.0134 43.9188 63.6725C45.0222 62.8375 46.2073 62.078 47.4405 61.4123C47.9261 61.1492 48.4286 60.8975 48.9286 60.6642C49.4262 60.4308 49.9406 60.2089 50.4551 60.003C50.9671 59.7994 51.4912 59.6072 52.0176 59.4311C52.5393 59.2572 53.0754 59.0925 53.6091 58.9461C56.2606 58.2186 59.0275 57.8434 61.8329 57.832C61.8762 57.832 61.9195 57.832 61.9627 57.832C71.98 57.832 81.0933 62.3685 86.3603 69.9844C86.4156 70.0645 86.4661 70.14 86.5166 70.2155C86.5671 70.2932 86.6152 70.371 86.6608 70.4442C87.4758 71.7917 87.3219 72.8372 86.1416 73.9445C85.0213 74.9968 84.0141 76.1521 82.9491 77.3783C82.4924 77.9022 82.0212 78.4444 81.5404 78.9798L81.0044 79.5746L81.0068 79.5791ZM62.1142 66.6535C64.9893 66.6535 67.8428 67.2574 70.5256 68.4516C74.5906 70.2612 78.1605 73.3176 81.1438 77.5431C81.4371 77.2091 81.7279 76.8773 82.0116 76.5502C83.0982 75.3011 84.1247 74.1206 85.2906 73.0248C86.132 72.2355 86.0214 71.8146 85.5935 71.1054C85.555 71.0436 85.5141 70.9796 85.4733 70.9132C85.43 70.8469 85.3819 70.7782 85.3338 70.7073C80.3024 63.4323 71.5737 59.0971 61.9652 59.0971C61.9243 59.0971 61.8834 59.0971 61.8401 59.0971C59.1453 59.1085 56.4866 59.4677 53.9408 60.1655C53.4288 60.305 52.9167 60.4629 52.4167 60.6299C51.9143 60.7992 51.4095 60.9822 50.9215 61.1766C50.4286 61.3734 49.9358 61.5861 49.4599 61.808C48.9791 62.0322 48.5007 62.2725 48.0367 62.5241C46.8588 63.1601 45.7289 63.8853 44.676 64.6814C44.2481 65.004 43.8274 65.3449 43.4236 65.6926C42.3923 66.5803 41.4283 67.5548 40.5581 68.5935C40.5364 68.6186 40.5148 68.6461 40.4932 68.6735C40.4475 68.7353 40.4018 68.8039 40.3561 68.8817C40.3345 68.9206 40.3105 68.9595 40.2888 69.0007C40.2047 69.154 40.1278 69.3232 40.0701 69.4857C40.0605 69.5085 40.0532 69.5314 40.046 69.5543C40.0196 69.6344 39.998 69.7053 39.9835 69.7648C39.9451 69.9318 39.9451 70.021 39.9499 70.053C40.9427 71.7025 42.0605 73.2764 43.2433 74.9419C43.5029 75.308 43.7673 75.6786 44.0318 76.0538C44.8659 74.9694 45.7818 73.9559 46.7578 73.0317L46.8251 72.9676C47.1136 72.6954 47.4189 72.4231 47.7266 72.16C48.1617 71.7894 48.6209 71.4257 49.0921 71.0779C49.3036 70.9224 49.5224 70.7668 49.7387 70.6181C49.9286 70.4877 50.1185 70.3596 50.3108 70.236C50.9743 69.806 51.6498 69.4148 52.3181 69.0716C52.9864 68.7284 53.6884 68.4127 54.4096 68.129C54.8615 67.9529 55.3231 67.7882 55.7798 67.6441C55.9457 67.5914 56.1116 67.5411 56.2774 67.4931C56.9 67.3123 57.5347 67.1568 58.1669 67.0355C59.4795 66.7793 60.8016 66.6535 62.119 66.6535H62.1142Z" fill="#066938"/>
<path d="M41.6495 61.5175C42.3754 60.9547 43.1135 60.4217 43.8659 59.923C45.2698 58.9919 46.7194 58.1751 48.2146 57.4774C48.4286 57.379 48.6425 57.2806 48.8565 57.1868C49.1906 57.0404 49.5248 56.9009 49.8637 56.7659C50.9094 56.3495 51.9744 55.9881 53.0634 55.6838C53.6018 55.5328 54.1475 55.3955 54.698 55.2743C55.0057 55.2056 55.3159 55.1416 55.626 55.0844C57.4914 54.7298 59.4194 54.5376 61.4074 54.5148C62.4027 54.5033 63.4123 54.5331 64.4364 54.6063C68.576 54.9037 72.3646 55.8599 75.8142 57.4133C76.6773 57.8022 77.5162 58.2277 78.336 58.6899C78.8817 58.9987 79.4202 59.3213 79.9466 59.6622C80.2111 59.8314 80.4731 60.0053 80.7303 60.1838C81.7664 60.8952 82.7664 61.6708 83.7304 62.5058C83.9708 62.714 84.2088 62.9267 84.4468 63.1441C86.3363 64.8759 88.0792 66.8479 89.6802 69.0419C89.8797 69.3164 90.0768 69.5932 90.274 69.8746C90.6153 69.6824 90.9543 69.4948 91.2908 69.3072C93.6371 67.9964 95.827 66.7724 98.0218 65.5462C97.6516 64.9468 97.2694 64.3611 96.8728 63.7869C96.4761 63.2127 96.0674 62.6522 95.6467 62.1032C95.2261 61.5541 94.7934 61.0188 94.3486 60.4949C93.9039 59.971 93.4496 59.4608 92.9832 58.9621C92.5168 58.4634 92.0384 57.9807 91.5528 57.5071C90.822 56.8002 90.0672 56.1207 89.2931 55.4733C88.7763 55.0409 88.2498 54.6223 87.7162 54.2174C86.5454 53.3297 85.3338 52.5107 84.0862 51.7535C83.7256 51.5338 83.3626 51.3211 82.9972 51.1152C81.6486 50.3488 80.2591 49.6579 78.8432 49.0448C78.4105 48.8572 77.9778 48.6788 77.5403 48.5072C77.1436 48.3516 76.747 48.1983 76.3479 48.0542C75.7253 47.83 75.0979 47.6195 74.4656 47.4228C73.5185 47.13 72.5617 46.8692 71.5953 46.6404C70.9535 46.4894 70.3068 46.3521 69.6578 46.2309C69.3332 46.1691 69.0087 46.1119 68.6818 46.0593C64.4893 45.3707 60.1983 45.3044 55.9697 45.8992C55.876 45.9129 55.7822 45.9266 55.6885 45.9403C55.1428 46.0204 54.5971 46.1119 54.0514 46.2149C52.4816 46.5123 50.9263 46.9012 49.3901 47.3862C49.1113 47.4731 48.8324 47.5646 48.556 47.6607C46.1641 48.4729 43.825 49.5138 41.5725 50.7995C40.7864 51.2479 39.7552 51.8679 39.534 52.6182C39.3753 53.1558 39.2191 53.6935 39.0652 54.2311C38.9114 54.771 38.7599 55.3086 38.6109 55.8508C37.719 59.0925 36.9041 62.3571 36.0507 65.6103C36.3031 65.7201 36.5555 65.8322 36.8079 65.942C37.0435 65.6903 37.2791 65.4455 37.5171 65.203C37.9931 64.718 38.4763 64.2468 38.9667 63.7915C39.4571 63.3363 39.9523 62.897 40.4547 62.4738C40.8465 62.1421 41.2456 61.8241 41.6471 61.5129L41.6495 61.5175Z" fill="#066938"/>
<path d="M90.0912 70.705L89.7667 70.2406C89.5744 69.9615 89.3773 69.687 89.1826 69.4193C87.5984 67.2483 85.8675 65.2946 84.0333 63.6154C83.8025 63.4026 83.5646 63.1921 83.3314 62.9885C82.3866 62.1672 81.3962 61.4008 80.3865 60.7099C80.1317 60.5361 79.8721 60.3622 79.6173 60.1975C79.1004 59.8658 78.5692 59.5432 78.0379 59.2435C77.235 58.7905 76.4032 58.3696 75.5642 57.9921C72.1434 56.4502 68.3861 55.5236 64.3979 55.2377C63.3979 55.1668 62.3955 55.1347 61.4195 55.1462C59.4891 55.169 57.5804 55.3566 55.7462 55.7044C55.4433 55.7616 55.138 55.8256 54.8375 55.892C54.323 56.0064 53.799 56.1368 53.2364 56.2946C52.1835 56.5874 51.1282 56.9443 50.0993 57.3538C49.7724 57.4842 49.4406 57.6238 49.1137 57.7679C48.9021 57.8617 48.693 57.9555 48.4839 58.0539C47.0319 58.731 45.5967 59.5386 44.2169 60.4537C43.4837 60.941 42.7505 61.4672 42.0389 62.0208C41.6014 62.3617 41.2168 62.6705 40.8658 62.9656C40.3754 63.3797 39.8826 63.8144 39.3994 64.2628C38.9186 64.7089 38.4378 65.1756 37.9714 65.6537C37.7407 65.8894 37.5051 66.1342 37.2695 66.3835L36.9666 66.7061L35.3127 65.9809L35.4497 65.457C35.7382 64.3589 36.0218 63.2585 36.3055 62.1581C36.8536 60.0351 37.4185 57.8411 38.0123 55.6906C38.1613 55.1485 38.3128 54.6063 38.4666 54.0664C38.6205 53.5242 38.7792 52.9843 38.9378 52.4466C39.2215 51.495 40.2888 50.8201 41.2696 50.2596C43.5101 48.9807 45.8948 47.9078 48.3613 47.0705C48.6425 46.9744 48.9262 46.8829 49.2098 46.7937C50.7604 46.3041 52.3518 45.906 53.9432 45.604C54.4961 45.4988 55.0538 45.405 55.6043 45.3249C55.7005 45.3112 55.7942 45.2975 55.8904 45.2838C60.1502 44.6844 64.4893 44.7393 68.7899 45.4462C69.1217 45.5011 69.4534 45.5583 69.7804 45.6201C70.4366 45.7436 71.0977 45.8831 71.7468 46.0364C72.7228 46.2675 73.7012 46.5329 74.658 46.8303C75.2974 47.0293 75.9393 47.2443 76.5667 47.4708C76.9321 47.6035 77.3167 47.7476 77.7759 47.9307C78.2158 48.1045 78.6605 48.2875 79.098 48.4774C80.5332 49.0997 81.9515 49.8043 83.3145 50.5776C83.6823 50.7857 84.055 51.0054 84.4204 51.2273C85.7017 52.0051 86.9397 52.847 88.1032 53.7278C88.6465 54.1396 89.185 54.5697 89.7042 55.0043C90.4903 55.6609 91.262 56.3564 91.9976 57.0702C92.4904 57.5483 92.9808 58.0447 93.4495 58.5457C93.9231 59.049 94.3895 59.5729 94.8366 60.1014C95.2862 60.6322 95.7309 61.1812 96.154 61.7348C96.5795 62.2908 96.9978 62.865 97.3968 63.4438C97.7983 64.0271 98.1925 64.6265 98.5627 65.2282L98.9113 65.791L90.0936 70.7188L90.0912 70.705ZM61.8161 53.8811C62.6935 53.8811 63.5902 53.9131 64.4845 53.9771C68.6193 54.2745 72.5184 55.2354 76.0739 56.8391C76.9465 57.2326 77.8119 57.6695 78.6461 58.1408C79.199 58.4519 79.7519 58.786 80.2904 59.1337C80.5572 59.3053 80.8265 59.4837 81.0909 59.6667C82.139 60.3851 83.1655 61.1812 84.1463 62.0322C84.3891 62.2427 84.6343 62.4623 84.8747 62.682C86.769 64.4184 88.5575 66.4338 90.1922 68.6735C90.2836 68.7994 90.3749 68.9252 90.4663 69.0533L97.142 65.3243C96.8896 64.9285 96.6276 64.5373 96.3631 64.153C95.9761 63.5925 95.5698 63.0343 95.1563 62.4944C94.7453 61.959 94.315 61.426 93.8774 60.9113C93.4423 60.3988 92.9904 59.8932 92.5312 59.4036C92.0745 58.9164 91.6009 58.4359 91.1225 57.9715C90.4086 57.2806 89.6585 56.6057 88.8965 55.9675C88.3917 55.5465 87.87 55.1302 87.3411 54.7298C86.2137 53.8742 85.0093 53.0575 83.7641 52.3025C83.4107 52.0875 83.0501 51.8747 82.6895 51.6734C81.3673 50.923 79.9899 50.2367 78.5956 49.635C78.1701 49.452 77.7374 49.2736 77.3119 49.1043C76.8648 48.9281 76.4898 48.7863 76.1364 48.6582C75.5258 48.4385 74.9032 48.2281 74.2805 48.0359C73.3526 47.7476 72.4007 47.4891 71.4535 47.2649C70.8237 47.1162 70.1818 46.9813 69.5424 46.86C69.225 46.8005 68.9029 46.7433 68.5808 46.6907C64.4051 46.0044 60.191 45.9518 56.0563 46.5329C55.9649 46.5466 55.8712 46.5603 55.7798 46.574C55.2461 46.6518 54.7029 46.7433 54.1668 46.8463C52.6234 47.1391 51.0801 47.5257 49.5777 47.9993C49.3036 48.0862 49.0296 48.1755 48.7555 48.2692C46.366 49.0814 44.0534 50.12 41.8826 51.36C41.4067 51.6299 40.296 52.2659 40.135 52.8104C39.9763 53.3457 39.8201 53.8811 39.6662 54.4164C39.5124 54.954 39.3633 55.4916 39.2143 56.0292C38.6253 58.1706 38.0604 60.3599 37.5123 62.4761C37.2959 63.3088 37.082 64.1438 36.8656 64.9766C36.9329 64.9056 37.0026 64.837 37.07 64.7661C37.5507 64.2765 38.046 63.7938 38.5412 63.3363C39.0364 62.8764 39.546 62.4257 40.0532 62.0002C40.4186 61.6937 40.8129 61.3734 41.2648 61.0234C42.0004 60.4514 42.7601 59.9069 43.5197 59.4014C44.9525 58.4519 46.4429 57.6146 47.9502 56.91C48.1689 56.8093 48.3853 56.711 48.6065 56.6149C48.9478 56.4662 49.2916 56.3198 49.6329 56.1848C50.7027 55.757 51.8013 55.3864 52.8975 55.0821C53.4841 54.9197 54.0273 54.7824 54.5634 54.6635C54.8783 54.5948 55.1957 54.5285 55.5106 54.469C57.4145 54.1075 59.3977 53.9131 61.4026 53.8879C61.5397 53.8879 61.6791 53.8856 61.8161 53.8856V53.8811Z" fill="#066938"/>
<path d="M96.755 100.635C99.7984 93.2117 105.601 88.7438 113.515 87.783C118.689 87.1561 120.064 82.9078 123.287 79.8811C110.994 76.0263 96.7646 82.345 90.1009 94.1063C83.5814 105.614 85.918 121.57 95.7117 130.351C96.88 129.404 98.0411 128.596 99.0459 127.624C101.904 124.853 101.851 124.833 99.5219 121.683C94.7212 115.192 93.7212 108.041 96.755 100.633V100.635Z" fill="#066938"/>
<path d="M95.69 131.179L95.2934 130.824C85.3555 121.916 82.8362 105.65 89.5552 93.7951C96.4545 81.6198 111.037 75.3789 123.472 79.2795L124.504 79.602L123.715 80.3433C122.792 81.2103 122.008 82.2055 121.249 83.1663C119.398 85.5112 117.484 87.9385 113.592 88.4098C105.919 89.3409 100.298 93.651 97.3367 100.876C94.3967 108.048 95.3006 114.92 100.027 121.305L100.08 121.378C101.318 123.051 101.938 123.89 101.856 124.867C101.772 125.862 100.959 126.649 99.4834 128.079C98.7743 128.768 98.0122 129.356 97.2045 129.98C96.8439 130.259 96.4737 130.545 96.1083 130.843L95.6948 131.177L95.69 131.179ZM115.789 79.3801C105.919 79.3801 95.9352 85.0811 90.6441 94.4197C84.2977 105.62 86.5526 120.925 95.7381 129.525C95.9737 129.34 96.2069 129.159 96.4352 128.98C97.2141 128.379 97.9497 127.809 98.6084 127.171C99.8897 125.931 100.558 125.261 100.601 124.762C100.645 124.261 100.051 123.46 99.07 122.136L99.0171 122.062C96.5554 118.734 95.0602 115.211 94.577 111.589C94.089 107.938 94.6275 104.172 96.1756 100.395C99.32 92.7245 105.291 88.1467 113.441 87.1584C116.823 86.7489 118.419 84.7243 120.265 82.3816C120.84 81.6518 121.429 80.906 122.092 80.1923C120.03 79.6455 117.912 79.3801 115.789 79.3801Z" fill="#066938"/>
<path d="M107.618 15.3808C88.0863 17.6571 82.3145 25.8884 86.7377 29.3062C89.0864 31.1204 94.5001 31.006 99.493 27.6774C100.52 26.9933 103.64 24.9115 107.618 15.3808Z" fill="#FAC720"/>
<path d="M135.103 10.0229C130.884 7.66657 113.866 8.19503 112.441 24.0833C113.02 24.3167 126.963 20.5717 132.042 17.895C134.506 16.5979 137.507 13.7313 136.47 11.423C136.127 10.6543 135.461 10.2448 135.103 10.0229Z" fill="#FAC720"/>
<path d="M121.818 2.55806C118.739 1.15111 103.885 0.316083 93.7116 13.5323C100.664 13.6421 126.177 7.43551 122.422 3.02018C122.422 3.02018 122.179 2.73879 121.818 2.55806Z" fill="#FAC720"/>
<path d="M40.5965 89.4072C34.2597 86.4515 25.2522 95.472 29.5865 115.577C31.3774 114.236 40.4186 107.309 42.4379 102.511C45.4525 95.3485 42.9884 90.7501 40.5965 89.4072Z" fill="#FAC720"/>
<path d="M43.4548 115.604C22.2641 125.258 25.8604 143.988 32.6419 146.777C36.7262 148.456 40.8586 143.983 42.1519 140.25C44.2986 134.064 44.0438 123.435 43.4548 115.606" fill="#FAC720"/>
<path d="M21.7136 103.388C5.52065 120.813 10.5761 137.527 16.4201 137.177C16.5355 137.171 27.8989 136.109 21.7136 103.388Z" fill="#FAC720"/>
<path d="M44.3034 35.3458C40.248 34.1951 30.9639 39.9991 30.9014 40.0677C30.8582 40.1112 28.2475 47.3862 29.9254 50.4495C32.4712 55.0981 43.462 45.8511 45.2361 39.0314C45.9237 36.3913 44.813 35.5769 44.3058 35.3481" fill="#FAC720"/>
<path d="M47.443 18.8032C43.4428 17.6113 27.8605 31.0449 29.5168 34.2592C30.149 35.4877 32.6491 34.5085 46.241 27.7071C48.6906 19.4438 48.056 19.1167 47.443 18.8032Z" fill="#FAC720"/>
<path d="M23.4156 42.1839C20.8674 41.6966 16.2014 47.3015 14.0907 50.3328C10.0545 56.1299 8.50154 61.0256 9.3333 62.4074C10.504 64.352 21.7064 56.7361 21.7929 56.6149C21.8819 56.4914 25.5623 42.7878 23.4132 42.1839" fill="#FAC720"/>
<path d="M144.24 44.403C132.715 37.6976 119.85 53.6706 117.388 56.9397C123.006 59.1886 133.99 62.5538 139.535 60.8952C146.577 58.7882 149.332 52.3872 147.399 47.9604C146.601 46.1325 145.242 45.0161 144.242 44.4007" fill="#FAC720"/>
<path d="M142.425 23.413C134.788 19.032 122.335 25.5521 115.592 29.8301C135.016 42.6826 146.218 33.0444 145.23 27.1741C144.978 25.6733 144.007 24.3716 142.425 23.413Z" fill="#FAC720"/>
<path d="M29.1995 66.4613C23.8675 64.0271 16.4826 76.4999 13.081 84.9347C13.081 84.9393 13.0762 84.9462 13.0738 84.9507C28.9422 90.3864 32.4929 71.6133 30.512 67.8225C30.1057 67.047 29.5745 66.6535 29.1995 66.4613Z" fill="#FAC720"/>
<path d="M16.9706 96.092C2.08302 88.6203 0.292082 110.676 2.10946 115.808C5.13362 124.355 10.8454 112.253 13.2854 107.082C13.3118 107.023 17.937 97.1512 18.1221 96.7509C17.6149 96.4283 17.1485 96.1812 16.9706 96.0897" fill="#FAC720"/>
<path d="M17.8793 66.4933C14.295 66.3538 9.22993 67.3398 5.47017 72.8235C0.82095 79.6043 -1.18634 89.2654 0.710368 91.528C1.86666 92.9075 3.86915 91.5394 6.66733 87.4604C7.35486 86.4568 11.0922 79.4678 17.8793 66.4933Z" fill="#FAC720"/>
<path d="M72.4319 13.4728C61.0396 20.4504 55.4433 28.0182 60.6887 29.3474C65.2465 30.5027 79.1918 23.214 75.9753 17.0486C75.1003 15.3694 73.3358 14.0105 72.4295 13.4705" fill="#FAC720"/>
<path d="M101.534 0.403018C97.2117 -1.48436 79.1629 3.58068 80.7231 8.86992C81.3649 11.0455 85.204 12.8437 85.9661 13.1823C86.3387 13.0244 99.2527 4.57584 100.947 3.1849C101.339 2.86462 103.202 1.22203 101.534 0.403018Z" fill="#FAC720"/>
<path d="M74.6123 5.17294C72.3478 4.35622 64.071 7.33485 57.9986 11.8485C55.186 13.9395 52.5393 16.5796 54.2389 20.32C54.6091 21.1367 55.0827 21.727 55.2389 21.9237C55.7798 21.7521 72.2564 9.29772 72.391 9.18105C74.8118 7.11522 75.6099 5.7952 74.7661 5.2553C74.7229 5.22785 74.658 5.19582 74.6099 5.17523" fill="#FAC720"/>
<path d="M53.7148 116.75C53.2797 116.494 52.7581 116.192 52.0753 115.835C51.8157 116.025 47.6641 129.003 49.2892 138.989C49.693 141.471 52.1811 146.907 57.2919 147.863C65.6191 149.421 72.2372 137.342 65.8691 127.555C63.4652 123.858 59.0323 119.921 53.7124 116.753" fill="#FAC720"/>
</g>
</svg>
