<svg xmlns="http://www.w3.org/2000/svg" viewBox="0 0 750 500"><g id="freepik--background-simple--inject-14"><path d="M685.27,241.61c-19.19-34.67-47.18-64.16-80.89-86.49C549.25,118.59,444.66,59.51,366.7,76.9,255.91,101.6,6.38,257,44,323.92s122,109.4,122,109.4H613.1c22.49-.3,70.89-17.88,89.17-127.93C705.51,285.88,696.91,262.64,685.27,241.61Z" style="fill:#92E3A9"></path><path d="M685.27,241.61c-19.19-34.67-47.18-64.16-80.89-86.49C549.25,118.59,444.66,59.51,366.7,76.9,255.91,101.6,6.38,257,44,323.92s122,109.4,122,109.4H613.1c22.49-.3,70.89-17.88,89.17-127.93C705.51,285.88,696.91,262.64,685.27,241.61Z" style="fill:#fff;opacity:0.7000000000000001"></path></g><g id="freepik--Plants--inject-14"><path d="M99.06,396.76c-1.49.44-4.92-.07-4.92-.07s1-2.16,1.1-2.29c1-1.48,3.67-3.79,5.58-3.28a2.34,2.34,0,0,1,1.5,3.14A4.89,4.89,0,0,1,99.06,396.76Z" style="fill:#263238"></path><path d="M67,395.33s-.34-2.37-.34-2.52c0-1.76,1-5.19,2.83-5.82a2.34,2.34,0,0,1,3,1.79,4.89,4.89,0,0,1-1.34,3.89C70.16,393.86,67,395.33,67,395.33Z" style="fill:#263238"></path><path d="M59.67,389a14,14,0,0,0,4.09.89c.31.41.62.86,1,1.36.59.89,1.25,1.89,1.9,3,.17.3.34.64.52,1-.41-.48-1-1.13-1-1.19-1.14-1-4-2.41-5.47-1.56a2.05,2.05,0,0,0-.58,3,4.29,4.29,0,0,0,3.33,1.41,13.82,13.82,0,0,0,4.06-1.1c.37.71.74,1.46,1.08,2.26A26.06,26.06,0,0,1,70,402.5l-.09,0c-.32-.49-1-1.5-1.08-1.57-1-1.17-3.67-2.84-5.27-2.15a2.05,2.05,0,0,0-.9,2.92,4.28,4.28,0,0,0,3.15,1.76,14.58,14.58,0,0,0,4.25-.68,36.14,36.14,0,0,1,.67,4.65c.09,1.15.14,2.33.18,3.51-.21-.35-1.12-1.68-1.2-1.77-1-1.17-3.67-2.83-5.27-2.15a2.05,2.05,0,0,0-.9,2.92,4.29,4.29,0,0,0,3.15,1.77,14.37,14.37,0,0,0,4.23-.68c0,.54,0,1.07,0,1.61,0,1.75.08,3.51.17,5.24,0,.6.08,1.19.13,1.78-.34-.51-1-1.43-1-1.5-1-1.17-3.67-2.84-5.27-2.15a2.05,2.05,0,0,0-.9,2.92,4.28,4.28,0,0,0,3.15,1.76,13.42,13.42,0,0,0,4.09-.63c.09,1,.2,2,.36,2.91.07.41.12.83.22,1.22s.17.79.26,1.17c.2.8.39,1.53.6,2.27.11.37.21.72.32,1.08-.27-.57-.7-1.47-.75-1.55-.83-1.31-3.2-3.36-4.89-2.92A2,2,0,0,0,66.12,427,4.29,4.29,0,0,0,69,429.25a14.33,14.33,0,0,0,4.26,0c.26.87.52,1.73.79,2.52s.41,1.26.62,1.84h1.14c-.26-.68-.52-1.4-.79-2.17s-.51-1.47-.76-2.25a14.84,14.84,0,0,0,3.61-2,24.38,24.38,0,0,0,2.29,1.29c-.27.87-.52,1.73-.74,2.54s-.47,1.77-.67,2.57h1.12c.16-.73.34-1.49.55-2.31s.39-1.51.61-2.3a14.17,14.17,0,0,0,4.24.32,4.29,4.29,0,0,0,3-2,2.06,2.06,0,0,0-1.14-2.84c-1.65-.55-4.16,1.33-5.07,2.58-.06.08-.65,1.1-.94,1.63.13-.48.27-.95.41-1.45.21-.71.45-1.46.69-2.19.13-.37.26-.75.4-1.13s.3-.74.45-1.12c.23-.54.5-1.09.76-1.65a13.06,13.06,0,0,0,4,.89A4.29,4.29,0,0,0,91,420.46a2.06,2.06,0,0,0-.7-3c-1.54-.79-4.31.68-5.4,1.78,0,0-.25.29-.49.6q.41-.8.84-1.59c.84-1.5,1.75-3,2.65-4.51l.55-.94a13.77,13.77,0,0,0,4.06.92,4.29,4.29,0,0,0,3.27-1.54,2.06,2.06,0,0,0-.7-3c-1.55-.79-4.31.68-5.41,1.78l-.56.69c.48-.82,1-1.65,1.38-2.49a37,37,0,0,0,2-4.44,14,14,0,0,0,4.17,1,4.29,4.29,0,0,0,3.27-1.54,2.06,2.06,0,0,0-.7-3c-1.55-.79-4.31.69-5.41,1.78-.08.08-1,1.19-1.26,1.6,0,0,0,0,0,0a26.59,26.59,0,0,0,1.12-4.63,35.2,35.2,0,0,0,.41-4.24c.06-1.32,0-2.53,0-3.6,0-.58-.05-1.1-.08-1.6l0,0s.75-2,.78-2.1c.37-1.5.19-4.63-1.29-5.54a2.06,2.06,0,0,0-2.91,1,4.29,4.29,0,0,0,.39,3.59,13.51,13.51,0,0,0,2.92,3c0,.51,0,1.06.05,1.67,0,1.06,0,2.27-.09,3.58,0,.35-.06.72-.1,1.09-.07-.63-.18-1.48-.2-1.56-.37-1.51-2-4.2-3.71-4.32a2.06,2.06,0,0,0-2.14,2.18,4.29,4.29,0,0,0,2,3,13.87,13.87,0,0,0,4,1.32c-.08.8-.19,1.63-.35,2.48a26.81,26.81,0,0,1-1.21,4.56h-.1c0-.59,0-1.82,0-1.92-.21-1.53-1.5-4.39-3.21-4.7a2.07,2.07,0,0,0-2.37,1.94,4.31,4.31,0,0,0,1.66,3.21,14.35,14.35,0,0,0,3.92,1.78,37,37,0,0,1-2,4.24c-.55,1-1.16,2-1.78,3,0-.41,0-2,0-2.13-.2-1.54-1.5-4.39-3.21-4.7a2,2,0,0,0-2.36,1.94,4.27,4.27,0,0,0,1.66,3.21,14.38,14.38,0,0,0,3.89,1.77l-.84,1.36c-.93,1.49-1.87,3-2.75,4.47-.31.52-.59,1-.88,1.56,0-.62,0-1.74,0-1.83-.2-1.54-1.5-4.39-3.21-4.7a2,2,0,0,0-2.36,1.94,4.3,4.3,0,0,0,1.65,3.21,13.47,13.47,0,0,0,3.76,1.72c-.47.88-.91,1.75-1.31,2.63-.16.38-.35.76-.49,1.14s-.28.75-.43,1.12c-.26.78-.51,1.5-.74,2.22-.12.37-.22.72-.33,1.08.09-.63.22-1.62.22-1.71,0-1.55-.81-4.56-2.45-5.13a2.06,2.06,0,0,0-2.64,1.56,3.47,3.47,0,0,0-.06.45A8,8,0,0,0,74,427c0,.09.06,1.27.12,1.87-.16-.47-.31-.94-.46-1.43-.22-.72-.43-1.47-.64-2.21-.09-.38-.19-.77-.28-1.16s-.16-.79-.24-1.18c-.11-.59-.19-1.19-.28-1.8A12.92,12.92,0,0,0,76,419.62a4.28,4.28,0,0,0,1.88-3.09,2,2,0,0,0-2.23-2.09c-1.72.19-3.21,2.94-3.52,4.46,0,.05,0,.38-.08.77-.06-.6-.13-1.19-.17-1.79-.13-1.72-.2-3.47-.28-5.22l-.06-1.1a13.52,13.52,0,0,0,3.89-1.46A4.31,4.31,0,0,0,77.32,407a2.06,2.06,0,0,0-2.23-2.1c-1.72.19-3.21,2.95-3.52,4.47,0,.05,0,.44-.09.88-.06-.95-.13-1.9-.23-2.84a35.2,35.2,0,0,0-.8-4.79,14.26,14.26,0,0,0,4-1.49,4.31,4.31,0,0,0,1.87-3.09,2.05,2.05,0,0,0-2.22-2.1c-1.73.19-3.22,2.95-3.53,4.47,0,.11-.15,1.52-.17,2,0,0,0,0,0-.05a26.68,26.68,0,0,0-1.61-4.49,35.48,35.48,0,0,0-2-3.76c-.67-1.13-1.36-2.13-2-3-.34-.48-.65-.9-.95-1.3h0s-.45-2.05-.5-2.18c-.52-1.46-2.4-4-4.14-3.9a2.05,2.05,0,0,0-1.89,2.4A4.28,4.28,0,0,0,59.67,389Z" style="fill:#263238"></path><path d="M660.14,412.46a9.38,9.38,0,0,1-2.83,0s.59-1.24.64-1.31c.54-.85,2.1-2.18,3.2-1.89A1.35,1.35,0,0,1,662,411,2.81,2.81,0,0,1,660.14,412.46Z" style="fill:#263238"></path><path d="M641.76,411.64s-.2-1.36-.2-1.44c0-1,.55-3,1.63-3.34a1.34,1.34,0,0,1,1.71,1,2.79,2.79,0,0,1-.77,2.23A9.53,9.53,0,0,1,641.76,411.64Z" style="fill:#263238"></path><path d="M637.54,408a8.33,8.33,0,0,0,2.35.51c.17.23.36.49.55.78.34.51.72,1.09,1.09,1.74l.3.55-.59-.68c-.66-.6-2.27-1.38-3.14-.89a1.17,1.17,0,0,0-.33,1.72,2.46,2.46,0,0,0,1.91.81,8,8,0,0,0,2.32-.64,14.23,14.23,0,0,1,.62,1.3,14.91,14.91,0,0,1,.87,2.57l-.06,0c-.18-.28-.58-.86-.62-.91-.58-.67-2.1-1.62-3-1.23a1.18,1.18,0,0,0-.52,1.68,2.46,2.46,0,0,0,1.81,1,8.22,8.22,0,0,0,2.44-.39,20.77,20.77,0,0,1,.38,2.66c.06.67.09,1.34.11,2l-.69-1c-.59-.68-2.11-1.63-3-1.24a1.18,1.18,0,0,0-.52,1.68,2.46,2.46,0,0,0,1.81,1,8,8,0,0,0,2.42-.39l0,.93c0,1,.05,2,.1,3,0,.35,0,.69.07,1-.19-.29-.56-.82-.59-.86-.59-.67-2.11-1.63-3-1.23a1.16,1.16,0,0,0-.51,1.67,2.43,2.43,0,0,0,1.81,1,7.42,7.42,0,0,0,2.34-.36c0,.57.11,1.12.2,1.67.05.24.08.48.13.7l.15.67c.12.46.23.88.35,1.3.06.22.12.42.18.62-.15-.33-.4-.84-.43-.89-.48-.75-1.84-1.92-2.8-1.67a1.18,1.18,0,0,0-.77,1.58,2.44,2.44,0,0,0,1.64,1.27,8.39,8.39,0,0,0,2.44,0c.15.5.3,1,.45,1.45s.24.72.36,1h.65c-.14-.39-.3-.8-.45-1.24s-.29-.85-.44-1.3a8.68,8.68,0,0,0,2.08-1.13,14.4,14.4,0,0,0,1.31.74c-.15.5-.3,1-.42,1.45s-.28,1-.39,1.48h.64c.09-.42.2-.85.32-1.33s.22-.86.35-1.32a8.1,8.1,0,0,0,2.43.19,2.48,2.48,0,0,0,1.72-1.16,1.18,1.18,0,0,0-.65-1.63c-.95-.31-2.39.76-2.91,1.48,0,.05-.38.63-.54.94.08-.28.15-.55.24-.83s.25-.84.39-1.26c.07-.22.15-.43.23-.65s.17-.42.26-.64.28-.63.44-.95a7.3,7.3,0,0,0,2.26.51,2.49,2.49,0,0,0,1.88-.88,1.19,1.19,0,0,0-.41-1.71c-.88-.45-2.47.39-3.1,1l-.28.34c.16-.3.32-.61.49-.91.48-.86,1-1.72,1.52-2.58l.31-.55a7.71,7.71,0,0,0,2.33.53,2.46,2.46,0,0,0,1.88-.88,1.19,1.19,0,0,0-.4-1.71c-.89-.45-2.48.39-3.11,1l-.32.4c.28-.48.54-.95.79-1.43a20.53,20.53,0,0,0,1.14-2.55,8.11,8.11,0,0,0,2.39.56,2.46,2.46,0,0,0,1.87-.88,1.17,1.17,0,0,0-.4-1.71c-.88-.46-2.47.39-3.1,1,0,0-.55.68-.72.91v0a15.68,15.68,0,0,0,.64-2.65,22.39,22.39,0,0,0,.24-2.43c0-.76,0-1.45,0-2.07,0-.33,0-.63,0-.91h0s.44-1.13.45-1.2c.21-.87.11-2.66-.74-3.18a1.19,1.19,0,0,0-1.67.55,2.46,2.46,0,0,0,.23,2.06,7.86,7.86,0,0,0,1.67,1.72q0,.44,0,1c0,.61,0,1.3,0,2.05l-.06.62c0-.35-.1-.84-.11-.89-.22-.86-1.14-2.41-2.13-2.48a1.18,1.18,0,0,0-1.23,1.26,2.48,2.48,0,0,0,1.15,1.72,8,8,0,0,0,2.29.76c-.05.46-.11.93-.2,1.42a14.73,14.73,0,0,1-.69,2.62h-.06c0-.34,0-1,0-1.1-.12-.88-.86-2.52-1.84-2.69a1.18,1.18,0,0,0-1.36,1.11,2.5,2.5,0,0,0,1,1.84,8.46,8.46,0,0,0,2.25,1,20.61,20.61,0,0,1-1.15,2.43c-.32.59-.66,1.16-1,1.74,0-.23,0-1.16,0-1.22-.11-.89-.86-2.52-1.84-2.7a1.18,1.18,0,0,0-1.35,1.11,2.43,2.43,0,0,0,1,1.84,8.15,8.15,0,0,0,2.23,1l-.48.78c-.54.86-1.08,1.71-1.58,2.57-.18.29-.34.59-.5.89,0-.35,0-1,0-1.05-.12-.88-.86-2.52-1.84-2.7a1.19,1.19,0,0,0-1.36,1.12,2.5,2.5,0,0,0,1,1.84,7.94,7.94,0,0,0,2.16,1c-.27.5-.53,1-.75,1.5a6.21,6.21,0,0,0-.28.66c-.09.22-.17.43-.25.64-.15.45-.3.86-.43,1.28-.06.21-.12.41-.19.61.06-.36.13-.92.13-1,0-.88-.47-2.61-1.41-2.94a1.18,1.18,0,0,0-1.51.89,1.22,1.22,0,0,0,0,.26,4.59,4.59,0,0,0-.78,2.18c0,.06,0,.73.07,1.08-.08-.27-.17-.54-.26-.83l-.36-1.26-.17-.67c-.06-.23-.09-.45-.14-.68s-.1-.68-.15-1a7.51,7.51,0,0,0,2.17-.82,2.48,2.48,0,0,0,1.07-1.77,1.18,1.18,0,0,0-1.27-1.21c-1,.11-1.85,1.69-2,2.56,0,0,0,.22,0,.44,0-.34-.07-.68-.1-1-.07-1-.11-2-.16-3l0-.63a7.52,7.52,0,0,0,2.23-.84,2.44,2.44,0,0,0,1.07-1.77,1.17,1.17,0,0,0-1.27-1.2c-1,.11-1.85,1.69-2,2.56,0,0,0,.26,0,.51,0-.55-.08-1.09-.13-1.63a21.91,21.91,0,0,0-.46-2.75A8.21,8.21,0,0,0,646,415a2.48,2.48,0,0,0,1.08-1.77,1.18,1.18,0,0,0-1.28-1.2c-1,.11-1.85,1.69-2,2.56,0,.06-.09.88-.1,1.17v0a15.29,15.29,0,0,0-.93-2.57,20.39,20.39,0,0,0-1.14-2.15c-.39-.65-.78-1.23-1.14-1.73l-.54-.74h0s-.26-1.17-.29-1.25c-.3-.83-1.38-2.27-2.37-2.24a1.19,1.19,0,0,0-1.09,1.38A2.48,2.48,0,0,0,637.54,408Z" style="fill:#263238"></path><path d="M692.19,395.47c-1.53.46-5.09-.07-5.09-.07s1.06-2.24,1.14-2.37c1-1.54,3.8-3.93,5.78-3.4a2.43,2.43,0,0,1,1.55,3.25A5,5,0,0,1,692.19,395.47Z" style="fill:#263238"></path><path d="M659,394s-.35-2.45-.35-2.61c0-1.83,1-5.37,2.93-6a2.42,2.42,0,0,1,3.09,1.85,5.1,5.1,0,0,1-1.38,4C662.29,392.46,659,394,659,394Z" style="fill:#263238"></path><path d="M651.43,387.4a14,14,0,0,0,4.23.91l1,1.41c.61.92,1.3,2,2,3.15.18.31.36.66.54,1-.42-.49-1-1.17-1.07-1.23-1.18-1.09-4.1-2.49-5.66-1.61a2.12,2.12,0,0,0-.6,3.11,4.44,4.44,0,0,0,3.45,1.45,14,14,0,0,0,4.2-1.14c.38.74.76,1.51,1.12,2.34a28.58,28.58,0,0,1,1.55,4.63l-.09,0-1.12-1.63c-1.06-1.21-3.8-2.93-5.46-2.22a2.12,2.12,0,0,0-.93,3,4.45,4.45,0,0,0,3.26,1.83,14.93,14.93,0,0,0,4.4-.71,37.13,37.13,0,0,1,.69,4.81c.1,1.2.15,2.41.19,3.63-.22-.36-1.16-1.73-1.24-1.82-1.06-1.21-3.8-2.94-5.46-2.23a2.13,2.13,0,0,0-.93,3,4.44,4.44,0,0,0,3.26,1.82,14.85,14.85,0,0,0,4.38-.7c0,.56,0,1.11,0,1.67,0,1.81.08,3.63.17,5.42,0,.62.09,1.24.14,1.85-.35-.53-1-1.49-1.07-1.56-1.06-1.21-3.8-2.94-5.46-2.23a2.13,2.13,0,0,0-.93,3,4.44,4.44,0,0,0,3.26,1.82,13.93,13.93,0,0,0,4.23-.65c.1,1,.21,2,.37,3,.08.42.13.86.23,1.26l.27,1.22c.21.82.41,1.58.63,2.34.1.38.21.74.32,1.12-.27-.59-.72-1.52-.78-1.6-.85-1.36-3.31-3.48-5-3a2.13,2.13,0,0,0-1.38,2.85,4.45,4.45,0,0,0,2.95,2.3,14.58,14.58,0,0,0,4.41,0c.27.91.54,1.8.81,2.62s.44,1.3.65,1.9h1.18c-.26-.7-.54-1.45-.82-2.25s-.52-1.52-.79-2.33a15.47,15.47,0,0,0,3.74-2,24.83,24.83,0,0,0,2.37,1.33c-.27.9-.53,1.79-.76,2.63s-.49,1.83-.7,2.66h1.16c.17-.75.35-1.54.57-2.39s.4-1.56.63-2.38a14.73,14.73,0,0,0,4.39.33,4.51,4.51,0,0,0,3.11-2.09,2.14,2.14,0,0,0-1.19-2.94c-1.7-.57-4.3,1.37-5.25,2.67-.06.08-.67,1.14-1,1.69.14-.5.28-1,.43-1.5.22-.74.47-1.52.71-2.27l.42-1.17c.13-.4.31-.76.46-1.15.24-.57.52-1.14.79-1.71a13.85,13.85,0,0,0,4.09.92,4.44,4.44,0,0,0,3.38-1.6,2.12,2.12,0,0,0-.72-3.08c-1.6-.82-4.46.7-5.59,1.84,0,0-.26.3-.51.62.29-.55.57-1.1.88-1.65.87-1.55,1.8-3.1,2.73-4.66.2-.33.38-.66.58-1a14.49,14.49,0,0,0,4.19,1,4.45,4.45,0,0,0,3.39-1.6,2.13,2.13,0,0,0-.72-3.08c-1.6-.82-4.46.7-5.6,1.84l-.58.71c.49-.85,1-1.71,1.43-2.58a37.86,37.86,0,0,0,2-4.59,14.77,14.77,0,0,0,4.32,1,4.44,4.44,0,0,0,3.38-1.6,2.12,2.12,0,0,0-.72-3.08c-1.6-.82-4.46.7-5.6,1.84-.08.08-1,1.23-1.31,1.66a.14.14,0,0,0,0-.06,27.58,27.58,0,0,0,1.17-4.79,37.89,37.89,0,0,0,.42-4.39c.07-1.36,0-2.61,0-3.72,0-.6-.05-1.15-.08-1.66l0,0s.78-2,.81-2.16c.38-1.56.19-4.8-1.34-5.73a2.13,2.13,0,0,0-3,1,4.42,4.42,0,0,0,.4,3.71,13.78,13.78,0,0,0,3,3.1c0,.54,0,1.1.05,1.73,0,1.11,0,2.35-.1,3.71,0,.36-.06.75-.09,1.12-.08-.64-.2-1.53-.22-1.61-.38-1.56-2-4.34-3.83-4.47a2.14,2.14,0,0,0-2.22,2.26,4.47,4.47,0,0,0,2.07,3.12,14.53,14.53,0,0,0,4.14,1.36c-.09.83-.2,1.69-.36,2.57a26.9,26.9,0,0,1-1.26,4.72l-.1,0c0-.6,0-1.87,0-2-.21-1.59-1.56-4.54-3.32-4.86a2.13,2.13,0,0,0-2.45,2,4.47,4.47,0,0,0,1.71,3.32,15,15,0,0,0,4.06,1.84,38,38,0,0,1-2.08,4.39c-.57,1-1.2,2.1-1.84,3.14,0-.43,0-2.1,0-2.22-.21-1.59-1.55-4.54-3.32-4.86a2.13,2.13,0,0,0-2.45,2,4.45,4.45,0,0,0,1.71,3.32,14.58,14.58,0,0,0,4,1.83c-.29.47-.58.95-.88,1.42-1,1.54-1.93,3.07-2.84,4.62-.32.54-.61,1.08-.91,1.61,0-.63,0-1.79,0-1.89-.21-1.59-1.55-4.54-3.32-4.86a2.12,2.12,0,0,0-2.45,2,4.47,4.47,0,0,0,1.71,3.33,14,14,0,0,0,3.89,1.78c-.48.9-.94,1.81-1.35,2.72-.17.4-.37.79-.51,1.18s-.29.78-.44,1.16c-.28.8-.54,1.55-.77,2.3-.13.38-.23.74-.35,1.11.1-.64.24-1.67.24-1.76,0-1.61-.85-4.73-2.55-5.31a2.12,2.12,0,0,0-2.72,1.61,1.84,1.84,0,0,0-.06.47,8.23,8.23,0,0,0-1.4,3.92c0,.11.07,1.33.13,1.95-.16-.49-.32-1-.47-1.49-.23-.74-.45-1.52-.67-2.28-.09-.4-.19-.8-.29-1.21s-.16-.81-.25-1.22c-.11-.6-.2-1.23-.28-1.86a13.64,13.64,0,0,0,3.91-1.49,4.45,4.45,0,0,0,1.94-3.19,2.13,2.13,0,0,0-2.3-2.18c-1.79.2-3.33,3.05-3.65,4.63,0,.05,0,.39-.08.79-.07-.62-.13-1.23-.18-1.85-.13-1.78-.21-3.59-.29-5.41l-.06-1.13a13.87,13.87,0,0,0,4-1.52,4.43,4.43,0,0,0,1.94-3.19,2.12,2.12,0,0,0-2.3-2.17c-1.79.19-3.33,3-3.65,4.62,0,.05,0,.46-.09.91-.06-1-.13-2-.24-2.94a37.58,37.58,0,0,0-.82-4.95,14.69,14.69,0,0,0,4.15-1.55,4.45,4.45,0,0,0,1.94-3.19,2.13,2.13,0,0,0-2.3-2.18c-1.79.2-3.33,3.05-3.65,4.63,0,.11-.15,1.57-.18,2.1,0,0,0,0,0-.06a26.44,26.44,0,0,0-1.67-4.64,37,37,0,0,0-2.07-3.89c-.69-1.17-1.4-2.2-2-3.11-.35-.49-.67-.93-1-1.34h0s-.47-2.13-.52-2.26c-.55-1.51-2.49-4.1-4.29-4a2.13,2.13,0,0,0-2,2.48A4.45,4.45,0,0,0,651.43,387.4Z" style="fill:#263238"></path></g><g id="freepik--Floor--inject-14"><rect x="43.3" y="433.1" width="658.32" height="1" style="fill:#263238"></rect></g><g id="freepik--Clouds--inject-14"><path d="M382.8,125.89H182.74a.5.5,0,0,1-.45-.28.51.51,0,0,1,.06-.53l4.08-5.1c2.59-3.23,6.63-2,10.19-.86,2.46.76,4.78,1.49,6.31.72,1.88-.94,3.36-3.37,5.07-6.18,1.83-3,3.91-6.42,7.08-9.06,3.47-2.9,9.75.46,15.82,3.71,5.27,2.82,10.73,5.74,13.91,4.38,3-1.27,3.86-3.25,4.9-5.54,1.37-3,2.92-6.4,9.41-8.76,5.15-1.88,10.34.4,14.91,2.42,5.73,2.52,10.69,4.7,14.44-1.2a58.31,58.31,0,0,0,4.53-9.4c3.55-8.67,6.91-16.87,21.36-18.39,19-2,42.2,32.65,44.25,35.78a17,17,0,0,0,8.65-.43c3.05-.78,5.93-1.51,10.7,1.47,8.38,5.24,5.35,16.77,5.32,16.89A.5.5,0,0,1,382.8,125.89Zm-199-1H382.4c.42-1.94,2-11.07-5-15.4-4.41-2.75-6.84-2.14-9.93-1.35a18.07,18.07,0,0,1-9.31.39.5.5,0,0,1-.31-.22c-.24-.37-24.54-37.48-43.42-35.5-13.85,1.46-17.1,9.39-20.54,17.78a58.57,58.57,0,0,1-4.61,9.56c-4.21,6.62-9.78,4.17-15.68,1.57-4.62-2-9.39-4.13-14.17-2.39-6.1,2.21-7.49,5.27-8.84,8.23-1.08,2.38-2.1,4.62-5.42,6-3.62,1.56-9-1.34-14.77-4.41s-11.75-6.29-14.71-3.83-5.07,5.88-6.86,8.82-3.34,5.49-5.48,6.56c-1.89.94-4.4.16-7.06-.67-3.42-1.06-6.95-2.17-9.11.53Z" style="fill:#263238"></path><path d="M546.07,105.12H446.13a.5.5,0,0,1-.39-.81l2-2.55c1.4-1.75,3.6-1.06,5.36-.51,1.18.37,2.29.71,3,.37.87-.43,1.6-1.62,2.43-3A17.35,17.35,0,0,1,462.13,94c1.86-1.55,4.93.09,8.18,1.83,2.58,1.38,5.25,2.81,6.73,2.17a4.21,4.21,0,0,0,2.32-2.64,7.28,7.28,0,0,1,4.84-4.5c2.67-1,5.31.19,7.64,1.21,3.18,1.4,5.22,2.13,6.9-.5A29.27,29.27,0,0,0,501,87c1.8-4.4,3.51-8.56,10.87-9.34,9.5-1,20.94,15.86,22.28,17.9a8.14,8.14,0,0,0,4.11-.24,6,6,0,0,1,5.54.77c4.35,2.71,2.79,8.65,2.77,8.71A.5.5,0,0,1,546.07,105.12Zm-98.9-1h98.49c.24-1.24.73-5.27-2.41-7.23a5.06,5.06,0,0,0-4.76-.65,9.08,9.08,0,0,1-4.77.2.49.49,0,0,1-.31-.21c-.12-.19-11.57-17.66-20.73-17.66a5.79,5.79,0,0,0-.72,0c-6.77.71-8.29,4.42-10.06,8.72a29,29,0,0,1-2.32,4.81c-2.22,3.49-5.23,2.17-8.15.89-2.26-1-4.59-2-6.89-1.19a6.38,6.38,0,0,0-4.27,4A5.23,5.23,0,0,1,477.43,99c-1.92.82-4.67-.65-7.59-2.21s-5.72-3.06-7.07-1.94a16.84,16.84,0,0,0-3.38,4.34c-.91,1.5-1.7,2.8-2.84,3.37s-2.33.11-3.71-.32c-2-.62-3.37-1-4.28.18Z" style="fill:#263238"></path><path d="M604.65,158.8H501.54a.48.48,0,0,1-.45-.29.49.49,0,0,1,.06-.53l2.1-2.63c1.44-1.79,3.6-1.12,5.51-.52,1.22.38,2.37.74,3.08.39.9-.45,1.65-1.68,2.51-3.1a18,18,0,0,1,3.7-4.73c1.92-1.6,5.08.1,8.43,1.89,2.66,1.42,5.43,2.9,6.95,2.24a4.39,4.39,0,0,0,2.41-2.73,7.49,7.49,0,0,1,5-4.64c2.75-1,5.47.2,7.87,1.25,3.3,1.45,5.41,2.2,7.14-.52a30.27,30.27,0,0,0,2.31-4.81c1.86-4.54,3.62-8.83,11.21-9.63,9.79-1.05,21.61,16.39,23,18.47a8.63,8.63,0,0,0,4.26-.24,6.12,6.12,0,0,1,5.7.79c4.47,2.79,2.86,8.91,2.85,9A.5.5,0,0,1,604.65,158.8Zm-102.07-1H604.25c.24-1.27.76-5.46-2.49-7.5a5.23,5.23,0,0,0-4.93-.66,9.5,9.5,0,0,1-4.91.2.47.47,0,0,1-.31-.22c-.13-.19-12.6-19.19-22.15-18.18-7,.73-8.57,4.57-10.39,9a30.93,30.93,0,0,1-2.4,5c-2.28,3.59-5.38,2.23-8.38.91-2.34-1-4.76-2.09-7.12-1.23a6.6,6.6,0,0,0-4.42,4.11,5.41,5.41,0,0,1-2.92,3.24c-2,.85-4.82-.67-7.83-2.28s-5.91-3.17-7.31-2a17.07,17.07,0,0,0-3.48,4.48c-1,1.55-1.76,2.89-2.93,3.47s-2.4.12-3.81-.32c-2.07-.65-3.5-1-4.44.19Z" style="fill:#263238"></path></g><g id="freepik--Trees--inject-14"><path d="M215.79,225.22c17.13,86.82-36.67,50.66-81.91,50.66S31.32,305.32,52,225.22c11.8-45.78,36.67-74.39,81.91-74.39S208.57,188.6,215.79,225.22Z" style="fill:#92E3A9"></path><path d="M215.79,225.22c17.13,86.82-36.67,50.66-81.91,50.66S31.32,305.32,52,225.22c11.8-45.78,36.67-74.39,81.91-74.39S208.57,188.6,215.79,225.22Z" style="fill:#fff;opacity:0.30000000000000004"></path><polygon points="108.06 268 130.13 284.83 127.87 433.6 141.2 433.6 138.64 257.22 170.19 222.52 138.25 249.81 137.09 198.13 133.61 233.55 125.4 227.59 107.48 202.2 119 225.28 81.94 210.33 119.71 231.67 132.14 240.29 130.71 277.87 108.06 268" style="fill:#a1a1a1"></polygon><path d="M120.51,183.65s-1.21,5.59,1.3,10.23a32,32,0,0,0,5.94,7.73S130.25,192.78,120.51,183.65Z" style="fill:#fff"></path><path d="M73.61,233.06s4.32,3.76,9.59,3.81a32.05,32.05,0,0,0,9.64-1.47S86.31,229,73.61,233.06Z" style="fill:#fff"></path><path d="M67,256.24s5.24,2.32,10.29.79a31.92,31.92,0,0,0,8.77-4.26S78,248.55,67,256.24Z" style="fill:#fff"></path><path d="M98.31,258.66s5.73-.08,9.69-3.56a31.76,31.76,0,0,0,6.19-7.53S105,247.12,98.31,258.66Z" style="fill:#fff"></path><path d="M85.12,189.43s1.3,5.58,5.55,8.7a31.81,31.81,0,0,0,8.68,4.44S97.83,193.52,85.12,189.43Z" style="fill:#fff"></path><path d="M178.43,185.3s-5.67.8-9.16,4.76a32.16,32.16,0,0,0-5.19,8.25S173.23,197.6,178.43,185.3Z" style="fill:#fff"></path><path d="M198.06,214.75s-5.59-1.21-10.23,1.31a31.7,31.7,0,0,0-7.72,5.95S188.94,224.49,198.06,214.75Z" style="fill:#fff"></path><path d="M196.14,248.2s-4-4.06-9.29-4.48a31.74,31.74,0,0,0-9.72.77S183.18,251.39,196.14,248.2Z" style="fill:#fff"></path><path d="M174.23,266.14s-2.33-5.23-7.09-7.49a31.86,31.86,0,0,0-9.36-2.74S161,264.51,174.23,266.14Z" style="fill:#fff"></path><path d="M162.69,211.87s-5.66.8-9.15,4.76a32.16,32.16,0,0,0-5.19,8.25S157.5,224.17,162.69,211.87Z" style="fill:#fff"></path><path d="M69.85,204.49s2.52,5.14,7.37,7.22a31.91,31.91,0,0,0,9.45,2.37S83.15,205.61,69.85,204.49Z" style="fill:#fff"></path><path d="M150.65,177.41s-4.59,3.43-5.74,8.57a31.84,31.84,0,0,0-.6,9.73S152,190.7,150.65,177.41Z" style="fill:#fff"></path><path d="M133.35,161.22s-2.61,5.1-1.37,10.23a31.67,31.67,0,0,0,3.76,9S140.42,172.55,133.35,161.22Z" style="fill:#fff"></path><path d="M95.89,166.67s0,5.72,3.44,9.73a31.84,31.84,0,0,0,7.44,6.29S107.34,173.53,95.89,166.67Z" style="fill:#fff"></path><path d="M589.73,247.81C605,325.22,557,293,516.7,293s-91.45,26.25-73-45.17c10.52-40.81,32.7-66.33,73-66.33S583.29,215.16,589.73,247.81Z" style="fill:#92E3A9"></path><path d="M589.73,247.81C605,325.22,557,293,516.7,293s-91.45,26.25-73-45.17c10.52-40.81,32.7-66.33,73-66.33S583.29,215.16,589.73,247.81Z" style="fill:#fff;opacity:0.30000000000000004"></path><polygon points="493.68 285.95 513.35 300.96 511.33 433.6 523.22 433.6 520.93 276.34 549.06 245.4 520.59 269.73 519.56 223.66 516.45 255.24 509.13 249.93 493.16 227.29 503.43 247.87 470.38 234.53 504.06 253.56 515.14 261.24 513.86 294.75 493.68 285.95" style="fill:#a1a1a1"></polygon><path d="M504.77,210.74s-1.08,5,1.16,9.13a28.43,28.43,0,0,0,5.3,6.89S513.45,218.89,504.77,210.74Z" style="fill:#fff"></path><path d="M463,254.8s3.85,3.35,8.55,3.39a28.36,28.36,0,0,0,8.59-1.31S474.28,251.13,463,254.8Z" style="fill:#fff"></path><path d="M457.1,275.47s4.67,2.06,9.17.71a28.32,28.32,0,0,0,7.82-3.81S466.83,268.61,457.1,275.47Z" style="fill:#fff"></path><path d="M485,277.62s5.11-.06,8.64-3.17a28.34,28.34,0,0,0,5.52-6.71S491,267.34,485,277.62Z" style="fill:#fff"></path><path d="M473.22,215.9s1.16,5,4.95,7.76a28.48,28.48,0,0,0,7.73,4S484.55,219.55,473.22,215.9Z" style="fill:#fff"></path><path d="M556.41,212.22s-5,.71-8.16,4.25a28.34,28.34,0,0,0-4.63,7.35S551.78,223.18,556.41,212.22Z" style="fill:#fff"></path><path d="M573.92,238.47s-5-1.07-9.13,1.17a28.38,28.38,0,0,0-6.88,5.31S565.78,247.16,573.92,238.47Z" style="fill:#fff"></path><path d="M572.2,268.3s-3.59-3.62-8.28-4a28.47,28.47,0,0,0-8.66.7S560.65,271.15,572.2,268.3Z" style="fill:#fff"></path><path d="M552.67,284.3s-2.07-4.66-6.32-6.69a28.32,28.32,0,0,0-8.34-2.43S540.85,282.84,552.67,284.3Z" style="fill:#fff"></path><path d="M542.38,235.91s-5,.71-8.16,4.25a28.46,28.46,0,0,0-4.62,7.35S537.75,246.87,542.38,235.91Z" style="fill:#fff"></path><path d="M459.6,229.33s2.25,4.58,6.57,6.44a28.61,28.61,0,0,0,8.43,2.11S471.46,230.33,459.6,229.33Z" style="fill:#fff"></path><path d="M531.65,205.19s-4.09,3.05-5.13,7.64a28.41,28.41,0,0,0-.53,8.67S532.84,217,531.65,205.19Z" style="fill:#fff"></path><path d="M516.22,190.75s-2.32,4.55-1.22,9.12a28.52,28.52,0,0,0,3.35,8S522.52,200.85,516.22,190.75Z" style="fill:#fff"></path><path d="M482.83,195.61s0,5.1,3.06,8.67a28.38,28.38,0,0,0,6.63,5.61S493,201.73,482.83,195.61Z" style="fill:#fff"></path><path d="M677.71,280.47c12.59,63.8-27,37.23-60.19,37.23s-75.37,21.64-60.19-37.23c8.67-33.64,26.95-54.67,60.19-54.67S672.41,253.56,677.71,280.47Z" style="fill:#92E3A9"></path><path d="M677.71,280.47c12.59,63.8-27,37.23-60.19,37.23s-75.37,21.64-60.19-37.23c8.67-33.64,26.95-54.67,60.19-54.67S672.41,253.56,677.71,280.47Z" style="fill:#fff;opacity:0.30000000000000004"></path><polygon points="598.55 311.91 614.76 324.28 613.1 433.6 622.89 433.6 621.01 303.99 644.2 278.49 620.73 298.54 619.88 260.57 617.32 286.59 611.29 282.22 598.12 263.55 606.58 280.52 579.35 269.53 607.11 285.21 616.24 291.54 615.19 319.16 598.55 311.91" style="fill:#a1a1a1"></polygon><path d="M607.69,249.92a12.24,12.24,0,0,0,1,7.52,23.59,23.59,0,0,0,4.37,5.68S614.85,256.63,607.69,249.92Z" style="fill:#fff"></path><path d="M573.23,286.23a12.25,12.25,0,0,0,7,2.8,23.49,23.49,0,0,0,7.08-1.08S582.56,283.21,573.23,286.23Z" style="fill:#fff"></path><path d="M568.4,303.27a12.27,12.27,0,0,0,7.56.58,23.32,23.32,0,0,0,6.44-3.13S576.42,297.61,568.4,303.27Z" style="fill:#fff"></path><path d="M591.38,305a12.26,12.26,0,0,0,7.12-2.61,23.5,23.5,0,0,0,4.55-5.53S596.32,296.57,591.38,305Z" style="fill:#fff"></path><path d="M581.69,254.17a12.23,12.23,0,0,0,4.08,6.39,23.25,23.25,0,0,0,6.37,3.27S591,257.18,581.69,254.17Z" style="fill:#fff"></path><path d="M650.25,251.14a12.27,12.27,0,0,0-6.72,3.5,23.55,23.55,0,0,0-3.82,6.06S646.44,260.17,650.25,251.14Z" style="fill:#fff"></path><path d="M664.68,272.77a12.28,12.28,0,0,0-7.52,1,23.41,23.41,0,0,0-5.67,4.37S658,279.94,664.68,272.77Z" style="fill:#fff"></path><path d="M663.27,297.36a12.25,12.25,0,0,0-6.83-3.3,23.28,23.28,0,0,0-7.14.58S653.75,299.7,663.27,297.36Z" style="fill:#fff"></path><path d="M647.17,310.54A12.31,12.31,0,0,0,642,305a23.64,23.64,0,0,0-6.87-2S637.43,309.35,647.17,310.54Z" style="fill:#fff"></path><path d="M638.69,270.66a12.27,12.27,0,0,0-6.72,3.5,23.55,23.55,0,0,0-3.82,6.06S634.88,279.7,638.69,270.66Z" style="fill:#fff"></path><path d="M570.46,265.24a12.31,12.31,0,0,0,5.42,5.3,23.19,23.19,0,0,0,7,1.75S580.24,266.06,570.46,265.24Z" style="fill:#fff"></path><path d="M629.84,245.34a12.3,12.3,0,0,0-4.22,6.3,23.47,23.47,0,0,0-.44,7.15S630.83,255.1,629.84,245.34Z" style="fill:#fff"></path><path d="M617.13,233.44a12.34,12.34,0,0,0-1,7.52,23.42,23.42,0,0,0,2.77,6.61S622.32,241.76,617.13,233.44Z" style="fill:#fff"></path><path d="M589.61,237.44a12.28,12.28,0,0,0,2.52,7.15,23.21,23.21,0,0,0,5.47,4.63S598,242.49,589.61,237.44Z" style="fill:#fff"></path><path d="M387.81,171.59c17.12,86.83-36.67,50.66-81.91,50.66S203.34,251.7,224,171.59c11.8-45.77,36.67-74.39,81.91-74.39S380.59,135,387.81,171.59Z" style="fill:#92E3A9"></path><path d="M387.81,171.59c17.12,86.83-36.67,50.66-81.91,50.66S203.34,251.7,224,171.59c11.8-45.77,36.67-74.39,81.91-74.39S380.59,135,387.81,171.59Z" style="fill:#fff;opacity:0.30000000000000004"></path><polygon points="280.08 214.37 302.14 231.21 299.88 433.6 313.21 433.6 310.65 203.6 342.2 168.9 310.27 196.18 309.11 144.51 305.63 179.93 297.42 173.97 279.5 148.57 291.02 171.66 253.95 156.7 291.73 178.05 304.16 186.66 302.72 224.24 280.08 214.37" style="fill:#a1a1a1"></polygon><path d="M292.53,130s-1.21,5.6,1.3,10.24a31.81,31.81,0,0,0,5.94,7.72S302.26,139.15,292.53,130Z" style="fill:#fff"></path><path d="M245.63,179.44s4.31,3.76,9.59,3.8a31.69,31.69,0,0,0,9.64-1.47S258.33,175.32,245.63,179.44Z" style="fill:#fff"></path><path d="M239.06,202.62s5.24,2.31,10.29.79a31.94,31.94,0,0,0,8.76-4.27S250,194.92,239.06,202.62Z" style="fill:#fff"></path><path d="M270.33,205s5.72-.07,9.68-3.56a32,32,0,0,0,6.2-7.52S277.05,193.5,270.33,205Z" style="fill:#fff"></path><path d="M257.14,135.81s1.3,5.57,5.55,8.69a31.7,31.7,0,0,0,8.67,4.45S269.84,139.9,257.14,135.81Z" style="fill:#fff"></path><path d="M350.44,131.67s-5.66.81-9.15,4.77a32,32,0,0,0-5.19,8.25S345.25,144,350.44,131.67Z" style="fill:#fff"></path><path d="M370.08,161.12s-5.6-1.2-10.24,1.31a32,32,0,0,0-7.71,5.95S361,170.87,370.08,161.12Z" style="fill:#fff"></path><path d="M368.16,194.57s-4-4.06-9.3-4.48a31.82,31.82,0,0,0-9.71.78S355.2,197.77,368.16,194.57Z" style="fill:#fff"></path><path d="M346.24,212.52s-2.32-5.23-7.08-7.5a31.74,31.74,0,0,0-9.36-2.73S333,210.89,346.24,212.52Z" style="fill:#fff"></path><path d="M334.71,158.24s-5.67.81-9.15,4.77a31.65,31.65,0,0,0-5.19,8.25S329.52,170.54,334.71,158.24Z" style="fill:#fff"></path><path d="M241.87,150.87s2.52,5.13,7.37,7.22a31.84,31.84,0,0,0,9.45,2.37S255.17,152,241.87,150.87Z" style="fill:#fff"></path><path d="M322.67,123.79s-4.59,3.42-5.75,8.57a32,32,0,0,0-.59,9.73S324,137.07,322.67,123.79Z" style="fill:#fff"></path><path d="M305.37,107.6s-2.61,5.09-1.37,10.22a31.82,31.82,0,0,0,3.76,9S312.43,118.92,305.37,107.6Z" style="fill:#fff"></path><path d="M267.91,113s0,5.72,3.44,9.73a31.74,31.74,0,0,0,7.44,6.3S279.36,119.91,267.91,113Z" style="fill:#fff"></path></g><g id="freepik--pick-up-truck--inject-14"><path d="M589.27,397.7V333.61H269.44V397.7H402c.11,19.7,13.79,35.62,30.65,35.62h16.56c12.93,0,24-9.37,28.49-22.63H550V402H479.65c.15-1.4.23-2.83.24-4.28Z" style="fill:#263238"></path><path d="M449.24,433.82H432.68c-16.92,0-30.8-15.93-31.15-35.62H268.94V333.11H589.77V398.2H480.39c0,1.09-.09,2.19-.19,3.28h70.33v9.71H478.09C473.28,425,462,433.82,449.24,433.82ZM269.94,397.2H402.52v.5c.11,19.37,13.64,35.12,30.15,35.12h16.56c12.42,0,23.42-8.75,28-22.29l.11-.34h72.16v-7.71H479.09l.06-.55c.15-1.41.23-2.83.24-4.23v-.5H588.77V334.11H269.94Z" style="fill:#263238"></path><path d="M226.65,397.45c0-19.81-13.73-35.87-30.66-35.87H179.43c-16.93,0-30.66,16.06-30.66,35.87s13.73,35.87,30.66,35.87H196c12.93,0,24-9.37,28.49-22.63h72.3V402H226.4A42.1,42.1,0,0,0,226.65,397.45Z" style="fill:#263238"></path><path d="M196,433.82H179.43c-17.18,0-31.16-16.31-31.16-36.37s14-36.37,31.16-36.37H196c17.18,0,31.16,16.31,31.16,36.37,0,1.3-.07,2.65-.2,4h70.33v9.71H224.84C220,425,208.74,433.82,196,433.82Zm-16.56-71.74c-16.63,0-30.16,15.87-30.16,35.37s13.53,35.37,30.16,35.37H196c12.42,0,23.42-8.75,28-22.29l.12-.34h72.15v-7.71H225.84l.06-.55a40.9,40.9,0,0,0,.25-4.48c0-19.5-13.53-35.37-30.16-35.37Z" style="fill:#263238"></path><path d="M344.77,397.45c0-12.67-5.62-23.8-14.1-30.19v-5.68H314.11c-16.93,0-30.66,16.06-30.66,35.87s13.73,35.87,30.66,35.87h16.56v-5.68C339.15,421.25,344.77,410.12,344.77,397.45Z" style="fill:#263238"></path><path d="M331.17,433.82H314.11c-17.18,0-31.16-16.31-31.16-36.37s14-36.37,31.16-36.37h17.06V367c8.83,6.75,14.1,18.11,14.1,30.43s-5.27,23.68-14.1,30.43Zm-17.06-71.74C297.48,362.08,284,378,284,397.45s13.53,35.37,30.16,35.37h16.06v-5.43l.19-.15c8.71-6.55,13.91-17.69,13.91-29.79s-5.2-23.24-13.91-29.79l-.19-.15v-5.43Z" style="fill:#263238"></path><ellipse cx="330.67" cy="397.45" rx="30.66" ry="35.87" style="fill:#fff"></ellipse><path d="M330.67,433.82c-17.19,0-31.16-16.31-31.16-36.37s14-36.37,31.16-36.37,31.16,16.31,31.16,36.37S347.85,433.82,330.67,433.82Zm0-71.74c-16.64,0-30.16,15.87-30.16,35.37s13.52,35.37,30.16,35.37,30.16-15.86,30.16-35.37S347.3,362.08,330.67,362.08Z" style="fill:#263238"></path><ellipse cx="330.67" cy="397.45" rx="20.55" ry="24.05" style="fill:#263238"></ellipse><path d="M330.67,422c-11.61,0-21.06-11-21.06-24.55s9.45-24.55,21.06-24.55,21.05,11,21.05,24.55S342.27,422,330.67,422Zm0-48.1c-11.06,0-20.06,10.57-20.06,23.55s9,23.55,20.06,23.55,20.05-10.57,20.05-23.55S341.72,373.9,330.67,373.9Z" style="fill:#263238"></path><ellipse cx="330.67" cy="397.45" rx="17.91" ry="20.96" style="fill:#bababa"></ellipse><path d="M330.67,418.91c-10.16,0-18.42-9.63-18.42-21.46S320.51,376,330.67,376s18.41,9.63,18.41,21.46S340.82,418.91,330.67,418.91Zm0-41.92c-9.6,0-17.42,9.18-17.42,20.46s7.82,20.46,17.42,20.46,17.41-9.18,17.41-20.46S340.27,377,330.67,377Z" style="fill:#263238"></path><path d="M559.69,397.45c0-12.67-5.62-23.8-14.1-30.19v-5.68H529c-16.94,0-30.66,16.06-30.66,35.87s13.72,35.87,30.66,35.87h16.56v-5.68C554.07,421.25,559.69,410.12,559.69,397.45Z" style="fill:#263238"></path><path d="M546.09,433.82H529c-17.18,0-31.16-16.31-31.16-36.37s14-36.37,31.16-36.37h17.06V367c8.83,6.75,14.1,18.11,14.1,30.43s-5.27,23.68-14.1,30.43ZM529,362.08c-16.63,0-30.16,15.87-30.16,35.37S512.4,432.82,529,432.82h16.06v-5.43l.19-.15c8.71-6.55,13.91-17.69,13.91-29.79s-5.2-23.24-13.91-29.79l-.19-.15v-5.43Z" style="fill:#263238"></path><ellipse cx="545.59" cy="397.45" rx="30.66" ry="35.87" style="fill:#fff"></ellipse><path d="M545.59,433.82c-17.19,0-31.17-16.31-31.17-36.37s14-36.37,31.17-36.37,31.16,16.31,31.16,36.37S562.77,433.82,545.59,433.82Zm0-71.74c-16.64,0-30.17,15.87-30.17,35.37s13.53,35.37,30.17,35.37,30.16-15.86,30.16-35.37S562.22,362.08,545.59,362.08Z" style="fill:#263238"></path><ellipse cx="545.59" cy="397.45" rx="20.55" ry="24.05" style="fill:#263238"></ellipse><path d="M545.59,422c-11.61,0-21.06-11-21.06-24.55S534,372.9,545.59,372.9s21,11,21,24.55S557.19,422,545.59,422Zm0-48.1c-11.06,0-20.06,10.57-20.06,23.55s9,23.55,20.06,23.55,20-10.57,20-23.55S556.64,373.9,545.59,373.9Z" style="fill:#263238"></path><ellipse cx="545.59" cy="397.45" rx="17.91" ry="20.96" style="fill:#bababa"></ellipse><path d="M545.59,418.91c-10.16,0-18.42-9.63-18.42-21.46S535.43,376,545.59,376,564,385.62,564,397.45,555.74,418.91,545.59,418.91Zm0-41.92c-9.61,0-17.42,9.18-17.42,20.46s7.81,20.46,17.42,20.46S563,408.73,563,397.45,555.19,377,545.59,377Z" style="fill:#263238"></path><path d="M286,385.92l6-23.37a17.75,17.75,0,0,1,17.18-13.31h32.94a17.73,17.73,0,0,1,16.54,11.34L373,397.63h84.07V309.24l-11.44-16.07H184.47a35,35,0,0,0-10.9,1.65c-3.69,1.2-7.76,3.27-10.22,6.78C158,309.27,158,313.1,158,313.1s-31.32,2.3-39,6.9-2.3,8.43,1.53,18.39,5.36,13.8,5.36,20.7-4.59,26.83-4.59,26.83H286" style="fill:#92E3A9"></path><path d="M457.56,398.13H372.65L358.2,360.76a17.34,17.34,0,0,0-16.07-11H309.19a17.23,17.23,0,0,0-16.69,12.93l-6.12,23.75H120.68l.14-.61c0-.2,4.58-20,4.58-26.72s-1.48-10.53-5.08-19.88l-.25-.64a69.09,69.09,0,0,0-3-6.52c-2.67-5.31-4.44-8.82,1.66-12.48,7.28-4.37,34.85-6.63,38.78-6.94.16-1.25,1-5,5.41-11.32,2.14-3.05,5.66-5.39,10.47-7a35.6,35.6,0,0,1,11.06-1.67H445.88l11.68,16.41Zm-84.22-1h83.22V309.4l-11.2-15.73H184.47a34.84,34.84,0,0,0-10.75,1.62c-4.59,1.51-7.95,3.73-10,6.6-5.17,7.39-5.27,11.17-5.27,11.21v.46l-.46,0c-.31,0-31.28,2.34-38.76,6.83-5.3,3.18-4,5.68-1.28,11.17a71.1,71.1,0,0,1,3,6.61l.24.64c3.65,9.48,5.15,13.4,5.15,20.24,0,6.28-3.68,22.87-4.47,26.33H285.61l5.92-23a18.24,18.24,0,0,1,17.66-13.68h32.94a18.32,18.32,0,0,1,17,11.66Z" style="fill:#263238"></path><path d="M457.06,309.24v88.49h36.25l2.87-11.81,6-23.37a17.74,17.74,0,0,1,17.17-13.31h33a17.75,17.75,0,0,1,16.54,11.34l13.53,37.15h38.89a9.85,9.85,0,0,0,9.84-9.84L623.88,318a8.71,8.71,0,0,0-8.71-8.71Z" style="fill:#92E3A9"></path><path d="M621.28,398.23H582l-13.65-37.48a17.35,17.35,0,0,0-16.07-11h-33a17.22,17.22,0,0,0-16.68,12.93l-6,23.37-3,12.19H456.56V308.74H615.17a9.22,9.22,0,0,1,9.21,9.21l7.24,69.88A10.37,10.37,0,0,1,621.28,398.23Zm-38.54-1h38.54a9.35,9.35,0,0,0,9.34-9.34L623.38,318a8.23,8.23,0,0,0-8.21-8.26H457.56v87.49h35.36l2.78-11.43,6-23.38a18.22,18.22,0,0,1,17.65-13.68h33a18.33,18.33,0,0,1,17,11.66Z" style="fill:#263238"></path><path d="M238.69,343.53l-2.52,0H147.72l-.14-.27s-1.49-2.91-3-6.72c-1.71-4.28,1.87-9.65,3.05-11.42,1.53-2.29,9.65-11.9,10-12.3l.76.64c-.09.1-8.43,10-9.93,12.22-1.11,1.66-4.47,6.7-2.95,10.49,1.24,3.09,2.44,5.57,2.84,6.36h87.84l1.49,0a8.66,8.66,0,0,0-1-2.85,27.08,27.08,0,0,1-1.2-2.46c-.71-1.66-1.4-3.12-2-4.4-2.73-5.76-4.1-8.66,1.16-13.18,2.43-2.1,8-3.88,16.7-5.28a138.87,138.87,0,0,1,22.32-1.74h60.49l-5.39-17.43,1-.29,5.78,18.72H273.63a139.2,139.2,0,0,0-22.16,1.72c-8.35,1.36-13.95,3.11-16.21,5.06-4.68,4-3.57,6.36-.91,12,.61,1.29,1.31,2.76,2,4.44a24.1,24.1,0,0,0,1.16,2.37,8.71,8.71,0,0,1,1.16,3.84Z" style="fill:#263238"></path><ellipse cx="250.08" cy="337.96" rx="6.83" ry="11.1" style="fill:#fff"></ellipse><path d="M250.08,349.56c-4,0-7.33-5.2-7.33-11.6s3.29-11.6,7.33-11.6,7.33,5.2,7.33,11.6S254.12,349.56,250.08,349.56Zm0-22.2c-3.49,0-6.33,4.75-6.33,10.6s2.84,10.6,6.33,10.6,6.33-4.76,6.33-10.6S253.57,327.36,250.08,327.36Z" style="fill:#263238"></path><path d="M255.12,354.07a4.46,4.46,0,0,1-2.56-.73l.58-.82a4.48,4.48,0,0,0,4.25,0c1.86-.9,3-2.8,3.08-5.34.29-6.18-6.54-21.29-8.47-22.39s-11.91-.8-13.53.82c-.94.94,2,7,5.2,12.06l-.84.54c-1.68-2.64-7-11.37-5.06-13.31s12.35-2.34,14.73-1,9.26,17.1,9,23.3c-.19,4-2.36,5.58-3.64,6.2A6.25,6.25,0,0,1,255.12,354.07Z" style="fill:#263238"></path><ellipse cx="131.31" cy="337.96" rx="6.83" ry="11.1" style="fill:#fff"></ellipse><path d="M131.31,349.56c-4,0-7.33-5.2-7.33-11.6s3.29-11.6,7.33-11.6,7.33,5.2,7.33,11.6S135.35,349.56,131.31,349.56Zm0-22.2c-3.49,0-6.33,4.75-6.33,10.6s2.84,10.6,6.33,10.6,6.33-4.76,6.33-10.6S134.8,327.36,131.31,327.36Z" style="fill:#263238"></path><path d="M136.35,354.07a4.46,4.46,0,0,1-2.56-.73l.58-.82a4.51,4.51,0,0,0,4.25,0c1.86-.9,3-2.8,3.08-5.34.29-6.18-6.54-21.29-8.47-22.39s-11.91-.79-13.53.82c-.94.94,2,7,5.2,12.06l-.84.54c-1.68-2.64-7-11.37-5.06-13.31s12.35-2.34,14.73-1,9.26,17.1,9,23.3c-.19,4-2.36,5.58-3.64,6.2A6.25,6.25,0,0,1,136.35,354.07Z" style="fill:#263238"></path><polygon points="166.19 376.98 183.8 376.98 179.73 350.53 162.12 350.53 166.19 376.98" style="fill:#263238"></polygon><path d="M184.39,377.48H165.76L161.54,350h18.62Zm-17.77-1h16.6L179.3,351H162.71Z" style="fill:#263238"></path><polygon points="200.38 350.53 182.77 350.53 186.84 376.98 204.45 376.98 200.38 350.53" style="fill:#263238"></polygon><path d="M205,377.48H186.41L182.18,350h18.63Zm-17.76-1h16.59L200,351h-16.6Z" style="fill:#263238"></path><path d="M159.09,350.53h-5.45a6,6,0,0,0-5.8,4.5l-3.7,14.48a6,6,0,0,0,5.8,7.47h13.22Z" style="fill:#263238"></path><path d="M163.74,377.48h-13.8a6.49,6.49,0,0,1-6.29-8.09l3.71-14.48a6.48,6.48,0,0,1,6.28-4.88h5.88ZM153.64,351a5.48,5.48,0,0,0-5.31,4.13l-3.71,14.48a5.48,5.48,0,0,0,5.32,6.84h12.63L158.66,351Z" style="fill:#263238"></path><polygon points="221.02 350.53 203.41 350.53 207.48 376.98 225.09 376.98 221.02 350.53" style="fill:#263238"></polygon><path d="M225.67,377.48H207.05L202.83,350h18.62Zm-17.76-1h16.6L220.59,351H204Z" style="fill:#263238"></path><path d="M245,369.07l-4.94-14.49a6,6,0,0,0-5.66-4.05H224.06L228.13,377h11.19A6,6,0,0,0,245,369.07Z" style="fill:#263238"></path><path d="M239.32,377.48H227.7L223.47,350h10.92a6.48,6.48,0,0,1,6.13,4.39l4.94,14.48a6.48,6.48,0,0,1-6.14,8.58Zm-10.76-1h10.76a5.48,5.48,0,0,0,5.19-7.25l-4.93-14.48a5.49,5.49,0,0,0-5.19-3.72h-9.75Z" style="fill:#263238"></path><path d="M289.51,387.46c-.47-3.7-4.43-6.61-6.5-7.9H120.65c-2.06,1.29-6,4.2-6.5,7.9-.64,5,1.3,9.33,5.17,11.48h165C288.22,396.79,290.16,392.48,289.51,387.46Z" style="fill:#bababa"></path><path d="M284.48,399.44H119.19l-.12-.06c-4.06-2.26-6.08-6.74-5.41-12,.49-3.84,4.43-6.82,6.73-8.25l.12-.08H283.16l.12.08c2.3,1.43,6.24,4.41,6.73,8.25h0c.67,5.25-1.35,9.73-5.41,12Zm-165-1H284.22c3.62-2.07,5.41-6.14,4.8-10.92h0c-.43-3.37-4-6.09-6.15-7.46H120.8c-2.17,1.37-5.72,4.09-6.15,7.46C114,392.3,115.83,396.37,119.45,398.44Z" style="fill:#263238"></path><rect x="348.91" y="312.14" width="102.85" height="1" style="fill:#263238"></rect><path d="M445.62,293.17l-13.81-50.83a31.08,31.08,0,0,0-7.38-13.18h0A24.1,24.1,0,0,0,409,221.7l-12.89-1.1c-50.4-1.86-93.37.42-123.13,4.56h0a9.15,9.15,0,0,0-1.94,1,26.1,26.1,0,0,0-11,13.2l-20.36,53.35Z" style="fill:#92E3A9"></path><path d="M446.27,293.67h-.65l-206.7-.52,20.61-54a26.68,26.68,0,0,1,11.23-13.45,9,9,0,0,1,2.09-1C306.24,220,350,218.4,396.1,220.1L409,221.21a24.54,24.54,0,0,1,15.77,7.61,31.69,31.69,0,0,1,7.51,13.39Zm-205.9-1.51,204.59.51-13.63-50.2a30.57,30.57,0,0,0-7.27-13,23.55,23.55,0,0,0-15.13-7.31L396,221.1c-46-1.7-89.72-.08-123,4.55a10.55,10.55,0,0,0-1.75.89,25.68,25.68,0,0,0-10.8,13Z" style="fill:#263238"></path><path d="M247.58,280.58,265,236c1.42-3.62,4.52-5.94,7.94-5.94l15.62-1a243.78,243.78,0,0,1,30.1-.16l21.34,1.2c6.31,0,12,4.58,14.15,11.48l10.37,32.76a14.7,14.7,0,0,1-3,14.28h0a10.31,10.31,0,0,1-9.07,3.36c-11.49-1.69-39.79-5.45-61.37-4.73a310.42,310.42,0,0,0-37.08,3.5C249.22,291.47,245.56,285.75,247.58,280.58Z" style="fill:#263238"></path><path d="M353.94,292.56a11.07,11.07,0,0,1-1.51-.11c-11.22-1.66-39.66-5.45-61.28-4.73a311.85,311.85,0,0,0-37,3.49,6.15,6.15,0,0,1-5.82-2.4,8.49,8.49,0,0,1-1.19-8.41l17.46-44.57c1.49-3.8,4.79-6.26,8.4-6.26l15.59-1a246.74,246.74,0,0,1,30.16-.16l21.33,1.2h0c6.48,0,12.35,4.76,14.59,11.83L365,274.16A15.14,15.14,0,0,1,362,288.93,11,11,0,0,1,353.94,292.56Zm-57.14-5.93c20.75,0,45.49,3.31,55.78,4.83a9.85,9.85,0,0,0,8.64-3.21,14.13,14.13,0,0,0,2.86-13.79L353.71,241.7c-2.11-6.66-7.6-11.13-13.67-11.13l-21.37-1.2a244.79,244.79,0,0,0-30,.16l-15.61,1a8.29,8.29,0,0,0-7.51,5.63l-17.46,44.56-.47-.18.47.18a7.62,7.62,0,0,0,1,7.43,5.16,5.16,0,0,0,4.89,2,313.3,313.3,0,0,1,37.14-3.5C293,286.66,294.87,286.63,296.8,286.63Z" style="fill:#263238"></path><path d="M354.19,241.55c-1.76-5.56-5.78-9.62-10.59-11l-78.12,58.59c7.33-.86,16.07-1.62,25.66-1.94a269,269,0,0,1,30.67,1.12l38-29Z" style="fill:#fff"></path><path d="M263.7,289.87,343.5,230l.24.07c5.05,1.43,9.13,5.66,10.92,11.31l5.73,18.08-.28.21L322,288.85h-.19a265.27,265.27,0,0,0-30.62-1.12c-8.43.28-17,.93-25.61,1.94Zm80-58.75-76.44,57.33c8-.88,16-1.47,23.86-1.73a263.41,263.41,0,0,1,30.54,1.11l37.56-28.72-5.51-17.41C352.05,236.46,348.32,232.52,343.7,231.12Z" style="fill:#263238"></path><path d="M253.51,265.46l48.33-36.95q-6.63.08-13.24.52l-12.19.81L263.48,240Z" style="fill:#fff"></path><path d="M252.39,267l10.68-27.27,13.15-10.33,12.35-.82c4.3-.29,8.77-.46,13.26-.52l1.51,0ZM263.9,240.3,254.62,264l45.71-35c-4,.08-7.89.24-11.7.5l-12,.8Z" style="fill:#263238"></path><path d="M415.46,230.86H377.81a11.74,11.74,0,0,0-9.39,4.7h0a11.71,11.71,0,0,0-1.81,10.55L377.81,282a13,13,0,0,0,12.38,9.1h41.07a5.44,5.44,0,0,0,5.22-6.95l-13.86-47.88A7.47,7.47,0,0,0,415.46,230.86Z" style="fill:#263238"></path><path d="M431.26,291.57H390.19a13.4,13.4,0,0,1-12.85-9.45l-11.21-35.86a12.25,12.25,0,0,1,11.68-15.9h37.65a8,8,0,0,1,7.64,5.74L437,284a5.94,5.94,0,0,1-5.7,7.58Zm-53.45-60.21A11.25,11.25,0,0,0,367.08,246l11.21,35.86a12.41,12.41,0,0,0,11.9,8.75h41.07a4.94,4.94,0,0,0,4.74-6.31l-13.87-47.88a7,7,0,0,0-6.67-5Z" style="fill:#263238"></path><path d="M426.67,250.24l-46.29,36.34a13,13,0,0,0,9.81,4.49h7.09L431,265.28Z" style="fill:#fff"></path><path d="M397.45,291.57h-7.26A13.49,13.49,0,0,1,380,286.91l-.34-.4,47.28-37.12,4.66,16.08Zm-16.34-4.93a12.44,12.44,0,0,0,9.08,3.93h6.93l33.33-25.48-4.06-14Z" style="fill:#263238"></path><path d="M629.77,370.68h-7.58s.25,21.54-6,26.95h14.32s4.6-.93,6.9-6.53l0-.05a11.44,11.44,0,0,0,.34-7.2l-3.15-12a1.19,1.19,0,0,0-1.17-1.22Z" style="fill:#bababa"></path><path d="M616.17,398.13h-1.34l1-.88c6-5.2,5.84-26.36,5.84-26.57v-.5h11.75a1.69,1.69,0,0,1,1.67,1.66l3.14,11.88a12,12,0,0,1-.37,7.52c-2.39,5.83-7.09,6.84-7.29,6.88Zm1.19-1h13.07c.49-.12,4.43-1.18,6.5-6.22a11,11,0,0,0,.34-6.93l-3.17-12v-.08a.65.65,0,0,0-.19-.49.68.68,0,0,0-.48-.21H622.69C622.69,374.38,622.43,391.08,617.36,397.13Z" style="fill:#263238"></path><path d="M451.63,389.83H373.36l0-.48c0-.51-2.57-51.83-4.46-63.17-1.83-11-7.85-12.36-7.92-12.37l-.35-.07,0-.37-1.82-18.65h.56c.09,0,9.38-.05,12.39-3.65s2.45-5.93,2.45-5.95c-.54-1.48-13.58-37.58-13.58-44.61,0-7.24,7-11.14,7.28-11.3l.48.88c-.07,0-6.76,3.78-6.76,10.42,0,6.86,13.4,43.95,13.54,44.32,0,.16.67,2.9-2.65,6.88-2.89,3.46-10.48,3.94-12.6,4l1.67,17.22c1.44.47,6.62,2.83,8.33,13.08,1.8,10.81,4.19,57.57,4.46,62.82h76.31V319.18l-5.1-10.87c0-.09-1.92-9.43-4.94-11.84l.63-.78c3.2,2.55,5.09,11.46,5.28,12.36l5.13,11Z" style="fill:#263238"></path><path d="M444.1,308.21H426.22a1.92,1.92,0,0,1-1.92-1.91h0a1.92,1.92,0,0,1,1.92-1.92H444.1A1.92,1.92,0,0,1,446,306.3h0A1.92,1.92,0,0,1,444.1,308.21Z" style="fill:#fff"></path><path d="M444.1,308.71H426.22a2.42,2.42,0,1,1,0-4.83H444.1a2.42,2.42,0,1,1,0,4.83Zm-17.88-3.83a1.42,1.42,0,1,0,0,2.83H444.1a1.42,1.42,0,1,0,0-2.83Z" style="fill:#263238"></path><path d="M362.45,335.71h-49l-5.87,1.79a.89.89,0,0,0,0,1.71l5.84,1.58h49a1.92,1.92,0,0,0,1.91-1.92v-1.25A1.91,1.91,0,0,0,362.45,335.71Z" style="fill:#fff"></path><path d="M362.45,341.29l-49.12,0-5.84-1.58a1.38,1.38,0,0,1,0-2.66l6-1.82h49a2.41,2.41,0,0,1,2.41,2.41v1.25A2.42,2.42,0,0,1,362.45,341.29Zm-48.92-1h48.92a1.42,1.42,0,0,0,1.41-1.42v-1.25a1.41,1.41,0,0,0-1.41-1.41H313.54l-5.8,1.77a.36.36,0,0,0-.27.38.37.37,0,0,0,.28.37Z" style="fill:#263238"></path><path d="M161.07,316.1h42.41s-2.92,3.84-4.62,3.84h-6.81L189,323.76a6.85,6.85,0,0,1-5.34,2.57h-7.16a6.83,6.83,0,0,1-6.25-4.1l-1.19-2.72h-2.34a6.17,6.17,0,0,1-5-2.51Z" style="fill:#fff"></path><path d="M183.65,326.83h-7.16a7.33,7.33,0,0,1-6.71-4.4L168.72,320h-2a6.72,6.72,0,0,1-5.38-2.71l-1.25-1.7h44.41l-.61.81c-.31.41-3.12,4-5,4h-6.57l-2.91,3.64A7.33,7.33,0,0,1,183.65,326.83ZM162.06,316.6l.08.11a5.71,5.71,0,0,0,4.57,2.3h2.67l1.32,3a6.32,6.32,0,0,0,5.79,3.8h7.16a6.31,6.31,0,0,0,4.95-2.38l3.21-4h7.05c.87,0,2.45-1.52,3.58-2.84Z" style="fill:#263238"></path><path d="M172.11,319h15.56s-1.07,4-3.22,4.83-9.65,0-9.65,0A4.94,4.94,0,0,1,172.11,319Z" style="fill:#263238"></path><path d="M181,324.72c-2.81,0-6-.33-6.21-.35l-.15-.05a5.47,5.47,0,0,1-3-5.32l0-.46h16.67l-.16.63c0,.17-1.17,4.28-3.53,5.17A12.37,12.37,0,0,1,181,324.72Zm-6-1.34c2.13.22,7.69.64,9.34,0,1.31-.49,2.27-2.58,2.72-3.86H172.6A4.44,4.44,0,0,0,174.94,323.38Z" style="fill:#263238"></path><path d="M263.22,394c-32.36,2.48-51.65-5-102.05-5-26.2,0-39.28,3-45.81,5.93a9.89,9.89,0,0,0,4,4h165a10.23,10.23,0,0,0,5.14-7.68C283.2,392.13,274.66,393.09,263.22,394Z" style="fill:#fff"></path><path d="M284.48,399.44H119.19l-.12-.06a10.47,10.47,0,0,1-4.15-4.22l-.25-.48.49-.21c6.12-2.73,19.07-6,46-6a501.6,501.6,0,0,1,56.52,3.29c15.5,1.59,28.89,3,45.49,1.69h0c10-.77,18.85-1.68,26.24-2.71l.66-.09-.09.66a10.75,10.75,0,0,1-5.39,8.05Zm-165-1H284.22a9.66,9.66,0,0,0,4.66-6.59c-7.27,1-15.89,1.86-25.62,2.61h0c-16.7,1.29-30.12-.09-45.67-1.69a502.81,502.81,0,0,0-56.42-3.28c-26,0-38.87,3-45.1,5.67A9.32,9.32,0,0,0,119.45,398.44Z" style="fill:#263238"></path><path d="M348.58,397.45c0-.55,0-1.09-.07-1.62-5.7-2.11-13-3.25-17.84,1.62-4.19,4.19-10.79,6.42-16.68,7.61,2.6,7.8,9.08,13.35,16.68,13.35C340.56,418.41,348.58,409,348.58,397.45Z" style="fill:#263238"></path><path d="M330.67,418.91c-7.65,0-14.38-5.38-17.15-13.7l-.18-.53.55-.11c7.44-1.51,13-4,16.42-7.47,4.08-4.08,10.43-4.68,18.37-1.74l.3.11,0,.32c0,.55.07,1.1.07,1.66C349.08,409.28,340.82,418.91,330.67,418.91Zm-16-13.48c2.74,7.6,9,12.48,16,12.48,9.6,0,17.41-9.18,17.41-20.46,0-.43,0-.85-.05-1.26-5.24-1.89-12.33-3.07-17,1.61C327.51,401.31,322,403.88,314.65,405.43Z" style="fill:#263238"></path><path d="M563.41,399.47c-7.11-4.6-17.48-4.48-23.92,2a16.06,16.06,0,0,1-10.14,4.84c2.85,7.16,9,12.14,16.24,12.14C554.89,418.41,562.54,410.1,563.41,399.47Z" style="fill:#263238"></path><path d="M545.59,418.91c-7.14,0-13.69-4.89-16.7-12.46l-.25-.62.67-.06a15.56,15.56,0,0,0,9.83-4.69c6.2-6.2,16.75-7.07,24.54-2l.25.17,0,.29C563,410.57,555.12,418.91,545.59,418.91Zm-15.52-12.22c3,6.84,9,11.22,15.52,11.22,8.92,0,16.32-7.8,17.29-18.18-7.37-4.62-17.23-3.76-23,2.06A16.51,16.51,0,0,1,530.07,406.69Z" style="fill:#263238"></path></g></svg>
