<svg width="226" height="227" viewBox="0 0 226 227" fill="none" xmlns="http://www.w3.org/2000/svg">
<g id="Completed-bro 1">
<g id="freepik--background-simple--inject-123">
<path id="Vector" opacity="0.7" d="M30.7043 76.0246C30.7043 76.0246 18.1025 108.569 35.8119 141.339C53.5213 174.109 89.9977 191.42 119.192 206.223C148.387 221.026 178.703 213.817 193.108 189.571C207.513 165.326 187.756 148.019 187.729 113.446C187.702 78.8722 192.905 69.7192 174.169 40.5109C155.434 11.3027 109.506 4.83456 74.7743 26.4989C40.0426 48.1633 30.7043 76.0246 30.7043 76.0246Z" fill="white"/>
<path id="Vector_2" d="M106.274 16.6447C162.322 11.6727 162.435 43.2811 187.697 72.7515C212.96 102.222 218.361 115.578 208.824 149.551C199.287 183.523 167.24 210.15 127.527 195.063C87.8145 179.975 65.088 194.462 40.0517 181.051C15.0154 167.64 5.69967 141.767 24.0418 111.257C42.384 80.7473 37.1453 22.8009 106.274 16.6447Z" fill="#C5C7C2"/>
<path id="Vector_3" opacity="0.7" d="M106.274 16.6447C162.322 11.6727 162.435 43.2811 187.697 72.7515C212.96 102.222 218.361 115.578 208.824 149.551C199.287 183.523 167.24 210.15 127.527 195.063C87.8145 179.975 65.088 194.462 40.0517 181.051C15.0154 167.64 5.69967 141.767 24.0418 111.257C42.384 80.7473 37.1453 22.8009 106.274 16.6447Z" fill="white"/>
</g>
<g id="freepik--Document--inject-123">
<path id="Vector_4" d="M143.597 30.1726L55.499 39.9766L69.1278 162.445L157.226 152.641L143.597 30.1726Z" fill="white" stroke="#263238" stroke-linecap="round" stroke-linejoin="round"/>
<path id="Vector_5" d="M143.597 30.1726L55.499 39.9766L57.3847 56.9214L145.483 47.1175L143.597 30.1726Z" fill="#BFBFBF" stroke="#263238" stroke-linecap="round" stroke-linejoin="round"/>
<path id="Vector_6" d="M119.12 37.98L81.0885 42.2107C80.9118 42.2195 80.7387 42.2643 80.5799 42.3422C80.421 42.4202 80.2797 42.5297 80.1646 42.6641C80.0495 42.7985 79.963 42.9549 79.9104 43.1239C79.8578 43.2928 79.8402 43.4707 79.8587 43.6467C79.8771 43.8227 79.9313 43.993 80.0178 44.1474C80.1043 44.3017 80.2214 44.4368 80.3619 44.5444C80.5023 44.652 80.6633 44.7298 80.8348 44.7731C81.0064 44.8164 81.185 44.8242 81.3597 44.7962L119.391 40.5654C119.724 40.5151 120.024 40.3379 120.229 40.0709C120.434 39.804 120.527 39.468 120.49 39.1336C120.453 38.7991 120.287 38.4922 120.028 38.2771C119.769 38.062 119.437 37.9555 119.102 37.98H119.12Z" fill="white"/>
<path id="Vector_7" d="M110.202 44.3435L91.1908 46.4589C91.1059 46.4673 91.0235 46.4926 90.9485 46.5332C90.8735 46.5738 90.8073 46.629 90.7539 46.6955C90.7004 46.762 90.6608 46.8385 90.6372 46.9204C90.6137 47.0024 90.6067 47.0883 90.6168 47.173C90.635 47.3444 90.7204 47.5015 90.8543 47.6099C90.9881 47.7184 91.1595 47.7693 91.3309 47.7516L110.347 45.6362C110.513 45.6111 110.663 45.5225 110.766 45.389C110.868 45.2555 110.915 45.0875 110.896 44.9203C110.877 44.7531 110.795 44.5996 110.665 44.4921C110.536 44.3845 110.37 44.3313 110.202 44.3435Z" fill="white"/>
<path id="Vector_8" opacity="0.3" d="M124.413 58.9972L74.5796 64.5387C74.4519 64.5531 74.3352 64.6176 74.2551 64.7181C74.175 64.8185 74.1381 64.9467 74.1525 65.0743C74.1668 65.202 74.2314 65.3187 74.3318 65.3988C74.4323 65.4789 74.5604 65.5159 74.6881 65.5015L124.508 59.96C124.635 59.9456 124.752 59.881 124.832 59.7806C124.912 59.6802 124.949 59.552 124.935 59.4243C124.92 59.2967 124.856 59.1799 124.755 59.0998C124.655 59.0197 124.527 58.9828 124.399 58.9972H124.413Z" fill="black"/>
<path id="Vector_9" opacity="0.3" d="M124.797 62.455L67.5015 68.8282C67.3738 68.8426 67.2571 68.9071 67.177 69.0076C67.0969 69.108 67.06 69.2362 67.0743 69.3639C67.0887 69.4915 67.1532 69.6083 67.2537 69.6884C67.3541 69.7685 67.4823 69.8054 67.61 69.791L124.905 63.4178C124.971 63.4139 125.034 63.3968 125.093 63.3676C125.151 63.3383 125.203 63.2976 125.245 63.2477C125.288 63.1979 125.319 63.14 125.339 63.0775C125.358 63.0151 125.364 62.9494 125.357 62.8844C125.35 62.8188 125.33 62.7554 125.298 62.6979C125.265 62.6403 125.221 62.59 125.169 62.5499C125.117 62.5097 125.057 62.4806 124.993 62.4643C124.929 62.448 124.862 62.4449 124.797 62.455Z" fill="black"/>
<path id="Vector_10" opacity="0.3" d="M110.229 67.5774L67.8853 72.2873C67.7576 72.3016 67.6409 72.3662 67.5608 72.4666C67.4807 72.5671 67.4437 72.6952 67.4581 72.8229C67.4725 72.9506 67.537 73.0673 67.6375 73.1474C67.7379 73.2275 67.8661 73.2644 67.9937 73.25L110.333 68.5402C110.398 68.5363 110.462 68.5192 110.52 68.4899C110.578 68.4607 110.63 68.4199 110.673 68.3701C110.715 68.3202 110.747 68.2624 110.766 68.1999C110.785 68.1375 110.791 68.0718 110.785 68.0068C110.777 67.9417 110.757 67.8786 110.725 67.8214C110.693 67.7643 110.65 67.7142 110.598 67.6741C110.546 67.634 110.486 67.6048 110.423 67.5882C110.36 67.5716 110.293 67.5679 110.229 67.5774Z" fill="black"/>
<path id="Vector_11" opacity="0.3" d="M137.047 57.1619L131.994 57.7244C131.314 57.8 130.824 58.4124 130.9 59.0922L131.462 64.146C131.538 64.8258 132.15 65.3156 132.83 65.2399L137.884 64.6775C138.564 64.6019 139.053 63.9894 138.978 63.3096L138.415 58.2558C138.34 57.576 137.727 57.0863 137.047 57.1619Z" stroke="#263238" stroke-linecap="round" stroke-linejoin="round"/>
<path id="Vector_12" d="M132.892 61.0446L134.555 62.613L136.743 59.2637" stroke="#C5C7C2" stroke-width="3" stroke-linecap="round" stroke-linejoin="round"/>
<path id="Vector_13" opacity="0.3" d="M126.234 75.378L76.4146 80.9196C76.2869 80.9339 76.1702 80.9985 76.0901 81.0989C76.01 81.1994 75.973 81.3275 75.9874 81.4552C76.0018 81.5829 76.0663 81.6996 76.1668 81.7797C76.2672 81.8598 76.3954 81.8967 76.523 81.8823L126.342 76.3408C126.406 76.3337 126.467 76.3142 126.523 76.2834C126.578 76.2526 126.627 76.2112 126.667 76.1615C126.707 76.1117 126.736 76.0547 126.754 75.9935C126.771 75.9324 126.777 75.8684 126.77 75.8052C126.762 75.742 126.743 75.6808 126.712 75.6251C126.681 75.5694 126.64 75.5204 126.59 75.4807C126.541 75.441 126.483 75.4115 126.422 75.3939C126.361 75.3763 126.297 75.3709 126.234 75.378Z" fill="black"/>
<path id="Vector_14" opacity="0.3" d="M126.618 78.837L69.3228 85.2102C69.2595 85.2174 69.1984 85.2369 69.1427 85.2676C69.087 85.2984 69.0379 85.3398 68.9983 85.3896C68.9586 85.4393 68.9291 85.4964 68.9115 85.5575C68.8939 85.6186 68.8885 85.6826 68.8956 85.7459C68.9027 85.8091 68.9222 85.8703 68.953 85.9259C68.9838 85.9816 69.0252 86.0307 69.075 86.0704C69.1247 86.11 69.1818 86.1395 69.2429 86.1571C69.304 86.1747 69.368 86.1801 69.4312 86.173L126.727 79.7998C126.854 79.7854 126.971 79.7209 127.051 79.6204C127.131 79.52 127.168 79.3918 127.154 79.2642C127.14 79.1365 127.075 79.0198 126.975 78.9397C126.874 78.8596 126.746 78.8226 126.618 78.837Z" fill="black"/>
<path id="Vector_15" opacity="0.3" d="M112.05 83.9583L69.7066 88.6681C69.5789 88.6825 69.4622 88.747 69.3821 88.8475C69.302 88.9479 69.265 89.0761 69.2794 89.2037C69.2938 89.3314 69.3583 89.4481 69.4588 89.5282C69.5592 89.6083 69.6874 89.6453 69.815 89.6309L112.154 84.921C112.219 84.9171 112.283 84.9 112.341 84.8708C112.4 84.8416 112.452 84.8008 112.494 84.751C112.536 84.7011 112.568 84.6432 112.587 84.5808C112.606 84.5184 112.613 84.4527 112.606 84.3877C112.599 84.3225 112.578 84.2595 112.546 84.2023C112.514 84.1451 112.471 84.095 112.419 84.0549C112.367 84.0149 112.308 83.9857 112.244 83.969C112.181 83.9524 112.115 83.9488 112.05 83.9583Z" fill="black"/>
<path id="Vector_16" opacity="0.3" d="M138.871 73.5389L133.817 74.1013C133.137 74.177 132.647 74.7894 132.723 75.4692L133.285 80.523C133.361 81.2028 133.973 81.6925 134.653 81.6169L139.707 81.0545C140.387 80.9788 140.877 80.3664 140.801 79.6866L140.238 74.6328C140.163 73.953 139.55 73.4632 138.871 73.5389Z" stroke="#263238" stroke-linecap="round" stroke-linejoin="round"/>
<path id="Vector_17" d="M134.718 77.4254L136.377 78.9939L138.564 75.6445" stroke="#C5C7C2" stroke-width="3" stroke-linecap="round" stroke-linejoin="round"/>
<path id="Vector_18" opacity="0.3" d="M128.055 91.7588L78.2358 97.3003C78.1163 97.3234 78.0098 97.3907 77.9377 97.4888C77.8656 97.5869 77.8331 97.7086 77.8468 97.8296C77.8605 97.9506 77.9194 98.062 78.0116 98.1415C78.1038 98.221 78.2226 98.2628 78.3443 98.2586L128.164 92.708C128.227 92.7009 128.288 92.6814 128.344 92.6506C128.4 92.6198 128.449 92.5784 128.488 92.5286C128.528 92.4789 128.557 92.4218 128.575 92.3607C128.593 92.2996 128.598 92.2356 128.591 92.1724C128.584 92.1092 128.564 92.048 128.534 91.9923C128.503 91.9366 128.461 91.8875 128.412 91.8479C128.362 91.8082 128.305 91.7787 128.244 91.7611C128.182 91.7435 128.119 91.7381 128.055 91.7452V91.7588Z" fill="black"/>
<path id="Vector_19" opacity="0.3" d="M128.445 95.2168L71.1446 101.59C71.0813 101.596 71.0199 101.615 70.964 101.645C70.9081 101.676 70.8588 101.717 70.8192 101.767C70.7796 101.816 70.7503 101.874 70.7333 101.935C70.7162 101.996 70.7116 102.06 70.7198 102.123C70.7265 102.187 70.7457 102.248 70.7762 102.304C70.8066 102.36 70.8478 102.409 70.8974 102.449C70.9469 102.489 71.0038 102.518 71.0649 102.536C71.1259 102.554 71.1899 102.56 71.2531 102.553L128.549 96.1796C128.614 96.1751 128.678 96.1574 128.736 96.1277C128.795 96.098 128.847 96.0568 128.889 96.0066C128.931 95.9564 128.963 95.8982 128.982 95.8355C129.001 95.7728 129.007 95.7069 129.001 95.6417C128.993 95.5767 128.973 95.5138 128.941 95.4568C128.909 95.3999 128.866 95.35 128.814 95.3103C128.762 95.2706 128.702 95.2418 128.639 95.2258C128.575 95.2097 128.509 95.2067 128.445 95.2168Z" fill="black"/>
<path id="Vector_20" opacity="0.3" d="M113.872 100.337L71.5288 105.047C71.4012 105.062 71.2844 105.126 71.2043 105.227C71.1242 105.327 71.0873 105.455 71.1017 105.583C71.1161 105.711 71.1806 105.827 71.281 105.907C71.3815 105.987 71.5096 106.024 71.6373 106.01L113.976 101.296C114.104 101.282 114.221 101.218 114.301 101.118C114.382 101.018 114.419 100.89 114.406 100.762C114.392 100.635 114.328 100.518 114.228 100.437C114.128 100.357 114 100.319 113.872 100.333V100.337Z" fill="black"/>
<path id="Vector_21" opacity="0.3" d="M140.693 89.9158L135.639 90.4783C134.959 90.5539 134.47 91.1663 134.545 91.8461L135.108 96.8999C135.183 97.5797 135.796 98.0695 136.475 97.9938L141.529 97.4314C142.209 97.3558 142.699 96.7433 142.623 96.0635L142.061 91.0097C141.985 90.33 141.373 89.8402 140.693 89.9158Z" stroke="#263238" stroke-linecap="round" stroke-linejoin="round"/>
<path id="Vector_22" d="M136.54 93.8069L138.199 95.3753L140.391 92.0215" stroke="#C5C7C2" stroke-width="3" stroke-linecap="round" stroke-linejoin="round"/>
<path id="Vector_23" opacity="0.3" d="M129.878 108.14L80.0581 113.681C79.9385 113.704 79.8321 113.771 79.76 113.87C79.6878 113.968 79.6554 114.089 79.6691 114.21C79.6828 114.331 79.7416 114.443 79.8338 114.522C79.9261 114.602 80.0449 114.644 80.1666 114.639L129.986 109.098C130.053 109.096 130.118 109.079 130.178 109.051C130.238 109.022 130.292 108.981 130.335 108.93C130.379 108.88 130.412 108.821 130.431 108.757C130.451 108.693 130.457 108.626 130.45 108.56C130.442 108.494 130.421 108.43 130.388 108.372C130.354 108.314 130.309 108.264 130.256 108.225C130.202 108.185 130.14 108.157 130.075 108.143C130.01 108.128 129.943 108.127 129.878 108.14Z" fill="black"/>
<path id="Vector_24" opacity="0.3" d="M130.266 111.597L72.9659 117.97C72.9026 117.976 72.8412 117.995 72.7853 118.025C72.7294 118.056 72.6801 118.097 72.6405 118.147C72.6009 118.196 72.5716 118.254 72.5545 118.315C72.5375 118.376 72.5329 118.44 72.541 118.503C72.5478 118.566 72.567 118.628 72.5974 118.684C72.6279 118.739 72.6691 118.789 72.7186 118.829C72.7682 118.868 72.8251 118.898 72.8862 118.916C72.9472 118.934 73.0112 118.94 73.0744 118.933L130.37 112.559C130.498 112.545 130.615 112.48 130.696 112.379C130.776 112.278 130.813 112.15 130.799 112.022C130.785 111.895 130.72 111.779 130.62 111.699C130.52 111.62 130.393 111.583 130.266 111.597Z" fill="black"/>
<path id="Vector_25" opacity="0.3" d="M115.712 116.718L73.3683 121.428C73.305 121.434 73.2435 121.453 73.1876 121.483C73.1317 121.514 73.0825 121.555 73.0428 121.605C73.0032 121.654 72.974 121.712 72.9569 121.773C72.9398 121.834 72.9352 121.898 72.9434 121.961C72.9501 122.025 72.9693 122.086 72.9998 122.142C73.0303 122.198 73.0714 122.247 73.121 122.287C73.1705 122.327 73.2275 122.356 73.2885 122.374C73.3495 122.392 73.4135 122.398 73.4767 122.391L115.816 117.681C115.879 117.674 115.94 117.655 115.996 117.625C116.052 117.594 116.101 117.553 116.141 117.503C116.181 117.454 116.211 117.397 116.228 117.336C116.246 117.275 116.252 117.211 116.245 117.148C116.239 117.084 116.22 117.023 116.19 116.966C116.159 116.91 116.118 116.861 116.069 116.821C116.019 116.781 115.962 116.751 115.9 116.733C115.839 116.716 115.775 116.711 115.712 116.718Z" fill="black"/>
<path id="Vector_26" opacity="0.3" d="M142.516 106.297L137.462 106.859C136.783 106.935 136.293 107.547 136.368 108.227L136.931 113.281C137.006 113.961 137.619 114.45 138.299 114.375L143.352 113.812C144.032 113.737 144.522 113.124 144.446 112.444L143.884 107.391C143.808 106.711 143.196 106.221 142.516 106.297Z" stroke="#263238" stroke-linecap="round" stroke-linejoin="round"/>
<path id="Vector_27" d="M138.361 110.183L140.02 111.752L142.212 108.402" stroke="#C5C7C2" stroke-width="3" stroke-linecap="round" stroke-linejoin="round"/>
<path id="Vector_28" opacity="0.3" d="M131.704 124.516L81.8843 130.058C81.8211 130.064 81.7599 130.084 81.7041 130.114C81.6483 130.145 81.5991 130.186 81.5592 130.235C81.5193 130.285 81.4896 130.342 81.4717 130.403C81.4538 130.464 81.4481 130.528 81.4549 130.591C81.4618 130.654 81.481 130.715 81.5115 130.771C81.542 130.827 81.5832 130.876 81.6327 130.916C81.6822 130.956 81.7391 130.986 81.8001 131.004C81.8612 131.021 81.9251 131.027 81.9883 131.02L131.808 125.479C131.871 125.472 131.932 125.453 131.988 125.422C132.044 125.392 132.093 125.351 132.133 125.301C132.173 125.252 132.203 125.195 132.221 125.134C132.238 125.073 132.244 125.009 132.237 124.945C132.222 124.818 132.158 124.702 132.058 124.622C131.959 124.541 131.831 124.503 131.704 124.516Z" fill="black"/>
<path id="Vector_29" opacity="0.3" d="M132.087 127.964L74.787 134.337C74.7204 134.34 74.655 134.356 74.5948 134.384C74.5347 134.413 74.4812 134.454 74.4377 134.505C74.3941 134.555 74.3615 134.614 74.3418 134.678C74.3222 134.742 74.3159 134.809 74.3234 134.875C74.3309 134.941 74.352 135.005 74.3854 135.063C74.4188 135.121 74.4638 135.171 74.5175 135.21C74.5713 135.25 74.6326 135.278 74.6976 135.292C74.7627 135.307 74.83 135.308 74.8955 135.295L132.191 128.922C132.258 128.921 132.324 128.905 132.384 128.877C132.445 128.848 132.499 128.808 132.543 128.757C132.587 128.707 132.621 128.648 132.641 128.584C132.661 128.52 132.667 128.453 132.66 128.387C132.653 128.32 132.632 128.256 132.599 128.198C132.565 128.14 132.52 128.089 132.466 128.049C132.413 128.01 132.351 127.982 132.286 127.967C132.22 127.952 132.153 127.951 132.087 127.964Z" fill="black"/>
<path id="Vector_30" opacity="0.3" d="M117.52 133.099L75.1763 137.809C75.0486 137.823 74.9319 137.888 74.8518 137.988C74.7717 138.089 74.7348 138.217 74.7491 138.345C74.7635 138.472 74.828 138.589 74.9285 138.669C75.0289 138.749 75.1571 138.786 75.2848 138.772L117.628 134.062C117.755 134.046 117.871 133.981 117.951 133.88C118.03 133.779 118.067 133.651 118.053 133.524C118.046 133.461 118.027 133.4 117.997 133.344C117.966 133.289 117.925 133.24 117.875 133.2C117.825 133.161 117.769 133.131 117.708 133.114C117.646 133.097 117.583 133.092 117.52 133.099Z" fill="black"/>
<path id="Vector_31" opacity="0.3" d="M144.339 122.678L139.286 123.24C138.606 123.316 138.116 123.928 138.192 124.608L138.754 129.662C138.83 130.341 139.442 130.831 140.122 130.756L145.176 130.193C145.856 130.117 146.345 129.505 146.27 128.825L145.707 123.771C145.632 123.092 145.019 122.602 144.339 122.678Z" stroke="#263238" stroke-linecap="round" stroke-linejoin="round"/>
<path id="Vector_32" d="M140.183 126.562L141.841 128.131L144.034 124.781" stroke="#C5C7C2" stroke-width="3" stroke-linecap="round" stroke-linejoin="round"/>
<path id="Vector_33" opacity="0.3" d="M133.091 137.005L83.272 142.555C83.1443 142.57 83.0276 142.634 82.9475 142.735C82.8674 142.835 82.8305 142.963 82.8448 143.091C82.8592 143.219 82.9237 143.335 83.0242 143.415C83.1246 143.495 83.2528 143.532 83.3805 143.518L133.2 137.977C133.263 137.97 133.325 137.952 133.381 137.921C133.436 137.891 133.486 137.85 133.525 137.8C133.565 137.75 133.594 137.693 133.611 137.632C133.628 137.57 133.633 137.506 133.625 137.443C133.619 137.379 133.601 137.317 133.571 137.26C133.541 137.203 133.5 137.153 133.45 137.112C133.4 137.071 133.343 137.041 133.282 137.022C133.22 137.004 133.155 136.998 133.091 137.005Z" fill="black"/>
<path id="Vector_34" opacity="0.3" d="M133.476 140.475L76.18 146.848C76.1131 146.85 76.0473 146.865 75.9867 146.894C75.926 146.922 75.8719 146.963 75.8278 147.013C75.7837 147.063 75.7506 147.122 75.7304 147.186C75.7103 147.25 75.7036 147.317 75.7108 147.384C75.718 147.45 75.739 147.515 75.7724 147.573C75.8057 147.631 75.8508 147.681 75.9046 147.721C75.9585 147.761 76.0201 147.789 76.0854 147.803C76.1507 147.818 76.2183 147.819 76.284 147.806L133.584 141.433C133.704 141.41 133.81 141.343 133.882 141.245C133.954 141.147 133.987 141.025 133.973 140.904C133.959 140.783 133.901 140.671 133.808 140.592C133.716 140.512 133.597 140.471 133.476 140.475Z" fill="black"/>
<path id="Vector_35" opacity="0.3" d="M118.903 145.593L76.5641 150.303C76.5008 150.309 76.4396 150.329 76.3837 150.359C76.3279 150.39 76.2786 150.431 76.2388 150.48C76.1989 150.53 76.1691 150.587 76.1513 150.648C76.1334 150.709 76.1278 150.773 76.1347 150.836C76.1495 150.964 76.2143 151.081 76.3151 151.162C76.4159 151.242 76.5444 151.279 76.6726 151.265L119.011 146.556C119.075 146.549 119.136 146.529 119.191 146.498C119.247 146.467 119.296 146.426 119.336 146.376C119.376 146.327 119.405 146.27 119.423 146.208C119.44 146.147 119.446 146.083 119.439 146.02C119.431 145.957 119.412 145.896 119.381 145.84C119.35 145.784 119.309 145.735 119.259 145.696C119.209 145.656 119.152 145.626 119.091 145.609C119.03 145.591 118.966 145.586 118.903 145.593Z" fill="black"/>
<path id="Vector_36" opacity="0.3" d="M145.731 135.172L140.677 135.734C139.997 135.81 139.508 136.422 139.583 137.102L140.146 142.156C140.221 142.836 140.834 143.325 141.514 143.25L146.567 142.687C147.247 142.612 147.737 141.999 147.661 141.319L147.099 136.266C147.023 135.586 146.411 135.096 145.731 135.172Z" stroke="#263238" stroke-linecap="round" stroke-linejoin="round"/>
<path id="Vector_37" d="M141.57 139.06L143.229 140.629L145.421 137.279" stroke="#C5C7C2" stroke-width="3" stroke-linecap="round" stroke-linejoin="round"/>
</g>
<g id="freepik--Stamp--inject-123">
<path id="Vector_38" d="M91.6701 105.036C91.7138 104.516 91.5851 103.997 91.304 103.558L90.748 102.572L89.6452 103.196L90.2463 104.254C90.5446 104.783 90.4226 105.108 90.052 105.316C89.6813 105.524 89.3378 105.47 89.0395 104.941L87.7513 102.654L86.3682 102.925L87.8417 105.524C88.5152 106.713 89.4915 107.052 90.635 106.428C90.8168 106.323 90.9853 106.198 91.1368 106.053C91.0725 105.904 91.0612 105.737 91.1048 105.581C91.1484 105.425 91.2442 105.288 91.3763 105.194C91.4649 105.125 91.5642 105.072 91.6701 105.036Z" fill="#C5C7C2"/>
<path id="Vector_39" d="M85.6578 101.673L85.92 102.125H87.4432L86.7788 100.95C86.4805 100.421 86.598 100.086 86.9686 99.8784C87.3393 99.6705 87.6873 99.7338 87.9856 100.267L88.4376 101.058L89.536 100.434L89.1292 99.7157C88.4557 98.5314 87.4794 98.1879 86.3358 98.8388C86.0733 98.9803 85.8402 99.1706 85.6488 99.3993C85.9085 99.4827 86.1807 99.521 86.4533 99.5123L85.3685 99.9191C85.289 100.215 85.2737 100.525 85.3236 100.827C85.3735 101.13 85.4874 101.418 85.6578 101.673Z" fill="#C5C7C2"/>
<path id="Vector_40" d="M94.1058 96.8534C94.2508 96.7809 94.4021 96.7219 94.5578 96.6771C95.1409 96.415 95.272 95.5742 95.2223 94.9821L94.6211 94.2363L93.0029 95.1403L94.0154 96.9212C94.0419 96.8941 94.0724 96.8712 94.1058 96.8534Z" fill="#C5C7C2"/>
<path id="Vector_41" d="M100.999 100.393L102.097 99.769L97.898 92.3652L96.8539 92.9528C97.1884 93.0342 97.4279 93.1924 97.437 93.4365C97.1115 93.4817 96.7138 93.4365 96.3612 93.4998L98.4766 98.9825L95.8007 95.6468C95.808 95.7206 95.7969 95.7951 95.7685 95.8637C95.7402 95.9323 95.6953 95.9928 95.638 96.04C95.516 96.1259 95.3397 96.1259 95.2448 96.2389C95.1498 96.3519 95.1634 96.4875 95.082 96.5869C95.0007 96.6864 94.8741 96.7135 94.7747 96.7858C94.6752 96.8581 94.5668 97.0434 94.4538 97.1655C94.3993 97.2229 94.3307 97.2649 94.2549 97.2875L97.229 102.531L98.2415 101.952L95.2719 96.718L99.0868 101.473L100.19 100.849L97.9613 95.0953L100.999 100.393Z" fill="#C5C7C2"/>
<path id="Vector_42" d="M103.778 93.9468C103.859 93.987 103.93 94.0429 103.988 94.1112C104.047 94.1796 104.091 94.2589 104.117 94.3446C104.213 93.7861 104.091 93.2123 103.778 92.74L103.232 91.7727C102.558 90.5885 101.622 90.2675 100.456 90.9275L98.7432 91.8993L102.947 99.3075L104.036 98.6883C103.684 98.4668 103.29 98.277 102.956 98.0374C102.799 97.9372 102.67 97.7988 102.581 97.6351C102.538 97.5525 102.521 97.4595 102.531 97.3672C102.54 97.2749 102.576 97.1874 102.635 97.1153C102.711 97.0508 102.805 97.0093 102.904 96.9957C103.003 96.9821 103.104 96.9969 103.195 97.0385L102.531 95.8633L103.082 95.5514C103.385 95.3871 103.649 95.1589 103.855 94.8825C103.625 94.5163 103.222 93.7389 103.778 93.9468ZM102.481 94.5163L101.93 94.8282L100.506 92.3196L101.057 92.0077C101.428 91.7998 101.726 91.8541 102.025 92.3829L102.657 93.4948C102.956 94.0011 102.852 94.2858 102.481 94.5163Z" fill="#C5C7C2"/>
<path id="Vector_43" d="M110.012 95.2986L109.416 94.2409L107.499 95.3257L104.697 90.3854L104.57 90.4848C104.488 90.5607 104.389 90.615 104.281 90.643C104.226 90.6552 104.169 90.6473 104.12 90.6207C104.071 90.5941 104.034 90.5507 104.014 90.4984C103.999 90.4284 103.999 90.3559 104.014 90.2859C104.015 89.8653 103.882 89.4554 103.634 89.1152L102.73 89.6396L106.93 97.0433L110.012 95.2986Z" fill="#C5C7C2"/>
<path id="Vector_44" d="M109.488 92.7078C109.614 92.3779 110.008 92.2558 110.229 91.9575C110.249 91.9269 110.267 91.8952 110.283 91.8626L109.831 91.1032L110.975 90.4569C110.954 90.3847 110.917 90.3183 110.866 90.2625C110.702 90.1823 110.527 90.1275 110.347 90.0998C110.319 90.0436 110.305 89.9815 110.306 89.9188C110.307 89.8561 110.323 89.7945 110.352 89.7392C110.382 89.6839 110.424 89.6364 110.476 89.6009C110.528 89.5653 110.587 89.5427 110.649 89.5348C110.726 89.5348 110.817 89.5348 110.875 89.4986C110.917 89.4495 110.938 89.3864 110.934 89.3224L110.83 89.1416L109.23 90.0456L108.064 87.9844L110.071 86.8409L109.47 85.7832L106.306 87.5912L109.415 93.074C109.421 92.949 109.445 92.8255 109.488 92.7078Z" fill="#C5C7C2"/>
<path id="Vector_45" d="M113.696 93.21L113.095 92.1523L111.083 93.2914L110.482 92.2563L109.741 92.9524L109.483 93.201L110.523 95.0316L113.696 93.21Z" fill="#C5C7C2"/>
<path id="Vector_46" d="M112.199 84.6091C112.199 84.7673 112.086 84.9436 111.933 84.9571C111.854 84.9561 111.777 84.944 111.702 84.921C111.562 84.9235 111.423 84.9099 111.286 84.8803C111.257 84.8681 111.229 84.8513 111.205 84.8306L109.876 85.5854L110.477 86.6476L111.693 85.956L115.309 92.284L116.471 91.6241L112.855 85.2961L114.075 84.6046L113.474 83.5469L112.226 84.252C112.204 84.3695 112.213 84.4916 112.199 84.6091Z" fill="#C5C7C2"/>
<path id="Vector_47" d="M117.275 89.0934L118.179 90.6889L119.4 89.9974C119.429 89.9173 119.465 89.8401 119.508 89.7669C119.777 89.3742 120.139 89.0543 120.561 88.8357L121.122 88.4877L120.751 87.8278L118.74 88.9713L117.51 86.8017L119.11 85.8977L118.509 84.8401L116.909 85.7441L115.743 83.6694L117.754 82.5303L117.153 81.4727L113.989 83.2807L116.272 87.308C116.823 87.0142 117.099 88.0719 117.275 89.0934Z" fill="#C5C7C2"/>
<path id="Vector_48" d="M93.8665 103.72C94.0563 103.751 94.1693 103.941 94.3185 104.068C94.3727 104.118 94.4355 104.157 94.5038 104.185C94.5903 104.151 94.6748 104.111 94.7569 104.068C95.896 103.421 96.1355 102.391 95.4666 101.202L95.3988 101.084L93.8348 101.044L94.3456 101.948C94.6439 102.477 94.5264 102.811 94.1558 103.019C93.7851 103.227 93.4371 103.159 93.1388 102.63L90.8788 98.6301C90.5759 98.1012 90.698 97.7713 91.0686 97.5588C91.4392 97.3464 91.7828 97.4187 92.0856 97.9475L93.6179 100.66C94.0882 100.543 94.5707 100.482 95.0552 100.479L93.2879 97.3645C92.619 96.1802 91.611 95.8593 90.4674 96.5057C89.3239 97.152 89.0843 98.1871 89.7578 99.3713L91.941 103.222C92.0789 103.519 92.2852 103.779 92.5428 103.981C92.8005 104.183 93.1023 104.321 93.4235 104.384C93.4211 104.357 93.4211 104.33 93.4235 104.303C93.3693 104.009 93.5862 103.665 93.8665 103.72Z" fill="#C5C7C2"/>
<path id="Vector_49" d="M109.474 82.4626L113.023 80.4512C112.006 80.7314 111.111 81.5812 110.062 81.4636C109.872 81.4139 109.673 81.4139 109.483 81.4636C109.365 81.5401 109.279 81.6583 109.244 81.7949C109.209 81.9314 109.227 82.0762 109.294 82.2004C109.339 82.2969 109.4 82.3855 109.474 82.4626Z" fill="#C5C7C2"/>
<path id="Vector_50" d="M100.574 87.5115C100.566 87.4334 100.582 87.3547 100.619 87.2855C100.706 87.3159 100.798 87.3312 100.89 87.3307L102.115 86.6392C102.307 86.4223 102.526 86.2309 102.766 86.0696C102.998 85.9454 103.244 85.8484 103.498 85.7804L103.769 85.699L106.029 84.4244C106.053 84.3782 106.085 84.3368 106.124 84.3023C106.159 84.2791 106.197 84.2608 106.237 84.2481L103.905 83.543L103.277 83.8955L103.209 84.3927L100.52 85.8301C100.253 85.9964 99.9568 86.1085 99.6472 86.16C99.5315 86.1736 99.4147 86.1736 99.2991 86.16L95.4662 88.3342C95.4967 88.5158 95.5482 88.6933 95.6198 88.863C95.395 88.8211 95.1811 88.7334 94.9916 88.6054L94.2051 89.0574C94.7656 89.428 95.317 89.8077 95.8549 90.21L100.574 87.5115Z" fill="#C5C7C2"/>
<path id="Vector_51" d="M116.982 78.2095L115.129 77.1699L114.252 77.6671C114.769 78.1985 115.436 78.5582 116.164 78.6977L116.982 78.2095Z" fill="#C5C7C2"/>
<path id="Vector_52" d="M126.949 89.1515L119.952 76.8164C119.679 76.3394 119.23 75.9894 118.7 75.8429C118.171 75.6964 117.605 75.7653 117.127 76.0344L116.286 76.5136L116.607 76.8254C116.941 77.1599 117.285 77.4989 117.597 77.856L118.022 77.6164C118.08 77.5836 118.15 77.5751 118.215 77.5928C118.28 77.6106 118.336 77.6531 118.37 77.7114L125.371 90.051C125.404 90.1104 125.411 90.1802 125.393 90.2454C125.374 90.3105 125.331 90.3657 125.272 90.399L115.748 95.823C116.571 95.8727 117.402 95.7552 118.225 95.8501C118.521 95.8875 118.816 95.9403 119.106 96.0083L126.167 92.0036C126.406 91.8688 126.617 91.6878 126.786 91.4711C126.956 91.2543 127.08 91.0061 127.153 90.7408C127.226 90.4755 127.245 90.1985 127.21 89.9257C127.175 89.6528 127.086 89.3897 126.949 89.1515Z" fill="#C5C7C2"/>
<path id="Vector_53" d="M84.0716 104.849L80.781 99.0363C80.764 99.0069 80.753 98.9745 80.7486 98.9408C80.7442 98.9072 80.7464 98.873 80.7552 98.8403C80.7641 98.8075 80.7793 98.7768 80.8 98.7499C80.8207 98.7231 80.8465 98.7006 80.8759 98.6837L90.3679 93.2959C90.3363 93.2235 90.2956 93.1512 90.2685 93.0789C90.4026 93.0733 90.5368 93.0885 90.6663 93.1241L94.5037 90.95C94.3772 90.9093 94.2551 90.8596 94.1331 90.8144L92.3251 90.0957L90.8787 90.9183L92.4517 91.8811C91.9047 91.5466 90.7883 91.5014 89.8255 91.515L80.0036 97.1062C79.5257 97.3775 79.1749 97.8274 79.0283 98.357C78.8817 98.8866 78.9512 99.4528 79.2216 99.9312L82.0783 104.967C82.2093 104.93 82.3449 104.899 82.476 104.876C82.8382 104.824 83.2044 104.806 83.5699 104.822C83.7375 104.821 83.9051 104.83 84.0716 104.849Z" fill="#C5C7C2"/>
<path id="Vector_54" d="M95.7968 107.118C95.9578 107.263 96.141 107.38 96.3392 107.467C96.5426 107.557 96.8138 107.774 96.6556 107.919C95.9234 108.253 95.0194 108.004 94.3007 108.371C93.9075 108.56 93.5278 108.936 93.1074 108.823C93.6159 109.131 94.0734 109.517 94.4634 109.966L112.412 99.787C112.412 99.7147 112.435 99.6424 112.448 99.5656C112.449 99.4233 112.482 99.283 112.545 99.1553C112.607 99.0277 112.698 98.916 112.811 98.8289C112.923 98.7417 113.054 98.6813 113.193 98.6523C113.333 98.6234 113.477 98.6265 113.615 98.6616C113.847 98.6513 114.081 98.6757 114.306 98.7339L116.544 97.4638C116.237 96.9346 115.873 96.4405 115.459 95.9902L95.7968 107.118Z" fill="#C5C7C2"/>
<path id="Vector_55" d="M92.8901 110.106C92.4572 109.966 92.0584 109.736 91.7194 109.432L88.1396 111.466C88.1106 111.483 88.0785 111.494 88.0452 111.499C88.0119 111.503 87.9781 111.501 87.9457 111.492C87.9133 111.483 87.883 111.468 87.8565 111.447C87.8301 111.427 87.808 111.401 87.7916 111.372L84.6276 105.825C84.3244 105.721 84.0019 105.684 83.6829 105.717C83.3168 105.789 82.9958 106.214 83.1947 106.526C83.3816 106.531 83.5638 106.585 83.7227 106.684C83.8815 106.782 84.0113 106.921 84.0987 107.087C83.9038 107.242 83.6895 107.371 83.4614 107.471L86.1734 112.266C86.3081 112.509 86.4899 112.722 86.7081 112.892C86.9263 113.063 87.1764 113.189 87.4438 113.262C87.7113 113.335 87.9905 113.353 88.2653 113.317C88.54 113.28 88.8046 113.189 89.0436 113.048L93.7354 110.386L93.6811 110.355C93.4221 110.257 93.1581 110.174 92.8901 110.106Z" fill="#C5C7C2"/>
<g id="Group" opacity="0.2">
<path id="Vector_56" d="M91.6701 105.036C91.7138 104.516 91.5851 103.997 91.304 103.558L90.748 102.572L89.6452 103.196L90.2463 104.254C90.5446 104.783 90.4226 105.108 90.052 105.316C89.6813 105.524 89.3378 105.47 89.0395 104.941L87.7513 102.654L86.3682 102.925L87.8417 105.524C88.5152 106.713 89.4915 107.052 90.635 106.428C90.8168 106.323 90.9853 106.198 91.1368 106.053C91.0725 105.904 91.0612 105.737 91.1048 105.581C91.1484 105.425 91.2442 105.288 91.3763 105.194C91.4649 105.125 91.5642 105.072 91.6701 105.036Z" fill="black"/>
<path id="Vector_57" d="M85.6578 101.673L85.92 102.125H87.4432L86.7788 100.95C86.4805 100.421 86.598 100.086 86.9686 99.8784C87.3393 99.6705 87.6873 99.7338 87.9856 100.267L88.4376 101.058L89.536 100.434L89.1292 99.7157C88.4557 98.5314 87.4794 98.1879 86.3358 98.8388C86.0733 98.9803 85.8402 99.1706 85.6488 99.3993C85.9085 99.4827 86.1807 99.521 86.4533 99.5123L85.3685 99.9191C85.289 100.215 85.2737 100.525 85.3236 100.827C85.3735 101.13 85.4874 101.418 85.6578 101.673Z" fill="black"/>
<path id="Vector_58" d="M94.1058 96.8534C94.2508 96.7809 94.4021 96.7219 94.5578 96.6771C95.1409 96.415 95.272 95.5742 95.2223 94.9821L94.6211 94.2363L93.0029 95.1403L94.0154 96.9212C94.0419 96.8941 94.0724 96.8712 94.1058 96.8534Z" fill="black"/>
<path id="Vector_59" d="M100.999 100.393L102.097 99.769L97.898 92.3652L96.8539 92.9528C97.1884 93.0342 97.4279 93.1924 97.437 93.4365C97.1115 93.4817 96.7138 93.4365 96.3612 93.4998L98.4766 98.9825L95.8007 95.6468C95.808 95.7206 95.7969 95.7951 95.7685 95.8637C95.7402 95.9323 95.6953 95.9928 95.638 96.04C95.516 96.1259 95.3397 96.1259 95.2448 96.2389C95.1498 96.3519 95.1634 96.4875 95.082 96.5869C95.0007 96.6864 94.8741 96.7135 94.7747 96.7858C94.6752 96.8581 94.5668 97.0434 94.4538 97.1655C94.3993 97.2229 94.3307 97.2649 94.2549 97.2875L97.229 102.531L98.2415 101.952L95.2719 96.718L99.0868 101.473L100.19 100.849L97.9613 95.0953L100.999 100.393Z" fill="black"/>
<path id="Vector_60" d="M103.778 93.9468C103.859 93.987 103.93 94.0429 103.988 94.1112C104.047 94.1796 104.091 94.2589 104.117 94.3446C104.213 93.7861 104.091 93.2123 103.778 92.74L103.232 91.7727C102.558 90.5885 101.622 90.2675 100.456 90.9275L98.7432 91.8993L102.947 99.3075L104.036 98.6883C103.684 98.4668 103.29 98.277 102.956 98.0374C102.799 97.9372 102.67 97.7988 102.581 97.6351C102.538 97.5525 102.521 97.4595 102.531 97.3672C102.54 97.2749 102.576 97.1874 102.635 97.1153C102.711 97.0508 102.805 97.0093 102.904 96.9957C103.003 96.9821 103.104 96.9969 103.195 97.0385L102.531 95.8633L103.082 95.5514C103.385 95.3871 103.649 95.1589 103.855 94.8825C103.625 94.5163 103.222 93.7389 103.778 93.9468ZM102.481 94.5163L101.93 94.8282L100.506 92.3196L101.057 92.0077C101.428 91.7998 101.726 91.8541 102.025 92.3829L102.657 93.4948C102.956 94.0011 102.852 94.2858 102.481 94.5163Z" fill="black"/>
<path id="Vector_61" d="M110.012 95.2986L109.416 94.2409L107.499 95.3257L104.697 90.3854L104.57 90.4848C104.488 90.5607 104.389 90.615 104.281 90.643C104.226 90.6552 104.169 90.6473 104.12 90.6207C104.071 90.5941 104.034 90.5507 104.014 90.4984C103.999 90.4284 103.999 90.3559 104.014 90.2859C104.015 89.8653 103.882 89.4554 103.634 89.1152L102.73 89.6396L106.93 97.0433L110.012 95.2986Z" fill="black"/>
<path id="Vector_62" d="M109.488 92.7078C109.614 92.3779 110.008 92.2558 110.229 91.9575C110.249 91.9269 110.267 91.8952 110.283 91.8626L109.831 91.1032L110.975 90.4569C110.954 90.3847 110.917 90.3183 110.866 90.2625C110.702 90.1823 110.527 90.1275 110.347 90.0998C110.319 90.0436 110.305 89.9815 110.306 89.9188C110.307 89.8561 110.323 89.7945 110.352 89.7392C110.382 89.6839 110.424 89.6364 110.476 89.6009C110.528 89.5653 110.587 89.5427 110.649 89.5348C110.726 89.5348 110.817 89.5348 110.875 89.4986C110.917 89.4495 110.938 89.3864 110.934 89.3224L110.83 89.1416L109.23 90.0456L108.064 87.9844L110.071 86.8409L109.47 85.7832L106.306 87.5912L109.415 93.074C109.421 92.949 109.445 92.8255 109.488 92.7078Z" fill="black"/>
<path id="Vector_63" d="M113.696 93.21L113.095 92.1523L111.083 93.2914L110.482 92.2563L109.741 92.9524L109.483 93.201L110.523 95.0316L113.696 93.21Z" fill="black"/>
<path id="Vector_64" d="M112.199 84.6091C112.199 84.7673 112.086 84.9436 111.933 84.9571C111.854 84.9561 111.777 84.944 111.702 84.921C111.562 84.9235 111.423 84.9099 111.286 84.8803C111.257 84.8681 111.229 84.8513 111.205 84.8306L109.876 85.5854L110.477 86.6476L111.693 85.956L115.309 92.284L116.471 91.6241L112.855 85.2961L114.075 84.6046L113.474 83.5469L112.226 84.252C112.204 84.3695 112.213 84.4916 112.199 84.6091Z" fill="black"/>
<path id="Vector_65" d="M117.275 89.0934L118.179 90.6889L119.4 89.9974C119.429 89.9173 119.465 89.8401 119.508 89.7669C119.777 89.3742 120.139 89.0543 120.561 88.8357L121.122 88.4877L120.751 87.8278L118.74 88.9713L117.51 86.8017L119.11 85.8977L118.509 84.8401L116.909 85.7441L115.743 83.6694L117.754 82.5303L117.153 81.4727L113.989 83.2807L116.272 87.308C116.823 87.0142 117.099 88.0719 117.275 89.0934Z" fill="black"/>
<path id="Vector_66" d="M93.8665 103.72C94.0563 103.751 94.1693 103.941 94.3185 104.068C94.3727 104.118 94.4355 104.157 94.5038 104.185C94.5903 104.151 94.6748 104.111 94.7569 104.068C95.896 103.421 96.1355 102.391 95.4666 101.202L95.3988 101.084L93.8348 101.044L94.3456 101.948C94.6439 102.477 94.5264 102.811 94.1558 103.019C93.7851 103.227 93.4371 103.159 93.1388 102.63L90.8788 98.6301C90.5759 98.1012 90.698 97.7713 91.0686 97.5588C91.4392 97.3464 91.7828 97.4187 92.0856 97.9475L93.6179 100.66C94.0882 100.543 94.5707 100.482 95.0552 100.479L93.2879 97.3645C92.619 96.1802 91.611 95.8593 90.4674 96.5057C89.3239 97.152 89.0843 98.1871 89.7578 99.3713L91.941 103.222C92.0789 103.519 92.2852 103.779 92.5428 103.981C92.8005 104.183 93.1023 104.321 93.4235 104.384C93.4211 104.357 93.4211 104.33 93.4235 104.303C93.3693 104.009 93.5862 103.665 93.8665 103.72Z" fill="black"/>
<path id="Vector_67" d="M109.474 82.4626L113.023 80.4512C112.006 80.7314 111.111 81.5812 110.062 81.4636C109.872 81.4139 109.673 81.4139 109.483 81.4636C109.365 81.5401 109.279 81.6583 109.244 81.7949C109.209 81.9314 109.227 82.0762 109.294 82.2004C109.339 82.2969 109.4 82.3855 109.474 82.4626Z" fill="black"/>
<path id="Vector_68" d="M100.574 87.5115C100.566 87.4334 100.582 87.3547 100.619 87.2855C100.706 87.3159 100.798 87.3312 100.89 87.3307L102.115 86.6392C102.307 86.4223 102.526 86.2309 102.766 86.0696C102.998 85.9454 103.244 85.8484 103.498 85.7804L103.769 85.699L106.029 84.4244C106.053 84.3782 106.085 84.3368 106.124 84.3023C106.159 84.2791 106.197 84.2608 106.237 84.2481L103.905 83.543L103.277 83.8955L103.209 84.3927L100.52 85.8301C100.253 85.9964 99.9568 86.1085 99.6472 86.16C99.5315 86.1736 99.4147 86.1736 99.2991 86.16L95.4662 88.3342C95.4967 88.5158 95.5482 88.6933 95.6198 88.863C95.395 88.8211 95.1811 88.7334 94.9916 88.6054L94.2051 89.0574C94.7656 89.428 95.317 89.8077 95.8549 90.21L100.574 87.5115Z" fill="black"/>
<path id="Vector_69" d="M116.982 78.2095L115.129 77.1699L114.252 77.6671C114.769 78.1985 115.436 78.5582 116.164 78.6977L116.982 78.2095Z" fill="black"/>
<path id="Vector_70" d="M126.949 89.1515L119.952 76.8164C119.679 76.3394 119.23 75.9894 118.7 75.8429C118.171 75.6964 117.605 75.7653 117.127 76.0344L116.286 76.5136L116.607 76.8254C116.941 77.1599 117.285 77.4989 117.597 77.856L118.022 77.6164C118.08 77.5836 118.15 77.5751 118.215 77.5928C118.28 77.6106 118.336 77.6531 118.37 77.7114L125.371 90.051C125.404 90.1104 125.411 90.1802 125.393 90.2454C125.374 90.3105 125.331 90.3657 125.272 90.399L115.748 95.823C116.571 95.8727 117.402 95.7552 118.225 95.8501C118.521 95.8875 118.816 95.9403 119.106 96.0083L126.167 92.0036C126.406 91.8688 126.617 91.6878 126.786 91.4711C126.956 91.2543 127.08 91.0061 127.153 90.7408C127.226 90.4755 127.245 90.1985 127.21 89.9257C127.175 89.6528 127.086 89.3897 126.949 89.1515Z" fill="black"/>
<path id="Vector_71" d="M84.0716 104.849L80.781 99.0363C80.764 99.0069 80.753 98.9745 80.7486 98.9408C80.7442 98.9072 80.7464 98.873 80.7552 98.8403C80.7641 98.8075 80.7793 98.7768 80.8 98.7499C80.8207 98.7231 80.8465 98.7006 80.8759 98.6837L90.3679 93.2959C90.3363 93.2235 90.2956 93.1512 90.2685 93.0789C90.4026 93.0733 90.5368 93.0885 90.6663 93.1241L94.5037 90.95C94.3772 90.9093 94.2551 90.8596 94.1331 90.8144L92.3251 90.0957L90.8787 90.9183L92.4517 91.8811C91.9047 91.5466 90.7883 91.5014 89.8255 91.515L80.0036 97.1062C79.5257 97.3775 79.1749 97.8274 79.0283 98.357C78.8817 98.8866 78.9512 99.4528 79.2216 99.9312L82.0783 104.967C82.2093 104.93 82.3449 104.899 82.476 104.876C82.8382 104.824 83.2044 104.806 83.5699 104.822C83.7375 104.821 83.9051 104.83 84.0716 104.849Z" fill="black"/>
<path id="Vector_72" d="M95.7968 107.118C95.9578 107.263 96.141 107.38 96.3392 107.467C96.5426 107.557 96.8138 107.774 96.6556 107.919C95.9234 108.253 95.0194 108.004 94.3007 108.371C93.9075 108.56 93.5278 108.936 93.1074 108.823C93.6159 109.131 94.0734 109.517 94.4634 109.966L112.412 99.787C112.412 99.7147 112.435 99.6424 112.448 99.5656C112.449 99.4233 112.482 99.283 112.545 99.1553C112.607 99.0277 112.698 98.916 112.811 98.8289C112.923 98.7417 113.054 98.6813 113.193 98.6523C113.333 98.6234 113.477 98.6265 113.615 98.6616C113.847 98.6513 114.081 98.6757 114.306 98.7339L116.544 97.4638C116.237 96.9346 115.873 96.4405 115.459 95.9902L95.7968 107.118Z" fill="black"/>
<path id="Vector_73" d="M92.8901 110.106C92.4572 109.966 92.0584 109.736 91.7194 109.432L88.1396 111.466C88.1106 111.483 88.0785 111.494 88.0452 111.499C88.0119 111.503 87.9781 111.501 87.9457 111.492C87.9133 111.483 87.883 111.468 87.8565 111.447C87.8301 111.427 87.808 111.401 87.7916 111.372L84.6276 105.825C84.3244 105.721 84.0019 105.684 83.6829 105.717C83.3168 105.789 82.9958 106.214 83.1947 106.526C83.3816 106.531 83.5638 106.585 83.7227 106.684C83.8815 106.782 84.0113 106.921 84.0987 107.087C83.9038 107.242 83.6895 107.371 83.4614 107.471L86.1734 112.266C86.3081 112.509 86.4899 112.722 86.7081 112.892C86.9263 113.063 87.1764 113.189 87.4438 113.262C87.7113 113.335 87.9905 113.353 88.2653 113.317C88.54 113.28 88.8046 113.189 89.0436 113.048L93.7354 110.386L93.6811 110.355C93.4221 110.257 93.1581 110.174 92.8901 110.106Z" fill="black"/>
</g>
</g>
<g id="freepik--left-hand--inject-123">
<path id="Vector_74" opacity="0.3" d="M72.5369 93.9648C75.2941 95.9898 77.5993 105.717 77.8072 114.635C78.0151 123.553 82.3272 138.591 82.8425 141.054C83.3577 143.518 83.1679 147.07 86.3681 142.125C89.5682 137.181 98.9291 128.597 102.83 131.449C106.731 134.301 100.163 143.888 96.6059 149.05C93.0486 154.212 92.687 163.302 88.4247 168.992C84.1623 174.683 80.3113 183.276 76.1348 183.144C71.9583 183.013 44.2959 203.534 44.2959 203.534L44.8383 175.447L69.6983 134.767L72.5369 93.9648Z" fill="black" fill-opacity="0.7"/>
<path id="Vector_75" d="M105.099 132.827C104.959 133.708 100.091 140.158 97.2297 144.986C94.3685 149.813 91.6881 158.216 90.9695 159.45C90.2508 160.684 81.4775 168.39 79.0728 171.613C76.6682 174.836 72.3742 176.26 68.0847 179.297C65.3275 181.25 56.735 191.325 50.9449 198.281C47.7266 202.146 45.3717 205.061 45.3717 205.061L8.35742 195.411C8.35742 195.411 11.422 192.884 15.4538 189.476H15.4809L15.5216 189.444C22.1479 183.817 31.3823 175.875 33.9316 172.879C38.0403 168.051 43.7626 162.315 43.7626 162.315C43.4145 155.612 44.1242 149.262 43.4959 146.848C43.1705 145.587 42.5919 138.414 42.1399 136.208C41.0415 130.571 36.2639 124.732 35.726 122.431C35.1881 120.13 28.8827 110.335 31.9609 108.527C32.5205 108.175 33.1856 108.03 33.8412 108.116C37.9996 108.69 41.4257 118.734 43.7852 121.292C44.7962 122.503 45.712 123.791 46.5243 125.143C48.3865 128.095 50.2126 131.412 50.2126 131.412C50.9268 128.551 45.7423 118.358 44.3095 108.704C42.8767 99.049 38.768 93.8646 44.3095 93.2679C44.7648 93.2169 45.2258 93.2568 45.6655 93.3855C49.5663 94.5245 51.2567 102.629 53.5891 110.494C53.806 111.217 55.5824 116.41 56.9655 120.415C57.8695 123.037 58.5927 125.147 58.5927 125.147C58.769 120.23 57.2367 115.656 56.9836 111.199C56.8751 109.413 57.4356 102.258 56.7305 95.1076C56.1248 89.0734 56.4005 86.6281 58.7599 86.1535C59.2653 86.0625 59.7805 86.0382 60.2922 86.0811C64.3828 86.3388 65.8337 97.2094 65.8337 101.449C65.8337 103.913 66.2541 108.722 66.6067 112.329C66.8643 114.937 67.0858 116.917 67.0858 116.917C67.0858 116.917 67.7999 110.928 67.2666 98.0094C67.1445 95.1799 67.3299 93.1549 68.4418 92.3368C69.052 91.8848 69.9334 91.808 71.199 92.1515C74.7743 93.1188 75.9359 106.367 75.9359 111.375C75.9359 116.383 78.7971 124.962 79.335 131.715C79.8729 138.468 82.2142 146.767 82.2142 146.767C82.2142 146.767 83.5386 147.305 84.429 147.128C85.3195 146.952 91.4938 137.831 91.4938 137.831C94.3685 131.588 99.9643 129.695 103.011 130.395C104.412 130.716 105.316 131.579 105.099 132.827Z" fill="white"/>
<path id="Vector_76" opacity="0.4" d="M105.099 132.826C104.959 133.708 100.091 140.158 97.2301 144.985C94.369 149.812 91.6886 158.215 90.9699 159.449C90.2512 160.683 81.4779 168.39 79.0733 171.612C76.6686 174.835 72.3746 176.259 68.0852 179.296C65.328 181.249 56.7354 191.324 50.9453 198.28C51.5826 195.758 53.011 192.535 56.7445 189.439C63.2262 184.056 63.6149 179.834 67.0998 176.259C70.5847 172.684 76.7229 173.755 78.9286 169.479C81.1344 165.203 88.8274 161.253 90.4366 157.496C92.0457 153.74 88.8274 152.945 91.6886 148.425C94.5498 143.905 97.325 142.806 96.9182 141.035C96.5114 139.263 95.3091 136.578 97.7906 134.34C99.341 132.948 101.163 131.199 103.025 130.395C104.412 130.715 105.316 131.579 105.099 132.826Z" fill="#C5C7C2"/>
<path id="Vector_77" opacity="0.4" d="M58.7236 154.043C57.5349 153.447 58.4886 152.258 57.6524 151.268C56.8162 150.278 54.9088 156.669 54.4884 156.692C54.068 156.715 52.7889 153.442 52.2826 153.117C51.7764 152.791 51.4781 154.161 50.7594 156.692C50.0407 159.223 47.401 160.507 45.8688 162.315C44.3365 164.123 35.1202 173.954 32.8557 177.647C30.5912 181.34 16.6063 188.648 15.5215 189.435C22.1478 183.817 31.3822 175.875 33.9314 172.878C38.0401 168.051 43.7624 162.315 43.7624 162.315C43.4144 155.612 44.124 149.261 43.4958 146.847C43.1703 145.586 42.5918 138.413 42.1398 136.207C41.0414 130.571 36.2638 124.731 35.7259 122.43C35.188 120.13 28.8826 110.335 31.9607 108.527C32.5203 108.175 33.1855 108.029 33.841 108.116C33.1404 108.613 32.4579 109.327 33.0952 110.376C34.2298 112.211 35.4773 114.141 35.4773 116.17C35.4773 118.2 38.9351 121.056 40.2775 122.95C41.62 124.844 40.3679 124.175 41.2629 126.77C42.1578 129.364 43.2291 128.822 43.7624 131.443C44.2958 134.065 47.279 135.737 46.8044 139.005C46.3298 142.273 48.2327 146.82 48.2327 146.82C48.2327 146.82 49.7831 142.413 49.2181 140.04C48.6531 137.667 49.3085 134.675 48.7661 133.871C48.3141 133.147 47.0756 128.239 46.5061 125.188C48.3683 128.139 50.1944 131.457 50.1944 131.457C50.9086 128.596 45.7241 118.403 44.2913 108.748C42.8584 99.0936 38.7498 93.9092 44.2913 93.3125C44.7466 93.2615 45.2075 93.3014 45.6473 93.4301C48.0112 97.8461 46.366 101.114 45.8416 103.031C45.2676 105.119 48.6847 110.48 49.191 114.172C49.643 117.621 50.5741 117.264 50.6961 117.201C50.5922 117.296 49.7108 118.195 50.2441 120.753C50.8001 123.465 54.7641 129.906 54.7641 131.705C54.7641 133.504 54.4387 136.465 54.4387 137.342C54.4387 138.219 57.6027 144.086 57.9824 145.623C58.362 147.159 57.8332 142.662 58.6965 141.103C59.5598 139.543 60.0164 134.101 60.1294 134.395C61.6164 138.174 59.9169 154.631 58.7236 154.043Z" fill="#C5C7C2"/>
<path id="Vector_78" opacity="0.4" d="M61.2867 113.653C60.2742 115.186 60.3014 127.145 58.5747 127.186C57.7385 127.186 57.3317 124.18 56.9927 120.406C57.8967 123.028 58.6199 125.139 58.6199 125.139C58.7962 120.221 57.2639 115.647 57.0108 111.19C56.9023 109.404 57.4628 102.249 56.7577 95.0987C56.152 89.0645 56.4277 86.6191 58.7872 86.1445C59.2844 87.7537 60.5048 89.6521 60.8167 91.4149C61.2415 93.8466 60.4099 95.858 59.6957 96.1609C58.9815 96.4637 58.8595 98.0321 59.7544 98.2627C60.6494 98.4932 59.7544 109.906 60.1703 111.371C60.5861 112.835 62.3037 112.144 61.2867 113.653Z" fill="#C5C7C2"/>
<path id="Vector_79" opacity="0.4" d="M70.5757 100.265C68.718 101.083 68.6185 102.547 68.0626 104.649C67.5066 106.751 68.8581 109.82 68.0626 114.643C67.2671 119.466 70.1689 122.575 68.0626 127.972C65.9563 133.369 66.9461 123.452 66.5936 118.932C66.4721 116.731 66.4812 114.524 66.6207 112.324C66.8783 114.932 67.0998 116.912 67.0998 116.912C67.0998 116.912 67.814 110.923 67.2806 98.0046C67.1586 95.1751 67.3439 93.1502 68.4558 92.332C70.3633 94.0632 72.1577 99.5686 70.5757 100.265Z" fill="#C5C7C2"/>
<path id="Vector_80" d="M45.3715 205.065C45.3715 205.065 63.7905 182.357 68.0845 179.301C72.3785 176.246 76.6725 174.831 79.0726 171.617C81.4727 168.403 90.2551 160.706 90.9692 159.454C91.6834 158.202 94.3683 149.799 97.2294 144.99C100.091 140.181 104.959 133.69 105.099 132.831C105.723 128.894 95.7107 128.718 91.5071 137.839C91.5071 137.839 85.3373 146.956 84.4423 147.137C83.5474 147.318 82.2275 146.775 82.2275 146.775C82.2275 146.775 79.8862 138.481 79.3483 131.724C78.8104 124.966 75.9493 116.378 75.9493 111.384C75.9493 106.389 74.7876 93.1274 71.2123 92.1601C67.637 91.1928 67.0946 93.6427 67.2799 98.0361C67.8133 110.954 67.0991 116.943 67.0991 116.943C67.0991 116.943 65.847 105.72 65.847 101.476C65.847 97.2315 64.3961 86.3609 60.3055 86.1078C56.5494 85.8683 56.0251 87.9791 56.7438 95.1478C57.4625 102.317 56.8884 109.454 56.9969 111.239C57.2636 115.709 58.8049 120.279 58.606 125.188C58.606 125.188 53.9549 111.723 53.5979 110.525C51.0079 101.747 49.2135 92.707 44.2957 93.2494C38.7542 93.8461 42.8674 99.0305 44.2957 108.685C45.724 118.34 50.913 128.533 50.1988 131.394C50.1988 131.394 45.9093 123.606 43.7714 121.273C41.0594 118.34 36.9642 105.557 31.9561 108.509C28.878 110.317 35.2015 120.143 35.7348 122.444C36.2682 124.745 41.0503 130.58 42.1487 136.221C42.6007 138.427 43.1657 145.6 43.5047 146.861C44.133 149.275 43.4233 155.625 43.7714 162.329C43.7714 162.329 38.049 168.051 33.9404 172.878C29.8317 177.706 8.36621 195.41 8.36621 195.41" stroke="#263238" stroke-linecap="round" stroke-linejoin="round"/>
<path id="Vector_81" d="M82.2275 146.771C83.0525 148.808 83.0525 151.086 82.2275 153.122" stroke="#263238" stroke-linecap="round" stroke-linejoin="round"/>
<path id="Vector_82" d="M83.7334 147.15C84.2465 147.527 84.6267 148.057 84.8192 148.664C85.0118 149.271 85.0066 149.923 84.8046 150.527" stroke="#263238" stroke-linecap="round" stroke-linejoin="round"/>
<path id="Vector_83" d="M67.0996 116.912C67.0996 116.912 68.5324 127.014 67.9042 128.89" stroke="#263238" stroke-linecap="round" stroke-linejoin="round"/>
<path id="Vector_84" d="M58.6064 125.139C58.7599 126.115 58.7599 127.109 58.6064 128.086" stroke="#263238" stroke-linecap="round" stroke-linejoin="round"/>
<path id="Vector_85" d="M50.2031 131.395C50.2031 131.395 50.4698 132.918 50.2031 133.275" stroke="#263238" stroke-linecap="round" stroke-linejoin="round"/>
<path id="Vector_86" d="M95.5303 139.979C95.5303 139.979 97.1484 140.855 97.6773 142.126" stroke="#263238" stroke-linecap="round" stroke-linejoin="round"/>
<path id="Vector_87" d="M58.665 98.0044C59.1895 98.1304 59.7373 98.1223 60.2579 97.9809C60.7784 97.8395 61.255 97.5693 61.6437 97.1953" stroke="#263238" stroke-linecap="round" stroke-linejoin="round"/>
<path id="Vector_88" d="M59.2119 112.531C59.2119 112.531 62.4302 113.602 63.5963 112.531" stroke="#263238" stroke-linecap="round" stroke-linejoin="round"/>
<path id="Vector_89" d="M69.6934 115.66C69.6934 115.66 71.8358 114.856 73.2687 115.303" stroke="#263238" stroke-linecap="round" stroke-linejoin="round"/>
<path id="Vector_90" d="M49.2178 118.521C49.2178 118.521 50.9173 116.284 52.2597 116.912" stroke="#263238" stroke-linecap="round" stroke-linejoin="round"/>
<path id="Vector_91" d="M42.2435 125.139C42.2435 125.139 40.7248 125.853 40.2773 126.612" stroke="#263238" stroke-linecap="round" stroke-linejoin="round"/>
<path id="Vector_92" d="M43.7627 162.316C44.1353 161.897 44.4654 161.443 44.7481 160.96C45.0147 160.422 44.6577 154.699 44.7481 151.016" stroke="#263238" stroke-linecap="round" stroke-linejoin="round"/>
<path id="Vector_93" d="M62.5206 184.844C60.4143 187.203 53.9552 191.479 51.3652 194.069" stroke="#263238" stroke-linecap="round" stroke-linejoin="round"/>
<path id="Vector_94" d="M71.0318 131.395C69.9606 134.436 71.1222 138.278 71.0318 139.983C70.9414 141.687 70.5798 149.475 70.5798 149.475" stroke="#263238" stroke-linecap="round" stroke-linejoin="round"/>
<path id="Vector_95" d="M61.2869 131.395C59.8586 133.808 60.306 137.026 60.7535 138.627C61.201 140.227 60.8032 146.763 60.8032 146.763" stroke="#263238" stroke-linecap="round" stroke-linejoin="round"/>
<path id="Vector_96" d="M45.9092 139.082C45.7909 140.656 46.1034 142.233 46.8132 143.643" stroke="#263238" stroke-linecap="round" stroke-linejoin="round"/>
<path id="Vector_97" d="M54.7598 134.346C53.9552 137.297 55.031 138.635 55.1214 139.083" stroke="#263238" stroke-linecap="round" stroke-linejoin="round"/>
</g>
<g id="freepik--right-hand--inject-123">
<path id="Vector_98" opacity="0.3" d="M127.382 114.855L125.859 106.014C125.792 105.621 125.804 105.219 125.897 104.831C125.989 104.443 126.158 104.078 126.395 103.758C126.632 103.437 126.931 103.168 127.275 102.966C127.618 102.764 127.999 102.634 128.395 102.583L131.807 102.131C131.807 102.131 130.668 99.8215 134.334 93.0912C138 86.3609 155.623 68.4843 168.984 98.5152C182.345 128.546 194.554 189.742 194.554 189.742C194.554 189.742 158.489 147.742 157.341 145.591C156.193 143.439 145.213 144.728 142.678 138.956C140.142 133.184 134.817 116.713 134.817 116.713L130.695 117.278C129.937 117.38 129.168 117.185 128.551 116.734C127.933 116.282 127.514 115.609 127.382 114.855Z" fill="black" fill-opacity="0.7"/>
<path id="Vector_99" d="M159.167 94.5693L152.247 95.8259L142.628 97.5751L130.031 99.8667C129.789 99.9111 129.541 99.9073 129.301 99.8556C129.061 99.8039 128.834 99.7053 128.632 99.5655C128.43 99.4256 128.257 99.2473 128.124 99.0407C127.991 98.8341 127.901 98.6033 127.857 98.3616L125.091 83.1518C125.004 82.6641 125.113 82.1617 125.395 81.7544C125.677 81.3471 126.109 81.0678 126.596 80.9777L133.923 79.6217L144.581 77.6871L155.732 75.6576C155.973 75.6133 156.221 75.6171 156.462 75.6688C156.702 75.7205 156.929 75.819 157.131 75.9589C157.333 76.0987 157.506 76.277 157.639 76.4836C157.772 76.6902 157.862 76.921 157.906 77.1628L160.672 92.3726C160.72 92.6158 160.719 92.8662 160.668 93.1089C160.618 93.3517 160.52 93.582 160.38 93.7865C160.24 93.991 160.061 94.1655 159.852 94.2999C159.644 94.4343 159.411 94.5259 159.167 94.5693Z" fill="#C5C7C2"/>
<g id="Clip path group">
<mask id="mask0_54957_111636" style="mask-type:luminance" maskUnits="userSpaceOnUse" x="125" y="75" width="36" height="25">
<g id="freepik--clip-path--inject-123">
<path id="Vector_100" d="M159.167 94.5693L152.247 95.8259L142.628 97.5751L130.031 99.8667C129.789 99.9111 129.541 99.9073 129.301 99.8556C129.061 99.8039 128.834 99.7053 128.632 99.5655C128.43 99.4256 128.257 99.2473 128.124 99.0407C127.991 98.8341 127.901 98.6033 127.857 98.3616L125.091 83.1518C125.004 82.6641 125.113 82.1617 125.395 81.7544C125.677 81.3471 126.109 81.0678 126.596 80.9777L133.923 79.6217L144.581 77.6871L155.732 75.6576C155.973 75.6133 156.221 75.6171 156.462 75.6688C156.702 75.7205 156.929 75.819 157.131 75.9589C157.333 76.0987 157.506 76.277 157.639 76.4836C157.772 76.6902 157.862 76.921 157.906 77.1628L160.672 92.3726C160.72 92.6158 160.719 92.8662 160.668 93.1089C160.618 93.3517 160.52 93.582 160.38 93.7865C160.24 93.991 160.061 94.1655 159.852 94.2999C159.644 94.4343 159.411 94.5259 159.167 94.5693Z" fill="white"/>
</g>
</mask>
<g mask="url(#mask0_54957_111636)">
<g id="Group_2">
<path id="Vector_101" opacity="0.3" d="M154.271 84.472L152.246 95.8263L142.628 97.5755C139.844 96.3506 135.251 94.2171 134.334 93.0555C133.24 91.6995 133.394 83.7081 133.922 79.6221L144.581 77.6875C148.337 80.2775 154.271 84.472 154.271 84.472Z" fill="black" fill-opacity="0.7"/>
<path id="Vector_102" opacity="0.3" d="M131.943 99.5199L130.031 99.868C129.789 99.9123 129.541 99.9085 129.301 99.8568C129.061 99.8051 128.834 99.7065 128.632 99.5667C128.43 99.4269 128.257 99.2486 128.124 99.042C127.991 98.8354 127.901 98.6046 127.857 98.3628L125.091 83.153C125.004 82.6653 125.113 82.163 125.395 81.7556C125.677 81.3483 126.109 81.0691 126.596 80.9789L128.503 80.6309C128.016 80.721 127.585 81.0004 127.304 81.4079C127.023 81.8154 126.914 82.3178 127.003 82.805L129.769 98.0148C129.812 98.2566 129.903 98.4873 130.036 98.6939C130.169 98.9005 130.342 99.0788 130.544 99.2187C130.746 99.3585 130.973 99.4571 131.213 99.5088C131.453 99.5605 131.701 99.5643 131.943 99.5199Z" fill="black" fill-opacity="0.7"/>
</g>
</g>
</g>
<path id="Vector_103" d="M159.167 94.5693L152.247 95.8259L142.628 97.5751L130.031 99.8667C129.789 99.9111 129.541 99.9073 129.301 99.8556C129.061 99.8039 128.834 99.7053 128.632 99.5655C128.43 99.4256 128.257 99.2473 128.124 99.0407C127.991 98.8341 127.901 98.6033 127.857 98.3616L125.091 83.1518C125.004 82.6641 125.113 82.1617 125.395 81.7544C125.677 81.3471 126.109 81.0678 126.596 80.9777L133.923 79.6217L144.581 77.6871L155.732 75.6576C155.973 75.6133 156.221 75.6171 156.462 75.6688C156.702 75.7205 156.929 75.819 157.131 75.9589C157.333 76.0987 157.506 76.277 157.639 76.4836C157.772 76.6902 157.862 76.921 157.906 77.1628L160.672 92.3726C160.72 92.6158 160.719 92.8662 160.668 93.1089C160.618 93.3517 160.52 93.582 160.38 93.7865C160.24 93.991 160.061 94.1655 159.852 94.2999C159.644 94.4343 159.411 94.5259 159.167 94.5693Z" stroke="#263238" stroke-linecap="round" stroke-linejoin="round"/>
<path id="Vector_104" d="M157.112 74.8548L128.094 80.1847C127.081 80.3707 126.411 81.3425 126.597 82.3553L129.378 97.5001C129.564 98.513 130.536 99.1832 131.549 98.9972L160.567 93.6673C161.58 93.4812 162.25 92.5094 162.064 91.4966L159.283 76.3518C159.097 75.339 158.125 74.6687 157.112 74.8548Z" stroke="#263238" stroke-width="0.996394" stroke-linecap="round" stroke-linejoin="round"/>
<path id="Vector_105" d="M156.299 76.6833L128.954 81.6528C128.463 81.7421 128.137 82.2127 128.226 82.7039L130.95 97.6908C131.039 98.182 131.51 98.5079 132.001 98.4186L159.346 93.4491C159.838 93.3598 160.163 92.8892 160.074 92.398L157.351 77.4111C157.261 76.9199 156.791 76.594 156.299 76.6833Z" stroke="#263238" stroke-linecap="round" stroke-linejoin="round"/>
<path id="Vector_106" d="M161.079 94.223L159.18 94.5665C159.665 94.4753 160.094 94.196 160.374 93.7894C160.653 93.3829 160.76 92.8822 160.672 92.3969L157.906 77.1871C157.862 76.9453 157.771 76.7145 157.638 76.5079C157.505 76.3014 157.333 76.123 157.131 75.9832C156.929 75.8434 156.701 75.7448 156.461 75.6931C156.221 75.6414 155.973 75.6376 155.731 75.6819L157.643 75.3339C158.131 75.2468 158.633 75.3562 159.041 75.6382C159.448 75.9202 159.727 76.3519 159.818 76.8391L162.584 92.0488C162.671 92.5366 162.561 93.0389 162.279 93.4462C161.997 93.8536 161.566 94.1328 161.079 94.223Z" stroke="#263238" stroke-linecap="round" stroke-linejoin="round"/>
<path id="Vector_107" d="M216.056 142.944L197.338 193.152C197.338 193.152 189.51 178.236 182.278 164.432C176.501 153.394 171.104 143.043 170.377 141.52C168.745 138.089 163.172 130.902 163.172 130.902C163.172 130.902 157.454 127.63 154.837 121.93C152.22 116.23 149.341 95.8407 149.341 95.8407C149.341 95.8407 141.824 93.0112 140.029 91.7727C138.235 90.5343 136.599 79.0896 136.599 77.7833C136.599 76.477 138.407 73.86 138.407 73.86C138.407 73.86 138.004 71.9435 140.301 70.0089C141.051 69.3928 141.883 68.8833 142.773 68.4947H142.818C142.818 68.4947 142.52 64.1691 144.771 62.908C144.878 62.8472 144.99 62.7943 145.105 62.7498C147.112 61.9769 153.693 60.978 153.693 60.978C154.624 60.1605 155.707 59.5352 156.88 59.1383C158.046 58.8174 164.446 60.3045 168.022 61.1859C169.459 61.5384 170.44 61.7916 170.44 61.7916C170.44 61.7916 176.488 62.0673 177.631 62.7498C178.429 63.2728 179.158 63.8939 179.801 64.5985L179.914 64.7296C179.914 64.7296 185.306 65.8505 186.45 67.8258C187.593 69.801 188.081 79.6004 187.268 85.9691C186.454 92.3377 187.914 103.145 187.914 103.145C187.914 103.145 189.6 111.493 190.906 114.662C192.213 117.831 216.056 142.944 216.056 142.944Z" fill="white"/>
<path id="Vector_108" opacity="0.4" d="M182.278 164.432C176.501 153.394 171.104 143.043 170.377 141.52C168.745 138.089 163.172 130.903 163.172 130.903C163.172 130.903 157.454 127.63 154.837 121.93C152.22 116.231 149.341 95.8409 149.341 95.8409C149.341 95.8409 141.824 93.0114 140.029 91.7729C138.235 90.5344 136.599 79.0898 136.599 77.7835C136.599 76.4772 138.407 73.8602 138.407 73.8602C138.407 73.8602 138.004 71.9437 140.301 70.0091C140.301 70.5244 140.301 71.3922 140.301 72.7573C140.246 75.3472 143.297 90.9638 144.052 90.4892C144.807 90.0146 145.973 88.8711 145.666 87.8631C145.666 87.8631 144.188 81.8018 142.791 68.4949H142.836C142.836 68.4949 142.538 64.1693 144.789 62.9082C144.402 63.8449 144.153 64.8332 144.052 65.8417C144.002 67.948 146.506 85.9964 147.487 86.4529C148.468 86.9094 150.954 84.5048 150.954 84.5048C150.954 84.5048 150.104 79.3836 150.407 77.2004C150.407 77.2004 157.969 81.8108 158.195 87.045C158.218 87.619 159.669 95.8228 159.669 95.8228C159.669 95.8228 153.164 108.208 159.804 119.508C159.804 119.508 156.428 117.483 155.623 114.264C155.623 114.264 154.642 123.729 161.617 128.728C161.617 128.728 166.62 123.815 171.561 123.191C171.561 123.191 171.651 123.517 168.343 126.125C165.034 128.733 164.586 129.895 164.586 129.895C164.586 129.895 168.166 126.279 171.027 126.125C171.027 126.125 168.076 129.538 168.166 130.252C168.257 130.966 176.605 145.24 179.643 155.198C180.881 159.356 181.726 162.357 182.278 164.432Z" fill="#C5C7C2"/>
<path id="Vector_109" opacity="0.4" d="M158.837 69.7006C158.837 69.7006 161.246 71.5086 161.96 69.7006C162.37 68.7331 162.631 67.7089 162.733 66.6631C162.733 66.6631 163.66 66.2383 164.541 68.4711C165.423 70.704 174.259 71.2735 176.329 72.4171C178.399 73.5607 179.222 72.4171 179.222 72.4171C179.704 72.8134 180.035 73.3639 180.159 73.9757C180.282 74.5875 180.191 75.2231 179.9 75.7755C178.897 77.8501 181.74 78.0355 182.843 76.5077C183.946 74.9799 183.091 80.8785 180.366 81.4797C180.366 81.4797 180.443 84.0561 178.689 85.8234H180.176C180.176 85.8234 176.216 88.9648 175.163 89.1366C174.11 89.3083 179.082 91.0666 178.16 91.4373C177.238 91.8079 174.625 91.7763 174.625 91.7763C174.625 91.7763 176.316 92.9469 176.329 93.7199C176.343 94.4928 175.529 95.0759 175.163 94.4295C174.797 93.7831 171.877 84.5262 170.422 81.1045C168.966 77.6829 162.955 74.9754 158.837 69.7006Z" fill="#C5C7C2"/>
<path id="Vector_110" opacity="0.4" d="M179.796 64.5669C174.724 63.1793 167.922 61.204 167.922 61.204L168.017 61.1543C169.454 61.5069 170.435 61.76 170.435 61.76C170.435 61.76 176.483 62.0357 177.626 62.7182C178.424 63.2412 179.153 63.8623 179.796 64.5669Z" fill="#C5C7C2"/>
<path id="Vector_111" d="M172.664 72.5443C168.252 71.6403 165.102 75.41 165.102 75.41C165.102 75.41 169.486 79.3785 170.458 81.0826C171.43 82.7866 173.043 88.5315 173.043 88.5315C174.892 88.8299 178.3 86.9224 179.118 81.86C179.936 76.7976 177.052 73.4438 172.664 72.5443Z" fill="#C5C7C2"/>
<path id="Vector_112" d="M197.338 193.151C197.338 193.151 172.026 144.95 170.377 141.519C168.727 138.089 163.172 130.902 163.172 130.902C163.172 130.902 157.454 127.629 154.837 121.93C152.22 116.23 149.341 95.8403 149.341 95.8403C149.341 95.8403 141.824 93.0107 140.029 91.7723C138.235 90.5338 136.599 79.0891 136.599 77.7829C136.599 76.4766 138.407 73.8595 138.407 73.8595C138.407 73.8595 137.756 70.7633 142.818 68.4717C142.818 68.4717 142.493 63.7302 145.105 62.7268C147.112 61.9538 153.693 60.9549 153.693 60.9549C154.624 60.1374 155.707 59.5122 156.88 59.1153C158.512 58.6633 170.44 61.7685 170.44 61.7685C170.44 61.7685 176.488 62.0442 177.631 62.7268C178.468 63.2784 179.229 63.9363 179.896 64.6839C179.896 64.6839 185.288 65.8049 186.432 67.7801C187.575 69.7554 188.063 79.5547 187.25 85.9234C186.436 92.2921 187.896 103.099 187.896 103.099C187.896 103.099 189.582 111.448 190.888 114.616C192.195 117.785 216.056 142.943 216.056 142.943" stroke="#263238" stroke-linecap="round" stroke-linejoin="round"/>
<path id="Vector_113" d="M175.909 95.175C175.909 95.175 174.765 94.9309 173.296 89.5385C171.827 84.1462 171.438 81.624 168.392 78.4284C166.231 76.1684 161.286 72.4755 158.837 69.7003C156.387 66.925 153.679 64.6831 151.564 66.4007C149.873 67.7567 148.771 71.2777 150.258 76.7108C152.17 83.6897 158.199 87.0119 158.199 87.0119L159.673 95.7897C159.673 95.7897 153.277 108.599 160.486 120.69" stroke="#263238" stroke-linecap="round" stroke-linejoin="round"/>
<path id="Vector_114" d="M165.079 75.4108C165.079 75.4108 168.243 71.6456 172.641 72.5451C177.039 73.4446 179.896 76.7939 179.096 81.8608C178.296 86.9277 174.869 88.8307 173.021 88.5323" stroke="#263238" stroke-linecap="round" stroke-linejoin="round"/>
<path id="Vector_115" d="M153.68 60.9453C153.019 62.6059 152.511 64.323 152.161 66.0755" stroke="#263238" stroke-linecap="round" stroke-linejoin="round"/>
<path id="Vector_116" d="M151.004 78.6465C151.004 78.6465 151.384 84.2287 152.17 85.9418C152.957 87.6548 154.263 89.047 154.832 91.2528C155.402 93.4585 155.488 96.8892 155.65 97.3819C155.813 97.8746 156.758 98.0011 156.758 98.0011C158.114 98.0328 158.661 97.3276 159.443 96.2519" stroke="#263238" stroke-linecap="round" stroke-linejoin="round"/>
<path id="Vector_117" d="M142.832 68.4629C142.832 68.4629 144.057 80.3866 145.038 85.4536C146.019 90.5205 147.75 91.2527 150.593 92.889C153.436 94.5252 155.004 97.861 155.253 98.3627C155.502 98.8644 156.433 98.9187 156.433 98.9187C156.98 98.8731 157.507 98.6918 157.966 98.3911C158.426 98.0904 158.803 97.6798 159.063 97.1965" stroke="#263238" stroke-linecap="round" stroke-linejoin="round"/>
<path id="Vector_118" d="M138.412 73.8496C138.104 74.3242 140.726 86.4333 142.091 89.9453C143.456 93.4574 143.61 94.0133 147.221 95.0077C150.833 96.0021 153.576 97.6565 154.552 97.0734" stroke="#263238" stroke-linecap="round" stroke-linejoin="round"/>
<path id="Vector_119" d="M163.492 67.1523C163.492 67.1523 165.368 71.6452 164.13 74.6013" stroke="#263238" stroke-linecap="round" stroke-linejoin="round"/>
<path id="Vector_120" d="M170.436 61.7598C173.51 62.9751 176.672 63.9527 179.896 64.6842" stroke="#263238" stroke-linecap="round" stroke-linejoin="round"/>
<path id="Vector_121" d="M182.856 77.2852C182.856 77.2852 181.419 79.9113 179.24 80.4763" stroke="#263238" stroke-linecap="round" stroke-linejoin="round"/>
<path id="Vector_122" d="M179.236 74.4238C179.236 74.4238 178.721 75.7798 178.174 76.155" stroke="#263238" stroke-linecap="round" stroke-linejoin="round"/>
<path id="Vector_123" d="M181.044 85.209C181.044 85.209 177.776 87.6814 174.639 88.3233" stroke="#263238" stroke-linecap="round" stroke-linejoin="round"/>
<path id="Vector_124" d="M173.297 89.543C173.297 89.543 174.653 91.256 178.174 91.4188" stroke="#263238" stroke-linecap="round" stroke-linejoin="round"/>
<path id="Vector_125" d="M162.72 82.0445C162.72 82.0445 165.92 78.9709 167.746 79.3958" stroke="#263238" stroke-linecap="round" stroke-linejoin="round"/>
<path id="Vector_126" d="M168.985 82.6699C168.985 82.6699 166.562 84.4779 166.119 84.4779" stroke="#263238" stroke-linecap="round" stroke-linejoin="round"/>
<path id="Vector_127" d="M144.038 92.2562C144.038 92.2562 144.843 92.4054 145.471 91.4336" stroke="#263238" stroke-linecap="round" stroke-linejoin="round"/>
<path id="Vector_128" d="M146.899 87.8528C146.899 87.8528 148.843 86.6504 150.113 86.4199" stroke="#263238" stroke-linecap="round" stroke-linejoin="round"/>
<path id="Vector_129" d="M164.021 128.625C164.424 128.267 168.18 125.23 170.503 124.154" stroke="#263238" stroke-linecap="round" stroke-linejoin="round"/>
<path id="Vector_130" d="M168.894 127.186C168.627 127.104 166.494 129.337 165.368 130.232" stroke="#263238" stroke-linecap="round" stroke-linejoin="round"/>
<path id="Vector_131" d="M169.952 133.809C169.952 133.809 177.107 147.369 178.716 152.793" stroke="#263238" stroke-linecap="round" stroke-linejoin="round"/>
<path id="Vector_132" d="M190.906 114.635C191.512 117.966 193.478 120.42 194.554 121.749" stroke="#263238" stroke-linecap="round" stroke-linejoin="round"/>
<path id="Vector_133" opacity="0.4" d="M168.352 73.8498C167.312 74.4916 168.406 76.5889 168.985 77.6601C169.563 78.7314 172.149 80.4354 172.687 82.0445C173.225 83.6536 176.624 83.6084 177.659 82.0445C178.694 80.4806 178.563 77.3573 175.742 74.9798C172.922 72.6022 169.83 72.9458 168.352 73.8498Z" fill="white"/>
</g>
<g id="freepik--speech-bubble--inject-123">
<path id="Vector_134" d="M148.504 163.929C143.901 163.146 139.168 163.947 135.078 166.199C130.988 168.452 127.782 172.023 125.982 176.332C124.183 180.641 123.896 185.432 125.169 189.924C126.442 194.417 129.199 198.345 132.992 201.07" stroke="#263238" stroke-linecap="round" stroke-linejoin="round"/>
<path id="Vector_135" d="M157.115 167.532C155.199 166.148 153.058 165.105 150.787 164.449" stroke="#263238" stroke-linecap="round" stroke-linejoin="round"/>
<path id="Vector_136" d="M155.036 202.353C157.822 200.81 160.213 198.644 162.023 196.024C163.833 193.404 165.012 190.401 165.468 187.249C165.924 184.098 165.645 180.884 164.652 177.858C163.659 174.832 161.98 172.077 159.746 169.809" stroke="#263238" stroke-linecap="round" stroke-linejoin="round"/>
<path id="Vector_137" d="M156.035 208.871L157.264 209.956L155.348 203.389" stroke="#263238" stroke-linecap="round" stroke-linejoin="round"/>
<path id="Vector_138" d="M141.57 204.649C144.609 205.17 147.727 205.002 150.692 204.156L154.583 207.591" stroke="#263238" stroke-linecap="round" stroke-linejoin="round"/>
<path id="Vector_139" d="M136.834 203.248C137.605 203.58 138.396 203.866 139.202 204.102" stroke="#263238" stroke-linecap="round" stroke-linejoin="round"/>
<path id="Vector_140" d="M146.669 174.244C149.229 174.682 151.533 176.062 153.127 178.113C154.72 180.164 155.488 182.737 155.28 185.326C155.072 187.915 153.901 190.332 152 192.102C150.099 193.871 147.604 194.865 145.007 194.887C142.41 194.909 139.898 193.959 137.967 192.222C136.035 190.486 134.824 188.089 134.571 185.504C134.318 182.919 135.042 180.333 136.6 178.255C138.158 176.177 140.438 174.757 142.99 174.276" stroke="#263238" stroke-linecap="round" stroke-linejoin="round"/>
<path id="Vector_141" d="M142.99 195.845C139.979 195.332 137.296 193.644 135.529 191.153C133.763 188.662 133.058 185.571 133.57 182.561" stroke="#263238" stroke-linecap="round" stroke-linejoin="round"/>
<path id="Vector_142" d="M155.754 188.404C155.045 190.365 153.818 192.096 152.203 193.414C150.588 194.732 148.646 195.588 146.583 195.889" stroke="#263238" stroke-linecap="round" stroke-linejoin="round"/>
<path id="Vector_143" d="M134.456 179.685C135.623 177.148 137.672 175.121 140.223 173.982C142.773 172.843 145.65 172.669 148.319 173.493C150.987 174.318 153.265 176.084 154.729 178.463C156.192 180.841 156.741 183.671 156.274 186.425" stroke="#263238" stroke-linecap="round" stroke-linejoin="round"/>
<path id="Vector_144" d="M151.836 180.341L151.967 180.201" stroke="#263238" stroke-width="2" stroke-linecap="round" stroke-linejoin="round"/>
<path id="Vector_145" d="M149.991 182.33L150.909 181.34" stroke="#263238" stroke-width="2" stroke-linecap="round" stroke-linejoin="round"/>
<path id="Vector_146" d="M138.732 183.789L143.167 189.683L149.187 183.197" stroke="#263238" stroke-width="2" stroke-linecap="round" stroke-linejoin="round"/>
</g>
</g>
</svg>
