<svg width="20" height="20" viewBox="0 0 20 20" fill="none" xmlns="http://www.w3.org/2000/svg">
<g id="GrassRounded">
<path id="Vector" d="M13.0334 9.18333C13.4917 7.95833 14.2251 6.86666 15.1667 5.99166C15.4834 5.69166 15.2001 5.15833 14.7834 5.28333C12.0167 6.09999 9.99175 8.65833 10.0001 11.6917C10.7917 10.625 11.8334 9.76666 13.0334 9.18333ZM9.51675 7.37499C9.01675 6.07499 8.15841 4.94999 7.05008 4.14999C6.70008 3.89999 6.25008 4.30833 6.45008 4.69166C7.11675 5.95833 7.50008 7.39999 7.50008 8.92499C7.50008 9.09999 7.47508 9.26666 7.46675 9.43332C7.82508 9.63332 8.15842 9.86666 8.48342 10.1167C8.65842 9.13333 9.02508 8.20833 9.51675 7.37499ZM10.0001 16.6667H2.50008C2.04175 16.6667 1.66675 16.2917 1.66675 15.8333C1.66675 15.375 2.04175 15 2.50008 15H6.45842C5.98341 13.175 4.75841 11.65 3.12508 10.7833C2.99175 10.7167 2.90841 10.575 2.90841 10.4167C2.90841 10.1917 3.09175 10.0083 3.31675 9.99999C3.32508 9.99999 3.33341 9.99999 3.33341 9.99999C7.01675 9.99999 10.0001 12.9833 10.0001 16.6667ZM16.8834 10.7833C15.2501 11.65 14.0167 13.175 13.5501 15H17.5001C17.9584 15 18.3334 15.375 18.3334 15.8333C18.3334 16.2917 17.9584 16.6667 17.5001 16.6667H11.6667C11.6667 16.1 11.6084 15.5417 11.5001 15C11.3751 14.4 11.1834 13.8167 10.9417 13.275C12.1001 11.3167 14.2251 9.99999 16.6667 9.99999C16.6751 9.99999 16.6834 9.99999 16.6834 9.99999C16.9084 9.99999 17.0917 10.1917 17.0917 10.4167C17.1001 10.575 17.0084 10.7083 16.8834 10.7833Z" fill="#006D3A"/>
</g>
</svg>
