<svg width="20" height="20" viewBox="0 0 20 20" fill="none" xmlns="http://www.w3.org/2000/svg">
<g id="LayersRounded">
<path id="Vector" d="M10.5001 15.0496C10.2001 15.2829 9.77507 15.2829 9.47507 15.0496L4.35006 11.0663C4.05007 10.8329 3.6334 10.8329 3.3334 11.0663C2.9084 11.3996 2.9084 12.0413 3.3334 12.3746L8.96673 16.7579C9.56673 17.2246 10.4084 17.2246 11.0167 16.7579L16.6501 12.3746C17.0751 12.0413 17.0751 11.3996 16.6501 11.0663L16.6417 11.0579C16.3417 10.8246 15.9251 10.8246 15.6251 11.0579L10.5001 15.0496ZM11.0251 12.5329L16.6584 8.14961C17.0834 7.81628 17.0834 7.16628 16.6584 6.83294L11.0251 2.44961C10.4251 1.98294 9.5834 1.98294 8.97507 2.44961L3.34173 6.84128C2.91673 7.17461 2.91673 7.82461 3.34173 8.15794L8.97507 12.5413C9.57507 13.0079 10.4251 13.0079 11.0251 12.5329Z" fill="#006D3A"/>
</g>
</svg>
