<svg width="228" height="228" viewBox="0 0 228 228" fill="none" xmlns="http://www.w3.org/2000/svg">
<path d="M44.7652 143.016C65.8506 167.184 87.1413 170.243 117.069 175.971C146.996 181.698 168.97 177.74 185.163 163.143C203.859 146.271 203.12 107.621 174.511 93.8588C165.573 89.5496 154.93 88.2454 147.101 82.1852C132.148 70.621 120.055 52.6273 96.0515 49.2483C72.0477 45.8693 55.8642 61.9707 55.8642 61.9707C36.1513 83.5577 23.6797 118.829 44.7652 143.016Z" fill="#92E3A9"/>
<path opacity="0.7" d="M44.7652 143.016C65.8506 167.184 87.1413 170.243 117.069 175.971C146.996 181.698 168.97 177.74 185.163 163.143C203.859 146.271 203.12 107.621 174.511 93.8588C165.573 89.5496 154.93 88.2454 147.101 82.1852C132.148 70.621 120.055 52.6273 96.0515 49.2483C72.0477 45.8693 55.8642 61.9707 55.8642 61.9707C36.1513 83.5577 23.6797 118.829 44.7652 143.016Z" fill="white"/>
<path d="M144.689 129.96C144.822 130.291 145.021 130.591 145.272 130.843C145.523 131.095 145.823 131.294 146.153 131.429C146.668 131.638 147.357 131.593 148.15 132.04C149.942 133.047 154.416 132.149 157.658 132.496C160.9 132.842 165.268 129.253 165.268 129.253L178.132 129.96V117.192C178.132 117.192 164.708 117.753 161.798 116.631C158.889 115.51 155.647 113.166 154.192 113.275C152.738 113.385 140.768 114.73 140.768 114.73L144.685 129.96H144.689Z" fill="white" stroke="#2E353A" stroke-linecap="round" stroke-linejoin="round"/>
<path d="M141.361 78.4775C138.705 78.7715 136.195 79.8465 134.15 81.5666C132.105 83.2867 130.616 85.5746 129.871 88.141C129.127 90.7074 129.159 93.437 129.966 95.9847C130.773 98.5323 132.316 100.784 134.402 102.454C136.488 104.124 139.023 105.138 141.685 105.368C144.348 105.598 147.018 105.033 149.36 103.745C151.701 102.457 153.608 100.503 154.839 98.1316C156.07 95.7598 156.57 93.0762 156.276 90.4201C156.082 88.6561 155.542 86.9477 154.688 85.3925C153.833 83.8373 152.68 82.4659 151.294 81.3567C149.909 80.2475 148.319 79.4223 146.614 78.9283C144.91 78.4342 143.124 78.2811 141.361 78.4775ZM144.042 102.682C141.911 102.919 139.758 102.518 137.855 101.531C135.952 100.544 134.384 99.0154 133.35 97.1375C132.316 95.2596 131.862 93.1173 132.046 90.9814C132.229 88.8455 133.042 86.812 134.381 85.138C135.72 83.464 137.526 82.2247 139.569 81.5768C141.613 80.929 143.803 80.9016 145.862 81.4983C147.921 82.0949 149.757 83.2887 151.137 84.9287C152.518 86.5687 153.381 88.5813 153.618 90.712C153.775 92.1267 153.652 93.5586 153.256 94.9258C152.86 96.293 152.198 97.5688 151.309 98.6803C150.42 99.7918 149.32 100.717 148.074 101.404C146.827 102.091 145.457 102.525 144.042 102.682Z" fill="white" stroke="#2E353A" stroke-linecap="round" stroke-linejoin="round"/>
<path d="M141.287 77.7066C138.631 78.0006 136.122 79.0756 134.077 80.7957C132.032 82.5158 130.543 84.8037 129.798 87.3701C129.053 89.9365 129.086 92.6661 129.893 95.2138C130.699 97.7614 132.243 100.013 134.329 101.683C136.415 103.353 138.95 104.367 141.612 104.597C144.274 104.827 146.945 104.262 149.287 102.974C151.628 101.686 153.535 99.7325 154.766 97.3607C155.997 94.9889 156.497 92.3053 156.203 89.6492C155.808 86.0881 154.015 82.8297 151.218 80.5903C148.421 78.3508 144.849 77.3136 141.287 77.7066ZM143.969 101.911C141.838 102.148 139.685 101.747 137.782 100.76C135.879 99.7735 134.311 98.2445 133.277 96.3666C132.243 94.4887 131.789 92.3464 131.973 90.2105C132.156 88.0746 132.969 86.0411 134.308 84.3671C135.647 82.6931 137.453 81.4538 139.496 80.8059C141.54 80.1581 143.73 80.1307 145.789 80.7273C147.848 81.324 149.684 82.5178 151.064 84.1578C152.445 85.7978 153.308 87.8104 153.545 89.9411C153.702 91.3558 153.579 92.7877 153.183 94.1549C152.787 95.5221 152.125 96.7978 151.236 97.9094C150.347 99.0209 149.247 99.9464 148 100.633C146.753 101.32 145.383 101.754 143.969 101.911Z" fill="white" stroke="#2E353A" stroke-linecap="round" stroke-linejoin="round"/>
<path d="M144.705 104.816L144.066 104.887C143.345 104.967 142.825 105.616 142.905 106.337L143.942 115.7C144.022 116.421 144.671 116.941 145.392 116.861L146.031 116.79C146.752 116.71 147.272 116.061 147.192 115.34L146.155 105.977C146.075 105.256 145.426 104.736 144.705 104.816Z" fill="#92E3A9" stroke="#2E353A" stroke-linecap="round" stroke-linejoin="round"/>
<path d="M144.497 112.631L145.865 112.485C146.454 112.422 147.043 112.594 147.506 112.963C147.968 113.332 148.267 113.868 148.337 114.455L150.384 132.973C150.467 133.731 150.247 134.49 149.77 135.084C149.294 135.678 148.601 136.059 147.844 136.143H147.753C147.378 136.185 146.999 136.152 146.636 136.047C146.274 135.942 145.936 135.766 145.642 135.53C145.347 135.294 145.102 135.003 144.921 134.672C144.739 134.341 144.625 133.978 144.584 133.603L142.537 115.089C142.504 114.796 142.529 114.499 142.611 114.216C142.693 113.932 142.83 113.668 143.014 113.437C143.198 113.207 143.426 113.015 143.684 112.873C143.943 112.731 144.227 112.641 144.52 112.609L144.497 112.631Z" fill="#2E353A" stroke="#2E353A" stroke-linecap="round" stroke-linejoin="round"/>
<path d="M146.485 128.063C146.485 128.063 143.243 128.181 142.787 128.742C142.331 129.303 142.413 131.254 143.293 131.478C145.537 132.066 150.307 131.724 150.494 131.323C150.681 130.922 151.064 128.587 150.079 128.336C148.89 128.154 147.688 128.062 146.485 128.063Z" fill="white" stroke="#2E353A" stroke-linecap="round" stroke-linejoin="round"/>
<path d="M145.551 123.54C145.551 123.54 141.78 123.398 141.192 124.078C140.603 124.757 140.489 127.297 141.483 127.68C144.019 128.651 149.723 128.273 149.983 127.771C150.243 127.27 150.809 124.666 149.691 124.246C148.574 123.827 145.551 123.54 145.551 123.54Z" fill="white" stroke="#2E353A" stroke-linecap="round" stroke-linejoin="round"/>
<path d="M145.008 118.432C145.008 118.432 140.977 118.277 140.348 119.006C139.718 119.736 139.595 122.445 140.658 122.855C143.394 123.895 149.322 123.895 149.6 123.357C149.878 122.818 150.626 119.636 149.431 119.184C148.236 118.733 145.008 118.432 145.008 118.432Z" fill="white" stroke="#2E353A" stroke-linecap="round" stroke-linejoin="round"/>
<path d="M142.683 113.654C142.683 113.654 138.652 113.503 138.022 114.228C137.393 114.953 137.243 117.748 138.332 118.077C139.422 118.405 146.996 119.116 147.275 118.583C147.553 118.049 148.301 114.857 147.106 114.406C145.911 113.955 142.683 113.654 142.683 113.654Z" fill="white" stroke="#2E353A" stroke-linecap="round" stroke-linejoin="round"/>
<path d="M155.884 127.064C155.16 126.865 154.474 126.547 153.854 126.124C150.612 123.886 150.722 118.742 150.722 118.742L149.942 118.518C149.298 118.273 148.694 117.934 148.15 117.511C148.411 118.573 148.564 119.659 148.606 120.753C148.594 121.354 148.359 121.929 147.947 122.366C147.535 122.803 146.975 123.072 146.376 123.119C145.368 123.233 144.921 123.343 144.584 122.002C144.247 120.662 142.573 115.29 142.459 114.506C142.359 113.794 143.553 112.527 145.455 112.226C148.378 112.463 151.26 113.279 154.206 113.279C155.231 113.375 156.213 113.737 157.056 114.328" fill="white"/>
<path d="M155.884 127.064C155.16 126.865 154.474 126.547 153.854 126.124C150.612 123.886 150.722 118.742 150.722 118.742L149.942 118.518C149.298 118.273 148.694 117.934 148.15 117.511C148.411 118.573 148.564 119.659 148.606 120.753C148.594 121.354 148.359 121.929 147.947 122.366C147.535 122.803 146.975 123.072 146.376 123.119C145.368 123.233 144.921 123.343 144.584 122.002C144.247 120.662 142.573 115.29 142.459 114.506C142.359 113.794 143.553 112.527 145.455 112.226C148.378 112.463 151.26 113.279 154.206 113.279C155.231 113.375 156.213 113.737 157.056 114.328" stroke="#2E353A" stroke-linecap="round" stroke-linejoin="round"/>
<path d="M158.966 127.347C158.611 127.365 158.255 127.365 157.899 127.347H158.966Z" fill="white"/>
<path d="M158.966 127.347C158.611 127.365 158.255 127.365 157.899 127.347" stroke="#2E353A" stroke-linecap="round" stroke-linejoin="round"/>
<path d="M161.352 126.904C160.577 127.149 159.777 127.302 158.967 127.36L161.352 126.904Z" fill="white"/>
<path d="M161.352 126.904C160.577 127.149 159.777 127.302 158.967 127.36" stroke="#2E353A" stroke-linecap="round" stroke-linejoin="round"/>
<path d="M165.378 125.454H169.404" stroke="#2E353A" stroke-linecap="round" stroke-linejoin="round"/>
<path d="M165.715 126.571H167.393" stroke="#2E353A" stroke-linecap="round" stroke-linejoin="round"/>
<path d="M150.722 118.742C150.722 118.742 152.947 118.742 154.406 117.415" stroke="#2E353A" stroke-linecap="round" stroke-linejoin="round"/>
<path d="M148.1 117.365C148.036 116.757 147.909 116.158 147.722 115.577" stroke="#2E353A" stroke-linecap="round" stroke-linejoin="round"/>
<path d="M144.552 121.415C144.552 121.415 144.128 120.238 144.643 119.814C145.158 119.39 146.526 118.779 146.763 119.249C147.001 119.718 147.516 121.884 147.374 122.308L147.233 122.732" stroke="#2E353A" stroke-width="0.5" stroke-linecap="round" stroke-linejoin="round"/>
<path d="M206.363 135.683H167.809V116.731H206.363" fill="#92E3A9"/>
<path d="M206.363 135.683H167.809V116.731H206.363" stroke="#2E353A" stroke-linecap="round" stroke-linejoin="round"/>
<path d="M170.636 134.415C171.114 134.415 171.502 134.028 171.502 133.549C171.502 133.071 171.114 132.683 170.636 132.683C170.157 132.683 169.77 133.071 169.77 133.549C169.77 134.028 170.157 134.415 170.636 134.415Z" fill="white" stroke="#2E353A" stroke-linecap="round" stroke-linejoin="round"/>
<path d="M109.363 98.6826C109.693 98.5494 109.993 98.3512 110.245 98.0998C110.498 97.8483 110.697 97.5488 110.831 97.2189C111.041 96.7036 110.99 96.0196 111.442 95.2216C112.445 93.4341 111.551 88.9607 111.898 85.714C112.244 82.4673 108.651 78.1079 108.651 78.1079L109.349 65.2441H96.5809C96.5809 65.2441 97.1372 78.6688 96.02 81.5735C94.9028 84.4782 92.5544 87.7295 92.6639 89.1841C92.7733 90.6388 94.1276 102.6 94.1276 102.6L109.34 98.6826H109.363Z" fill="white" stroke="#2E353A" stroke-linecap="round" stroke-linejoin="round"/>
<path d="M57.9124 102.002C58.2044 104.659 59.2777 107.169 60.9963 109.215C62.715 111.262 65.0019 112.753 67.5678 113.499C70.1338 114.246 72.8635 114.215 75.4118 113.41C77.9601 112.605 80.2125 111.063 81.8842 108.978C83.5558 106.893 84.5717 104.359 84.8032 101.697C85.0348 99.0343 84.4716 96.3631 83.185 94.0209C81.8984 91.6786 79.9461 89.7705 77.575 88.5378C75.2039 87.3052 72.5205 86.8034 69.8642 87.0958H69.8322C66.2765 87.4957 63.0246 89.2898 60.79 92.0844C58.5553 94.8789 57.5205 98.4458 57.9124 102.002ZM82.0804 99.3166C82.3179 101.448 81.918 103.602 80.9314 105.506C79.9447 107.41 78.4156 108.979 76.5373 110.014C74.659 111.05 72.516 111.504 70.3792 111.322C68.2424 111.139 66.2077 110.327 64.5326 108.987C62.8574 107.648 61.6169 105.843 60.968 103.798C60.3191 101.754 60.2909 99.5638 60.887 97.5036C61.483 95.4435 62.6766 93.6064 64.3167 92.2246C65.9568 90.8428 67.9699 89.9784 70.1013 89.7406C72.9595 89.423 75.8268 90.2533 78.0731 92.0489C80.3194 93.8446 81.7607 96.4587 82.0804 99.3166Z" fill="white" stroke="#2E353A" stroke-linecap="round" stroke-linejoin="round"/>
<path d="M57.1235 102.084C57.4183 104.739 58.4935 107.247 60.2133 109.29C61.9331 111.334 64.2201 112.822 66.7854 113.566C69.3507 114.31 72.079 114.277 74.6254 113.47C77.1717 112.664 79.4218 111.121 81.0913 109.036C82.7607 106.951 83.7744 104.417 84.0043 101.756C84.2342 99.0952 83.67 96.4257 82.383 94.0853C81.0959 91.7448 79.1438 89.8385 76.7735 88.6073C74.4032 87.3762 71.721 86.8754 69.0662 87.1684C67.3024 87.3631 65.5942 87.9034 64.0394 88.7584C62.4845 89.6135 61.1133 90.7666 60.0042 92.1517C58.8951 93.5369 58.0699 95.1271 57.5756 96.8313C57.0813 98.5356 56.9277 100.321 57.1235 102.084ZM81.328 99.4075C81.5647 101.538 81.1643 103.691 80.1774 105.594C79.1905 107.497 77.6614 109.065 75.7835 110.099C73.9056 111.133 71.7633 111.587 69.6274 111.404C67.4915 111.22 65.458 110.407 63.784 109.068C62.11 107.729 60.8707 105.923 60.2229 103.88C59.575 101.836 59.5476 99.6467 60.1443 97.5876C60.7409 95.5286 61.9347 93.6927 63.5747 92.3121C65.2148 90.9315 67.2274 90.0682 69.358 89.8315C70.7727 89.6743 72.2046 89.7972 73.5718 90.1934C74.939 90.5895 76.2148 91.2511 77.3263 92.1403C78.4378 93.0296 79.3633 94.129 80.0499 95.3759C80.7365 96.6228 81.1708 97.9927 81.328 99.4075Z" fill="white" stroke="#2E353A" stroke-linecap="round" stroke-linejoin="round"/>
<path d="M94.7598 96.1865L85.3961 97.2236C84.6752 97.3034 84.1555 97.9526 84.2354 98.6735L84.3062 99.3125C84.386 100.033 85.0351 100.553 85.756 100.473L95.1197 99.4362C95.8406 99.3563 96.3603 98.7072 96.2805 97.9863L96.2097 97.3473C96.1298 96.6264 95.4807 96.1067 94.7598 96.1865Z" fill="#92E3A9" stroke="#2E353A" stroke-linecap="round" stroke-linejoin="round"/>
<path d="M92.0488 98.8792L91.8983 97.5112C91.833 96.9186 92.0058 96.3244 92.3787 95.8592C92.7515 95.394 93.2939 95.0959 93.8864 95.0306L112.4 92.9831C112.777 92.9393 113.158 92.9704 113.522 93.0745C113.887 93.1786 114.227 93.3537 114.524 93.5897C114.821 93.8257 115.068 94.118 115.251 94.4498C115.434 94.7816 115.55 95.1463 115.592 95.523V95.6142C115.636 95.9908 115.605 96.3722 115.501 96.7367C115.397 97.1012 115.221 97.4415 114.985 97.7381C114.749 98.0347 114.457 98.2818 114.125 98.4651C113.794 98.6484 113.429 98.7643 113.052 98.8062L94.5385 100.854C93.9468 100.92 93.3527 100.75 92.8862 100.38C92.4196 100.01 92.1185 99.4706 92.0488 98.8792Z" fill="#2E353A" stroke="#2E353A" stroke-linecap="round" stroke-linejoin="round"/>
<path d="M107.475 96.8907C107.475 96.8907 107.598 100.128 108.154 100.584C108.71 101.04 110.671 100.958 110.89 100.078C111.483 97.8391 111.136 93.0648 110.735 92.8824C110.334 92.7 107.999 92.3079 107.753 93.2974C107.569 94.4864 107.476 95.6876 107.475 96.8907Z" fill="white" stroke="#2E353A" stroke-linecap="round" stroke-linejoin="round"/>
<path d="M102.956 97.8211C102.956 97.8211 102.81 101.592 103.489 102.18C104.169 102.769 106.708 102.887 107.091 101.889C108.067 99.3533 107.684 93.6487 107.183 93.3934C106.681 93.138 104.077 92.568 103.658 93.6852C103.238 94.8024 102.956 97.8211 102.956 97.8211Z" fill="white" stroke="#2E353A" stroke-linecap="round" stroke-linejoin="round"/>
<path d="M97.8489 98.3729C97.8489 98.3729 97.6938 102.404 98.4189 103.033C99.1439 103.663 101.862 103.786 102.272 102.719C103.312 100.01 103.312 94.0546 102.774 93.781C102.236 93.5074 99.0482 92.755 98.6013 93.9497C98.1544 95.1444 97.8489 98.3729 97.8489 98.3729Z" fill="white" stroke="#2E353A" stroke-linecap="round" stroke-linejoin="round"/>
<path d="M93.0695 100.693C93.0695 100.693 92.9144 104.724 93.644 105.354C94.3736 105.983 97.1643 106.133 97.4927 105.039C97.821 103.945 98.5323 96.3751 97.9942 96.0969C97.4562 95.8187 94.2733 95.0755 93.8219 96.2702C93.3704 97.4649 93.0695 100.693 93.0695 100.693Z" fill="white" stroke="#2E353A" stroke-linecap="round" stroke-linejoin="round"/>
<path d="M106.759 84.3965C106.945 86.1927 106.514 87.9987 105.537 89.5174C103.302 92.7641 98.1539 92.6501 98.1539 92.6501L97.9305 93.4344C97.6872 94.0779 97.3474 94.6807 96.9227 95.2219C97.9868 94.9608 99.0746 94.808 100.169 94.7659C100.768 94.7833 101.339 95.0216 101.773 95.435C102.207 95.8484 102.472 96.4076 102.518 97.0049C102.632 98.0126 102.741 98.4595 101.401 98.7924C100.06 99.1253 94.6883 100.808 93.904 100.922C93.1927 101.022 91.925 99.8275 91.624 97.926C91.8657 95.003 92.6819 92.1166 92.6819 89.1754C92.7774 88.1488 93.1389 87.1649 93.7307 86.3208" fill="white"/>
<path d="M106.759 84.3965C106.945 86.1927 106.514 87.9987 105.537 89.5174C103.302 92.7641 98.1539 92.6501 98.1539 92.6501L97.9305 93.4344C97.6872 94.0779 97.3474 94.6807 96.9227 95.2219C97.9868 94.9608 99.0746 94.808 100.169 94.7659C100.768 94.7833 101.339 95.0216 101.773 95.435C102.207 95.8484 102.472 96.4076 102.518 97.0049C102.632 98.0126 102.741 98.4595 101.401 98.7924C100.06 99.1253 94.6883 100.808 93.904 100.922C93.1927 101.022 91.925 99.8275 91.624 97.926C91.8657 95.003 92.6819 92.1166 92.6819 89.1754C92.7774 88.1488 93.1389 87.1649 93.7307 86.3208" stroke="#2E353A" stroke-linecap="round" stroke-linejoin="round"/>
<path d="M106.321 82.0254C106.456 82.452 106.56 82.8879 106.631 83.3296L106.321 82.0254Z" fill="white"/>
<path d="M106.321 82.0254C106.456 82.452 106.56 82.8879 106.631 83.3296" stroke="#2E353A" stroke-linecap="round" stroke-linejoin="round"/>
<path d="M104.866 77.9942V73.9678" stroke="#2E353A" stroke-linecap="round" stroke-linejoin="round"/>
<path d="M105.983 77.6615V75.9834" stroke="#2E353A" stroke-linecap="round" stroke-linejoin="round"/>
<path d="M98.1541 92.6503C98.1541 92.6503 98.1541 90.425 96.8271 88.9658" stroke="#2E353A" stroke-linecap="round" stroke-linejoin="round"/>
<path d="M96.7817 95.2764C96.1745 95.3389 95.5755 95.4642 94.9941 95.6503" stroke="#2E353A" stroke-linecap="round" stroke-linejoin="round"/>
<path d="M100.831 98.8056C100.831 98.8056 99.6541 99.2297 99.2301 98.7098C98.806 98.19 98.1949 96.8266 98.6646 96.594C99.1343 96.3614 101.3 95.8416 101.724 95.983L102.148 96.1198" stroke="#2E353A" stroke-width="0.5" stroke-linecap="round" stroke-linejoin="round"/>
<path d="M115.099 37.0088V75.5636H96.1436V37.0088" fill="#92E3A9"/>
<path d="M115.099 37.0088V75.5636H96.1436V37.0088" stroke="#2E353A" stroke-linecap="round" stroke-linejoin="round"/>
<path d="M112.96 73.6029C113.439 73.6029 113.827 73.215 113.827 72.7365C113.827 72.258 113.439 71.8701 112.96 71.8701C112.482 71.8701 112.094 72.258 112.094 72.7365C112.094 73.215 112.482 73.6029 112.96 73.6029Z" fill="white" stroke="#2E353A" stroke-linecap="round" stroke-linejoin="round"/>
<path d="M90.2881 167.351C90.1556 167.682 89.9576 167.983 89.7061 168.235C89.4546 168.487 89.1546 168.686 88.8243 168.82C88.3091 169.034 87.6251 168.984 86.8271 169.431C85.0395 170.439 80.5662 169.545 77.3195 169.887C74.0727 170.229 69.7134 166.645 69.7134 166.645L56.8359 167.351V154.583C56.8359 154.583 70.2606 155.144 73.1699 154.027C76.0791 152.91 79.3213 150.557 80.7759 150.671C82.2306 150.785 94.2006 152.126 94.2006 152.126L90.2881 167.351Z" fill="white" stroke="#2E353A" stroke-linecap="round" stroke-linejoin="round"/>
<path d="M93.5945 115.897C96.2505 116.191 98.7598 117.266 100.805 118.986C102.85 120.706 104.339 122.994 105.084 125.56C105.829 128.127 105.796 130.856 104.989 133.404C104.183 135.952 102.639 138.203 100.553 139.873C98.4667 141.543 95.9323 142.558 93.2699 142.787C90.6075 143.017 87.9367 142.452 85.5954 141.164C83.254 139.876 81.3472 137.923 80.116 135.551C78.8849 133.179 78.3847 130.496 78.6787 127.84C79.073 124.279 80.8655 121.021 83.6619 118.782C86.4583 116.543 90.0295 115.507 93.5899 115.901L93.5945 115.897ZM90.9132 140.101C93.0446 140.339 95.1986 139.939 97.1028 138.952C99.007 137.966 100.576 136.437 101.611 134.558C102.646 132.68 103.101 130.537 102.918 128.4C102.735 126.263 101.923 124.229 100.584 122.554C99.2449 120.878 97.4392 119.638 95.3951 118.989C93.351 118.34 91.1604 118.312 89.1002 118.908C87.0401 119.504 85.203 120.698 83.8212 122.338C82.4394 123.978 81.575 125.991 81.3372 128.122C81.0196 130.98 81.8499 133.848 83.6455 136.094C85.4412 138.34 88.0552 139.782 90.9132 140.101Z" fill="white" stroke="#2E353A" stroke-linecap="round" stroke-linejoin="round"/>
<path d="M93.6765 115.126C96.3313 115.421 98.8391 116.497 100.883 118.217C102.926 119.937 104.414 122.224 105.158 124.79C105.902 127.355 105.868 130.084 105.061 132.63C104.255 135.177 102.711 137.427 100.625 139.096C98.5399 140.765 96.0064 141.778 93.3451 142.008C90.6838 142.237 88.0142 141.672 85.674 140.384C83.3337 139.096 81.4278 137.144 80.1973 134.773C78.9667 132.402 78.4668 129.72 78.7607 127.065C78.9559 125.301 79.4966 123.594 80.3519 122.039C81.2072 120.485 82.3604 119.114 83.7455 118.006C85.1306 116.897 86.7206 116.072 88.4246 115.578C90.1286 115.084 91.9132 114.931 93.6765 115.126ZM90.9952 139.331C93.1266 139.568 95.2806 139.169 97.1848 138.182C99.089 137.195 100.658 135.666 101.693 133.788C102.728 131.91 103.183 129.767 103 127.63C102.817 125.493 102.005 123.458 100.666 121.783C99.3269 120.108 97.5212 118.868 95.4771 118.219C93.433 117.57 91.2424 117.541 89.1822 118.138C87.1221 118.734 85.285 119.927 83.9032 121.567C82.5214 123.207 81.657 125.22 81.4192 127.352C81.1029 130.209 81.9339 133.074 83.7296 135.319C85.5252 137.564 88.1385 139.003 90.9952 139.322V139.331Z" fill="white" stroke="#2E353A" stroke-linecap="round" stroke-linejoin="round"/>
<path d="M88.8057 143.396L87.7686 152.76C87.6887 153.481 88.2084 154.13 88.9293 154.21L89.5684 154.281C90.2893 154.361 90.9384 153.841 91.0182 153.12L92.0553 143.756C92.1351 143.035 91.6155 142.386 90.8946 142.306L90.2555 142.236C89.5346 142.156 88.8855 142.676 88.8057 143.396Z" fill="#92E3A9" stroke="#2E353A" stroke-linecap="round" stroke-linejoin="round"/>
<path d="M87.2192 173.581H87.128C86.7511 173.539 86.386 173.424 86.0539 173.241C85.7219 173.058 85.4293 172.811 85.1932 172.514C84.9571 172.217 84.782 171.877 84.6782 171.512C84.5743 171.147 84.5437 170.765 84.5881 170.389L86.6356 151.875C86.6673 151.582 86.7568 151.297 86.8988 151.038C87.0408 150.779 87.2325 150.551 87.463 150.366C87.6934 150.181 87.9581 150.044 88.2418 149.962C88.5255 149.879 88.8227 149.854 89.1162 149.887L90.4842 150.038C91.0768 150.103 91.6191 150.401 91.992 150.866C92.3648 151.331 92.5376 151.926 92.4724 152.518L90.4249 171.055C90.3824 171.431 90.2661 171.795 90.0826 172.127C89.8991 172.458 89.6521 172.751 89.3556 172.986C89.0591 173.222 88.719 173.397 88.3548 173.502C87.9906 173.606 87.6093 173.638 87.2329 173.594L87.2192 173.581Z" fill="#2E353A" stroke="#2E353A" stroke-linecap="round" stroke-linejoin="round"/>
<path d="M88.4639 165.478C88.4639 165.478 91.7015 165.601 92.1575 166.157C92.6135 166.713 92.5314 168.67 91.6513 168.893C89.4124 169.486 84.6381 169.139 84.4557 168.738C84.2733 168.337 83.8811 166.002 84.8706 165.751C86.0597 165.569 87.2609 165.477 88.4639 165.478Z" fill="white" stroke="#2E353A" stroke-linecap="round" stroke-linejoin="round"/>
<path d="M89.4129 160.968C89.4129 160.968 93.1841 160.822 93.7723 161.502C94.3605 162.181 94.4791 164.721 93.4805 165.104C90.9451 166.075 85.2405 165.697 84.9852 165.195C84.7298 164.694 84.1598 162.09 85.277 161.67C86.3942 161.251 89.4129 160.968 89.4129 160.968Z" fill="white" stroke="#2E353A" stroke-linecap="round" stroke-linejoin="round"/>
<path d="M89.9641 155.847C89.9641 155.847 93.9952 155.696 94.6245 156.421C95.2537 157.147 95.3769 159.864 94.3144 160.27C91.5784 161.314 85.6504 161.31 85.3722 160.776C85.0941 160.243 84.3462 157.051 85.5409 156.599C86.7357 156.148 89.9641 155.847 89.9641 155.847Z" fill="white" stroke="#2E353A" stroke-linecap="round" stroke-linejoin="round"/>
<path d="M92.2852 151.073C92.2852 151.073 96.3162 150.917 96.9455 151.643C97.5748 152.368 97.7253 155.167 96.6309 155.496C95.5365 155.824 87.9669 156.531 87.6887 155.997C87.4105 155.464 86.6672 152.272 87.862 151.825C89.0567 151.378 92.2852 151.073 92.2852 151.073Z" fill="white" stroke="#2E353A" stroke-linecap="round" stroke-linejoin="round"/>
<path d="M76.6084 164.784C78.1987 164.847 79.7688 164.412 81.1 163.54C84.3467 161.301 84.2327 156.157 84.2327 156.157L85.017 155.933C85.6606 155.69 86.2633 155.35 86.8046 154.926C86.5434 155.988 86.3907 157.074 86.3486 158.168C86.3658 158.767 86.604 159.339 87.0173 159.773C87.4306 160.208 87.9898 160.474 88.5875 160.521C89.5953 160.63 90.0422 160.744 90.3796 159.399C90.717 158.054 92.3906 152.687 92.5046 151.907C92.6186 151.127 91.4102 149.923 89.5086 149.627C86.5857 149.869 83.6992 150.685 80.758 150.685C79.7323 150.781 78.7488 151.14 77.9034 151.729" fill="white"/>
<path d="M76.6084 164.784C78.1987 164.847 79.7688 164.412 81.1 163.54C84.3467 161.301 84.2327 156.157 84.2327 156.157L85.017 155.933C85.6606 155.69 86.2633 155.35 86.8046 154.926C86.5434 155.988 86.3907 157.074 86.3486 158.168C86.3658 158.767 86.604 159.339 87.0173 159.773C87.4306 160.208 87.9898 160.474 88.5875 160.521C89.5953 160.63 90.0422 160.744 90.3796 159.399C90.717 158.054 92.3906 152.687 92.5046 151.907C92.6186 151.127 91.4102 149.923 89.5086 149.627C86.5857 149.869 83.6992 150.685 80.758 150.685C79.7323 150.781 78.7488 151.14 77.9034 151.729" stroke="#2E353A" stroke-linecap="round" stroke-linejoin="round"/>
<path d="M73.6172 164.324C74.2547 164.52 74.9099 164.653 75.5734 164.721L73.6172 164.324Z" fill="white"/>
<path d="M73.6172 164.324C74.2547 164.52 74.9099 164.653 75.5734 164.721" stroke="#2E353A" stroke-linecap="round" stroke-linejoin="round"/>
<path d="M69.5861 162.869H65.5596" stroke="#2E353A" stroke-linecap="round" stroke-linejoin="round"/>
<path d="M69.2533 163.986H67.5752" stroke="#2E353A" stroke-linecap="round" stroke-linejoin="round"/>
<path d="M84.2421 156.157C84.2421 156.157 82.0168 156.157 80.5576 154.83" stroke="#2E353A" stroke-linecap="round" stroke-linejoin="round"/>
<path d="M86.8682 154.78C86.9307 154.173 87.0561 153.574 87.2421 152.992" stroke="#2E353A" stroke-linecap="round" stroke-linejoin="round"/>
<path d="M90.3974 158.83C90.3974 158.83 90.8215 157.653 90.3016 157.229C89.7818 156.805 88.4184 156.194 88.1858 156.664C87.9532 157.133 87.4334 159.304 87.5748 159.723L87.7161 160.147" stroke="#2E353A" stroke-width="0.5" stroke-linecap="round" stroke-linejoin="round"/>
<path d="M28.6006 173.102H67.1554V154.146H28.6006" fill="#92E3A9"/>
<path d="M28.6006 173.102H67.1554V154.146H28.6006" stroke="#2E353A" stroke-linecap="round" stroke-linejoin="round"/>
<path d="M63.4619 170.963C63.4619 171.134 63.5127 171.302 63.6079 171.444C63.7031 171.587 63.8384 171.698 63.9968 171.764C64.1551 171.829 64.3293 171.846 64.4973 171.813C64.6654 171.779 64.8198 171.697 64.9409 171.576C65.0621 171.455 65.1446 171.3 65.1781 171.132C65.2115 170.964 65.1943 170.79 65.1288 170.632C65.0632 170.473 64.9521 170.338 64.8097 170.243C64.6672 170.147 64.4997 170.097 64.3283 170.097C64.0985 170.097 63.8782 170.188 63.7157 170.35C63.5532 170.513 63.4619 170.733 63.4619 170.963Z" fill="white" stroke="#2E353A" stroke-linecap="round" stroke-linejoin="round"/>
</svg>
