<svg width="226" height="226" viewBox="0 0 226 226" fill="none" xmlns="http://www.w3.org/2000/svg">
<path d="M187.955 104.005C186.66 88.5151 181.427 73.6128 172.754 60.7128C158.86 40.1694 136.183 29.0728 111.513 35.1206C88.1852 40.8429 82.264 66.1007 62.828 77.2922C47.912 85.8802 25.312 99.8922 28.928 124.752C30.1077 132.857 35.473 138.764 42.8315 142.095C52.893 146.638 66.9638 144.807 75.936 151.42C86.332 159.104 94.92 169.952 117.52 178.088C135.397 184.525 155.556 176.823 169.048 164.641C185.691 149.648 189.84 125.471 187.955 104.005Z" fill="#63BD80"/>
<path opacity="0.7" d="M187.955 104.005C186.66 88.5151 181.427 73.6128 172.754 60.7128C158.86 40.1694 136.183 29.0728 111.513 35.1206C88.1852 40.8429 82.264 66.1007 62.828 77.2922C47.912 85.8802 25.312 99.8922 28.928 124.752C30.1077 132.857 35.473 138.764 42.8315 142.095C52.893 146.638 66.9638 144.807 75.936 151.42C86.332 159.104 94.92 169.952 117.52 178.088C135.397 184.525 155.556 176.823 169.048 164.641C185.691 149.648 189.84 125.471 187.955 104.005Z" fill="white"/>
<path d="M194.559 185.555L191.485 182.517C194.043 178.811 192.941 176.081 190.744 173.568C189.42 172.054 185.957 172.284 181.704 172.831L158.2 149.612L154.584 150.968C154.584 150.968 164.365 162.878 173.527 173.83C169.721 174.169 165.893 174.173 162.72 173.116C153.228 169.952 145.544 163.172 145.544 163.172C134.696 164.076 150.968 181.704 157.296 186.676C169.952 196.62 176.678 194.812 185.663 188.113C187.277 189.957 188.443 191.227 188.936 191.648L189.031 191.729C193.081 195.092 198.301 189.257 194.559 185.555Z" fill="#63BD80"/>
<path opacity="0.5" d="M194.559 185.555L191.486 182.517C194.044 178.811 192.941 176.081 190.744 173.568C189.42 172.054 185.958 172.284 181.704 172.831L158.2 149.612L154.584 150.968C154.584 150.968 164.366 162.878 173.528 173.83C169.722 174.169 165.893 174.173 162.72 173.116C153.228 169.952 145.544 163.172 145.544 163.172C134.696 164.076 150.625 182.178 157.296 186.676C172.212 196.719 176.678 194.812 185.664 188.113C187.277 189.957 188.444 191.227 188.936 191.648L189.031 191.729C193.081 195.092 198.302 189.257 194.559 185.555Z" fill="white"/>
<path d="M50.9446 103.648C50.9446 103.648 62.8322 117.389 62.8955 134.411C62.9588 151.433 51.1797 165.287 51.1797 165.287C51.1797 165.287 39.292 151.546 39.2288 134.529C39.1655 117.511 50.9446 103.648 50.9446 103.648Z" fill="#63BD80"/>
<path d="M77.0654 142.583C77.0654 142.583 77.1377 153.77 71.1306 160.88C65.1235 167.99 55.3106 168.333 55.3106 168.333C55.3106 168.333 55.2338 157.146 61.2454 150.036C67.257 142.927 77.0654 142.583 77.0654 142.583Z" fill="#63BD80"/>
<path d="M25.4337 141.548C25.4337 141.548 24.9365 152.722 30.6724 160.116C36.4083 167.511 46.2031 168.334 46.2031 168.334C46.2031 168.334 46.6958 157.16 40.9599 149.766C35.224 142.371 25.4337 141.548 25.4337 141.548Z" fill="#63BD80"/>
<g opacity="0.5">
<path d="M50.9446 103.648C50.9446 103.648 62.8322 117.389 62.8955 134.411C62.9588 151.433 51.1797 165.287 51.1797 165.287C51.1797 165.287 39.292 151.546 39.2288 134.529C39.1655 117.511 50.9446 103.648 50.9446 103.648Z" fill="white"/>
<path d="M77.0654 142.583C77.0654 142.583 77.1377 153.77 71.1306 160.88C65.1235 167.99 55.3106 168.333 55.3106 168.333C55.3106 168.333 55.2338 157.146 61.2454 150.036C67.257 142.927 77.0654 142.583 77.0654 142.583Z" fill="white"/>
<path d="M25.4337 141.548C25.4337 141.548 24.9365 152.722 30.6724 160.116C36.4083 167.511 46.2031 168.334 46.2031 168.334C46.2031 168.334 46.6958 157.16 40.9599 149.766C35.224 142.371 25.4337 141.548 25.4337 141.548Z" fill="white"/>
</g>
<path d="M43.6493 149.562C43.6704 149.523 43.7005 149.489 43.7372 149.464C43.7739 149.438 43.816 149.422 43.8602 149.417C43.9044 149.411 43.9494 149.416 43.9913 149.431C44.0332 149.446 44.0709 149.471 44.1013 149.503L50.348 155.086C50.3964 155.123 50.4548 155.146 50.5159 155.151C50.5771 155.155 50.6382 155.142 50.6918 155.112C50.7453 155.082 50.7889 155.037 50.817 154.982C50.845 154.928 50.8564 154.866 50.8497 154.805L50.7819 141.928C50.7813 141.831 50.7442 141.737 50.6779 141.666L41.2989 132.214C41.2361 132.148 41.1989 132.062 41.1939 131.971C41.189 131.88 41.2166 131.79 41.2718 131.717C41.2959 131.68 41.3281 131.65 41.3659 131.628C41.4038 131.606 41.4462 131.592 41.49 131.589C41.5337 131.586 41.5776 131.593 41.6182 131.61C41.6587 131.627 41.6949 131.653 41.7238 131.686L50.2802 140.31C50.3256 140.354 50.3838 140.383 50.4465 140.392C50.5093 140.402 50.5734 140.391 50.6298 140.362C50.6862 140.333 50.7321 140.287 50.761 140.231C50.79 140.174 50.8004 140.11 50.7909 140.048L50.7367 125.877C50.7379 125.78 50.7006 125.685 50.6327 125.615L44.4087 119.495C44.3452 119.429 44.3072 119.343 44.3014 119.252C44.2956 119.161 44.3224 119.071 44.3771 118.998C44.4008 118.961 44.4327 118.93 44.4703 118.907C44.508 118.885 44.5503 118.871 44.5941 118.868C44.6379 118.864 44.6818 118.871 44.7226 118.887C44.7634 118.903 44.7998 118.929 44.8291 118.962L50.2033 124.3C50.4022 124.499 50.7141 124.336 50.7141 124.033L50.6237 104.001C50.6187 103.913 50.6481 103.827 50.7055 103.762C50.763 103.696 50.8439 103.655 50.9311 103.648C50.9744 103.65 51.0169 103.661 51.056 103.68C51.0952 103.699 51.1303 103.725 51.1592 103.757C51.1882 103.79 51.2105 103.827 51.2249 103.868C51.2392 103.909 51.2454 103.953 51.2429 103.996L51.3559 133.656C51.3482 133.725 51.3641 133.795 51.401 133.854C51.438 133.913 51.4938 133.957 51.5593 133.98C51.6249 134.003 51.6963 134.004 51.762 133.981C51.8277 133.958 51.8837 133.914 51.9209 133.855L58.8817 122.252C58.9018 122.216 58.9295 122.184 58.963 122.159C58.9965 122.134 59.0349 122.117 59.0757 122.108C59.1165 122.1 59.1586 122.1 59.1993 122.109C59.2399 122.119 59.2781 122.137 59.3111 122.162C59.3801 122.221 59.426 122.302 59.4409 122.391C59.4558 122.48 59.4386 122.572 59.3925 122.65L51.4147 135.943L51.365 135.903L51.4102 148.057C51.4024 148.12 51.4141 148.183 51.4437 148.239C51.4734 148.295 51.5195 148.34 51.5758 148.369C51.6321 148.398 51.6959 148.408 51.7585 148.399C51.8211 148.39 51.8794 148.362 51.9255 148.319L60.414 139.623C60.4421 139.589 60.4779 139.562 60.5183 139.544C60.5588 139.526 60.6029 139.519 60.6469 139.521C60.691 139.524 60.7338 139.537 60.7719 139.559C60.8099 139.582 60.8422 139.613 60.866 139.65C60.9213 139.722 60.9489 139.812 60.9439 139.903C60.9389 139.994 60.9017 140.081 60.8389 140.147L51.4328 149.788L51.4915 164.939C51.4946 164.983 51.4891 165.026 51.4753 165.067C51.4615 165.108 51.4397 165.147 51.4111 165.179C51.3826 165.212 51.3478 165.239 51.3089 165.258C51.2699 165.277 51.2275 165.289 51.1842 165.292C51.1406 165.29 51.0979 165.28 51.0584 165.261C51.019 165.242 50.9837 165.216 50.9546 165.184C50.9255 165.151 50.9032 165.113 50.8891 165.072C50.8749 165.031 50.8692 164.987 50.8723 164.944L50.8407 156.609C50.8413 156.557 50.8313 156.506 50.811 156.459C50.7908 156.411 50.7608 156.368 50.7231 156.333L43.7036 150.064C43.6355 150.001 43.5925 149.915 43.5825 149.823C43.5726 149.731 43.5963 149.638 43.6493 149.562Z" fill="white"/>
<path d="M25.7637 142.285C25.7927 142.252 25.8288 142.226 25.8694 142.209C25.9099 142.193 25.9538 142.186 25.9976 142.189C26.0413 142.192 26.0838 142.205 26.1216 142.227C26.1594 142.249 26.1916 142.28 26.2157 142.316L35.6444 154.313C35.8433 154.57 36.2185 154.38 36.1778 154.037L35.4049 147.04C35.3889 146.952 35.4079 146.862 35.4578 146.789C35.5077 146.715 35.5844 146.664 35.6716 146.647C35.7142 146.643 35.7572 146.648 35.7978 146.661C35.8385 146.675 35.876 146.696 35.9082 146.725C35.9403 146.753 35.9663 146.787 35.9847 146.826C36.0031 146.865 36.0134 146.907 36.0151 146.949L37.0276 156.066L40.6797 160.754C40.7193 160.802 40.7732 160.838 40.8337 160.854C40.8943 160.871 40.9586 160.869 41.0177 160.847C41.0768 160.826 41.1278 160.787 41.1636 160.735C41.1994 160.684 41.2183 160.622 41.2176 160.559L41.882 153.87C41.8838 153.826 41.8941 153.784 41.9123 153.745C41.9306 153.706 41.9565 153.671 41.9885 153.642C42.0204 153.613 42.0579 153.59 42.0986 153.576C42.1393 153.561 42.1824 153.555 42.2256 153.558C42.3126 153.574 42.3897 153.624 42.4404 153.697C42.4911 153.769 42.5113 153.859 42.4968 153.946L41.7058 161.884C41.6949 161.982 41.7224 162.081 41.7826 162.159L46.7049 168.429C46.7599 168.501 46.7877 168.59 46.7836 168.681C46.7795 168.772 46.7436 168.859 46.6823 168.926C46.6537 168.959 46.6178 168.985 46.5774 169.002C46.5371 169.019 46.4933 169.027 46.4496 169.024C46.4058 169.021 46.3633 169.009 46.3253 168.987C46.2872 168.965 46.2547 168.935 46.2303 168.899L43.5725 165.513C43.5438 165.475 43.5061 165.444 43.4628 165.423C43.4195 165.403 43.3718 165.393 43.3239 165.396L38.4197 165.735C38.3764 165.735 38.3335 165.726 38.2934 165.709C38.2534 165.693 38.217 165.669 38.1864 165.638C38.1558 165.607 38.1315 165.571 38.1149 165.531C38.0983 165.491 38.0898 165.448 38.0898 165.405C38.0807 165.316 38.1062 165.228 38.161 165.158C38.2158 165.088 38.2956 165.042 38.3836 165.029L42.3114 164.758C42.3728 164.746 42.4301 164.719 42.4777 164.678C42.5253 164.638 42.5615 164.586 42.5829 164.527C42.6043 164.468 42.6102 164.405 42.5998 164.343C42.5894 164.282 42.5633 164.224 42.5239 164.175L38.587 159.163C38.5596 159.127 38.5246 159.099 38.4847 159.08C38.4448 159.06 38.4009 159.05 38.3564 159.05H31.3414C31.2543 159.043 31.1733 159.002 31.1158 158.936C31.0584 158.87 31.029 158.784 31.034 158.697C31.031 158.654 31.0365 158.61 31.0503 158.569C31.0641 158.528 31.0859 158.49 31.1145 158.457C31.143 158.424 31.1778 158.397 31.2167 158.378C31.2557 158.359 31.298 158.347 31.3414 158.344H37.2536C37.3216 158.342 37.3876 158.321 37.444 158.282C37.5003 158.244 37.5448 158.191 37.5722 158.128C37.5995 158.066 37.6088 157.997 37.5988 157.93C37.5888 157.863 37.56 157.799 37.5157 157.748L33.1765 152.22C33.1491 152.183 33.1137 152.154 33.0729 152.133C33.0321 152.113 32.9871 152.102 32.9415 152.102L28.4215 152.166C28.3781 152.163 28.3357 152.152 28.2965 152.134C28.2573 152.115 28.2223 152.089 28.1933 152.056C28.1643 152.024 28.142 151.986 28.1277 151.945C28.1133 151.904 28.1072 151.861 28.1096 151.818C28.1059 151.774 28.1108 151.73 28.124 151.689C28.1373 151.648 28.1586 151.609 28.1867 151.576C28.2149 151.543 28.2493 151.515 28.288 151.496C28.3268 151.476 28.3691 151.464 28.4124 151.46L31.8476 151.415C31.911 151.406 31.9707 151.38 32.0206 151.34C32.0706 151.3 32.1091 151.247 32.132 151.187C32.155 151.128 32.1617 151.063 32.1515 151C32.1412 150.936 32.1143 150.877 32.0736 150.828L25.7637 142.782C25.7056 142.712 25.6738 142.624 25.6738 142.533C25.6738 142.443 25.7056 142.355 25.7637 142.285Z" fill="white"/>
<path d="M57.7513 158.327C57.794 158.324 57.837 158.329 57.8776 158.343C57.9183 158.356 57.9559 158.378 57.9882 158.406C58.0206 158.434 58.047 158.468 58.0661 158.506C58.0852 158.545 58.0964 158.587 58.0993 158.629L58.6282 163.073C58.6287 163.134 58.6477 163.193 58.6828 163.243C58.7178 163.294 58.7672 163.332 58.8244 163.353C58.8816 163.375 58.944 163.379 59.0034 163.364C59.0628 163.349 59.1163 163.317 59.157 163.271L63.2476 158.431C63.3087 158.354 63.3378 158.257 63.329 158.159L62.8272 150.186C62.8156 150.099 62.8391 150.01 62.8924 149.94C62.9457 149.87 63.0247 149.823 63.112 149.811C63.1549 149.81 63.1976 149.817 63.2376 149.833C63.2776 149.848 63.314 149.872 63.3448 149.902C63.3756 149.932 63.4 149.967 63.4167 150.007C63.4334 150.046 63.442 150.089 63.442 150.132L63.894 156.853C63.8922 156.916 63.9095 156.977 63.9437 157.03C63.978 157.082 64.0274 157.123 64.0854 157.147C64.1434 157.17 64.2072 157.175 64.2683 157.162C64.3294 157.148 64.3849 157.116 64.4273 157.07L68.9473 151.723C69.0083 151.644 69.0388 151.546 69.0332 151.447L68.64 146.331C68.6292 146.243 68.6522 146.154 68.7042 146.083C68.7563 146.012 68.8335 145.963 68.9202 145.946C68.9633 145.945 69.0062 145.952 69.0465 145.968C69.0867 145.984 69.1235 146.007 69.1546 146.037C69.1857 146.067 69.2106 146.102 69.2278 146.142C69.2449 146.182 69.2541 146.224 69.2547 146.267L69.553 150.163C69.5507 150.226 69.5677 150.287 69.6017 150.34C69.6356 150.392 69.6849 150.432 69.7427 150.456C69.8006 150.479 69.8642 150.484 69.9249 150.469C69.9856 150.455 70.0404 150.422 70.0818 150.376L76.6584 142.592C76.685 142.558 76.7192 142.53 76.7584 142.51C76.7976 142.491 76.8407 142.481 76.8844 142.481C76.9281 142.481 76.9713 142.491 77.0104 142.51C77.0496 142.53 77.0839 142.558 77.1104 142.592C77.1685 142.662 77.2003 142.75 77.2003 142.841C77.2003 142.932 77.1685 143.02 77.1104 143.09L67.3111 154.693C67.0986 154.941 67.3111 155.348 67.5913 155.28L73.6617 153.874C73.7037 153.867 73.7467 153.869 73.7881 153.879C73.8294 153.89 73.8683 153.908 73.9021 153.934C73.936 153.96 73.9642 153.992 73.9851 154.03C74.0059 154.067 74.0189 154.108 74.0233 154.15C74.0432 154.237 74.0296 154.328 73.9852 154.405C73.9407 154.482 73.8688 154.54 73.7837 154.566L65.8421 156.392L62.0136 160.912C61.9707 160.96 61.9416 161.019 61.9293 161.083C61.917 161.147 61.922 161.212 61.9437 161.273C61.9654 161.334 62.003 161.388 62.0527 161.429C62.1024 161.471 62.1622 161.498 62.2261 161.509L68.1292 161.766C68.1726 161.77 68.2148 161.783 68.2533 161.803C68.2919 161.824 68.326 161.851 68.3537 161.885C68.3815 161.919 68.4023 161.957 68.4149 161.999C68.4276 162.041 68.4319 162.085 68.4275 162.128C68.4293 162.171 68.4224 162.214 68.4071 162.255C68.3918 162.295 68.3684 162.332 68.3385 162.364C68.3085 162.395 68.2725 162.42 68.2326 162.437C68.1928 162.454 68.1499 162.462 68.1066 162.462L61.1006 162.16C61.0557 162.158 61.0111 162.167 60.9703 162.186C60.9295 162.205 60.8936 162.233 60.8656 162.268L55.7489 168.325C55.7223 168.36 55.6881 168.388 55.6489 168.407C55.6097 168.426 55.5666 168.436 55.5229 168.436C55.4792 168.436 55.4361 168.426 55.3969 168.407C55.3577 168.388 55.3235 168.36 55.2969 168.325C55.2388 168.255 55.207 168.167 55.207 168.076C55.207 167.985 55.2388 167.897 55.2969 167.828L58.0632 164.555C58.0955 164.515 58.1193 164.469 58.1333 164.419C58.1473 164.369 58.1511 164.317 58.1445 164.266L57.4846 158.715C57.4722 158.629 57.4927 158.541 57.5421 158.469C57.5915 158.397 57.6662 158.346 57.7513 158.327Z" fill="white"/>
<path d="M170.494 148.902L103.349 167.8C102.625 167.978 101.862 167.921 101.172 167.637C100.482 167.352 99.9005 166.855 99.5119 166.218L48.5941 74.5797C48.4214 74.3074 48.3174 73.9972 48.2909 73.6759C48.2644 73.3545 48.3163 73.0315 48.4421 72.7346C48.5679 72.4377 48.7638 72.1758 49.0131 71.9712C49.2623 71.7667 49.5575 71.6257 49.8733 71.5603L117.018 52.6622C117.741 52.4831 118.503 52.5395 119.193 52.8232C119.882 53.1069 120.463 53.6031 120.851 54.2397L171.76 145.878C171.932 146.15 172.036 146.459 172.064 146.78C172.091 147.101 172.04 147.423 171.916 147.72C171.792 148.017 171.597 148.28 171.35 148.486C171.102 148.691 170.809 148.834 170.494 148.902Z" fill="#263238" stroke="black" stroke-miterlimit="10"/>
<path d="M102.404 163.782C102.404 163.782 141.204 154.552 167.321 145.508L102.404 163.782Z" fill="#884849"/>
<path d="M167.321 145.508L102.405 163.782L52.1924 73.4183L117.109 55.1484L167.321 145.508Z" fill="white" stroke="#263238" stroke-miterlimit="10"/>
<path d="M97.8799 74.286L102.92 72.8667" stroke="#263238" stroke-miterlimit="10"/>
<path d="M62.9229 84.126L93.9798 75.3843" stroke="#263238" stroke-miterlimit="10"/>
<path d="M92.3525 79.9001L104.873 76.3745" stroke="#263238" stroke-miterlimit="10"/>
<path d="M73.165 85.3014L88.9353 80.8628" stroke="#263238" stroke-miterlimit="10"/>
<path d="M64.8711 87.6337L70.2363 86.124" stroke="#263238" stroke-miterlimit="10"/>
<path d="M82.4307 86.7521L106.825 79.8862" stroke="#263238" stroke-miterlimit="10"/>
<path d="M66.8232 91.1455L77.0656 88.2617" stroke="#263238" stroke-miterlimit="10"/>
<path d="M120.485 71.642C119.843 70.5924 118.884 69.7738 117.747 69.3043C116.609 68.8348 115.352 68.7385 114.157 69.0294C111.82 69.6894 110.875 71.9222 112.042 74.024C112.682 75.0752 113.641 75.895 114.778 76.3647C115.916 76.8345 117.174 76.9297 118.37 76.6366C120.684 75.9812 121.651 73.7438 120.485 71.642Z" fill="white" stroke="#263238" stroke-miterlimit="10"/>
<path d="M76.6589 98.355L71.6191 99.7743" stroke="#263238" stroke-miterlimit="10"/>
<path d="M111.616 88.5151L80.5596 97.2568" stroke="#263238" stroke-miterlimit="10"/>
<path d="M86.0878 99.7607L73.5674 103.286" stroke="#263238" stroke-miterlimit="10"/>
<path d="M105.275 94.3594L89.5049 98.798" stroke="#263238" stroke-miterlimit="10"/>
<path d="M113.569 92.0269L108.204 93.5365" stroke="#263238" stroke-miterlimit="10"/>
<path d="M99.9094 99.9282L75.5195 106.794" stroke="#263238" stroke-miterlimit="10"/>
<path d="M115.521 95.5347L105.274 98.4184" stroke="#263238" stroke-miterlimit="10"/>
<path d="M129.181 87.2949C128.541 86.2437 127.582 85.4239 126.444 84.9541C125.306 84.4844 124.049 84.3892 122.853 84.6823C120.516 85.3377 119.572 87.5751 120.738 89.6543C121.378 90.7059 122.336 91.5262 123.474 91.996C124.612 92.4658 125.87 92.5607 127.066 92.2669C129.398 91.6295 130.347 89.3921 129.181 87.2949Z" fill="white" stroke="#263238" stroke-miterlimit="10"/>
<path d="M115.273 105.582L120.313 104.163" stroke="#263238" stroke-miterlimit="10"/>
<path d="M80.3154 115.422L111.372 106.681" stroke="#263238" stroke-miterlimit="10"/>
<path d="M109.745 111.201L122.266 107.675" stroke="#263238" stroke-miterlimit="10"/>
<path d="M90.5576 116.602L106.328 112.159" stroke="#263238" stroke-miterlimit="10"/>
<path d="M82.2637 118.934L87.6289 117.425" stroke="#263238" stroke-miterlimit="10"/>
<path d="M99.8242 118.049L124.214 111.188" stroke="#263238" stroke-miterlimit="10"/>
<path d="M84.2158 122.447L94.4581 119.563" stroke="#263238" stroke-miterlimit="10"/>
<path d="M138.157 105.903C138.932 103.933 137.539 101.541 135.046 100.561C132.553 99.5813 129.904 100.384 129.13 102.354C128.355 104.324 129.748 106.716 132.241 107.696C134.734 108.676 137.383 107.873 138.157 105.903Z" fill="white" stroke="#263238" stroke-miterlimit="10"/>
<path d="M94.0515 129.656L89.0117 131.076" stroke="#263238" stroke-miterlimit="10"/>
<path d="M129.009 119.816L97.9521 128.558" stroke="#263238" stroke-miterlimit="10"/>
<path d="M103.48 131.062L90.96 134.583" stroke="#263238" stroke-miterlimit="10"/>
<path d="M122.668 125.66L106.897 130.099" stroke="#263238" stroke-miterlimit="10"/>
<path d="M130.962 123.324L125.597 124.833" stroke="#263238" stroke-miterlimit="10"/>
<path d="M117.303 131.229L92.9131 138.095" stroke="#263238" stroke-miterlimit="10"/>
<path d="M132.91 126.835L122.668 129.719" stroke="#263238" stroke-miterlimit="10"/>
<path d="M146.57 118.591C145.929 117.54 144.97 116.721 143.832 116.251C142.695 115.782 141.437 115.686 140.242 115.979C137.905 116.638 136.96 118.871 138.126 120.973C138.767 122.024 139.726 122.844 140.863 123.314C142.001 123.784 143.259 123.879 144.454 123.586C146.791 122.944 147.741 120.684 146.57 118.591Z" fill="white" stroke="#263238" stroke-miterlimit="10"/>
<path d="M132.666 136.884L137.706 135.464" stroke="#263238" stroke-miterlimit="10"/>
<path d="M97.708 146.724L128.765 137.982" stroke="#263238" stroke-miterlimit="10"/>
<path d="M127.138 142.497L139.658 138.976" stroke="#263238" stroke-miterlimit="10"/>
<path d="M107.951 147.899L123.721 143.46" stroke="#263238" stroke-miterlimit="10"/>
<path d="M99.6562 150.235L105.021 148.721" stroke="#263238" stroke-miterlimit="10"/>
<path d="M117.217 149.35L141.607 142.484" stroke="#263238" stroke-miterlimit="10"/>
<path d="M101.609 153.743L111.852 150.859" stroke="#263238" stroke-miterlimit="10"/>
<path d="M155.549 137.201C156.323 135.231 154.93 132.839 152.437 131.859C149.945 130.879 147.296 131.682 146.521 133.652C145.747 135.622 147.14 138.014 149.633 138.994C152.126 139.974 154.774 139.171 155.549 137.201Z" fill="white" stroke="#263238" stroke-miterlimit="10"/>
<path d="M95.1321 56.6806L86.5984 59.0808C85.952 59.1079 85.2424 59.0582 85.0435 58.7282C84.5915 57.8784 85.1701 57.0829 85.3509 56.3326C85.5601 55.4678 85.4256 54.5555 84.9757 53.7878C84.317 52.708 83.3314 51.866 82.1619 51.3841C80.9923 50.9021 79.6997 50.8052 78.4714 51.1075C76.0758 51.7855 75.1085 54.0771 76.3018 56.2286C76.8872 57.2224 77.7648 58.0116 78.8149 58.4886C78.8149 58.4886 80.5461 59.2616 80.8941 59.8853C81.0795 60.2153 80.5958 60.604 80.1031 60.8978L70.9049 63.4878C70.5581 63.5607 70.2341 63.7164 69.9605 63.9417C69.6869 64.167 69.4719 64.4551 69.3338 64.7815C69.1957 65.1079 69.1386 65.4628 69.1674 65.816C69.1962 66.1693 69.3101 66.5103 69.4992 66.81L70.7422 69.0428L100.606 60.6402L99.3629 58.4028C98.9332 57.7024 98.291 57.1575 97.53 56.8477C96.7689 56.538 95.9288 56.4794 95.1321 56.6806ZM79.9314 53.7607C80.3249 53.6632 80.7392 53.694 81.1141 53.8485C81.4889 54.0029 81.8046 54.2731 82.0151 54.6195C82.1087 54.7673 82.1649 54.9356 82.1791 55.1099C82.1933 55.2842 82.1649 55.4594 82.0965 55.6203C82.028 55.7813 81.9215 55.9232 81.7861 56.0339C81.6506 56.1445 81.4904 56.2207 81.319 56.2558C80.9267 56.3533 80.5134 56.3231 80.1394 56.1694C79.7654 56.0158 79.4502 55.7467 79.2398 55.4015C79.1464 55.2537 79.0901 55.0854 79.0757 54.9111C79.0613 54.7369 79.0892 54.5617 79.1571 54.4005C79.2251 54.2394 79.3309 54.097 79.4658 53.9856C79.6006 53.8742 79.7603 53.7971 79.9314 53.7607Z" fill="#63BD80" stroke="#263238" stroke-miterlimit="10"/>
<path d="M113.547 71.9041L117.231 74.476L121.027 65.9648" stroke="#63BD80" stroke-width="6" stroke-linecap="round" stroke-linejoin="round"/>
<path d="M122.107 87.3128L125.791 89.8802L129.588 81.3735" stroke="#63BD80" stroke-width="6" stroke-linecap="round" stroke-linejoin="round"/>
<path d="M182.526 85.2067C182.526 85.2067 183.507 83.1185 182.892 81.5184C182.278 79.9183 170.964 77.3374 170.964 77.3374C170.964 77.3374 168.383 77.3374 168.505 78.8154C168.627 80.2935 177.975 85.948 178.711 86.4362C179.448 86.9243 182.278 88.0362 182.526 85.2067Z" fill="white" stroke="#263238" stroke-linecap="round" stroke-linejoin="round"/>
<path d="M171.9 75.2719C171.203 75.014 170.52 74.7213 169.853 74.395C168.876 73.9069 169.948 76.1533 170.341 76.2482C170.734 76.3431 171.697 76.542 171.697 76.542L171.9 75.2719Z" fill="white" stroke="#263238" stroke-linecap="round" stroke-linejoin="round"/>
<path d="M138.136 97.1351L132.481 104.019L132.97 105.004L140.965 103.056L197.244 70.2953C197.806 69.9665 198.296 69.5286 198.686 69.0072C199.076 68.4859 199.358 67.8918 199.515 67.2599C199.671 66.628 199.7 65.9712 199.599 65.3281C199.498 64.6849 199.269 64.0686 198.925 63.5153C198.583 62.9674 198.134 62.4931 197.606 62.1201C197.078 61.7472 196.482 61.4829 195.851 61.3429C195.22 61.2028 194.567 61.1896 193.931 61.3042C193.295 61.4188 192.688 61.6588 192.145 62.0102L138.136 97.1351Z" fill="#63BD80" stroke="#263238" stroke-linecap="round" stroke-linejoin="round"/>
<path d="M166.413 84.375L164.578 85.5592" stroke="#263238" stroke-linecap="round" stroke-linejoin="round"/>
<path d="M182.21 74.2139L168.654 82.9375" stroke="#263238" stroke-linecap="round" stroke-linejoin="round"/>
<path d="M133.005 103.875C133.005 103.875 131.6 104.462 131.817 105.054C132.034 105.646 134.05 104.214 134.05 104.214L133.005 103.875Z" fill="#63BD80" stroke="#263238" stroke-linecap="round" stroke-linejoin="round"/>
<path d="M132.481 104.019L132.97 105.005L140.965 103.056C136.536 101.334 138.136 97.1533 138.136 97.1533L132.481 104.019Z" fill="white" stroke="#263238" stroke-linecap="round" stroke-linejoin="round"/>
<path d="M198.925 63.4836C198.582 62.9356 198.134 62.4614 197.606 62.0884C197.078 61.7154 196.481 61.4512 195.85 61.3111C195.219 61.171 194.567 61.1579 193.93 61.2725C193.294 61.387 192.687 61.627 192.145 61.9784L182.327 68.3697C182.063 69.0435 181.928 69.7612 181.93 70.4851C181.902 71.9363 182.45 73.3396 183.453 74.3881C184.457 75.4367 185.835 76.0453 187.286 76.0808L197.262 70.2772C197.824 69.9469 198.314 69.5072 198.704 68.9841C199.093 68.461 199.373 67.8652 199.529 67.2318C199.684 66.5984 199.71 65.9404 199.606 65.2966C199.503 64.6528 199.271 64.0363 198.925 63.4836Z" fill="white" stroke="#263238" stroke-linecap="round" stroke-linejoin="round"/>
<path d="M198.925 63.4836C198.582 62.9356 198.134 62.4614 197.606 62.0884C197.078 61.7154 196.481 61.4512 195.85 61.3111C195.219 61.171 194.567 61.1579 193.931 61.2725C193.294 61.387 192.688 61.627 192.145 61.9784L184.687 66.8374C184.326 67.5813 184.139 68.3973 184.14 69.224C184.131 69.9276 184.26 70.6261 184.521 71.2796C184.781 71.9332 185.168 72.5289 185.66 73.0327C186.151 73.5365 186.736 73.9385 187.383 74.2156C188.03 74.4928 188.725 74.6397 189.429 74.648C189.551 74.648 189.677 74.648 189.795 74.648L197.262 70.3043C197.828 69.9741 198.321 69.5332 198.713 69.0079C199.105 68.4827 199.387 67.8839 199.542 67.2473C199.697 66.6106 199.723 65.9492 199.617 65.3026C199.511 64.656 199.275 64.0373 198.925 63.4836Z" fill="#263238" stroke="#263238" stroke-linecap="round" stroke-linejoin="round"/>
<path d="M165.658 77.5181C165.658 77.5181 164.564 77.5181 164.564 78.0153C164.564 78.5125 164.275 80.2753 164.908 80.2255C165.54 80.1758 165.486 79.0684 165.54 78.6797C165.595 78.291 165.658 77.5181 165.658 77.5181Z" fill="white" stroke="#263238" stroke-linecap="round" stroke-linejoin="round"/>
<path d="M166.851 75.7193C166.851 75.7193 165.875 75.4165 165.649 76.0177C165.423 76.6188 165.197 79.4755 165.875 79.3986C166.553 79.3218 166.702 76.7725 166.851 75.7193Z" fill="white" stroke="#263238" stroke-linecap="round" stroke-linejoin="round"/>
<path d="M168.356 75.8685C168.356 75.8685 167.226 74.8921 166.851 75.7193C166.476 76.5465 166.399 78.8833 166.851 78.8833C167.303 78.8833 167.981 77.907 168.13 77.3827C168.242 76.8842 168.318 76.3781 168.356 75.8685Z" fill="white" stroke="#263238" stroke-linecap="round" stroke-linejoin="round"/>
<path d="M169.952 76.3205C169.952 76.3205 168.523 75.1182 168.297 75.3442C168.071 75.5702 167.167 77.8844 167.845 78.35C168.523 78.8156 169.382 76.7364 169.382 76.7364L169.952 76.3205Z" fill="white" stroke="#263238" stroke-linecap="round" stroke-linejoin="round"/>
<path d="M149.309 83.4532C149.309 83.4532 149.467 85.8623 150.109 86.4273C150.497 86.7633 150.847 87.1407 151.153 87.5528C151.242 88.1655 151.296 88.7827 151.316 89.4015C151.316 90.1247 151.799 90.0433 152.22 90.0433C152.64 90.0433 153.345 91.3993 153.747 92.0502C154.514 92.9971 155.43 93.8124 156.459 94.4639C157.183 94.8662 158.389 93.3384 158.389 93.3384L158.95 94.9475L164.659 91.2502L161.847 85.781C161.681 83.8851 161.104 82.0481 160.157 80.3976C158.548 77.5048 156.378 75.8777 152.762 76.9399C149.146 78.0021 149.309 83.4532 149.309 83.4532Z" fill="white" stroke="#263238" stroke-linecap="round" stroke-linejoin="round"/>
<path d="M155.912 72.7406C154.564 72.7995 153.233 73.0663 151.966 73.5316C149.856 74.2774 149.336 77.2154 147.496 78.2685C145.657 79.3217 146.443 77.3645 145.521 77.8708C144.599 78.377 143.681 83.001 145.652 84.3163C147.623 85.6316 150.52 83.923 150.52 83.923C150.52 83.923 150.258 84.827 151.044 85.1073C151.52 85.2651 152.005 85.3964 152.495 85.5005C152.495 85.5005 152.36 87.0825 153.544 86.9469C154.728 86.8113 153.68 84.9762 153.68 84.9762C153.68 84.9762 155.917 89.3154 157.63 89.8443C159.343 90.3731 161.838 88.0001 162.494 86.9469C163.149 85.8938 162.625 78.3996 161.178 75.5068C159.732 72.614 155.912 72.7406 155.912 72.7406Z" fill="#263238" stroke="#263238" stroke-linecap="round" stroke-linejoin="round"/>
<path d="M153.729 87.7923C153.729 87.7923 152.925 84.7368 154.209 85.139C155.492 85.5413 156.22 88.2759 156.139 88.5968C156.057 88.9178 155.415 89.076 155.094 88.9991" fill="white"/>
<path d="M153.729 87.7923C153.729 87.7923 152.925 84.7368 154.209 85.139C155.492 85.5413 156.22 88.2759 156.139 88.5968C156.057 88.9178 155.415 89.076 155.094 88.9991" stroke="#263238" stroke-linecap="round" stroke-linejoin="round"/>
<path d="M163.018 88.8997C161.519 89.7419 160.087 90.6969 158.733 91.7564C157.377 92.9632 156.161 96.5792 156.161 96.5792C156.161 96.5792 164.442 90.9518 165.888 90.1518C167.335 89.3517 167.656 88.9449 167.656 88.9449C167.656 88.9449 164.627 88.4974 163.018 88.8997Z" fill="white" stroke="#263238" stroke-linecap="round" stroke-linejoin="round"/>
<path d="M174.165 83.9775C174.515 83.358 174.991 82.819 175.563 82.3954C176.134 81.9718 176.788 81.6731 177.483 81.5186C179.82 81.0259 182.907 82.626 183.264 85.2069C183.621 87.7878 181.664 89.0218 180.434 89.0218C179.205 89.0218 178.097 87.2997 178.097 87.2997C178.097 87.2997 174.165 85.8216 174.165 83.9775Z" fill="white" stroke="#263238" stroke-linecap="round" stroke-linejoin="round"/>
<path d="M141.209 111.4L145.146 100.946C144.706 101.339 144.137 101.558 143.546 101.56C142.561 101.56 140.229 101.194 140.834 100.824C141.44 100.453 143.781 98.8573 143.781 98.8573C143.781 98.8573 142.064 99.228 141.571 98.8573C141.078 98.4867 140.834 97.994 141.2 97.872C141.567 97.7499 142.308 97.872 143.659 97.3793C145.011 96.8866 145.626 96.3984 146.733 96.3984C147.84 96.3984 148.826 98.3646 148.826 98.9794C148.826 99.5941 147.962 111.274 147.962 111.766C147.962 112.259 147.962 112.752 144.767 113.122C141.571 113.493 141.087 112.752 141.209 111.4Z" fill="white" stroke="#263238" stroke-linecap="round" stroke-linejoin="round"/>
<path d="M145.146 100.946L145.73 98.6494" stroke="#263238" stroke-linecap="round" stroke-linejoin="round"/>
<path d="M145.019 108.814C145.019 108.814 141.087 109.922 140.35 111.644C139.613 113.366 139.735 115.947 141.209 117.425C142.682 118.903 143.302 119.269 144.897 118.654C146.493 118.04 146.868 117.054 146.99 116.069C147.112 115.084 147.971 111.766 145.019 108.814Z" fill="white" stroke="#263238" stroke-linecap="round" stroke-linejoin="round"/>
<path d="M143.425 160.953C143.425 160.953 139.98 159.353 138.629 159.968C137.277 160.582 137.273 161.197 138.995 163.905C140.717 166.612 145.513 169.93 147.131 169.189C148.749 168.447 147.253 163.534 147.253 163.534L143.425 160.953Z" fill="white" stroke="#263238" stroke-linecap="round" stroke-linejoin="round"/>
<path d="M140.966 164.763C139.771 163.441 138.767 161.957 137.982 160.356C137.35 160.917 137.621 161.74 138.995 163.905C140.717 166.617 145.513 169.93 147.131 169.189C147.336 169.057 147.506 168.876 147.623 168.662C147.741 168.448 147.803 168.208 147.804 167.964C145.544 168.917 143.207 167.24 140.966 164.763Z" fill="white" stroke="#263238" stroke-linecap="round" stroke-linejoin="round"/>
<path d="M161.129 123.324L161.251 127.017C161.251 127.017 153.752 129.842 150.064 132.441C146.376 135.04 143.917 136.988 143.546 139.447C143.175 141.906 143.424 160.967 143.424 160.967C143.424 160.967 142.317 161.211 142.687 161.947C143.058 162.684 143.79 165.392 144.775 165.636C145.761 165.88 146.99 166.377 147.234 165.762C147.478 165.148 148.22 161.459 148.712 160.23C149.205 159 150.064 153.228 150.801 149.16C151.232 146.889 151.479 144.587 151.537 142.276C154.134 141.915 156.688 141.297 159.163 140.432C163.466 138.954 169.735 136.251 169.735 136.251C169.735 136.251 174.779 148.907 175.887 151.375C176.994 153.843 181.311 159.366 182.156 160.967C183.001 162.567 188.425 169.451 188.425 169.451C188.425 169.451 190.518 167.606 191.869 167.606H193.714C193.714 167.606 191.499 161.459 189.646 157.766C187.792 154.074 183.991 148.053 183.991 148.053C183.991 148.053 180.551 126.542 180.425 125.06C180.185 122.221 178.368 117.936 178.368 117.936C178.368 117.936 172.442 116.684 161.129 123.324Z" fill="#263238" stroke="#263238" stroke-linecap="round" stroke-linejoin="round"/>
<path d="M188.425 169.437C188.109 169.952 187.822 170.485 187.566 171.032C187.444 171.403 184.736 171.774 185.107 173.003C185.478 174.233 188.303 175.213 189.654 175.34C191.006 175.467 193.722 173.618 194.206 173.125C194.495 172.836 194.929 170.924 194.699 169.437C194.548 168.742 194.207 168.103 193.713 167.593C193.713 167.593 191.376 164.026 188.425 169.437Z" fill="white" stroke="#263238" stroke-linecap="round" stroke-linejoin="round"/>
<path d="M194.699 169.437C194.573 168.812 194.284 168.232 193.863 167.755C193.354 167.759 192.851 167.867 192.384 168.071C191.918 168.276 191.498 168.573 191.151 168.944C189.921 170.418 190.536 173.74 189.058 174.233C187.959 174.599 186.038 173.256 185.134 172.551C185.084 172.698 185.084 172.857 185.134 173.003C185.501 174.233 188.33 175.213 189.682 175.34C191.033 175.466 193.75 173.618 194.233 173.125C194.495 172.836 194.929 170.924 194.699 169.437Z" fill="white" stroke="#263238" stroke-linecap="round" stroke-linejoin="round"/>
<path d="M191.498 170.296C191.01 172.511 191.625 173.984 189.654 175.34C191.01 175.462 193.722 173.618 194.206 173.125C194.495 172.836 194.929 170.924 194.699 169.437C194.646 169.129 194.544 168.831 194.396 168.556H194.206C194.206 168.556 191.991 168.085 191.498 170.296Z" fill="#263238" stroke="#263238" stroke-linecap="round" stroke-linejoin="round"/>
<path d="M170.965 135.989L178.219 132.427" stroke="white" stroke-linecap="round" stroke-linejoin="round"/>
<path d="M174.286 134.394L180.555 133.53" stroke="white" stroke-linecap="round" stroke-linejoin="round"/>
<path d="M176.732 83.1187C174.644 83.3628 169.233 87.0511 168.863 87.4217C168.492 87.7924 167.019 88.6512 166.404 89.1439C166.404 89.1439 153.748 97.0132 152.631 97.7319C151.515 98.4505 149.314 99.9467 149.436 100.444C149.558 100.941 142.918 111.744 142.918 111.744C142.918 111.744 140.952 114.329 142.796 116.662C144.64 118.994 146.362 117.403 147.221 116.91C148.08 116.418 154.846 110.022 154.846 110.022L161.084 124.938C161.084 124.938 169.722 119.148 178.947 119.514L172.795 95.4131C172.795 95.4131 181.284 89.0218 181.528 86.8251C181.772 84.6284 178.834 82.8701 176.732 83.1187Z" fill="white"/>
<mask id="mask0_55247_55892" style="mask-type:luminance" maskUnits="userSpaceOnUse" x="142" y="83" width="40" height="42">
<path d="M176.732 83.1187C174.644 83.3628 169.233 87.0511 168.863 87.4217C168.492 87.7924 167.019 88.6512 166.404 89.1439C166.404 89.1439 153.748 97.0132 152.631 97.7319C151.515 98.4505 149.314 99.9467 149.436 100.444C149.558 100.941 142.918 111.744 142.918 111.744C142.918 111.744 140.952 114.329 142.796 116.662C144.64 118.994 146.362 117.403 147.221 116.91C148.08 116.418 154.846 110.022 154.846 110.022L161.084 124.938C161.084 124.938 169.722 119.148 178.947 119.514L172.795 95.4131C172.795 95.4131 181.284 89.0218 181.528 86.8251C181.772 84.6284 178.834 82.8701 176.732 83.1187Z" fill="white"/>
</mask>
<g mask="url(#mask0_55247_55892)">
<path d="M176.732 83.1188C175.896 83.2182 174.527 83.8691 173.157 84.6375C173.469 84.5773 173.792 84.6104 174.085 84.7326C174.379 84.8548 174.63 85.0607 174.807 85.3245C175.824 86.6308 173.645 90.8389 173.645 90.8389C173.645 90.8389 172.741 85.0262 172.777 86.7709C172.813 88.5157 172.325 93.8809 172.325 93.8809C172.325 93.8809 169.423 90.4005 169.568 91.2683C169.713 92.1362 171.598 100.263 172.759 103.31C173.921 106.356 171.887 114.912 170.73 117.376C169.573 119.839 170.278 106.935 168.985 110.144C167.692 113.353 163.33 122.181 162.313 123.053C161.296 123.925 162.639 111.224 163.001 109.57C162.549 110.953 159.561 119.717 159.561 119.717L155.493 109.271C155.493 109.271 148.532 103.617 149.255 104.629C149.978 105.642 151.723 108.838 151.723 108.838C151.723 108.838 147.515 107.965 148.243 108.259C148.97 108.553 152.157 110.144 152.157 110.144C152.157 110.144 145.63 114.786 143.745 115.364C143.238 115.513 142.717 115.609 142.19 115.649C142.326 116.028 142.523 116.382 142.774 116.698C144.618 119.035 146.34 117.439 147.199 116.946C148.057 116.454 154.824 110.058 154.824 110.058L161.061 124.974C161.061 124.974 169.699 119.184 178.924 119.55L172.773 95.4493C172.773 95.4493 181.261 89.0581 181.505 86.8613C181.749 84.6646 178.834 82.8702 176.732 83.1188Z" fill="#63BD80"/>
<path opacity="0.5" d="M176.732 83.1188C175.896 83.2182 174.527 83.8691 173.157 84.6375C173.469 84.5773 173.792 84.6104 174.085 84.7326C174.379 84.8548 174.63 85.0607 174.807 85.3245C175.824 86.6308 173.645 90.8389 173.645 90.8389C173.645 90.8389 172.741 85.0262 172.777 86.7709C172.813 88.5157 172.325 93.8809 172.325 93.8809C172.325 93.8809 169.423 90.4005 169.568 91.2683C169.713 92.1362 171.598 100.263 172.759 103.31C173.921 106.356 171.887 114.912 170.73 117.376C169.573 119.839 170.278 106.935 168.985 110.144C167.692 113.353 163.33 122.181 162.313 123.053C161.296 123.925 162.639 111.224 163.001 109.57C162.549 110.953 159.561 119.717 159.561 119.717L155.493 109.271C155.493 109.271 148.532 103.617 149.255 104.629C149.978 105.642 151.723 108.838 151.723 108.838C151.723 108.838 147.515 107.965 148.243 108.259C148.97 108.553 152.157 110.144 152.157 110.144C152.157 110.144 145.63 114.786 143.745 115.364C143.238 115.513 142.717 115.609 142.19 115.649C142.326 116.028 142.523 116.382 142.774 116.698C144.618 119.035 146.34 117.439 147.199 116.946C148.057 116.454 154.824 110.058 154.824 110.058L161.061 124.974C161.061 124.974 169.699 119.184 178.924 119.55L172.773 95.4493C172.773 95.4493 181.261 89.0581 181.505 86.8613C181.749 84.6646 178.834 82.8702 176.732 83.1188Z" fill="white"/>
</g>
<path d="M176.732 83.1187C174.644 83.3628 169.233 87.0511 168.863 87.4217C168.492 87.7924 167.019 88.6512 166.404 89.1439C166.404 89.1439 153.748 97.0132 152.631 97.7319C151.515 98.4505 149.314 99.9467 149.436 100.444C149.558 100.941 142.918 111.744 142.918 111.744C142.918 111.744 140.952 114.329 142.796 116.662C144.64 118.994 146.362 117.403 147.221 116.91C148.08 116.418 154.846 110.022 154.846 110.022L161.084 124.938C161.084 124.938 169.722 119.148 178.947 119.514L172.795 95.4131C172.795 95.4131 181.284 89.0218 181.528 86.8251C181.772 84.6284 178.834 82.8701 176.732 83.1187Z" stroke="#263238" stroke-linecap="round" stroke-linejoin="round"/>
<path d="M161.097 124.937C160.737 121.555 160.912 118.136 161.617 114.808L161.097 124.937Z" fill="white"/>
<path d="M161.097 124.937C160.737 121.555 160.912 118.136 161.617 114.808" stroke="#263238" stroke-linecap="round" stroke-linejoin="round"/>
<path d="M159.931 117.402C159.931 117.402 159.931 115.323 162.268 108.814L159.931 117.402Z" fill="white"/>
<path d="M159.931 117.402C159.931 117.402 159.931 115.323 162.268 108.814" stroke="#263238" stroke-linecap="round" stroke-linejoin="round"/>
<path d="M150.064 104.638L154.86 110.044L149.942 106.478" fill="white"/>
<path d="M150.064 104.638L154.86 110.044L149.942 106.478" stroke="#263238" stroke-linecap="round" stroke-linejoin="round"/>
<path d="M172.809 88.5287V95.4127L174.409 86.5625" fill="white"/>
<path d="M172.809 88.5287V95.4127L174.409 86.5625" stroke="#263238" stroke-linecap="round" stroke-linejoin="round"/>
<path d="M163.073 109.384C163.055 109.434 163.041 109.486 163.032 109.538C163.086 109.384 163.105 109.325 163.073 109.384Z" fill="#263238"/>
</svg>
