<svg width="226" height="227" viewBox="0 0 226 227" fill="none" xmlns="http://www.w3.org/2000/svg">
<path opacity="0.7" d="M30.7043 76.0246C30.7043 76.0246 18.1025 108.569 35.8119 141.339C53.5213 174.109 89.9977 191.42 119.192 206.223C148.387 221.026 178.703 213.817 193.108 189.571C207.513 165.326 187.756 148.019 187.729 113.446C187.702 78.8722 192.904 69.7192 174.169 40.5109C155.434 11.3027 109.506 4.83456 74.7743 26.4989C40.0426 48.1633 30.7043 76.0246 30.7043 76.0246Z" fill="white"/>
<path d="M106.274 16.6457C162.322 11.6737 162.435 43.282 187.697 72.7524C212.96 102.223 218.361 115.579 208.824 149.552C199.287 183.524 167.24 210.151 127.527 195.064C87.8145 179.976 65.088 194.462 40.0517 181.052C15.0154 167.641 5.69967 141.768 24.0418 111.258C42.384 80.7483 37.1453 22.8019 106.274 16.6457Z" fill="#C5C7C2"/>
<path opacity="0.7" d="M106.274 16.6457C162.322 11.6737 162.435 43.282 187.697 72.7524C212.96 102.223 218.361 115.579 208.824 149.552C199.287 183.524 167.24 210.151 127.527 195.064C87.8145 179.976 65.088 194.462 40.0517 181.052C15.0154 167.641 5.69967 141.768 24.0418 111.258C42.384 80.7483 37.1453 22.8019 106.274 16.6457Z" fill="white"/>
<path d="M143.597 30.1717L55.499 39.9756L69.1278 162.444L157.226 152.64L143.597 30.1717Z" fill="white" stroke="#263238" stroke-linecap="round" stroke-linejoin="round"/>
<path d="M143.597 30.1726L55.499 39.9766L57.3847 56.9214L145.483 47.1175L143.597 30.1726Z" fill="#BFBFBF" stroke="#263238" stroke-linecap="round" stroke-linejoin="round"/>
<path d="M119.12 37.98L81.0885 42.2107C80.9118 42.2195 80.7387 42.2643 80.5799 42.3422C80.421 42.4202 80.2797 42.5297 80.1646 42.6641C80.0495 42.7985 79.963 42.9549 79.9104 43.1239C79.8578 43.2928 79.8402 43.4707 79.8587 43.6467C79.8771 43.8227 79.9313 43.993 80.0178 44.1474C80.1043 44.3017 80.2214 44.4368 80.3619 44.5444C80.5023 44.652 80.6633 44.7298 80.8348 44.7731C81.0064 44.8164 81.185 44.8242 81.3597 44.7962L119.391 40.5654C119.724 40.5151 120.024 40.3379 120.229 40.0709C120.434 39.804 120.527 39.468 120.49 39.1336C120.453 38.7991 120.287 38.4922 120.028 38.2771C119.769 38.062 119.437 37.9555 119.102 37.98H119.12Z" fill="white"/>
<path d="M110.202 44.3445L91.1908 46.4599C91.1059 46.4683 91.0235 46.4935 90.9485 46.5342C90.8735 46.5748 90.8073 46.63 90.7539 46.6965C90.7004 46.7629 90.6608 46.8394 90.6372 46.9214C90.6137 47.0034 90.6067 47.0893 90.6168 47.174C90.635 47.3453 90.7204 47.5024 90.8543 47.6109C90.9881 47.7193 91.1595 47.7703 91.3309 47.7526L110.347 45.6372C110.513 45.6121 110.663 45.5234 110.766 45.39C110.868 45.2565 110.915 45.0885 110.896 44.9213C110.877 44.7541 110.795 44.6006 110.665 44.493C110.536 44.3855 110.37 44.3323 110.202 44.3445Z" fill="white"/>
<path opacity="0.3" d="M124.413 58.9982L74.5796 64.5397C74.4519 64.5541 74.3352 64.6186 74.2551 64.719C74.175 64.8195 74.1381 64.9476 74.1525 65.0753C74.1668 65.203 74.2314 65.3197 74.3318 65.3998C74.4323 65.4799 74.5604 65.5168 74.6881 65.5024L124.508 59.9609C124.635 59.9465 124.752 59.882 124.832 59.7816C124.912 59.6811 124.949 59.553 124.935 59.4253C124.92 59.2976 124.856 59.1809 124.755 59.1008C124.655 59.0207 124.527 58.9838 124.399 58.9982H124.413Z" fill="black"/>
<path opacity="0.3" d="M124.797 62.456L67.5015 68.8292C67.3738 68.8436 67.2571 68.9081 67.177 69.0086C67.0969 69.109 67.06 69.2372 67.0743 69.3648C67.0887 69.4925 67.1532 69.6092 67.2537 69.6893C67.3541 69.7694 67.4823 69.8064 67.61 69.792L124.905 63.4188C124.971 63.4149 125.034 63.3978 125.093 63.3685C125.151 63.3393 125.203 63.2985 125.245 63.2487C125.288 63.1988 125.319 63.141 125.339 63.0785C125.358 63.0161 125.364 62.9504 125.357 62.8854C125.35 62.8198 125.33 62.7563 125.298 62.6988C125.265 62.6413 125.221 62.591 125.169 62.5508C125.117 62.5107 125.057 62.4816 124.993 62.4653C124.929 62.449 124.862 62.4459 124.797 62.456Z" fill="black"/>
<path opacity="0.3" d="M110.229 67.5764L67.8853 72.2863C67.7576 72.3007 67.6409 72.3652 67.5608 72.4656C67.4807 72.5661 67.4437 72.6942 67.4581 72.8219C67.4725 72.9496 67.537 73.0663 67.6375 73.1464C67.7379 73.2265 67.8661 73.2634 67.9937 73.249L110.333 68.5392C110.398 68.5353 110.462 68.5182 110.52 68.489C110.578 68.4597 110.63 68.419 110.673 68.3691C110.715 68.3193 110.747 68.2614 110.766 68.1989C110.785 68.1365 110.791 68.0708 110.785 68.0058C110.777 67.9407 110.757 67.8776 110.725 67.8205C110.693 67.7633 110.65 67.7132 110.598 67.6731C110.546 67.633 110.486 67.6038 110.423 67.5872C110.36 67.5706 110.293 67.5669 110.229 67.5764Z" fill="black"/>
<path opacity="0.3" d="M137.047 57.161L131.994 57.7234C131.314 57.799 130.824 58.4114 130.9 59.0912L131.462 64.145C131.538 64.8248 132.15 65.3146 132.83 65.2389L137.884 64.6765C138.564 64.6009 139.053 63.9885 138.978 63.3087L138.415 58.2549C138.34 57.5751 137.727 57.0853 137.047 57.161Z" stroke="#263238" stroke-linecap="round" stroke-linejoin="round"/>
<path d="M132.892 61.0455L134.555 62.614L136.743 59.2646" stroke="#C5C7C2" stroke-width="3" stroke-linecap="round" stroke-linejoin="round"/>
<path opacity="0.3" d="M126.234 75.378L76.4146 80.9196C76.2869 80.9339 76.1702 80.9985 76.0901 81.0989C76.01 81.1994 75.973 81.3275 75.9874 81.4552C76.0018 81.5829 76.0663 81.6996 76.1668 81.7797C76.2672 81.8598 76.3954 81.8967 76.523 81.8823L126.342 76.3408C126.406 76.3337 126.467 76.3142 126.523 76.2834C126.578 76.2526 126.627 76.2112 126.667 76.1615C126.707 76.1117 126.736 76.0547 126.754 75.9935C126.771 75.9324 126.777 75.8684 126.77 75.8052C126.762 75.742 126.743 75.6808 126.712 75.6251C126.681 75.5694 126.64 75.5204 126.59 75.4807C126.541 75.441 126.483 75.4115 126.422 75.3939C126.361 75.3763 126.297 75.3709 126.234 75.378Z" fill="black"/>
<path opacity="0.3" d="M126.618 78.8361L69.3228 85.2093C69.2595 85.2164 69.1984 85.2359 69.1427 85.2667C69.087 85.2974 69.0379 85.3389 68.9983 85.3886C68.9586 85.4383 68.9291 85.4954 68.9115 85.5565C68.8939 85.6177 68.8885 85.6817 68.8956 85.7449C68.9027 85.8081 68.9222 85.8693 68.953 85.925C68.9838 85.9806 69.0252 86.0297 69.075 86.0694C69.1247 86.109 69.1818 86.1385 69.2429 86.1561C69.304 86.1737 69.368 86.1791 69.4312 86.172L126.727 79.7988C126.854 79.7844 126.971 79.7199 127.051 79.6195C127.131 79.519 127.168 79.3909 127.154 79.2632C127.14 79.1355 127.075 79.0188 126.975 78.9387C126.874 78.8586 126.746 78.8217 126.618 78.8361Z" fill="black"/>
<path opacity="0.3" d="M112.05 83.9573L69.7066 88.6671C69.5789 88.6815 69.4622 88.746 69.3821 88.8465C69.302 88.9469 69.265 89.0751 69.2794 89.2028C69.2938 89.3304 69.3583 89.4472 69.4588 89.5273C69.5592 89.6074 69.6874 89.6443 69.815 89.6299L112.154 84.9201C112.219 84.9161 112.283 84.8991 112.341 84.8698C112.4 84.8406 112.452 84.7998 112.494 84.75C112.536 84.7001 112.568 84.6422 112.587 84.5798C112.606 84.5174 112.613 84.4517 112.606 84.3867C112.599 84.3215 112.578 84.2585 112.546 84.2013C112.514 84.1442 112.471 84.094 112.419 84.054C112.367 84.0139 112.308 83.9847 112.244 83.9681C112.181 83.9515 112.115 83.9478 112.05 83.9573Z" fill="black"/>
<path opacity="0.3" d="M138.871 73.5379L133.817 74.1003C133.137 74.176 132.647 74.7884 132.723 75.4682L133.285 80.522C133.361 81.2018 133.973 81.6915 134.653 81.6159L139.707 81.0535C140.387 80.9778 140.877 80.3654 140.801 79.6856L140.238 74.6318C140.163 73.952 139.55 73.4623 138.871 73.5379Z" stroke="#263238" stroke-linecap="round" stroke-linejoin="round"/>
<path d="M134.718 77.4264L136.377 78.9948L138.564 75.6455" stroke="#C5C7C2" stroke-width="3" stroke-linecap="round" stroke-linejoin="round"/>
<path opacity="0.3" d="M128.055 91.7588L78.2358 97.3003C78.1163 97.3234 78.0098 97.3907 77.9377 97.4888C77.8656 97.5869 77.8331 97.7086 77.8468 97.8296C77.8605 97.9506 77.9194 98.062 78.0116 98.1415C78.1038 98.221 78.2226 98.2628 78.3443 98.2586L128.164 92.708C128.227 92.7009 128.288 92.6814 128.344 92.6506C128.4 92.6198 128.449 92.5784 128.488 92.5286C128.528 92.4789 128.557 92.4218 128.575 92.3607C128.593 92.2996 128.598 92.2356 128.591 92.1724C128.584 92.1092 128.564 92.048 128.534 91.9923C128.503 91.9366 128.461 91.8875 128.412 91.8479C128.362 91.8082 128.305 91.7787 128.244 91.7611C128.182 91.7435 128.118 91.7381 128.055 91.7452V91.7588Z" fill="black"/>
<path opacity="0.3" d="M128.445 95.2168L71.1446 101.59C71.0813 101.596 71.0199 101.615 70.964 101.645C70.9081 101.676 70.8588 101.717 70.8192 101.767C70.7796 101.816 70.7503 101.874 70.7333 101.935C70.7162 101.996 70.7116 102.06 70.7198 102.123C70.7265 102.187 70.7457 102.248 70.7762 102.304C70.8066 102.36 70.8478 102.409 70.8974 102.449C70.9469 102.489 71.0038 102.518 71.0649 102.536C71.1259 102.554 71.1899 102.56 71.2531 102.553L128.549 96.1796C128.614 96.1751 128.678 96.1574 128.736 96.1277C128.795 96.098 128.847 96.0568 128.889 96.0066C128.931 95.9564 128.963 95.8982 128.982 95.8355C129.001 95.7728 129.007 95.7069 129.001 95.6417C128.993 95.5767 128.973 95.5138 128.941 95.4568C128.909 95.3999 128.866 95.35 128.814 95.3103C128.762 95.2706 128.702 95.2418 128.639 95.2258C128.575 95.2097 128.509 95.2067 128.445 95.2168Z" fill="black"/>
<path opacity="0.3" d="M113.872 100.337L71.5288 105.047C71.4012 105.062 71.2844 105.126 71.2043 105.227C71.1242 105.327 71.0873 105.455 71.1017 105.583C71.1161 105.711 71.1806 105.827 71.281 105.907C71.3815 105.987 71.5096 106.024 71.6373 106.01L113.976 101.296C114.104 101.282 114.221 101.218 114.301 101.118C114.382 101.018 114.419 100.89 114.406 100.762C114.392 100.635 114.328 100.518 114.228 100.437C114.128 100.357 114 100.319 113.872 100.333V100.337Z" fill="black"/>
<path opacity="0.3" d="M140.693 89.9149L135.639 90.4773C134.959 90.5529 134.47 91.1653 134.545 91.8451L135.108 96.8989C135.183 97.5787 135.796 98.0685 136.475 97.9928L141.529 97.4304C142.209 97.3548 142.699 96.7424 142.623 96.0626L142.061 91.0088C141.985 90.329 141.373 89.8392 140.693 89.9149Z" stroke="#263238" stroke-linecap="round" stroke-linejoin="round"/>
<path d="M136.54 93.8069L138.199 95.3753L140.391 92.0215" stroke="#C5C7C2" stroke-width="3" stroke-linecap="round" stroke-linejoin="round"/>
<path opacity="0.3" d="M129.878 108.14L80.0581 113.681C79.9385 113.704 79.8321 113.771 79.76 113.87C79.6878 113.968 79.6554 114.089 79.6691 114.21C79.6828 114.331 79.7416 114.443 79.8338 114.522C79.9261 114.602 80.0449 114.644 80.1666 114.639L129.986 109.098C130.053 109.096 130.118 109.079 130.178 109.051C130.238 109.022 130.292 108.981 130.335 108.93C130.379 108.88 130.412 108.821 130.431 108.757C130.451 108.693 130.457 108.626 130.45 108.56C130.442 108.494 130.421 108.43 130.388 108.372C130.354 108.314 130.309 108.264 130.256 108.225C130.202 108.185 130.14 108.157 130.075 108.143C130.01 108.128 129.943 108.127 129.878 108.14Z" fill="black"/>
<path opacity="0.3" d="M130.266 111.597L72.9659 117.97C72.9026 117.976 72.8412 117.995 72.7853 118.025C72.7294 118.056 72.6801 118.097 72.6405 118.147C72.6009 118.196 72.5716 118.254 72.5545 118.315C72.5375 118.376 72.5329 118.44 72.541 118.503C72.5478 118.566 72.567 118.628 72.5974 118.684C72.6279 118.739 72.6691 118.789 72.7186 118.829C72.7682 118.868 72.8251 118.898 72.8862 118.916C72.9472 118.934 73.0112 118.94 73.0744 118.933L130.37 112.559C130.498 112.545 130.615 112.48 130.696 112.379C130.776 112.278 130.813 112.15 130.799 112.022C130.785 111.895 130.72 111.779 130.62 111.699C130.52 111.62 130.393 111.583 130.266 111.597Z" fill="black"/>
<path opacity="0.3" d="M115.712 116.718L73.3683 121.428C73.305 121.434 73.2435 121.453 73.1876 121.483C73.1317 121.514 73.0825 121.555 73.0428 121.605C73.0032 121.654 72.974 121.712 72.9569 121.773C72.9398 121.834 72.9352 121.898 72.9434 121.961C72.9501 122.025 72.9693 122.086 72.9998 122.142C73.0303 122.198 73.0714 122.247 73.121 122.287C73.1705 122.327 73.2275 122.356 73.2885 122.374C73.3495 122.392 73.4135 122.398 73.4767 122.391L115.816 117.681C115.879 117.674 115.94 117.655 115.996 117.625C116.052 117.594 116.101 117.553 116.141 117.503C116.181 117.454 116.211 117.397 116.228 117.336C116.246 117.275 116.252 117.211 116.245 117.148C116.239 117.084 116.22 117.023 116.19 116.966C116.159 116.91 116.118 116.861 116.069 116.821C116.019 116.781 115.962 116.751 115.9 116.733C115.839 116.716 115.775 116.711 115.712 116.718Z" fill="black"/>
<path opacity="0.3" d="M142.516 106.297L137.462 106.859C136.783 106.935 136.293 107.547 136.368 108.227L136.931 113.281C137.006 113.961 137.619 114.45 138.299 114.375L143.352 113.812C144.032 113.737 144.522 113.124 144.446 112.444L143.884 107.391C143.808 106.711 143.196 106.221 142.516 106.297Z" stroke="#263238" stroke-linecap="round" stroke-linejoin="round"/>
<path d="M138.361 110.182L140.02 111.751L142.212 108.401" stroke="#C5C7C2" stroke-width="3" stroke-linecap="round" stroke-linejoin="round"/>
<path opacity="0.3" d="M131.704 124.515L81.8843 130.057C81.8211 130.063 81.7599 130.083 81.7041 130.113C81.6483 130.144 81.5991 130.185 81.5592 130.234C81.5193 130.284 81.4896 130.341 81.4717 130.402C81.4538 130.463 81.4481 130.527 81.4549 130.59C81.4618 130.653 81.481 130.714 81.5115 130.77C81.542 130.826 81.5832 130.875 81.6327 130.915C81.6822 130.955 81.7391 130.985 81.8001 131.003C81.8612 131.021 81.9251 131.026 81.9883 131.019L131.808 125.478C131.871 125.471 131.932 125.452 131.988 125.421C132.044 125.391 132.093 125.35 132.133 125.3C132.173 125.251 132.203 125.194 132.221 125.133C132.238 125.072 132.244 125.008 132.237 124.945C132.222 124.817 132.158 124.701 132.058 124.621C131.959 124.54 131.831 124.502 131.704 124.515Z" fill="black"/>
<path opacity="0.3" d="M132.087 127.964L74.787 134.337C74.7204 134.34 74.655 134.356 74.5948 134.384C74.5347 134.413 74.4812 134.454 74.4377 134.505C74.3941 134.555 74.3615 134.614 74.3418 134.678C74.3222 134.742 74.3159 134.809 74.3234 134.875C74.3309 134.941 74.352 135.005 74.3854 135.063C74.4188 135.121 74.4638 135.171 74.5175 135.21C74.5713 135.25 74.6326 135.278 74.6976 135.292C74.7627 135.307 74.83 135.308 74.8955 135.295L132.191 128.922C132.258 128.921 132.324 128.905 132.384 128.877C132.445 128.848 132.499 128.808 132.543 128.757C132.587 128.707 132.621 128.648 132.641 128.584C132.661 128.52 132.667 128.453 132.66 128.387C132.653 128.32 132.632 128.256 132.599 128.198C132.565 128.14 132.52 128.089 132.466 128.049C132.413 128.01 132.351 127.982 132.286 127.967C132.22 127.952 132.153 127.951 132.087 127.964Z" fill="black"/>
<path opacity="0.3" d="M117.52 133.099L75.1763 137.809C75.0486 137.823 74.9319 137.888 74.8518 137.988C74.7717 138.089 74.7348 138.217 74.7491 138.345C74.7635 138.472 74.828 138.589 74.9285 138.669C75.0289 138.749 75.1571 138.786 75.2848 138.772L117.628 134.062C117.755 134.046 117.871 133.981 117.951 133.88C118.03 133.779 118.067 133.651 118.053 133.524C118.046 133.461 118.027 133.4 117.997 133.344C117.966 133.289 117.925 133.24 117.875 133.2C117.825 133.161 117.769 133.131 117.708 133.114C117.646 133.097 117.583 133.092 117.52 133.099Z" fill="black"/>
<path opacity="0.3" d="M144.339 122.678L139.286 123.24C138.606 123.316 138.116 123.928 138.192 124.608L138.754 129.662C138.83 130.341 139.442 130.831 140.122 130.756L145.176 130.193C145.856 130.117 146.345 129.505 146.27 128.825L145.707 123.771C145.632 123.092 145.019 122.602 144.339 122.678Z" stroke="#263238" stroke-linecap="round" stroke-linejoin="round"/>
<path d="M140.183 126.563L141.841 128.132L144.034 124.782" stroke="#C5C7C2" stroke-width="3" stroke-linecap="round" stroke-linejoin="round"/>
<path opacity="0.3" d="M133.091 137.004L83.272 142.554C83.1443 142.569 83.0276 142.633 82.9475 142.734C82.8674 142.834 82.8305 142.962 82.8448 143.09C82.8592 143.218 82.9237 143.334 83.0242 143.414C83.1246 143.495 83.2528 143.531 83.3805 143.517L133.2 137.976C133.263 137.969 133.325 137.951 133.381 137.92C133.436 137.89 133.486 137.849 133.525 137.799C133.565 137.749 133.594 137.692 133.611 137.631C133.628 137.569 133.633 137.505 133.625 137.442C133.619 137.378 133.601 137.316 133.571 137.259C133.541 137.202 133.5 137.152 133.45 137.111C133.4 137.07 133.343 137.04 133.282 137.021C133.22 137.003 133.155 136.997 133.091 137.004Z" fill="black"/>
<path opacity="0.3" d="M133.476 140.476L76.18 146.849C76.1131 146.851 76.0473 146.866 75.9867 146.895C75.926 146.923 75.8719 146.964 75.8278 147.014C75.7837 147.064 75.7506 147.123 75.7304 147.187C75.7103 147.251 75.7036 147.318 75.7108 147.385C75.718 147.451 75.739 147.516 75.7724 147.574C75.8057 147.632 75.8508 147.682 75.9046 147.722C75.9585 147.762 76.0201 147.79 76.0854 147.804C76.1507 147.819 76.2183 147.82 76.284 147.807L133.584 141.434C133.704 141.411 133.81 141.344 133.882 141.246C133.954 141.148 133.987 141.026 133.973 140.905C133.959 140.784 133.901 140.672 133.808 140.593C133.716 140.513 133.597 140.472 133.476 140.476Z" fill="black"/>
<path opacity="0.3" d="M118.903 145.592L76.5641 150.302C76.5008 150.309 76.4396 150.328 76.3837 150.358C76.3279 150.389 76.2786 150.43 76.2388 150.479C76.1989 150.529 76.1691 150.586 76.1513 150.647C76.1334 150.708 76.1278 150.772 76.1347 150.835C76.1495 150.963 76.2143 151.08 76.3151 151.161C76.4159 151.241 76.5444 151.278 76.6726 151.265L119.011 146.555C119.075 146.548 119.136 146.528 119.191 146.497C119.247 146.467 119.296 146.425 119.336 146.375C119.376 146.326 119.405 146.269 119.423 146.207C119.44 146.146 119.446 146.082 119.439 146.019C119.431 145.956 119.412 145.895 119.381 145.839C119.35 145.783 119.309 145.734 119.259 145.695C119.209 145.655 119.152 145.625 119.091 145.608C119.03 145.59 118.966 145.585 118.903 145.592Z" fill="black"/>
<path opacity="0.3" d="M145.731 135.171L140.677 135.733C139.997 135.809 139.508 136.421 139.583 137.101L140.146 142.155C140.221 142.835 140.834 143.324 141.514 143.249L146.567 142.686C147.247 142.611 147.737 141.998 147.661 141.318L147.099 136.265C147.023 135.585 146.411 135.095 145.731 135.171Z" stroke="#263238" stroke-linecap="round" stroke-linejoin="round"/>
<path d="M141.57 139.06L143.229 140.629L145.421 137.279" stroke="#C5C7C2" stroke-width="3" stroke-linecap="round" stroke-linejoin="round"/>
<path d="M91.6701 105.034C91.7138 104.514 91.5851 103.995 91.304 103.556L90.748 102.57L89.6452 103.194L90.2463 104.252C90.5446 104.781 90.4226 105.106 90.052 105.314C89.6813 105.522 89.3378 105.468 89.0395 104.939L87.7513 102.652L86.3682 102.923L87.8417 105.522C88.5152 106.711 89.4915 107.05 90.635 106.426C90.8168 106.322 90.9853 106.196 91.1368 106.051C91.0725 105.902 91.0612 105.735 91.1048 105.579C91.1484 105.423 91.2442 105.286 91.3763 105.192C91.4649 105.123 91.5642 105.07 91.6701 105.034Z" fill="#C5C7C2"/>
<path d="M85.6578 101.671L85.92 102.123H87.4432L86.7788 100.948C86.4805 100.419 86.598 100.084 86.9686 99.8764C87.3393 99.6685 87.6873 99.7318 87.9856 100.265L88.4376 101.056L89.536 100.432L89.1292 99.7137C88.4557 98.5295 87.4794 98.186 86.3358 98.8368C86.0733 98.9784 85.8402 99.1686 85.6488 99.3973C85.9085 99.4808 86.1807 99.519 86.4533 99.5103L85.3685 99.9171C85.289 100.213 85.2737 100.523 85.3236 100.825C85.3735 101.128 85.4874 101.416 85.6578 101.671Z" fill="#C5C7C2"/>
<path d="M94.1058 96.8524C94.2508 96.78 94.4021 96.721 94.5578 96.6761C95.1409 96.414 95.272 95.5733 95.2223 94.9811L94.6211 94.2354L93.0029 95.1394L94.0154 96.9202C94.0419 96.8931 94.0724 96.8702 94.1058 96.8524Z" fill="#C5C7C2"/>
<path d="M100.999 100.392L102.097 99.768L97.898 92.3643L96.8539 92.9519C97.1884 93.0332 97.4279 93.1914 97.437 93.4355C97.1115 93.4807 96.7138 93.4355 96.3612 93.4988L98.4766 98.9815L95.8007 95.6458C95.808 95.7196 95.7969 95.7942 95.7685 95.8627C95.7402 95.9313 95.6953 95.9919 95.638 96.039C95.516 96.1249 95.3397 96.1249 95.2448 96.2379C95.1498 96.3509 95.1634 96.4865 95.082 96.5859C95.0007 96.6854 94.8741 96.7125 94.7747 96.7848C94.6752 96.8571 94.5668 97.0425 94.4538 97.1645C94.3993 97.2219 94.3307 97.264 94.2549 97.2865L97.229 102.53L98.2415 101.951L95.2719 96.717L99.0868 101.472L100.19 100.848L97.9613 95.0943L100.999 100.392Z" fill="#C5C7C2"/>
<path d="M103.778 93.9458C103.859 93.986 103.93 94.0419 103.988 94.1103C104.047 94.1786 104.091 94.2579 104.117 94.3436C104.213 93.7851 104.091 93.2113 103.778 92.739L103.232 91.7717C102.558 90.5875 101.622 90.2666 100.456 90.9265L98.7432 91.8983L102.947 99.3066L104.036 98.6873C103.684 98.4658 103.29 98.276 102.956 98.0364C102.799 97.9362 102.67 97.7978 102.581 97.6342C102.538 97.5516 102.521 97.4585 102.531 97.3662C102.54 97.2739 102.576 97.1865 102.635 97.1144C102.711 97.0498 102.805 97.0083 102.904 96.9947C103.003 96.9811 103.104 96.9959 103.195 97.0375L102.531 95.8623L103.082 95.5504C103.385 95.3861 103.649 95.1579 103.855 94.8815C103.625 94.5154 103.222 93.7379 103.778 93.9458ZM102.481 94.5154L101.93 94.8272L100.506 92.3186L101.057 92.0068C101.428 91.7988 101.726 91.8531 102.025 92.3819L102.657 93.4938C102.956 94.0001 102.852 94.2848 102.481 94.5154Z" fill="#C5C7C2"/>
<path d="M110.012 95.2976L109.416 94.2399L107.499 95.3247L104.697 90.3844L104.57 90.4838C104.488 90.5597 104.389 90.6141 104.281 90.642C104.226 90.6543 104.169 90.6463 104.12 90.6197C104.071 90.5932 104.034 90.5497 104.014 90.4974C103.999 90.4274 103.999 90.3549 104.014 90.2849C104.015 89.8643 103.882 89.4544 103.634 89.1143L102.73 89.6386L106.93 97.0423L110.012 95.2976Z" fill="#C5C7C2"/>
<path d="M109.488 92.7078C109.614 92.3779 110.008 92.2558 110.229 91.9575C110.249 91.9269 110.267 91.8952 110.283 91.8626L109.831 91.1032L110.975 90.4569C110.954 90.3847 110.917 90.3183 110.866 90.2625C110.702 90.1823 110.527 90.1275 110.347 90.0998C110.319 90.0436 110.305 89.9815 110.306 89.9188C110.307 89.8561 110.323 89.7945 110.352 89.7392C110.382 89.6839 110.424 89.6364 110.476 89.6009C110.528 89.5653 110.587 89.5427 110.649 89.5348C110.726 89.5348 110.817 89.5348 110.875 89.4986C110.917 89.4495 110.938 89.3864 110.934 89.3224L110.83 89.1416L109.23 90.0456L108.064 87.9844L110.071 86.8409L109.47 85.7832L106.306 87.5912L109.415 93.074C109.421 92.949 109.445 92.8255 109.488 92.7078Z" fill="#C5C7C2"/>
<path d="M113.696 93.209L113.095 92.1514L111.083 93.2904L110.482 92.2553L109.741 92.9514L109.483 93.2L110.523 95.0306L113.696 93.209Z" fill="#C5C7C2"/>
<path d="M112.199 84.6081C112.199 84.7663 112.086 84.9426 111.933 84.9561C111.854 84.9552 111.777 84.943 111.702 84.92C111.562 84.9225 111.423 84.9089 111.286 84.8793C111.257 84.8671 111.229 84.8503 111.205 84.8296L109.876 85.5844L110.477 86.6466L111.693 85.9551L115.309 92.2831L116.471 91.6231L112.855 85.2951L114.075 84.6036L113.474 83.5459L112.226 84.251C112.204 84.3685 112.213 84.4906 112.199 84.6081Z" fill="#C5C7C2"/>
<path d="M117.275 89.0914L118.179 90.687L119.4 89.9954C119.429 89.9153 119.465 89.8382 119.508 89.7649C119.777 89.3723 120.139 89.0524 120.561 88.8338L121.122 88.4857L120.751 87.8258L118.74 88.9694L117.51 86.7998L119.11 85.8958L118.509 84.8381L116.909 85.7421L115.743 83.6674L117.754 82.5284L117.153 81.4707L113.989 83.2787L116.272 87.306C116.823 87.0122 117.099 88.0699 117.275 89.0914Z" fill="#C5C7C2"/>
<path d="M93.8665 103.719C94.0563 103.75 94.1693 103.94 94.3185 104.067C94.3727 104.117 94.4355 104.156 94.5038 104.184C94.5903 104.15 94.6748 104.11 94.7569 104.067C95.896 103.42 96.1355 102.39 95.4666 101.201L95.3988 101.083L93.8348 101.043L94.3456 101.947C94.6439 102.476 94.5264 102.81 94.1558 103.018C93.7851 103.226 93.4371 103.158 93.1388 102.629L90.8788 98.6291C90.5759 98.1002 90.698 97.7703 91.0686 97.5578C91.4392 97.3454 91.7828 97.4177 92.0856 97.9466L93.6179 100.659C94.0882 100.542 94.5707 100.481 95.0552 100.478L93.2879 97.3635C92.619 96.1792 91.611 95.8583 90.4674 96.5047C89.3239 97.151 89.0843 98.1861 89.7578 99.3704L91.941 103.221C92.0789 103.518 92.2852 103.778 92.5428 103.98C92.8005 104.182 93.1023 104.32 93.4235 104.383C93.4211 104.356 93.4211 104.329 93.4235 104.302C93.3693 104.008 93.5862 103.664 93.8665 103.719Z" fill="#C5C7C2"/>
<path d="M109.474 82.4606L113.023 80.4492C112.006 80.7295 111.111 81.5792 110.062 81.4617C109.872 81.4119 109.673 81.4119 109.483 81.4617C109.365 81.5381 109.279 81.6564 109.244 81.7929C109.209 81.9295 109.227 82.0743 109.294 82.1985C109.339 82.295 109.4 82.3835 109.474 82.4606Z" fill="#C5C7C2"/>
<path d="M100.574 87.5096C100.566 87.4314 100.582 87.3527 100.619 87.2836C100.706 87.3139 100.798 87.3292 100.89 87.3288L102.115 86.6372C102.307 86.4203 102.526 86.2289 102.766 86.0677C102.998 85.9435 103.244 85.8464 103.498 85.7784L103.769 85.6971L106.029 84.4224C106.053 84.3762 106.085 84.3348 106.124 84.3004C106.159 84.2771 106.197 84.2589 106.237 84.2461L103.905 83.541L103.277 83.8936L103.209 84.3908L100.52 85.8281C100.253 85.9944 99.9568 86.1065 99.6472 86.1581C99.5315 86.1716 99.4147 86.1716 99.2991 86.1581L95.4662 88.3322C95.4967 88.5139 95.5482 88.6914 95.6198 88.8611C95.395 88.8192 95.1811 88.7315 94.9916 88.6034L94.2051 89.0554C94.7656 89.4261 95.317 89.8057 95.8549 90.208L100.574 87.5096Z" fill="#C5C7C2"/>
<path d="M116.982 78.2076L115.129 77.168L114.252 77.6652C114.769 78.1965 115.436 78.5563 116.164 78.6957L116.982 78.2076Z" fill="#C5C7C2"/>
<path d="M126.949 89.1505L119.952 76.8154C119.679 76.3384 119.23 75.9885 118.7 75.842C118.171 75.6954 117.605 75.7643 117.127 76.0335L116.286 76.5126L116.607 76.8245C116.941 77.1589 117.285 77.4979 117.597 77.855L118.022 77.6155C118.08 77.5826 118.15 77.5741 118.215 77.5918C118.28 77.6096 118.336 77.6522 118.37 77.7104L125.371 90.05C125.404 90.1094 125.411 90.1793 125.393 90.2444C125.374 90.3096 125.331 90.3647 125.272 90.398L115.748 95.822C116.571 95.8717 117.402 95.7542 118.225 95.8491C118.521 95.8865 118.816 95.9393 119.106 96.0074L126.167 92.0026C126.406 91.8679 126.617 91.6869 126.786 91.4701C126.956 91.2533 127.08 91.0051 127.153 90.7398C127.226 90.4746 127.245 90.1975 127.21 89.9247C127.175 89.6519 127.086 89.3887 126.949 89.1505Z" fill="#C5C7C2"/>
<path d="M84.0716 104.848L80.781 99.0353C80.764 99.0059 80.753 98.9735 80.7486 98.9399C80.7442 98.9062 80.7464 98.872 80.7552 98.8393C80.7641 98.8065 80.7793 98.7758 80.8 98.749C80.8207 98.7221 80.8465 98.6996 80.8759 98.6827L90.3679 93.2949C90.3363 93.2226 90.2956 93.1502 90.2685 93.0779C90.4026 93.0723 90.5368 93.0876 90.6663 93.1231L94.5037 90.949C94.3772 90.9083 94.2551 90.8586 94.1331 90.8134L92.3251 90.0947L90.8787 90.9174L92.4517 91.8801C91.9047 91.5456 90.7883 91.5004 89.8255 91.514L80.0036 97.1052C79.5257 97.3765 79.1749 97.8264 79.0283 98.356C78.8817 98.8857 78.9512 99.4518 79.2216 99.9302L82.0783 104.966C82.2093 104.929 82.3449 104.898 82.476 104.875C82.8382 104.823 83.2044 104.805 83.5699 104.821C83.7375 104.82 83.9051 104.829 84.0716 104.848Z" fill="#C5C7C2"/>
<path d="M95.7968 107.118C95.9578 107.262 96.141 107.379 96.3392 107.466C96.5426 107.556 96.8138 107.773 96.6556 107.918C95.9234 108.252 95.0194 108.003 94.3007 108.37C93.9075 108.559 93.5278 108.935 93.1074 108.822C93.6159 109.13 94.0734 109.516 94.4634 109.965L112.412 99.7861C112.412 99.7137 112.435 99.6414 112.448 99.5646C112.449 99.4223 112.482 99.282 112.545 99.1544C112.607 99.0267 112.698 98.9151 112.811 98.8279C112.923 98.7407 113.054 98.6804 113.193 98.6514C113.333 98.6224 113.477 98.6255 113.615 98.6606C113.847 98.6503 114.081 98.6747 114.306 98.7329L116.544 97.4628C116.237 96.9337 115.873 96.4396 115.459 95.9893L95.7968 107.118Z" fill="#C5C7C2"/>
<path d="M92.8901 110.105C92.4572 109.965 92.0584 109.735 91.7194 109.431L88.1396 111.465C88.1106 111.482 88.0785 111.493 88.0452 111.498C88.0119 111.502 87.9781 111.5 87.9457 111.491C87.9133 111.482 87.883 111.467 87.8565 111.446C87.8301 111.426 87.808 111.4 87.7916 111.371L84.6276 105.824C84.3244 105.72 84.0019 105.683 83.6829 105.716C83.3168 105.788 82.9958 106.213 83.1947 106.525C83.3816 106.53 83.5638 106.584 83.7227 106.683C83.8815 106.781 84.0113 106.92 84.0987 107.086C83.9038 107.241 83.6895 107.37 83.4614 107.47L86.1734 112.265C86.3081 112.508 86.4899 112.721 86.7081 112.891C86.9263 113.062 87.1764 113.188 87.4438 113.261C87.7113 113.334 87.9905 113.352 88.2653 113.316C88.54 113.279 88.8046 113.188 89.0436 113.047L93.7354 110.385L93.6811 110.354C93.4221 110.256 93.1581 110.174 92.8901 110.105Z" fill="#C5C7C2"/>
<g opacity="0.2">
<path d="M91.6701 105.034C91.7138 104.514 91.5851 103.995 91.304 103.556L90.748 102.57L89.6452 103.194L90.2463 104.252C90.5446 104.781 90.4226 105.106 90.052 105.314C89.6813 105.522 89.3378 105.468 89.0395 104.939L87.7513 102.652L86.3682 102.923L87.8417 105.522C88.5152 106.711 89.4915 107.05 90.635 106.426C90.8168 106.322 90.9853 106.196 91.1368 106.051C91.0725 105.902 91.0612 105.735 91.1048 105.579C91.1484 105.423 91.2442 105.286 91.3763 105.192C91.4649 105.123 91.5642 105.07 91.6701 105.034Z" fill="black"/>
<path d="M85.6578 101.671L85.92 102.123H87.4432L86.7788 100.948C86.4805 100.419 86.598 100.084 86.9686 99.8764C87.3393 99.6685 87.6873 99.7318 87.9856 100.265L88.4376 101.056L89.536 100.432L89.1292 99.7137C88.4557 98.5295 87.4794 98.186 86.3358 98.8368C86.0733 98.9784 85.8402 99.1686 85.6488 99.3973C85.9085 99.4808 86.1807 99.519 86.4533 99.5103L85.3685 99.9171C85.289 100.213 85.2737 100.523 85.3236 100.825C85.3735 101.128 85.4874 101.416 85.6578 101.671Z" fill="black"/>
<path d="M94.1058 96.8524C94.2508 96.78 94.4021 96.721 94.5578 96.6761C95.1409 96.414 95.272 95.5733 95.2223 94.9811L94.6211 94.2354L93.0029 95.1394L94.0154 96.9202C94.0419 96.8931 94.0724 96.8702 94.1058 96.8524Z" fill="black"/>
<path d="M100.999 100.392L102.097 99.768L97.898 92.3643L96.8539 92.9519C97.1884 93.0332 97.4279 93.1914 97.437 93.4355C97.1115 93.4807 96.7138 93.4355 96.3612 93.4988L98.4766 98.9815L95.8007 95.6458C95.808 95.7196 95.7969 95.7942 95.7685 95.8627C95.7402 95.9313 95.6953 95.9919 95.638 96.039C95.516 96.1249 95.3397 96.1249 95.2448 96.2379C95.1498 96.3509 95.1634 96.4865 95.082 96.5859C95.0007 96.6854 94.8741 96.7125 94.7747 96.7848C94.6752 96.8571 94.5668 97.0425 94.4538 97.1645C94.3993 97.2219 94.3307 97.264 94.2549 97.2865L97.229 102.53L98.2415 101.951L95.2719 96.717L99.0868 101.472L100.19 100.848L97.9613 95.0943L100.999 100.392Z" fill="black"/>
<path d="M103.778 93.9458C103.859 93.986 103.93 94.0419 103.988 94.1103C104.047 94.1786 104.091 94.2579 104.117 94.3436C104.213 93.7851 104.091 93.2113 103.778 92.739L103.232 91.7717C102.558 90.5875 101.622 90.2666 100.456 90.9265L98.7432 91.8983L102.947 99.3066L104.036 98.6873C103.684 98.4658 103.29 98.276 102.956 98.0364C102.799 97.9362 102.67 97.7978 102.581 97.6342C102.538 97.5516 102.521 97.4585 102.531 97.3662C102.54 97.2739 102.576 97.1865 102.635 97.1144C102.711 97.0498 102.805 97.0083 102.904 96.9947C103.003 96.9811 103.104 96.9959 103.195 97.0375L102.531 95.8623L103.082 95.5504C103.385 95.3861 103.649 95.1579 103.855 94.8815C103.625 94.5154 103.222 93.7379 103.778 93.9458ZM102.481 94.5154L101.93 94.8272L100.506 92.3186L101.057 92.0068C101.428 91.7988 101.726 91.8531 102.025 92.3819L102.657 93.4938C102.956 94.0001 102.852 94.2848 102.481 94.5154Z" fill="black"/>
<path d="M110.012 95.2976L109.416 94.2399L107.499 95.3247L104.697 90.3844L104.57 90.4838C104.488 90.5597 104.389 90.6141 104.281 90.642C104.226 90.6543 104.169 90.6463 104.12 90.6197C104.071 90.5932 104.034 90.5497 104.014 90.4974C103.999 90.4274 103.999 90.3549 104.014 90.2849C104.015 89.8643 103.882 89.4544 103.634 89.1143L102.73 89.6386L106.93 97.0423L110.012 95.2976Z" fill="black"/>
<path d="M109.488 92.7078C109.614 92.3779 110.008 92.2558 110.229 91.9575C110.249 91.9269 110.267 91.8952 110.283 91.8626L109.831 91.1032L110.975 90.4569C110.954 90.3847 110.917 90.3183 110.866 90.2625C110.702 90.1823 110.527 90.1275 110.347 90.0998C110.319 90.0436 110.305 89.9815 110.306 89.9188C110.307 89.8561 110.323 89.7945 110.352 89.7392C110.382 89.6839 110.424 89.6364 110.476 89.6009C110.528 89.5653 110.587 89.5427 110.649 89.5348C110.726 89.5348 110.817 89.5348 110.875 89.4986C110.917 89.4495 110.938 89.3864 110.934 89.3224L110.83 89.1416L109.23 90.0456L108.064 87.9844L110.071 86.8409L109.47 85.7832L106.306 87.5912L109.415 93.074C109.421 92.949 109.445 92.8255 109.488 92.7078Z" fill="black"/>
<path d="M113.696 93.209L113.095 92.1514L111.083 93.2904L110.482 92.2553L109.741 92.9514L109.483 93.2L110.523 95.0306L113.696 93.209Z" fill="black"/>
<path d="M112.199 84.6081C112.199 84.7663 112.086 84.9426 111.933 84.9561C111.854 84.9552 111.777 84.943 111.702 84.92C111.562 84.9225 111.423 84.9089 111.286 84.8793C111.257 84.8671 111.229 84.8503 111.205 84.8296L109.876 85.5844L110.477 86.6466L111.693 85.9551L115.309 92.2831L116.471 91.6231L112.855 85.2951L114.075 84.6036L113.474 83.5459L112.226 84.251C112.204 84.3685 112.213 84.4906 112.199 84.6081Z" fill="black"/>
<path d="M117.275 89.0914L118.179 90.687L119.4 89.9954C119.429 89.9153 119.465 89.8382 119.508 89.7649C119.777 89.3723 120.139 89.0524 120.561 88.8338L121.122 88.4857L120.751 87.8258L118.74 88.9694L117.51 86.7998L119.11 85.8958L118.509 84.8381L116.909 85.7421L115.743 83.6674L117.754 82.5284L117.153 81.4707L113.989 83.2787L116.272 87.306C116.823 87.0122 117.099 88.0699 117.275 89.0914Z" fill="black"/>
<path d="M93.8665 103.719C94.0563 103.75 94.1693 103.94 94.3185 104.067C94.3727 104.117 94.4355 104.156 94.5038 104.184C94.5903 104.15 94.6748 104.11 94.7569 104.067C95.896 103.42 96.1355 102.39 95.4666 101.201L95.3988 101.083L93.8348 101.043L94.3456 101.947C94.6439 102.476 94.5264 102.81 94.1558 103.018C93.7851 103.226 93.4371 103.158 93.1388 102.629L90.8788 98.6291C90.5759 98.1002 90.698 97.7703 91.0686 97.5578C91.4392 97.3454 91.7828 97.4177 92.0856 97.9466L93.6179 100.659C94.0882 100.542 94.5707 100.481 95.0552 100.478L93.2879 97.3635C92.619 96.1792 91.611 95.8583 90.4674 96.5047C89.3239 97.151 89.0843 98.1861 89.7578 99.3704L91.941 103.221C92.0789 103.518 92.2852 103.778 92.5428 103.98C92.8005 104.182 93.1023 104.32 93.4235 104.383C93.4211 104.356 93.4211 104.329 93.4235 104.302C93.3693 104.008 93.5862 103.664 93.8665 103.719Z" fill="black"/>
<path d="M109.474 82.4606L113.023 80.4492C112.006 80.7295 111.111 81.5792 110.062 81.4617C109.872 81.4119 109.673 81.4119 109.483 81.4617C109.365 81.5381 109.279 81.6564 109.244 81.7929C109.209 81.9295 109.227 82.0743 109.294 82.1985C109.339 82.295 109.4 82.3835 109.474 82.4606Z" fill="black"/>
<path d="M100.574 87.5096C100.566 87.4314 100.582 87.3527 100.619 87.2836C100.706 87.3139 100.798 87.3292 100.89 87.3288L102.115 86.6372C102.307 86.4203 102.526 86.2289 102.766 86.0677C102.998 85.9435 103.244 85.8464 103.498 85.7784L103.769 85.6971L106.029 84.4224C106.053 84.3762 106.085 84.3348 106.124 84.3004C106.159 84.2771 106.197 84.2589 106.237 84.2461L103.905 83.541L103.277 83.8936L103.209 84.3908L100.52 85.8281C100.253 85.9944 99.9568 86.1065 99.6472 86.1581C99.5315 86.1716 99.4147 86.1716 99.2991 86.1581L95.4662 88.3322C95.4967 88.5139 95.5482 88.6914 95.6198 88.8611C95.395 88.8192 95.1811 88.7315 94.9916 88.6034L94.2051 89.0554C94.7656 89.4261 95.317 89.8057 95.8549 90.208L100.574 87.5096Z" fill="black"/>
<path d="M116.982 78.2076L115.129 77.168L114.252 77.6652C114.769 78.1965 115.436 78.5563 116.164 78.6957L116.982 78.2076Z" fill="black"/>
<path d="M126.949 89.1505L119.952 76.8154C119.679 76.3384 119.23 75.9885 118.7 75.842C118.171 75.6954 117.605 75.7643 117.127 76.0335L116.286 76.5126L116.607 76.8245C116.941 77.1589 117.285 77.4979 117.597 77.855L118.022 77.6155C118.08 77.5826 118.15 77.5741 118.215 77.5918C118.28 77.6096 118.336 77.6522 118.37 77.7104L125.371 90.05C125.404 90.1094 125.411 90.1793 125.393 90.2444C125.374 90.3096 125.331 90.3647 125.272 90.398L115.748 95.822C116.571 95.8717 117.402 95.7542 118.225 95.8491C118.521 95.8865 118.816 95.9393 119.106 96.0074L126.167 92.0026C126.406 91.8679 126.617 91.6869 126.786 91.4701C126.956 91.2533 127.08 91.0051 127.153 90.7398C127.226 90.4746 127.245 90.1975 127.21 89.9247C127.175 89.6519 127.086 89.3887 126.949 89.1505Z" fill="black"/>
<path d="M84.0716 104.848L80.781 99.0353C80.764 99.0059 80.753 98.9735 80.7486 98.9399C80.7442 98.9062 80.7464 98.872 80.7552 98.8393C80.7641 98.8065 80.7793 98.7758 80.8 98.749C80.8207 98.7221 80.8465 98.6996 80.8759 98.6827L90.3679 93.2949C90.3363 93.2226 90.2956 93.1502 90.2685 93.0779C90.4026 93.0723 90.5368 93.0876 90.6663 93.1231L94.5037 90.949C94.3772 90.9083 94.2551 90.8586 94.1331 90.8134L92.3251 90.0947L90.8787 90.9174L92.4517 91.8801C91.9047 91.5456 90.7883 91.5004 89.8255 91.514L80.0036 97.1052C79.5257 97.3765 79.1749 97.8264 79.0283 98.356C78.8817 98.8857 78.9512 99.4518 79.2216 99.9302L82.0783 104.966C82.2093 104.929 82.3449 104.898 82.476 104.875C82.8382 104.823 83.2044 104.805 83.5699 104.821C83.7375 104.82 83.9051 104.829 84.0716 104.848Z" fill="black"/>
<path d="M95.7968 107.118C95.9578 107.262 96.141 107.379 96.3392 107.466C96.5426 107.556 96.8138 107.773 96.6556 107.918C95.9234 108.252 95.0194 108.003 94.3007 108.37C93.9075 108.559 93.5278 108.935 93.1074 108.822C93.6159 109.13 94.0734 109.516 94.4634 109.965L112.412 99.7861C112.412 99.7137 112.435 99.6414 112.448 99.5646C112.449 99.4223 112.482 99.282 112.545 99.1544C112.607 99.0267 112.698 98.9151 112.811 98.8279C112.923 98.7407 113.054 98.6804 113.193 98.6514C113.333 98.6224 113.477 98.6255 113.615 98.6606C113.847 98.6503 114.081 98.6747 114.306 98.7329L116.544 97.4628C116.237 96.9337 115.873 96.4396 115.459 95.9893L95.7968 107.118Z" fill="black"/>
<path d="M92.8901 110.105C92.4572 109.965 92.0584 109.735 91.7194 109.431L88.1396 111.465C88.1106 111.482 88.0785 111.493 88.0452 111.498C88.0119 111.502 87.9781 111.5 87.9457 111.491C87.9133 111.482 87.883 111.467 87.8565 111.446C87.8301 111.426 87.808 111.4 87.7916 111.371L84.6276 105.824C84.3244 105.72 84.0019 105.683 83.6829 105.716C83.3168 105.788 82.9958 106.213 83.1947 106.525C83.3816 106.53 83.5638 106.584 83.7227 106.683C83.8815 106.781 84.0113 106.92 84.0987 107.086C83.9038 107.241 83.6895 107.37 83.4614 107.47L86.1734 112.265C86.3081 112.508 86.4899 112.721 86.7081 112.891C86.9263 113.062 87.1764 113.188 87.4438 113.261C87.7113 113.334 87.9905 113.352 88.2653 113.316C88.54 113.279 88.8046 113.188 89.0436 113.047L93.7354 110.385L93.6811 110.354C93.4221 110.256 93.1581 110.174 92.8901 110.105Z" fill="black"/>
</g>
<path opacity="0.3" d="M72.5369 93.9648C75.2941 95.9898 77.5993 105.717 77.8072 114.635C78.0151 123.553 82.3272 138.591 82.8425 141.054C83.3577 143.518 83.1679 147.07 86.3681 142.125C89.5682 137.181 98.9291 128.597 102.83 131.449C106.731 134.301 100.163 143.888 96.6059 149.05C93.0486 154.212 92.687 163.302 88.4247 168.992C84.1623 174.683 80.3113 183.276 76.1348 183.144C71.9583 183.013 44.2959 203.534 44.2959 203.534L44.8383 175.447L69.6983 134.767L72.5369 93.9648Z" fill="black" fill-opacity="0.7"/>
<path d="M105.099 132.828C104.959 133.709 100.091 140.159 97.2297 144.987C94.3685 149.814 91.6881 158.217 90.9695 159.451C90.2508 160.685 81.4775 168.391 79.0728 171.614C76.6682 174.837 72.3742 176.261 68.0847 179.298C65.3275 181.251 56.735 191.326 50.9449 198.282C47.7266 202.147 45.3717 205.062 45.3717 205.062L8.35742 195.412C8.35742 195.412 11.422 192.885 15.4538 189.477H15.4809L15.5216 189.445C22.1479 183.818 31.3823 175.876 33.9316 172.88C38.0403 168.052 43.7626 162.316 43.7626 162.316C43.4145 155.613 44.1242 149.263 43.4959 146.849C43.1705 145.588 42.5919 138.415 42.1399 136.209C41.0415 130.572 36.2639 124.733 35.726 122.432C35.1881 120.131 28.8827 110.336 31.9609 108.528C32.5205 108.176 33.1856 108.031 33.8412 108.117C37.9996 108.691 41.4257 118.735 43.7852 121.293C44.7962 122.504 45.712 123.792 46.5243 125.144C48.3865 128.096 50.2126 131.413 50.2126 131.413C50.9268 128.552 45.7423 118.359 44.3095 108.705C42.8767 99.05 38.768 93.8656 44.3095 93.2689C44.7648 93.2179 45.2257 93.2578 45.6655 93.3864C49.5663 94.5255 51.2567 102.63 53.5891 110.495C53.806 111.218 55.5824 116.411 56.9655 120.416C57.8695 123.038 58.5927 125.148 58.5927 125.148C58.769 120.231 57.2367 115.656 56.9836 111.2C56.8751 109.414 57.4356 102.259 56.7305 95.1086C56.1248 89.0744 56.4005 86.629 58.7599 86.1544C59.2653 86.0635 59.7805 86.0392 60.2922 86.0821C64.3828 86.3398 65.8337 97.2104 65.8337 101.45C65.8337 103.914 66.2541 108.723 66.6067 112.33C66.8643 114.938 67.0858 116.918 67.0858 116.918C67.0858 116.918 67.7999 110.929 67.2666 98.0104C67.1445 95.1809 67.3299 93.1559 68.4418 92.3378C69.052 91.8858 69.9334 91.809 71.199 92.1525C74.7743 93.1198 75.9359 106.368 75.9359 111.376C75.9359 116.384 78.7971 124.963 79.335 131.716C79.8729 138.469 82.2142 146.768 82.2142 146.768C82.2142 146.768 83.5386 147.306 84.429 147.129C85.3195 146.953 91.4938 137.832 91.4938 137.832C94.3685 131.589 99.9643 129.696 103.011 130.396C104.412 130.717 105.316 131.58 105.099 132.828Z" fill="white"/>
<path opacity="0.4" d="M105.099 132.828C104.959 133.71 100.091 140.16 97.2301 144.987C94.369 149.814 91.6886 158.217 90.9699 159.451C90.2512 160.685 81.4779 168.392 79.0733 171.614C76.6686 174.837 72.3746 176.261 68.0852 179.298C65.328 181.251 56.7354 191.326 50.9453 198.282C51.5826 195.76 53.011 192.537 56.7445 189.441C63.2262 184.058 63.6149 179.836 67.0998 176.261C70.5847 172.686 76.7229 173.757 78.9286 169.481C81.1344 165.205 88.8274 161.255 90.4366 157.498C92.0457 153.742 88.8274 152.947 91.6886 148.427C94.5498 143.907 97.325 142.808 96.9182 141.037C96.5114 139.265 95.3091 136.58 97.7906 134.342C99.341 132.95 101.163 131.201 103.025 130.396C104.412 130.717 105.316 131.581 105.099 132.828Z" fill="#C5C7C2"/>
<path opacity="0.4" d="M58.7236 154.045C57.5349 153.449 58.4886 152.26 57.6524 151.27C56.8162 150.28 54.9088 156.671 54.4884 156.694C54.0681 156.717 52.7889 153.444 52.2826 153.119C51.7764 152.793 51.4781 154.163 50.7594 156.694C50.0407 159.225 47.401 160.509 45.8688 162.317C44.3365 164.125 35.1202 173.956 32.8557 177.649C30.5912 181.342 16.6063 188.65 15.5215 189.437C22.1478 183.818 31.3822 175.877 33.9314 172.88C38.0401 168.053 43.7624 162.317 43.7624 162.317C43.4144 155.614 44.124 149.263 43.4958 146.849C43.1703 145.588 42.5918 138.415 42.1398 136.209C41.0414 130.573 36.2638 124.733 35.7259 122.432C35.188 120.132 28.8826 110.337 31.9607 108.529C32.5203 108.177 33.1855 108.031 33.841 108.117C33.1404 108.615 32.4579 109.329 33.0952 110.377C34.2298 112.213 35.4773 114.143 35.4773 116.172C35.4773 118.202 38.9351 121.058 40.2775 122.952C41.62 124.846 40.3679 124.177 41.2629 126.772C42.1578 129.366 43.2291 128.824 43.7624 131.445C44.2958 134.067 47.279 135.739 46.8044 139.007C46.3298 142.275 48.2327 146.822 48.2327 146.822C48.2327 146.822 49.7831 142.415 49.2181 140.042C48.6531 137.669 49.3085 134.677 48.7661 133.872C48.3141 133.149 47.0756 128.241 46.5061 125.19C48.3683 128.141 50.1944 131.459 50.1944 131.459C50.9086 128.598 45.7241 118.405 44.2913 108.75C42.8584 99.0956 38.7498 93.9111 44.2913 93.3145C44.7466 93.2634 45.2075 93.3034 45.6473 93.432C48.0112 97.8481 46.366 101.116 45.8416 103.033C45.2676 105.121 48.6847 110.481 49.191 114.174C49.643 117.623 50.5741 117.266 50.6961 117.203C50.5922 117.298 49.7108 118.197 50.2441 120.755C50.8001 123.467 54.7641 129.908 54.7641 131.707C54.7641 133.506 54.4387 136.467 54.4387 137.344C54.4387 138.221 57.6027 144.088 57.9824 145.624C58.362 147.161 57.8332 142.664 58.6965 141.104C59.5598 139.545 60.0164 134.103 60.1294 134.397C61.6164 138.176 59.9169 154.633 58.7236 154.045Z" fill="#C5C7C2"/>
<path opacity="0.4" d="M61.2867 113.654C60.2742 115.187 60.3014 127.146 58.5747 127.187C57.7385 127.187 57.3317 124.181 56.9927 120.407C57.8967 123.029 58.6199 125.14 58.6199 125.14C58.7962 120.222 57.2639 115.648 57.0108 111.191C56.9023 109.405 57.4628 102.25 56.7577 95.0996C56.152 89.0654 56.4277 86.6201 58.7872 86.1455C59.2844 87.7546 60.5048 89.653 60.8167 91.4158C61.2415 93.8476 60.4099 95.859 59.6957 96.1618C58.9815 96.4647 58.8595 98.0331 59.7544 98.2636C60.6494 98.4941 59.7544 109.907 60.1703 111.372C60.5861 112.836 62.3037 112.145 61.2867 113.654Z" fill="#C5C7C2"/>
<path opacity="0.4" d="M70.5757 100.266C68.718 101.084 68.6185 102.548 68.0626 104.65C67.5066 106.752 68.8581 109.821 68.0626 114.644C67.2671 119.467 70.1689 122.576 68.0626 127.973C65.9563 133.37 66.9461 123.453 66.5936 118.933C66.4721 116.732 66.4812 114.525 66.6207 112.325C66.8783 114.933 67.0998 116.913 67.0998 116.913C67.0998 116.913 67.814 110.924 67.2806 98.0056C67.1586 95.1761 67.3439 93.1511 68.4558 92.333C70.3633 94.0642 72.1577 99.5695 70.5757 100.266Z" fill="#C5C7C2"/>
<path d="M45.3715 205.066C45.3715 205.066 63.7905 182.358 68.0845 179.302C72.3785 176.247 76.6725 174.832 79.0726 171.618C81.4727 168.404 90.2551 160.707 90.9692 159.455C91.6834 158.203 94.3683 149.8 97.2294 144.991C100.091 140.182 104.959 133.691 105.099 132.832C105.723 128.895 95.7107 128.719 91.5071 137.84C91.5071 137.84 85.3373 146.957 84.4423 147.138C83.5474 147.319 82.2275 146.776 82.2275 146.776C82.2275 146.776 79.8862 138.482 79.3483 131.725C78.8104 124.967 75.9493 116.379 75.9493 111.385C75.9493 106.39 74.7876 93.1283 71.2123 92.1611C67.637 91.1938 67.0946 93.6436 67.2799 98.0371C67.8133 110.955 67.0991 116.944 67.0991 116.944C67.0991 116.944 65.847 105.721 65.847 101.477C65.847 97.2325 64.3961 86.3619 60.3055 86.1088C56.5494 85.8692 56.0251 87.9801 56.7438 95.1488C57.4625 102.318 56.8884 109.455 56.9969 111.24C57.2636 115.71 58.8049 120.28 58.606 125.189C58.606 125.189 53.9549 111.724 53.5979 110.526C51.0079 101.748 49.2135 92.708 44.2957 93.2504C38.7542 93.847 42.8674 99.0315 44.2957 108.686C45.724 118.341 50.913 128.534 50.1988 131.395C50.1988 131.395 45.9093 123.607 43.7714 121.274C41.0594 118.341 36.9642 105.558 31.9561 108.51C28.878 110.318 35.2015 120.144 35.7348 122.445C36.2682 124.746 41.0503 130.581 42.1487 136.222C42.6007 138.428 43.1657 145.601 43.5047 146.862C44.133 149.276 43.4233 155.626 43.7714 162.33C43.7714 162.33 38.049 168.052 33.9404 172.879C29.8317 177.707 8.36621 195.411 8.36621 195.411" stroke="#263238" stroke-linecap="round" stroke-linejoin="round"/>
<path d="M82.2275 146.772C83.0525 148.809 83.0525 151.087 82.2275 153.123" stroke="#263238" stroke-linecap="round" stroke-linejoin="round"/>
<path d="M83.7334 147.151C84.2465 147.528 84.6267 148.058 84.8192 148.665C85.0118 149.272 85.0066 149.924 84.8046 150.528" stroke="#263238" stroke-linecap="round" stroke-linejoin="round"/>
<path d="M67.0996 116.913C67.0996 116.913 68.5324 127.015 67.9042 128.891" stroke="#263238" stroke-linecap="round" stroke-linejoin="round"/>
<path d="M58.6064 125.14C58.7599 126.116 58.7599 127.11 58.6064 128.087" stroke="#263238" stroke-linecap="round" stroke-linejoin="round"/>
<path d="M50.2031 131.396C50.2031 131.396 50.4698 132.919 50.2031 133.276" stroke="#263238" stroke-linecap="round" stroke-linejoin="round"/>
<path d="M95.5303 139.979C95.5303 139.979 97.1484 140.855 97.6773 142.126" stroke="#263238" stroke-linecap="round" stroke-linejoin="round"/>
<path d="M58.665 98.0063C59.1895 98.1323 59.7373 98.1242 60.2579 97.9828C60.7784 97.8414 61.255 97.5713 61.6437 97.1973" stroke="#263238" stroke-linecap="round" stroke-linejoin="round"/>
<path d="M59.2119 112.533C59.2119 112.533 62.4302 113.604 63.5963 112.533" stroke="#263238" stroke-linecap="round" stroke-linejoin="round"/>
<path d="M69.6934 115.661C69.6934 115.661 71.8358 114.857 73.2687 115.304" stroke="#263238" stroke-linecap="round" stroke-linejoin="round"/>
<path d="M49.2178 118.522C49.2178 118.522 50.9173 116.285 52.2597 116.913" stroke="#263238" stroke-linecap="round" stroke-linejoin="round"/>
<path d="M42.2435 125.14C42.2435 125.14 40.7248 125.854 40.2773 126.613" stroke="#263238" stroke-linecap="round" stroke-linejoin="round"/>
<path d="M43.7627 162.317C44.1353 161.898 44.4654 161.444 44.7481 160.961C45.0147 160.423 44.6577 154.7 44.7481 151.017" stroke="#263238" stroke-linecap="round" stroke-linejoin="round"/>
<path d="M62.5206 184.844C60.4143 187.203 53.9552 191.479 51.3652 194.069" stroke="#263238" stroke-linecap="round" stroke-linejoin="round"/>
<path d="M71.0318 131.396C69.9606 134.437 71.1222 138.279 71.0318 139.984C70.9414 141.688 70.5798 149.476 70.5798 149.476" stroke="#263238" stroke-linecap="round" stroke-linejoin="round"/>
<path d="M61.2869 131.396C59.8586 133.809 60.306 137.027 60.7535 138.628C61.201 140.228 60.8032 146.764 60.8032 146.764" stroke="#263238" stroke-linecap="round" stroke-linejoin="round"/>
<path d="M45.9092 139.084C45.7909 140.658 46.1034 142.235 46.8132 143.645" stroke="#263238" stroke-linecap="round" stroke-linejoin="round"/>
<path d="M54.7598 134.347C53.9552 137.298 55.031 138.636 55.1214 139.084" stroke="#263238" stroke-linecap="round" stroke-linejoin="round"/>
<path opacity="0.3" d="M127.382 114.856L125.859 106.015C125.792 105.622 125.804 105.22 125.897 104.832C125.989 104.444 126.158 104.079 126.395 103.759C126.632 103.438 126.931 103.169 127.275 102.967C127.618 102.765 127.999 102.635 128.395 102.584L131.807 102.132C131.807 102.132 130.668 99.8224 134.334 93.0921C138 86.3619 155.623 68.4853 168.984 98.5161C182.345 128.547 194.554 189.743 194.554 189.743C194.554 189.743 158.489 147.743 157.341 145.592C156.193 143.44 145.213 144.729 142.678 138.957C140.142 133.185 134.817 116.714 134.817 116.714L130.695 117.279C129.937 117.381 129.168 117.186 128.551 116.735C127.933 116.283 127.514 115.61 127.382 114.856Z" fill="black" fill-opacity="0.7"/>
<path d="M159.167 94.5703L152.247 95.8268L142.628 97.5761L130.031 99.8677C129.789 99.912 129.541 99.9083 129.301 99.8566C129.061 99.8049 128.834 99.7063 128.632 99.5664C128.43 99.4266 128.257 99.2483 128.124 99.0417C127.991 98.8351 127.901 98.6043 127.857 98.3625L125.091 83.1527C125.004 82.665 125.113 82.1627 125.395 81.7554C125.677 81.348 126.109 81.0688 126.596 80.9786L133.923 79.6226L144.581 77.6881L155.732 75.6586C155.973 75.6142 156.221 75.618 156.462 75.6697C156.702 75.7214 156.929 75.82 157.131 75.9599C157.333 76.0997 157.506 76.278 157.639 76.4846C157.772 76.6912 157.862 76.922 157.906 77.1637L160.672 92.3735C160.72 92.6168 160.719 92.8671 160.668 93.1099C160.618 93.3527 160.52 93.583 160.38 93.7875C160.24 93.992 160.061 94.1665 159.852 94.3009C159.644 94.4353 159.411 94.5269 159.167 94.5703Z" fill="#C5C7C2"/>
<mask id="mask0_55247_56639" style="mask-type:luminance" maskUnits="userSpaceOnUse" x="125" y="75" width="36" height="25">
<path d="M159.167 94.5703L152.247 95.8268L142.628 97.5761L130.031 99.8677C129.789 99.912 129.541 99.9083 129.301 99.8566C129.061 99.8049 128.834 99.7063 128.632 99.5664C128.43 99.4266 128.257 99.2483 128.124 99.0417C127.991 98.8351 127.901 98.6043 127.857 98.3625L125.091 83.1527C125.004 82.665 125.113 82.1627 125.395 81.7554C125.677 81.348 126.109 81.0688 126.596 80.9786L133.923 79.6226L144.581 77.6881L155.732 75.6586C155.973 75.6142 156.221 75.618 156.462 75.6697C156.702 75.7214 156.929 75.82 157.131 75.9599C157.333 76.0997 157.506 76.278 157.639 76.4846C157.772 76.6912 157.862 76.922 157.906 77.1637L160.672 92.3735C160.72 92.6168 160.719 92.8671 160.668 93.1099C160.618 93.3527 160.52 93.583 160.38 93.7875C160.24 93.992 160.061 94.1665 159.852 94.3009C159.644 94.4353 159.411 94.5269 159.167 94.5703Z" fill="white"/>
</mask>
<g mask="url(#mask0_55247_56639)">
<path opacity="0.3" d="M154.271 84.473L152.246 95.8272L142.628 97.5765C139.844 96.3516 135.251 94.2181 134.334 93.0565C133.24 91.7005 133.394 83.7091 133.922 79.623L144.581 77.6885C148.337 80.2784 154.271 84.473 154.271 84.473Z" fill="black" fill-opacity="0.7"/>
<path opacity="0.3" d="M131.943 99.5199L130.031 99.868C129.789 99.9123 129.541 99.9085 129.301 99.8568C129.061 99.8051 128.834 99.7065 128.632 99.5667C128.43 99.4269 128.257 99.2486 128.124 99.042C127.991 98.8354 127.901 98.6046 127.857 98.3628L125.091 83.153C125.004 82.6653 125.113 82.163 125.395 81.7556C125.677 81.3483 126.109 81.0691 126.596 80.9789L128.503 80.6309C128.016 80.721 127.585 81.0004 127.304 81.4079C127.023 81.8154 126.914 82.3178 127.003 82.805L129.769 98.0148C129.812 98.2565 129.903 98.4873 130.036 98.6939C130.169 98.9005 130.342 99.0788 130.544 99.2187C130.746 99.3585 130.973 99.4571 131.213 99.5088C131.453 99.5605 131.701 99.5643 131.943 99.5199Z" fill="black" fill-opacity="0.7"/>
</g>
<path d="M159.167 94.5703L152.247 95.8268L142.628 97.5761L130.031 99.8677C129.789 99.912 129.541 99.9083 129.301 99.8566C129.061 99.8049 128.834 99.7063 128.632 99.5664C128.43 99.4266 128.257 99.2483 128.124 99.0417C127.991 98.8351 127.901 98.6043 127.857 98.3625L125.091 83.1527C125.004 82.665 125.113 82.1627 125.395 81.7554C125.677 81.348 126.109 81.0688 126.596 80.9786L133.923 79.6226L144.581 77.6881L155.732 75.6586C155.973 75.6142 156.221 75.618 156.462 75.6697C156.702 75.7214 156.929 75.82 157.131 75.9599C157.333 76.0997 157.506 76.278 157.639 76.4846C157.772 76.6912 157.862 76.922 157.906 77.1637L160.672 92.3735C160.72 92.6168 160.719 92.8671 160.668 93.1099C160.618 93.3527 160.52 93.583 160.38 93.7875C160.24 93.992 160.061 94.1665 159.852 94.3009C159.644 94.4353 159.411 94.5269 159.167 94.5703Z" stroke="#263238" stroke-linecap="round" stroke-linejoin="round"/>
<path d="M157.112 74.8548L128.094 80.1847C127.081 80.3707 126.411 81.3425 126.597 82.3553L129.378 97.5001C129.564 98.513 130.536 99.1832 131.549 98.9972L160.567 93.6673C161.58 93.4812 162.25 92.5094 162.064 91.4966L159.283 76.3518C159.097 75.339 158.125 74.6687 157.112 74.8548Z" stroke="#263238" stroke-width="0.996394" stroke-linecap="round" stroke-linejoin="round"/>
<path d="M156.299 76.6843L128.954 81.6538C128.463 81.7431 128.137 82.2136 128.226 82.7049L130.95 97.6918C131.039 98.183 131.51 98.5089 132.001 98.4196L159.346 93.45C159.838 93.3608 160.163 92.8902 160.074 92.399L157.351 77.412C157.261 76.9208 156.791 76.595 156.299 76.6843Z" stroke="#263238" stroke-linecap="round" stroke-linejoin="round"/>
<path d="M161.079 94.222L159.18 94.5655C159.665 94.4744 160.094 94.195 160.374 93.7885C160.653 93.3819 160.76 92.8813 160.672 92.3959L157.906 77.1861C157.862 76.9443 157.771 76.7136 157.638 76.507C157.505 76.3004 157.333 76.1221 157.131 75.9822C156.929 75.8424 156.701 75.7438 156.461 75.6921C156.221 75.6404 155.973 75.6366 155.731 75.681L157.643 75.3329C158.131 75.2458 158.633 75.3553 159.041 75.6372C159.448 75.9192 159.727 76.3509 159.818 76.8381L162.584 92.0479C162.671 92.5356 162.561 93.0379 162.279 93.4453C161.997 93.8526 161.566 94.1318 161.079 94.222Z" stroke="#263238" stroke-linecap="round" stroke-linejoin="round"/>
<path d="M216.056 142.944L197.338 193.152C197.338 193.152 189.51 178.236 182.278 164.432C176.501 153.394 171.104 143.043 170.377 141.52C168.745 138.089 163.172 130.902 163.172 130.902C163.172 130.902 157.454 127.63 154.837 121.93C152.22 116.23 149.341 95.8407 149.341 95.8407C149.341 95.8407 141.824 93.0112 140.029 91.7727C138.235 90.5343 136.599 79.0896 136.599 77.7833C136.599 76.4771 138.407 73.86 138.407 73.86C138.407 73.86 138.004 71.9435 140.301 70.0089C141.051 69.3928 141.883 68.8833 142.773 68.4947H142.818C142.818 68.4947 142.52 64.1691 144.771 62.908C144.878 62.8472 144.99 62.7943 145.105 62.7498C147.112 61.9769 153.693 60.978 153.693 60.978C154.624 60.1605 155.707 59.5352 156.88 59.1383C158.046 58.8174 164.446 60.3045 168.022 61.1859C169.459 61.5384 170.44 61.7916 170.44 61.7916C170.44 61.7916 176.488 62.0673 177.631 62.7498C178.429 63.2728 179.158 63.8939 179.801 64.5985L179.914 64.7296C179.914 64.7296 185.306 65.8505 186.45 67.8258C187.593 69.801 188.081 79.6004 187.268 85.969C186.454 92.3377 187.914 103.145 187.914 103.145C187.914 103.145 189.6 111.493 190.906 114.662C192.213 117.831 216.056 142.944 216.056 142.944Z" fill="white"/>
<path opacity="0.4" d="M182.278 164.431C176.501 153.393 171.104 143.042 170.377 141.519C168.745 138.088 163.172 130.902 163.172 130.902C163.172 130.902 157.454 127.629 154.837 121.929C152.22 116.23 149.341 95.8399 149.341 95.8399C149.341 95.8399 141.824 93.0104 140.029 91.7719C138.235 90.5335 136.599 79.0888 136.599 77.7825C136.599 76.4763 138.407 73.8592 138.407 73.8592C138.407 73.8592 138.004 71.9427 140.301 70.0081C140.301 70.5234 140.301 71.3913 140.301 72.7563C140.246 75.3463 143.297 90.9629 144.052 90.4883C144.807 90.0137 145.973 88.8701 145.666 87.8621C145.666 87.8621 144.188 81.8008 142.791 68.4939H142.836C142.836 68.4939 142.538 64.1683 144.789 62.9072C144.402 63.8439 144.153 64.8322 144.052 65.8407C144.002 67.947 146.506 85.9954 147.487 86.4519C148.468 86.9084 150.954 84.5038 150.954 84.5038C150.954 84.5038 150.104 79.3826 150.407 77.1995C150.407 77.1995 157.969 81.8099 158.195 87.044C158.218 87.6181 159.669 95.8219 159.669 95.8219C159.669 95.8219 153.164 108.207 159.804 119.507C159.804 119.507 156.428 117.482 155.623 114.263C155.623 114.263 154.642 123.728 161.617 128.727C161.617 128.727 166.62 123.814 171.561 123.19C171.561 123.19 171.651 123.516 168.343 126.124C165.034 128.732 164.586 129.894 164.586 129.894C164.586 129.894 168.166 126.278 171.027 126.124C171.027 126.124 168.076 129.537 168.166 130.251C168.257 130.965 176.605 145.239 179.643 155.197C180.881 159.355 181.726 162.356 182.278 164.431Z" fill="#C5C7C2"/>
<path opacity="0.4" d="M158.837 69.7016C158.837 69.7016 161.246 71.5096 161.96 69.7016C162.37 68.7341 162.631 67.7099 162.733 66.6641C162.733 66.6641 163.66 66.2392 164.541 68.4721C165.423 70.705 174.259 71.2745 176.329 72.4181C178.399 73.5616 179.222 72.4181 179.222 72.4181C179.704 72.8144 180.035 73.3648 180.159 73.9766C180.282 74.5884 180.191 75.2241 179.9 75.7764C178.897 77.8511 181.74 78.0364 182.843 76.5087C183.946 74.9809 183.091 80.8795 180.366 81.4807C180.366 81.4807 180.443 84.0571 178.689 85.8244H180.176C180.176 85.8244 176.216 88.9658 175.163 89.1376C174.11 89.3093 179.082 91.0676 178.16 91.4382C177.238 91.8089 174.625 91.7772 174.625 91.7772C174.625 91.7772 176.316 92.9479 176.329 93.7208C176.343 94.4938 175.529 95.0768 175.163 94.4305C174.797 93.7841 171.877 84.5272 170.422 81.1055C168.966 77.6839 162.955 74.9764 158.837 69.7016Z" fill="#C5C7C2"/>
<path opacity="0.4" d="M179.796 64.5659C174.724 63.1783 167.922 61.203 167.922 61.203L168.017 61.1533C169.454 61.5059 170.435 61.759 170.435 61.759C170.435 61.759 176.483 62.0347 177.626 62.7172C178.424 63.2402 179.153 63.8613 179.796 64.5659Z" fill="#C5C7C2"/>
<path d="M172.664 72.5443C168.252 71.6403 165.102 75.41 165.102 75.41C165.102 75.41 169.486 79.3785 170.458 81.0826C171.43 82.7866 173.043 88.5315 173.043 88.5315C174.892 88.8299 178.3 86.9224 179.118 81.86C179.936 76.7976 177.052 73.4438 172.664 72.5443Z" fill="#C5C7C2"/>
<path d="M197.338 193.151C197.338 193.151 172.026 144.95 170.377 141.519C168.727 138.089 163.172 130.902 163.172 130.902C163.172 130.902 157.454 127.629 154.837 121.93C152.22 116.23 149.341 95.8403 149.341 95.8403C149.341 95.8403 141.824 93.0107 140.029 91.7723C138.235 90.5338 136.599 79.0891 136.599 77.7829C136.599 76.4766 138.407 73.8595 138.407 73.8595C138.407 73.8595 137.756 70.7633 142.818 68.4717C142.818 68.4717 142.493 63.7302 145.105 62.7268C147.112 61.9538 153.693 60.9549 153.693 60.9549C154.624 60.1374 155.707 59.5122 156.88 59.1153C158.512 58.6633 170.44 61.7685 170.44 61.7685C170.44 61.7685 176.488 62.0442 177.631 62.7268C178.468 63.2784 179.229 63.9363 179.896 64.6839C179.896 64.6839 185.288 65.8049 186.432 67.7801C187.575 69.7554 188.063 79.5547 187.25 85.9234C186.436 92.2921 187.896 103.099 187.896 103.099C187.896 103.099 189.582 111.448 190.888 114.616C192.195 117.785 216.056 142.943 216.056 142.943" stroke="#263238" stroke-linecap="round" stroke-linejoin="round"/>
<path d="M175.909 95.176C175.909 95.176 174.765 94.9319 173.296 89.5395C171.827 84.1472 171.438 81.625 168.392 78.4294C166.231 76.1694 161.286 72.4765 158.837 69.7012C156.387 66.926 153.679 64.684 151.564 66.4016C149.873 67.7576 148.771 71.2787 150.258 76.7118C152.17 83.6906 158.199 87.0128 158.199 87.0128L159.673 95.7907C159.673 95.7907 153.277 108.6 160.486 120.691" stroke="#263238" stroke-linecap="round" stroke-linejoin="round"/>
<path d="M165.079 75.4098C165.079 75.4098 168.243 71.6446 172.641 72.5441C177.039 73.4436 179.896 76.7929 179.096 81.8598C178.296 86.9268 174.869 88.8297 173.021 88.5314" stroke="#263238" stroke-linecap="round" stroke-linejoin="round"/>
<path d="M153.68 60.9463C153.019 62.6069 152.511 64.324 152.161 66.0765" stroke="#263238" stroke-linecap="round" stroke-linejoin="round"/>
<path d="M151.004 78.6465C151.004 78.6465 151.384 84.2287 152.17 85.9418C152.957 87.6548 154.263 89.047 154.832 91.2528C155.402 93.4585 155.488 96.8892 155.65 97.3819C155.813 97.8746 156.758 98.0011 156.758 98.0011C158.114 98.0328 158.661 97.3276 159.443 96.2519" stroke="#263238" stroke-linecap="round" stroke-linejoin="round"/>
<path d="M142.832 68.4629C142.832 68.4629 144.057 80.3866 145.038 85.4536C146.019 90.5205 147.75 91.2527 150.593 92.889C153.436 94.5252 155.004 97.861 155.253 98.3627C155.502 98.8644 156.433 98.9187 156.433 98.9187C156.98 98.8731 157.507 98.6918 157.966 98.3911C158.426 98.0904 158.803 97.6798 159.063 97.1965" stroke="#263238" stroke-linecap="round" stroke-linejoin="round"/>
<path d="M138.412 73.8506C138.104 74.3252 140.726 86.4343 142.091 89.9463C143.456 93.4583 143.61 94.0143 147.221 95.0087C150.833 96.0031 153.576 97.6574 154.552 97.0743" stroke="#263238" stroke-linecap="round" stroke-linejoin="round"/>
<path d="M163.492 67.1514C163.492 67.1514 165.368 71.6442 164.13 74.6003" stroke="#263238" stroke-linecap="round" stroke-linejoin="round"/>
<path d="M170.436 61.7598C173.51 62.9751 176.672 63.9527 179.896 64.6842" stroke="#263238" stroke-linecap="round" stroke-linejoin="round"/>
<path d="M182.856 77.2861C182.856 77.2861 181.419 79.9123 179.24 80.4773" stroke="#263238" stroke-linecap="round" stroke-linejoin="round"/>
<path d="M179.236 74.4248C179.236 74.4248 178.721 75.7808 178.174 76.156" stroke="#263238" stroke-linecap="round" stroke-linejoin="round"/>
<path d="M181.044 85.209C181.044 85.209 177.776 87.6814 174.639 88.3233" stroke="#263238" stroke-linecap="round" stroke-linejoin="round"/>
<path d="M173.297 89.5439C173.297 89.5439 174.653 91.257 178.174 91.4197" stroke="#263238" stroke-linecap="round" stroke-linejoin="round"/>
<path d="M162.72 82.0455C162.72 82.0455 165.92 78.9719 167.746 79.3968" stroke="#263238" stroke-linecap="round" stroke-linejoin="round"/>
<path d="M168.985 82.6689C168.985 82.6689 166.562 84.4769 166.119 84.4769" stroke="#263238" stroke-linecap="round" stroke-linejoin="round"/>
<path d="M144.038 92.2562C144.038 92.2562 144.843 92.4054 145.471 91.4336" stroke="#263238" stroke-linecap="round" stroke-linejoin="round"/>
<path d="M146.899 87.8537C146.899 87.8537 148.843 86.6514 150.113 86.4209" stroke="#263238" stroke-linecap="round" stroke-linejoin="round"/>
<path d="M164.021 128.624C164.424 128.267 168.18 125.229 170.503 124.153" stroke="#263238" stroke-linecap="round" stroke-linejoin="round"/>
<path d="M168.894 127.187C168.627 127.105 166.494 129.338 165.368 130.233" stroke="#263238" stroke-linecap="round" stroke-linejoin="round"/>
<path d="M169.952 133.809C169.952 133.809 177.107 147.369 178.716 152.793" stroke="#263238" stroke-linecap="round" stroke-linejoin="round"/>
<path d="M190.906 114.635C191.512 117.966 193.478 120.42 194.554 121.749" stroke="#263238" stroke-linecap="round" stroke-linejoin="round"/>
<path opacity="0.4" d="M168.352 73.8507C167.312 74.4926 168.406 76.5899 168.985 77.6611C169.563 78.7323 172.149 80.4364 172.687 82.0455C173.225 83.6546 176.624 83.6094 177.659 82.0455C178.694 80.4816 178.563 77.3582 175.742 74.9807C172.922 72.6032 169.83 72.9467 168.352 73.8507Z" fill="white"/>
<path d="M148.504 163.93C143.901 163.147 139.168 163.948 135.078 166.2C130.988 168.453 127.782 172.024 125.982 176.333C124.183 180.642 123.896 185.433 125.169 189.925C126.442 194.418 129.199 198.346 132.992 201.071" stroke="#263238" stroke-linecap="round" stroke-linejoin="round"/>
<path d="M157.115 167.532C155.199 166.148 153.058 165.105 150.787 164.449" stroke="#263238" stroke-linecap="round" stroke-linejoin="round"/>
<path d="M155.036 202.355C157.822 200.812 160.213 198.646 162.023 196.026C163.833 193.406 165.012 190.403 165.468 187.251C165.924 184.1 165.645 180.886 164.652 177.86C163.659 174.834 161.98 172.079 159.746 169.811" stroke="#263238" stroke-linecap="round" stroke-linejoin="round"/>
<path d="M156.035 208.872L157.264 209.957L155.348 203.39" stroke="#263238" stroke-linecap="round" stroke-linejoin="round"/>
<path d="M141.57 204.651C144.609 205.172 147.727 205.004 150.692 204.158L154.583 207.593" stroke="#263238" stroke-linecap="round" stroke-linejoin="round"/>
<path d="M136.834 203.249C137.605 203.581 138.396 203.867 139.202 204.103" stroke="#263238" stroke-linecap="round" stroke-linejoin="round"/>
<path d="M146.669 174.244C149.229 174.682 151.533 176.062 153.127 178.113C154.72 180.164 155.488 182.737 155.28 185.326C155.072 187.915 153.901 190.332 152 192.102C150.099 193.871 147.604 194.865 145.007 194.887C142.41 194.909 139.898 193.959 137.967 192.222C136.035 190.486 134.824 188.089 134.571 185.504C134.318 182.919 135.042 180.333 136.6 178.255C138.158 176.177 140.438 174.757 142.99 174.276" stroke="#263238" stroke-linecap="round" stroke-linejoin="round"/>
<path d="M142.99 195.846C139.979 195.333 137.296 193.645 135.529 191.154C133.763 188.663 133.058 185.572 133.57 182.562" stroke="#263238" stroke-linecap="round" stroke-linejoin="round"/>
<path d="M155.754 188.405C155.045 190.366 153.818 192.097 152.203 193.415C150.588 194.733 148.646 195.589 146.583 195.89" stroke="#263238" stroke-linecap="round" stroke-linejoin="round"/>
<path d="M134.456 179.686C135.623 177.149 137.672 175.122 140.223 173.983C142.773 172.844 145.65 172.67 148.319 173.494C150.987 174.319 153.265 176.085 154.729 178.464C156.192 180.842 156.741 183.672 156.274 186.426" stroke="#263238" stroke-linecap="round" stroke-linejoin="round"/>
<path d="M151.836 180.342L151.967 180.202" stroke="#263238" stroke-width="2" stroke-linecap="round" stroke-linejoin="round"/>
<path d="M149.991 182.331L150.909 181.341" stroke="#263238" stroke-width="2" stroke-linecap="round" stroke-linejoin="round"/>
<path d="M138.732 183.79L143.167 189.684L149.187 183.198" stroke="#263238" stroke-width="2" stroke-linecap="round" stroke-linejoin="round"/>
</svg>
