<svg width="228" height="228" viewBox="0 0 228 228" fill="none" xmlns="http://www.w3.org/2000/svg">
<path d="M209.414 62.7096C208.315 54.155 206.171 45.9516 201.662 38.4777C193.344 24.5925 178.296 16.2021 163.079 11.9477C150.311 8.38175 136.559 7.35119 123.822 11.0357C109.841 15.0804 98.1086 24.3919 85.5184 31.6925C76.3022 36.9588 66.6805 41.4814 56.7449 45.2174C48.7284 48.2863 38.5413 50.0054 31.9521 55.8331C27.9193 59.4332 24.3433 63.5145 21.3045 67.9855C9.00166 85.9109 5.01622 108.811 6.89494 130.188C8.2219 145.081 12.3168 160.152 21.4869 171.949C34.3781 188.506 56.5077 196.664 77.388 194.608C101.1 192.273 123.558 178.105 147.124 181.507C158.857 183.198 170.084 189.227 181.885 188.105C193.517 187.002 203.472 178.985 210.49 169.66C216.117 162.168 219.861 153.107 220.207 143.668C220.586 133.458 215.962 124.146 213.641 114.397C209.605 97.3565 211.625 79.9236 209.414 62.7096Z" fill="#63BD80"/>
<path opacity="0.7" d="M209.414 62.7096C208.315 54.155 206.171 45.9516 201.662 38.4777C193.344 24.5925 178.296 16.2021 163.079 11.9477C150.311 8.38175 136.559 7.35119 123.822 11.0357C109.841 15.0804 98.1086 24.3919 85.5184 31.6925C76.3022 36.9588 66.6805 41.4814 56.7449 45.2174C48.7284 48.2863 38.5413 50.0054 31.9521 55.8331C27.9193 59.4332 24.3433 63.5145 21.3045 67.9855C9.00166 85.9109 5.01622 108.811 6.89494 130.188C8.2219 145.081 12.3168 160.152 21.4869 171.949C34.3781 188.506 56.5077 196.664 77.388 194.608C101.1 192.273 123.558 178.105 147.124 181.507C158.857 183.198 170.084 189.227 181.885 188.105C193.517 187.002 203.472 178.985 210.49 169.66C216.117 162.168 219.861 153.107 220.207 143.668C220.586 133.458 215.962 124.146 213.641 114.397C209.605 97.3565 211.625 79.9236 209.414 62.7096Z" fill="white"/>
<path d="M152.729 143.75H219.277V141.242H152.729V143.75Z" stroke="#263238" stroke-linecap="round" stroke-linejoin="round"/>
<path d="M155.816 211.584H216.19V143.822H155.816V211.584Z" stroke="#263238" stroke-linecap="round" stroke-linejoin="round"/>
<path d="M157.991 161.68H214.093V146.978H157.991V161.68Z" stroke="#263238" stroke-linecap="round" stroke-linejoin="round"/>
<path d="M183.331 155.679H188.939V152.97H183.331V155.679Z" fill="#263238" stroke="#263238" stroke-linecap="round" stroke-linejoin="round"/>
<path d="M157.991 180.253H214.093V165.551H157.991V180.253Z" stroke="#263238" stroke-linecap="round" stroke-linejoin="round"/>
<path d="M183.331 174.256H188.939V171.547H183.331V174.256Z" fill="#263238" stroke="#263238" stroke-linecap="round" stroke-linejoin="round"/>
<path d="M157.991 198.907H214.093V184.206H157.991V198.907Z" stroke="#263238" stroke-linecap="round" stroke-linejoin="round"/>
<path d="M183.331 192.911H188.939V190.202H183.331V192.911Z" fill="#263238" stroke="#263238" stroke-linecap="round" stroke-linejoin="round"/>
<path d="M188.784 111.597C189.464 111.894 191.128 111.857 191.128 111.857C191.128 111.857 190.772 110.767 190.741 110.699C190.376 109.937 189.222 108.674 188.283 108.802C188.126 108.827 187.977 108.884 187.844 108.97C187.711 109.056 187.598 109.17 187.512 109.303C187.426 109.436 187.369 109.585 187.344 109.742C187.32 109.898 187.329 110.058 187.371 110.211C187.493 110.53 187.682 110.819 187.926 111.059C188.17 111.298 188.463 111.482 188.784 111.597Z" fill="#263238"/>
<path d="M205.597 111.962C205.597 111.962 205.898 110.858 205.907 110.785C206.026 109.946 205.757 108.259 204.904 107.844C204.76 107.779 204.604 107.746 204.446 107.746C204.288 107.746 204.132 107.779 203.987 107.844C203.843 107.909 203.714 108.003 203.609 108.121C203.504 108.239 203.425 108.377 203.377 108.528C203.301 108.861 203.298 109.206 203.368 109.539C203.438 109.873 203.579 110.188 203.783 110.462C204.188 111.073 205.593 111.962 205.597 111.962Z" fill="#263238"/>
<path d="M210.563 105.934C209.619 105.833 208.497 107.124 208.155 107.895C208.123 107.963 207.781 109.062 207.8 109.062C207.622 109.263 207.43 109.481 207.23 109.728C206.86 110.184 206.45 110.694 206.039 111.287C205.589 111.917 205.176 112.573 204.804 113.253C204.38 114.012 204.025 114.809 203.746 115.633C203.746 115.633 203.746 115.633 203.746 115.66C203.746 115.382 203.746 114.607 203.746 114.548C203.636 113.709 202.934 112.149 201.999 111.976C201.844 111.952 201.685 111.961 201.533 112.003C201.381 112.044 201.24 112.117 201.118 112.217C200.996 112.317 200.897 112.441 200.827 112.582C200.756 112.723 200.716 112.876 200.709 113.034C200.724 113.375 200.814 113.709 200.971 114.012C201.129 114.315 201.35 114.58 201.621 114.789C202.154 115.245 203.627 115.724 203.746 115.761C203.483 116.604 203.274 117.463 203.121 118.332C203.034 118.843 202.957 119.354 202.888 119.869C202.888 119.632 202.888 119.413 202.888 119.386C202.779 118.547 202.077 116.987 201.147 116.818C200.991 116.793 200.832 116.801 200.679 116.842C200.527 116.883 200.385 116.955 200.263 117.055C200.14 117.154 200.04 117.278 199.97 117.419C199.899 117.56 199.858 117.714 199.851 117.872C199.867 118.213 199.956 118.547 200.114 118.85C200.271 119.154 200.493 119.419 200.763 119.627C201.398 120.048 202.093 120.368 202.825 120.576C202.802 120.777 202.774 120.973 202.752 121.173C202.638 122.122 202.528 123.075 202.391 124C202.346 124.329 202.287 124.648 202.227 124.972C202.227 124.757 202.227 124.575 202.227 124.548C202.118 123.709 201.416 122.154 200.481 121.98C200.325 121.956 200.167 121.964 200.015 122.005C199.863 122.046 199.722 122.119 199.6 122.218C199.478 122.318 199.379 122.442 199.308 122.582C199.237 122.723 199.197 122.877 199.19 123.034C199.205 123.375 199.295 123.709 199.452 124.012C199.61 124.316 199.832 124.581 200.102 124.789C200.718 125.196 201.393 125.504 202.104 125.701C202.036 126.03 201.967 126.358 201.885 126.673C201.821 126.882 201.78 127.092 201.707 127.302C201.634 127.512 201.571 127.721 201.507 127.927C201.365 128.319 201.219 128.725 201.051 129.103C200.95 129.363 200.85 129.614 200.75 129.865C200.8 129.541 200.887 128.902 200.887 128.848C200.876 128.103 200.675 127.373 200.303 126.727C200.311 126.553 200.28 126.378 200.212 126.218C200.143 126.057 200.039 125.913 199.908 125.798C199.777 125.683 199.621 125.599 199.452 125.552C199.284 125.505 199.107 125.497 198.935 125.528C198.023 125.774 197.439 127.379 197.394 128.228C197.394 128.278 197.426 128.82 197.453 129.162C197.403 128.966 197.362 128.77 197.312 128.565C197.216 128.159 197.106 127.758 196.992 127.329C196.933 127.12 196.869 126.91 196.805 126.7C196.742 126.49 196.655 126.276 196.582 126.062C196.404 125.565 196.194 125.072 195.975 124.58C196.716 124.424 197.428 124.157 198.087 123.786C198.371 123.598 198.61 123.349 198.788 123.059C198.966 122.768 199.079 122.442 199.117 122.104C199.122 121.946 199.093 121.789 199.033 121.644C198.972 121.498 198.882 121.367 198.767 121.258C198.653 121.15 198.517 121.067 198.368 121.014C198.22 120.962 198.061 120.942 197.904 120.954C196.96 121.059 196.144 122.56 195.975 123.389C195.975 123.44 195.907 124.051 195.884 124.384C195.747 124.087 195.615 123.795 195.469 123.499C195.05 122.651 194.594 121.807 194.147 120.959C194.01 120.704 193.878 120.444 193.741 120.184C193.869 120.152 195.369 119.805 195.93 119.372C196.214 119.184 196.453 118.935 196.631 118.645C196.809 118.354 196.922 118.028 196.96 117.689C196.965 117.532 196.936 117.375 196.876 117.229C196.815 117.084 196.725 116.952 196.611 116.844C196.496 116.736 196.36 116.652 196.211 116.6C196.063 116.548 195.905 116.527 195.747 116.54C194.808 116.645 193.987 118.145 193.819 118.975C193.819 119.035 193.727 119.91 193.718 120.134C193.422 119.564 193.13 118.994 192.866 118.414C192.51 117.639 192.205 116.841 191.954 116.025C192.013 116.025 193.581 115.656 194.156 115.213C194.44 115.025 194.679 114.777 194.857 114.486C195.035 114.195 195.148 113.869 195.187 113.531C195.191 113.373 195.162 113.216 195.102 113.071C195.042 112.925 194.951 112.794 194.837 112.685C194.722 112.577 194.586 112.494 194.438 112.441C194.289 112.389 194.131 112.369 193.974 112.382C193.034 112.486 192.213 113.987 192.045 114.812C192.045 114.867 191.972 115.537 191.949 115.856H191.899C191.661 115.029 191.499 114.182 191.415 113.326C191.361 112.87 191.338 112.414 191.324 111.958C192.09 111.887 192.841 111.699 193.55 111.401C193.853 111.244 194.118 111.023 194.326 110.752C194.535 110.482 194.682 110.17 194.758 109.837C194.779 109.681 194.767 109.522 194.723 109.371C194.679 109.22 194.603 109.08 194.501 108.96C194.399 108.84 194.273 108.743 194.131 108.675C193.989 108.607 193.835 108.569 193.677 108.565C192.729 108.565 191.753 109.965 191.493 110.772C191.493 110.813 191.384 111.274 191.32 111.611C191.32 111.415 191.32 111.21 191.32 111.018C191.32 110.298 191.365 109.65 191.411 109.062C191.438 108.734 191.47 108.433 191.502 108.15C192.146 107.735 192.723 107.225 193.212 106.636C193.408 106.357 193.542 106.039 193.602 105.704C193.663 105.368 193.65 105.023 193.563 104.693C193.51 104.545 193.426 104.41 193.317 104.296C193.208 104.183 193.077 104.093 192.931 104.033C192.785 103.974 192.629 103.945 192.471 103.95C192.314 103.954 192.159 103.992 192.017 104.06C191.178 104.516 190.955 106.189 191.105 107.024C191.105 107.097 191.434 108.205 191.447 108.196C191.411 108.465 191.374 108.752 191.338 109.066C191.283 109.646 191.224 110.302 191.206 111.023C191.18 111.798 191.198 112.575 191.26 113.348C191.327 114.214 191.471 115.071 191.689 115.911V115.943C191.539 115.706 191.101 115.067 191.06 115.031C190.508 114.393 189.058 113.481 188.187 113.85C188.044 113.916 187.917 114.01 187.813 114.128C187.709 114.246 187.631 114.385 187.584 114.535C187.537 114.685 187.523 114.843 187.541 114.999C187.559 115.156 187.61 115.306 187.69 115.441C187.889 115.718 188.146 115.949 188.442 116.116C188.739 116.284 189.069 116.385 189.409 116.413C190.116 116.513 191.598 116.084 191.716 116.048C191.966 116.898 192.27 117.732 192.628 118.542C192.834 118.998 193.053 119.482 193.281 119.951L193.002 119.554C192.446 118.912 191.001 118.004 190.13 118.373C189.986 118.438 189.858 118.533 189.754 118.651C189.65 118.769 189.572 118.908 189.525 119.058C189.478 119.208 189.463 119.367 189.482 119.523C189.5 119.679 189.552 119.83 189.633 119.965C189.831 120.242 190.088 120.472 190.385 120.64C190.682 120.808 191.012 120.909 191.352 120.936C192.113 120.936 192.869 120.819 193.595 120.59C193.686 120.767 193.773 120.95 193.86 121.128C194.316 121.985 194.721 122.838 195.123 123.686C195.264 123.982 195.392 124.283 195.519 124.598C195.401 124.42 195.296 124.274 195.278 124.251C194.726 123.613 193.276 122.701 192.405 123.07C192.262 123.136 192.134 123.232 192.031 123.35C191.927 123.469 191.849 123.607 191.802 123.758C191.755 123.908 191.74 124.067 191.759 124.223C191.777 124.38 191.828 124.531 191.908 124.666C192.108 124.942 192.365 125.171 192.662 125.338C192.958 125.505 193.288 125.606 193.627 125.633C194.368 125.636 195.104 125.525 195.811 125.305C195.934 125.615 196.058 125.925 196.162 126.217C196.226 126.426 196.308 126.627 196.363 126.841L196.541 127.471C196.637 127.876 196.737 128.291 196.824 128.693C196.883 128.966 196.938 129.231 196.992 129.495C196.856 129.199 196.577 128.615 196.536 128.583C196.08 127.867 194.794 126.759 193.878 126.983C193.727 127.026 193.586 127.101 193.466 127.202C193.345 127.303 193.247 127.429 193.178 127.57C193.109 127.711 193.07 127.866 193.064 128.023C193.058 128.18 193.085 128.337 193.144 128.483C193.299 128.786 193.519 129.053 193.787 129.263C194.056 129.473 194.367 129.622 194.699 129.7C195.468 129.818 196.251 129.818 197.02 129.7C197.111 130.156 197.193 130.571 197.261 130.977C197.416 131.866 197.535 132.664 197.626 133.344H193.892V141.196H203.714V133.33H199.915C200.162 132.783 200.431 132.163 200.713 131.474C200.887 131.05 201.064 130.594 201.242 130.129C201.42 130.166 202.879 130.462 203.559 130.307C203.895 130.255 204.216 130.13 204.498 129.941C204.781 129.752 205.019 129.503 205.196 129.213C205.266 129.072 205.306 128.918 205.313 128.76C205.32 128.603 205.294 128.446 205.236 128.299C205.177 128.153 205.089 128.021 204.976 127.911C204.863 127.801 204.728 127.716 204.58 127.662C203.668 127.357 202.3 128.378 201.808 129.062C201.776 129.099 201.502 129.573 201.352 129.874C201.425 129.682 201.498 129.495 201.566 129.299C201.712 128.907 201.844 128.51 201.986 128.091C202.049 127.881 202.109 127.671 202.173 127.462C202.236 127.252 202.287 127.006 202.341 126.805C202.464 126.29 202.565 125.765 202.651 125.232C203.353 125.514 204.095 125.685 204.849 125.738C205.19 125.738 205.527 125.664 205.836 125.52C206.145 125.375 206.418 125.165 206.637 124.903C206.728 124.775 206.79 124.628 206.821 124.473C206.851 124.319 206.848 124.16 206.813 124.006C206.778 123.852 206.711 123.708 206.616 123.582C206.521 123.456 206.401 123.352 206.263 123.275C205.419 122.842 203.91 123.645 203.308 124.242C203.271 124.279 202.888 124.753 202.683 125.022C202.733 124.698 202.784 124.379 202.825 124.055C202.943 123.116 203.03 122.158 203.126 121.21C203.153 120.918 203.185 120.626 203.217 120.334C203.335 120.38 204.781 120.918 205.497 120.868C206.126 120.822 206.919 120.594 207.284 120.033C207.374 119.904 207.436 119.757 207.466 119.603C207.495 119.448 207.492 119.289 207.457 119.135C207.421 118.982 207.353 118.838 207.259 118.712C207.164 118.586 207.044 118.482 206.906 118.405C206.067 117.949 204.553 118.77 203.955 119.368C203.91 119.413 203.358 120.102 203.23 120.28C203.299 119.637 203.372 118.998 203.468 118.373C203.596 117.528 203.778 116.692 204.015 115.87C204.069 115.87 205.574 116.458 206.295 116.408C206.635 116.407 206.972 116.332 207.281 116.188C207.589 116.044 207.863 115.834 208.082 115.574C208.173 115.445 208.236 115.298 208.266 115.144C208.297 114.989 208.294 114.83 208.259 114.676C208.223 114.523 208.156 114.378 208.061 114.252C207.967 114.126 207.846 114.022 207.708 113.946C206.865 113.512 205.355 114.31 204.753 114.908C204.712 114.949 204.297 115.473 204.101 115.724H204.056C204.315 114.902 204.648 114.106 205.05 113.344C205.264 112.924 205.506 112.532 205.725 112.158C206.404 112.52 207.134 112.777 207.891 112.92C208.23 112.955 208.573 112.916 208.896 112.806C209.218 112.696 209.513 112.517 209.76 112.281C209.864 112.163 209.942 112.024 209.988 111.874C210.035 111.724 210.049 111.566 210.031 111.41C210.012 111.254 209.961 111.104 209.881 110.968C209.8 110.833 209.693 110.717 209.564 110.626C208.771 110.102 207.184 110.731 206.523 111.26C206.486 111.287 206.153 111.62 205.912 111.866C206.021 111.698 206.126 111.52 206.235 111.365C206.628 110.767 207.029 110.243 207.389 109.782C207.594 109.522 207.786 109.294 207.964 109.08C208.736 109.087 209.504 108.978 210.244 108.756C210.562 108.634 210.849 108.443 211.085 108.197C211.322 107.951 211.501 107.656 211.612 107.334C211.654 107.171 211.66 107.001 211.627 106.836C211.595 106.671 211.526 106.515 211.425 106.381C211.324 106.246 211.194 106.136 211.045 106.059C210.896 105.981 210.731 105.939 210.563 105.934ZM200.125 131.255C199.788 132.04 199.459 132.737 199.177 133.33H198.178C198.073 132.628 197.932 131.794 197.722 130.859C197.635 130.403 197.53 129.947 197.421 129.45C197.864 129.27 198.296 129.066 198.716 128.839C199.288 129.329 199.925 129.739 200.608 130.056C200.463 130.471 200.294 130.872 200.125 131.255Z" fill="#263238"/>
<path d="M12.9824 144.534L18.272 195.209" stroke="#263238" stroke-width="2" stroke-miterlimit="10"/>
<path d="M17.4191 185.51L15.0205 182.979" stroke="#263238" stroke-width="2" stroke-miterlimit="10"/>
<path d="M15.7509 183.736C15.745 183.349 15.657 182.968 15.4927 182.617C15.3284 182.267 15.0916 181.955 14.7979 181.703C14.1823 181.155 10.9401 179.792 10.6346 180.932C10.3017 182.172 13.6168 184.607 15.7509 183.736Z" fill="#63BD80" stroke="#263238" stroke-miterlimit="10"/>
<path d="M15.7505 183.736L12.668 181.816" stroke="#263238" stroke-width="0.5" stroke-miterlimit="10"/>
<path d="M18.0216 191.274L15.623 188.743" stroke="#263238" stroke-width="2" stroke-miterlimit="10"/>
<path d="M16.3525 189.5C16.3466 189.113 16.2586 188.731 16.0943 188.381C15.93 188.03 15.6931 187.718 15.3994 187.466C14.7838 186.919 11.5417 185.556 11.2362 186.696C10.9033 187.936 14.2184 190.371 16.3525 189.5Z" fill="#63BD80" stroke="#263238" stroke-miterlimit="10"/>
<path d="M16.3521 189.5L13.2695 187.58" stroke="#263238" stroke-width="0.5" stroke-miterlimit="10"/>
<path d="M15.9513 171.447L13.5527 168.916" stroke="#263238" stroke-width="2" stroke-miterlimit="10"/>
<path d="M14.2822 169.673C14.2762 169.285 14.1882 168.904 14.0239 168.553C13.8597 168.203 13.6228 167.891 13.3291 167.639C12.7135 167.087 9.47136 165.728 9.16584 166.868C8.83296 168.109 12.1481 170.544 14.2822 169.673Z" fill="#63BD80" stroke="#263238" stroke-miterlimit="10"/>
<path d="M14.2818 169.673L11.1992 167.753" stroke="#263238" stroke-width="0.5" stroke-miterlimit="10"/>
<path d="M16.5529 177.21L14.1543 174.68" stroke="#263238" stroke-width="2" stroke-miterlimit="10"/>
<path d="M14.8836 175.437C14.8777 175.05 14.7897 174.669 14.6254 174.318C14.4611 173.968 14.2243 173.656 13.9306 173.404C13.315 172.852 10.0728 171.493 9.76729 172.633C9.43441 173.873 12.7678 176.308 14.8836 175.437Z" fill="#63BD80" stroke="#263238" stroke-miterlimit="10"/>
<path d="M14.8843 175.437L11.8018 173.518" stroke="#263238" stroke-width="0.5" stroke-miterlimit="10"/>
<path d="M14.9757 162.085L12.5771 159.55" stroke="#263238" stroke-width="2" stroke-miterlimit="10"/>
<path d="M13.3066 160.311C13.3019 159.923 13.2139 159.541 13.0487 159.19C12.8835 158.84 12.6449 158.528 12.349 158.278C11.7334 157.726 8.49577 156.367 8.19025 157.507C7.85737 158.747 11.1725 161.182 13.3066 160.311Z" fill="#63BD80" stroke="#263238" stroke-miterlimit="10"/>
<path d="M13.3062 160.311L10.2236 158.392" stroke="#263238" stroke-width="0.5" stroke-miterlimit="10"/>
<path d="M13.9952 152.683L11.5967 150.147" stroke="#263238" stroke-width="2" stroke-miterlimit="10"/>
<path d="M12.3122 150.909C12.3075 150.521 12.2195 150.139 12.0543 149.788C11.8891 149.437 11.6505 149.126 11.3546 148.875C10.739 148.323 7.5014 146.96 7.19588 148.105C6.87212 149.345 10.1872 151.78 12.3122 150.909Z" fill="#63BD80" stroke="#263238" stroke-miterlimit="10"/>
<path d="M12.3254 150.909L9.23828 148.984" stroke="#263238" stroke-width="0.5" stroke-miterlimit="10"/>
<path d="M17.0186 182.099L18.838 179.126" stroke="#263238" stroke-width="2" stroke-miterlimit="10"/>
<path d="M18.2814 180.019C18.2087 179.64 18.217 179.25 18.3058 178.874C18.3946 178.499 18.5619 178.146 18.7967 177.84C19.2846 177.174 22.1711 175.172 22.7092 176.225C23.2929 177.384 20.5523 180.434 18.2814 180.019Z" fill="#63BD80" stroke="#263238" stroke-miterlimit="10"/>
<path d="M18.2812 180.02L21.0583 177.366" stroke="#263238" stroke-width="0.5" stroke-miterlimit="10"/>
<path d="M15.4316 166.932L17.2556 163.959" stroke="#263238" stroke-width="2" stroke-miterlimit="10"/>
<path d="M16.6991 164.853C16.6257 164.473 16.6337 164.082 16.7225 163.706C16.8113 163.329 16.979 162.976 17.2144 162.669C17.7023 162.003 20.5888 160.001 21.1269 161.054C21.7106 162.199 18.97 165.268 16.6991 164.853Z" fill="#63BD80" stroke="#263238" stroke-miterlimit="10"/>
<path d="M16.6992 164.853L19.4763 162.199" stroke="#263238" stroke-width="0.5" stroke-miterlimit="10"/>
<path d="M14.7383 160.27L16.5623 157.297" stroke="#263238" stroke-width="2" stroke-miterlimit="10"/>
<path d="M16.0054 158.191C15.9307 157.811 15.9376 157.42 16.0257 157.042C16.1137 156.665 16.2809 156.311 16.5162 156.003C17.0086 155.337 19.8951 153.335 20.4286 154.388C21.0123 155.533 18.2718 158.602 16.0054 158.191Z" fill="#63BD80" stroke="#263238" stroke-miterlimit="10"/>
<path d="M16.0059 158.191L18.7829 155.537" stroke="#263238" stroke-width="0.5" stroke-miterlimit="10"/>
<path d="M13.7168 150.499L15.5408 147.525" stroke="#263238" stroke-width="2" stroke-miterlimit="10"/>
<path d="M14.984 148.419C14.9099 148.038 14.9176 147.647 15.0064 147.269C15.0952 146.892 15.2632 146.538 15.4993 146.23C15.9872 145.564 18.8737 143.563 19.4118 144.616C19.9955 145.761 17.2549 148.829 14.984 148.419Z" fill="#63BD80" stroke="#263238" stroke-miterlimit="10"/>
<path d="M14.9844 148.419L17.7614 145.765" stroke="#263238" stroke-width="0.5" stroke-miterlimit="10"/>
<path d="M12.9371 144.251C12.8631 143.871 12.8707 143.479 12.9595 143.101C13.0484 142.724 13.2164 142.37 13.4524 142.062C13.9403 141.396 16.8268 139.395 17.3649 140.448C17.9486 141.593 15.208 144.661 12.9371 144.251Z" fill="#63BD80" stroke="#263238" stroke-miterlimit="10"/>
<path d="M12.9365 144.251L15.7136 141.597" stroke="#263238" stroke-width="0.5" stroke-miterlimit="10"/>
<path d="M13.1012 144.365C12.7159 144.401 12.3272 144.355 11.9609 144.23C11.5946 144.105 11.259 143.904 10.9763 143.64C10.3698 143.083 8.69626 139.992 9.78154 139.577C10.9808 139.102 13.7487 142.153 13.1012 144.365Z" fill="#63BD80" stroke="#263238" stroke-miterlimit="10"/>
<path d="M13.1013 144.365L10.7529 141.323" stroke="#263238" stroke-width="0.5" stroke-miterlimit="10"/>
<path d="M26.9315 151.511L21.6738 202.191" stroke="#263238" stroke-width="2" stroke-miterlimit="10"/>
<path d="M22.8367 192.523L21.0127 189.555" stroke="#263238" stroke-width="2" stroke-miterlimit="10"/>
<path d="M21.5694 190.444C21.6428 190.064 21.6348 189.673 21.546 189.297C21.4572 188.92 21.2895 188.567 21.0541 188.26C20.5616 187.594 17.6752 185.597 17.1371 186.645C16.558 187.795 19.2985 190.859 21.5694 190.444Z" fill="#63BD80" stroke="#263238" stroke-miterlimit="10"/>
<path d="M21.5693 190.444L18.9473 187.932" stroke="#263238" stroke-width="0.5" stroke-miterlimit="10"/>
<path d="M24.2957 178.46L22.4717 175.487" stroke="#263238" stroke-width="2" stroke-miterlimit="10"/>
<path d="M23.0279 176.381C23.102 176 23.0944 175.608 23.0055 175.231C22.9167 174.854 22.7487 174.5 22.5126 174.192C22.0247 173.526 19.1337 171.525 18.6002 172.578C18.0165 173.736 20.757 176.796 23.0279 176.381Z" fill="#63BD80" stroke="#263238" stroke-miterlimit="10"/>
<path d="M23.0283 176.38L20.4062 173.863" stroke="#263238" stroke-width="0.5" stroke-miterlimit="10"/>
<path d="M23.699 184.224L21.875 181.251" stroke="#263238" stroke-width="2" stroke-miterlimit="10"/>
<path d="M22.4307 182.145C22.5041 181.765 22.4962 181.374 22.4074 180.998C22.3185 180.621 22.1509 180.268 21.9155 179.961C21.423 179.295 18.5365 177.293 17.9984 178.346C17.4193 179.491 20.1599 182.56 22.4307 182.145Z" fill="#63BD80" stroke="#263238" stroke-miterlimit="10"/>
<path d="M22.4306 182.145L19.8086 179.628" stroke="#263238" stroke-width="0.5" stroke-miterlimit="10"/>
<path d="M25.2674 169.098L23.4434 166.125" stroke="#263238" stroke-width="2" stroke-miterlimit="10"/>
<path d="M23.9996 167.019C24.0737 166.638 24.066 166.247 23.9772 165.869C23.8884 165.492 23.7204 165.138 23.4843 164.83C22.9964 164.169 20.1054 162.167 19.5718 163.22C18.9882 164.365 21.7287 167.434 23.9996 167.019Z" fill="#63BD80" stroke="#263238" stroke-miterlimit="10"/>
<path d="M23.9999 167.019L21.3779 164.502" stroke="#263238" stroke-width="0.5" stroke-miterlimit="10"/>
<path d="M26.2429 159.696L24.4189 156.723" stroke="#263238" stroke-width="2" stroke-miterlimit="10"/>
<path d="M24.9752 157.616C25.0493 157.236 25.0416 156.844 24.9528 156.466C24.864 156.089 24.6959 155.735 24.4599 155.427C23.972 154.762 21.0809 152.764 20.5474 153.818C19.9637 154.962 22.7043 158.026 24.9752 157.616Z" fill="#63BD80" stroke="#263238" stroke-miterlimit="10"/>
<path d="M24.9755 157.617L22.3535 155.1" stroke="#263238" stroke-width="0.5" stroke-miterlimit="10"/>
<path d="M23.1426 189.103L25.5411 186.572" stroke="#263238" stroke-width="2" stroke-miterlimit="10"/>
<path d="M24.8115 187.33C24.8174 186.943 24.9054 186.561 25.0697 186.211C25.234 185.86 25.4709 185.548 25.7646 185.296C26.3802 184.749 29.6178 183.381 29.9278 184.521C30.2607 185.761 26.9456 188.201 24.8115 187.33Z" fill="#63BD80" stroke="#263238" stroke-miterlimit="10"/>
<path d="M24.8115 187.329L28.0765 185.305" stroke="#263238" stroke-width="0.5" stroke-miterlimit="10"/>
<path d="M24.7158 173.937L27.1144 171.406" stroke="#263238" stroke-width="2" stroke-miterlimit="10"/>
<path d="M26.3848 172.163C26.3935 171.774 26.4851 171.391 26.6533 171.041C26.8216 170.69 27.0627 170.379 27.3606 170.129C27.9762 169.577 31.2138 168.214 31.5239 169.354C31.834 170.594 28.5234 173.034 26.3848 172.163Z" fill="#63BD80" stroke="#263238" stroke-miterlimit="10"/>
<path d="M26.3848 172.162L29.6497 170.138" stroke="#263238" stroke-width="0.5" stroke-miterlimit="10"/>
<path d="M25.4082 167.27L27.8068 164.739" stroke="#263238" stroke-width="2" stroke-miterlimit="10"/>
<path d="M27.0771 165.496C27.0831 165.109 27.1711 164.727 27.3354 164.377C27.4996 164.026 27.7365 163.714 28.0302 163.462C28.6458 162.915 31.8834 161.547 32.1889 162.687C32.5263 163.932 29.2112 166.367 27.0771 165.496Z" fill="#63BD80" stroke="#263238" stroke-miterlimit="10"/>
<path d="M27.0771 165.496L30.3421 163.472" stroke="#263238" stroke-width="0.5" stroke-miterlimit="10"/>
<path d="M26.4209 157.502L28.8195 154.967" stroke="#263238" stroke-width="2" stroke-miterlimit="10"/>
<path d="M28.0898 155.724C28.0932 155.334 28.1799 154.949 28.3443 154.595C28.5087 154.241 28.7469 153.927 29.0429 153.672C29.6585 153.125 32.8961 151.757 33.2062 152.902C33.539 154.16 30.2285 156.595 28.0898 155.724Z" fill="#63BD80" stroke="#263238" stroke-miterlimit="10"/>
<path d="M28.0898 155.724L31.3548 153.699" stroke="#263238" stroke-width="0.5" stroke-miterlimit="10"/>
<path d="M26.9453 151.228C26.9512 150.841 27.0392 150.459 27.2035 150.109C27.3678 149.758 27.6046 149.447 27.8984 149.194C28.514 148.643 31.7516 147.279 32.0616 148.419C32.3763 149.659 29.084 152.099 26.9453 151.228Z" fill="#63BD80" stroke="#263238" stroke-miterlimit="10"/>
<path d="M26.9453 151.228L30.2103 149.203" stroke="#263238" stroke-width="0.5" stroke-miterlimit="10"/>
<path d="M27.0824 151.392C26.6975 151.347 26.3265 151.221 25.9945 151.021C25.6626 150.822 25.3773 150.553 25.1581 150.233C24.6747 149.563 23.6578 146.202 24.8252 146.015C26.0929 145.787 28.1722 149.34 27.0824 151.392Z" fill="#63BD80" stroke="#263238" stroke-miterlimit="10"/>
<path d="M27.0817 151.37L25.4082 147.913" stroke="#263238" stroke-width="0.5" stroke-miterlimit="10"/>
<path d="M20.9033 130.872V194.963" stroke="#263238" stroke-width="2" stroke-miterlimit="10"/>
<path d="M20.958 185.327L18.833 182.56" stroke="#263238" stroke-width="2" stroke-miterlimit="10"/>
<path d="M19.4806 183.389C19.5151 183.003 19.4671 182.614 19.3397 182.247C19.2124 181.881 19.0086 181.546 18.7419 181.264C18.1855 180.658 15.0939 178.984 14.6835 180.07C14.2229 181.264 17.2644 184.032 19.4806 183.389Z" fill="#63BD80" stroke="#263238" stroke-miterlimit="10"/>
<path d="M19.4805 183.39L16.6123 181.16" stroke="#263238" stroke-width="0.5" stroke-miterlimit="10"/>
<path d="M20.958 173.28L18.833 170.517" stroke="#263238" stroke-width="2" stroke-miterlimit="10"/>
<path d="M19.4806 171.347C19.5151 170.96 19.4671 170.571 19.3397 170.205C19.2124 169.838 19.0086 169.503 18.7419 169.222C18.1855 168.611 15.0939 166.919 14.6835 168.022C14.2229 169.222 17.2644 171.99 19.4806 171.347Z" fill="#63BD80" stroke="#263238" stroke-miterlimit="10"/>
<path d="M19.4805 171.347L16.6123 169.112" stroke="#263238" stroke-width="0.5" stroke-miterlimit="10"/>
<path d="M20.958 159.144L18.833 156.376" stroke="#263238" stroke-width="2" stroke-miterlimit="10"/>
<path d="M19.4806 157.206C19.5151 156.82 19.4671 156.431 19.3397 156.064C19.2124 155.698 19.0086 155.363 18.7419 155.081C18.1855 154.47 15.0939 152.801 14.6835 153.882C14.2229 155.081 17.2644 157.849 19.4806 157.206Z" fill="#63BD80" stroke="#263238" stroke-miterlimit="10"/>
<path d="M19.4805 157.206L16.6123 154.972" stroke="#263238" stroke-width="0.5" stroke-miterlimit="10"/>
<path d="M20.958 149.728L18.833 146.96" stroke="#263238" stroke-width="2" stroke-miterlimit="10"/>
<path d="M19.4806 147.789C19.5144 147.404 19.4661 147.015 19.3388 146.65C19.2114 146.284 19.008 145.95 18.7419 145.669C18.1855 145.058 15.0939 143.366 14.6835 144.47C14.2229 145.669 17.2644 148.437 19.4806 147.789Z" fill="#63BD80" stroke="#263238" stroke-miterlimit="10"/>
<path d="M19.4805 147.789L16.6123 145.56" stroke="#263238" stroke-width="0.5" stroke-miterlimit="10"/>
<path d="M20.958 140.275L18.833 137.507" stroke="#263238" stroke-width="2" stroke-miterlimit="10"/>
<path d="M19.4806 138.337C19.5144 137.952 19.4661 137.563 19.3388 137.198C19.2114 136.832 19.008 136.498 18.7419 136.217C18.1855 135.606 15.0939 133.914 14.6835 135.018C14.2229 136.217 17.2644 138.985 19.4806 138.337Z" fill="#63BD80" stroke="#263238" stroke-miterlimit="10"/>
<path d="M19.4805 138.336L16.6123 136.106" stroke="#263238" stroke-width="0.5" stroke-miterlimit="10"/>
<path d="M20.9082 189.003L23.0332 186.235" stroke="#263238" stroke-width="2" stroke-miterlimit="10"/>
<path d="M22.3855 187.065C22.3516 186.679 22.4 186.291 22.5273 185.925C22.6546 185.56 22.8581 185.225 23.1242 184.944C23.6805 184.333 26.7722 182.642 27.1826 183.745C27.6432 184.944 24.6244 187.712 22.3855 187.065Z" fill="#63BD80" stroke="#263238" stroke-miterlimit="10"/>
<path d="M22.3848 187.065L25.4217 184.717" stroke="#263238" stroke-width="0.5" stroke-miterlimit="10"/>
<path d="M20.9082 169.846L23.0332 167.083" stroke="#263238" stroke-width="2" stroke-miterlimit="10"/>
<path d="M22.3849 167.912C22.3504 167.526 22.3984 167.137 22.5257 166.771C22.6531 166.404 22.8569 166.069 23.1236 165.787C23.6799 165.176 26.7716 163.507 27.182 164.588C27.6426 165.787 24.6238 168.555 22.3849 167.912Z" fill="#63BD80" stroke="#263238" stroke-miterlimit="10"/>
<path d="M22.3848 167.913L25.4217 165.56" stroke="#263238" stroke-width="0.5" stroke-miterlimit="10"/>
<path d="M20.9082 160.394L23.0332 157.626" stroke="#263238" stroke-width="2" stroke-miterlimit="10"/>
<path d="M22.3855 158.456C22.3516 158.07 22.4 157.682 22.5273 157.316C22.6546 156.951 22.8581 156.616 23.1242 156.335C23.6805 155.724 26.7722 154.055 27.1826 155.136C27.6432 156.335 24.6244 159.103 22.3855 158.456Z" fill="#63BD80" stroke="#263238" stroke-miterlimit="10"/>
<path d="M22.3848 158.456L25.4217 156.107" stroke="#263238" stroke-width="0.5" stroke-miterlimit="10"/>
<path d="M20.9082 147.899L23.0332 145.131" stroke="#263238" stroke-width="2" stroke-miterlimit="10"/>
<path d="M22.3855 145.961C22.3516 145.576 22.4 145.187 22.5273 144.822C22.6546 144.456 22.8581 144.122 23.1242 143.841C23.6805 143.23 26.7722 141.538 27.1826 142.642C27.6432 143.841 24.6244 146.609 22.3855 145.961Z" fill="#63BD80" stroke="#263238" stroke-miterlimit="10"/>
<path d="M22.3848 145.961L25.4217 143.608" stroke="#263238" stroke-width="0.5" stroke-miterlimit="10"/>
<path d="M20.9082 138.073L23.0332 135.305" stroke="#263238" stroke-width="2" stroke-miterlimit="10"/>
<path d="M22.3849 136.139C22.3504 135.752 22.3984 135.363 22.5257 134.997C22.6531 134.63 22.8569 134.295 23.1236 134.014C23.6799 133.403 26.7716 131.711 27.182 132.814C27.6426 134.014 24.6238 136.8 22.3849 136.139Z" fill="#63BD80" stroke="#263238" stroke-miterlimit="10"/>
<path d="M22.3848 136.139L25.4217 133.786" stroke="#263238" stroke-width="0.5" stroke-miterlimit="10"/>
<path d="M20.7845 131.784C20.748 131.398 20.7946 131.01 20.9213 130.644C21.0479 130.278 21.2517 129.944 21.5187 129.663C22.075 129.052 25.1667 127.383 25.5817 128.464C26.0422 129.659 22.9961 132.427 20.7845 131.784Z" fill="#63BD80" stroke="#263238" stroke-miterlimit="10"/>
<path d="M20.7852 131.78L23.8221 129.427" stroke="#263238" stroke-width="0.5" stroke-miterlimit="10"/>
<path d="M20.9309 131.912C20.5434 131.905 20.1617 131.816 19.8111 131.651C19.4605 131.486 19.1489 131.249 18.8971 130.954C18.3499 130.338 16.991 127.096 18.131 126.791C19.3713 126.458 21.8064 129.778 20.9309 131.912Z" fill="#63BD80" stroke="#263238" stroke-miterlimit="10"/>
<path d="M20.9302 131.912L18.9102 128.643" stroke="#263238" stroke-width="0.5" stroke-miterlimit="10"/>
<path d="M23.5433 211.584H16.7534L15.9053 194.443H24.3914L23.5433 211.584Z" fill="#263238" stroke="#263238" stroke-miterlimit="10"/>
<path d="M52.4767 80.3384H11.7012V15.4268H62.1849V80.3384H55.126" stroke="#263238" stroke-miterlimit="10"/>
<path d="M60.3563 17.7793H13.5342V77.985H60.3563V17.7793Z" stroke="#263238" stroke-miterlimit="10"/>
<path d="M22.9141 34.2686C23.7427 35.0353 24.6283 35.7381 25.5634 36.3707C36.1563 43.5573 54.1227 40.1555 60.1738 50.3654" stroke="#263238" stroke-miterlimit="10"/>
<path d="M16.6764 18.0264C16.4226 20.7158 16.7284 23.4286 17.5744 25.9941C18.4204 28.5595 19.7883 30.9221 21.5921 32.933" stroke="#263238" stroke-miterlimit="10"/>
<path d="M20.6885 51.1909C25.855 48.4549 32.5445 46.5261 35.969 52.0665C39.9408 58.5006 21.5914 69.8505 21.5914 77.9764" stroke="#263238" stroke-miterlimit="10"/>
<path d="M13.6533 55.8513C15.4222 54.422 17.2972 53.1293 19.2621 51.9844" stroke="#263238" stroke-miterlimit="10"/>
<path d="M38.0488 18.0264C38.0488 18.0264 44.8569 28.6192 60.3655 25.7784" stroke="#263238" stroke-miterlimit="10"/>
<path d="M40.0826 28.4272C40.1139 28.6783 40.1291 28.9311 40.1282 29.1842C40.1259 30.7063 39.5668 32.175 38.5563 33.3133C37.5458 34.4516 36.1537 35.1808 34.6426 35.3634C33.1315 35.546 31.6058 35.1695 30.3532 34.3047C29.1006 33.4399 28.2077 32.1467 27.8428 30.669C27.478 29.1912 27.6665 27.6311 28.3727 26.2827C29.079 24.9343 30.2541 23.891 31.6766 23.3494C33.0991 22.8078 34.6706 22.8054 36.0948 23.3426C37.519 23.8798 38.6973 24.9196 39.4077 26.2658" stroke="#263238" stroke-miterlimit="10"/>
<path d="M55.6327 37.602C55.63 38.1815 55.4556 38.7472 55.1316 39.2277C54.8076 39.7082 54.3484 40.0819 53.8122 40.3016C53.2759 40.5213 52.6866 40.5771 52.1186 40.4621C51.5506 40.347 51.0294 40.0662 50.6209 39.6552C50.2124 39.2441 49.9349 38.7212 49.8234 38.1525C49.7118 37.5839 49.7713 36.9949 49.9944 36.46C50.2174 35.9251 50.5939 35.4683 51.0764 35.1472C51.5589 34.8262 52.1256 34.6554 52.7052 34.6563C53.0912 34.6562 53.4733 34.7326 53.8297 34.8808C54.1861 35.0291 54.5096 35.2464 54.7817 35.5201C55.0538 35.7939 55.2691 36.1188 55.4151 36.4761C55.5611 36.8334 55.6351 37.216 55.6327 37.602Z" stroke="#263238" stroke-miterlimit="10"/>
<path d="M55.6729 57.3789C57.3243 57.8085 58.865 58.5858 60.1918 59.6589" stroke="#263238" stroke-miterlimit="10"/>
<path d="M44.442 78.0216C42.6458 76.3744 41.3889 74.2233 40.8356 71.8499C40.2823 69.4764 40.4584 66.9913 41.341 64.7196C42.2235 62.4479 43.7713 60.4957 45.7818 59.1183C47.7923 57.7409 50.1719 57.0026 52.6089 57C52.8461 57 53.0649 57 53.3066 57" stroke="#263238" stroke-miterlimit="10"/>
<path d="M146.832 211.584H219.336" stroke="#263238" stroke-miterlimit="10"/>
<path d="M7.2959 211.584H143.184" stroke="#263238" stroke-miterlimit="10"/>
<path d="M180.362 19.3809H88.3271V189.875H180.362V19.3809Z" fill="white"/>
<path d="M180.362 160.8H88.3271V189.874H180.362V160.8Z" fill="#DEDEDE"/>
<path d="M183.125 52.9238C183.426 52.9238 183.715 52.8042 183.928 52.5913C184.141 52.3783 184.26 52.0895 184.26 51.7884V40.4203C184.26 40.1192 184.141 39.8304 183.928 39.6174C183.715 39.4045 183.426 39.2849 183.125 39.2849C183.054 39.2779 182.982 39.2779 182.911 39.2849V18.0398C182.911 16.0964 182.138 14.2325 180.764 12.8582C179.39 11.484 177.526 10.7119 175.583 10.7119H94.8022C93.8395 10.7113 92.8861 10.9004 91.9965 11.2684C91.1069 11.6364 90.2986 12.1761 89.6176 12.8566C88.9367 13.5371 88.3965 14.3451 88.028 15.2345C87.6594 16.1239 87.4697 17.0771 87.4697 18.0398V189.628C87.4697 191.573 88.2423 193.438 89.6174 194.813C90.9925 196.188 92.8575 196.961 94.8022 196.961H175.583C177.527 196.959 179.39 196.186 180.765 194.811C182.139 193.436 182.911 191.572 182.911 189.628V85.2406C182.982 85.2475 183.054 85.2475 183.125 85.2406C183.426 85.2393 183.715 85.1187 183.928 84.9051C184.141 84.6914 184.26 84.4021 184.26 84.1006V72.7553C184.26 72.4541 184.141 72.1653 183.928 71.9524C183.715 71.7395 183.426 71.6198 183.125 71.6198C183.053 71.6204 182.981 71.6281 182.911 71.6426V69.0708C182.981 69.0854 183.053 69.093 183.125 69.0936C183.426 69.0924 183.714 68.9724 183.926 68.7597C184.139 68.547 184.259 68.2589 184.26 67.9582V56.5855C184.259 56.2847 184.139 55.9966 183.926 55.784C183.714 55.5713 183.426 55.4513 183.125 55.4501C183.053 55.4507 182.981 55.4583 182.911 55.4729V52.8965C182.981 52.9126 183.053 52.9217 183.125 52.9238ZM178.665 185.907H91.7151V23.3568H178.665V185.907Z" fill="#263238"/>
<path d="M175.705 25.0439H168.496V28.9975H175.705V25.0439Z" stroke="#263238" stroke-width="0.821067" stroke-linecap="round" stroke-linejoin="round"/>
<path d="M174.119 25.0439H168.496V28.9975H174.119V25.0439Z" fill="#263238" stroke="#263238" stroke-width="0.725073" stroke-linecap="round" stroke-linejoin="round"/>
<path d="M176.709 26.1523H175.692V27.8943H176.709V26.1523Z" fill="#263238" stroke="#263238" stroke-width="0.725073" stroke-linecap="round" stroke-linejoin="round"/>
<path d="M94.9933 26.2705H93.6709V28.5368H94.9933V26.2705Z" fill="#263238" stroke="#263238" stroke-width="0.883086" stroke-linecap="round" stroke-linejoin="round"/>
<path d="M97.0734 25.4775H95.751V28.5373H97.0734V25.4775Z" fill="#263238" stroke="#263238" stroke-width="0.883086" stroke-linecap="round" stroke-linejoin="round"/>
<path d="M99.1476 24.5332H97.8252V28.5369H99.1476V24.5332Z" fill="#263238" stroke="#263238" stroke-width="0.883086" stroke-linecap="round" stroke-linejoin="round"/>
<path d="M176.613 31.1953H93.1152V53.138H176.613V31.1953Z" fill="#63BD80"/>
<path d="M114.219 34.3555V50.4659" stroke="white" stroke-miterlimit="10"/>
<path d="M135.496 34.3555V50.4659" stroke="white" stroke-miterlimit="10"/>
<path d="M156.777 34.3555V50.4659" stroke="white" stroke-miterlimit="10"/>
<path opacity="0.15" d="M182.158 85.2404C182.229 85.2474 182.301 85.2474 182.372 85.2404C182.674 85.2392 182.962 85.1186 183.175 84.9049C183.388 84.6912 183.507 84.402 183.507 84.1004V80.0283L177.912 89.8916V185.907H123.48L117.191 196.96H174.825C176.77 196.96 178.635 196.188 180.01 194.813C181.385 193.438 182.158 191.573 182.158 189.628V85.2404Z" fill="white"/>
<path d="M131.661 128.788V123.576H134.264V120.954H131.67C131.67 120.083 131.67 119.207 131.67 118.337H136.891V115.733H139.499V118.323H142.117V113.088H149.96V115.692H152.554V113.088H149.951V110.461H144.72V105.272H136.873V107.88H131.67V113.111H134.26V115.719H131.656V118.332H129.048V115.714H121.209V113.111H129.048V92.1895H131.67C131.67 94.7066 131.67 97.2237 131.67 99.7408V100.024H134.283V94.8115H136.886V100.033H139.513V102.636H152.582V105.245H155.199V107.876H152.595V110.498H155.19V115.733H157.812V120.958H155.217V126.175H157.776V128.788H162.997V131.396H155.19V136.618H152.582V134.009H147.338V131.396H144.729V128.788H149.932V126.175H136.895V128.774H131.661V128.788ZM147.338 120.945V118.346H144.743V120.94H147.347V123.544H152.554V120.945H147.338ZM142.103 120.945H139.536V123.53H142.121L142.103 120.945ZM147.351 107.844H149.937V105.254H147.351V107.844Z" fill="#263238"/>
<path d="M108.136 100.015V81.7383H126.408V100.015H108.136ZM110.758 84.3603V97.4064H123.799V84.3603H110.758Z" fill="#263238"/>
<path d="M163.01 100.019H144.738V81.7471H163.01V100.019ZM160.402 84.3599H147.36V97.4016H160.402V84.3599Z" fill="#263238"/>
<path d="M108.14 118.337H126.416V136.613H108.14V118.337ZM123.803 120.959H110.757V134.005H123.803V120.959Z" fill="#263238"/>
<path d="M131.656 92.1901V86.9598H129.048V81.7432H142.094V86.9507H139.536V89.5681H142.121V94.7848H139.518V92.1901H136.891V89.5818H134.283V92.181H131.652L131.656 92.1901ZM134.278 86.9416H136.868V84.3606H134.278V86.9416Z" fill="#263238"/>
<path d="M121.195 105.254V107.867H126.416V110.475H118.587V115.701H108.145V110.502H110.73V113.088H115.974V105.254H121.2H121.195Z" fill="#263238"/>
<path d="M131.652 128.784V131.397H134.264V134.005H136.868V136.618H129.048V128.789H131.642L131.652 128.784Z" fill="#263238"/>
<path d="M115.974 105.254H110.748V107.858H108.145V102.659H115.965V105.258L115.974 105.254Z" fill="#263238"/>
<path d="M163.011 110.476H160.421V105.264H157.812V102.655H163.011V110.476Z" fill="#263238"/>
<path d="M121.2 105.263V102.659H126.412V105.254H121.195L121.2 105.263Z" fill="#263238"/>
<path d="M157.803 115.72V113.116H160.397V115.711H157.775L157.803 115.72Z" fill="#263238"/>
<path d="M160.425 118.342H163.01V120.932H160.425V118.342Z" fill="#263238"/>
<path d="M139.499 100.033V97.4297H142.098V100.024H139.494L139.499 100.033Z" fill="#263238"/>
<path d="M131.661 123.576H129.048V120.968H131.642V123.576H131.661Z" fill="#263238"/>
<path d="M157.803 126.175V123.576H160.397V126.171H157.803V126.175Z" fill="#263238"/>
<path d="M155.181 107.876H157.775V110.484H155.181V107.862V107.876Z" fill="#263238"/>
<path d="M142.098 134.005H139.508V131.42H142.098V134.005Z" fill="#263238"/>
<path d="M147.338 134.01V136.614H144.743V134.019H147.347L147.338 134.01Z" fill="#263238"/>
<path d="M163.01 136.622H160.425V134.032H163.01V136.622Z" fill="#263238"/>
<path d="M142.116 113.089H139.535V110.494H142.134V113.089H142.116Z" fill="#263238"/>
<path d="M121.182 94.7895H113.366V86.9736H121.182V94.7895Z" fill="#263238"/>
<path d="M149.964 94.7846V86.9688H157.775V94.7846H149.964Z" fill="#263238"/>
<path d="M113.366 131.387V123.576H121.182V131.392L113.366 131.387Z" fill="#263238"/>
<path d="M115.728 75.5459H104.282V88.1725" stroke="#63BD80" stroke-width="2" stroke-miterlimit="10"/>
<path d="M157.352 75.5459H168.793V88.1725" stroke="#63BD80" stroke-width="2" stroke-miterlimit="10"/>
<path d="M115.728 142.04H104.282V129.413" stroke="#63BD80" stroke-width="2" stroke-miterlimit="10"/>
<path d="M157.352 142.04H168.793V129.413" stroke="#63BD80" stroke-width="2" stroke-miterlimit="10"/>
<path d="M80.9037 78.2822H77.1052C76.4328 78.2822 75.8877 78.8273 75.8877 79.4997V90.1382C75.8877 90.8106 76.4328 91.3557 77.1052 91.3557H80.9037C81.5761 91.3557 82.1212 90.8106 82.1212 90.1382V79.4997C82.1212 78.8273 81.5761 78.2822 80.9037 78.2822Z" fill="#263238" stroke="#263238" stroke-miterlimit="10"/>
<path d="M81.5655 79.4355H76.4355V90.1971H81.5655V79.4355Z" fill="white" stroke="#263238" stroke-miterlimit="10"/>
<path d="M26.293 142.35C28.1225 142.34 29.9131 141.82 31.464 140.85C31.3637 143.759 31.2862 145.961 31.2862 145.961C31.2862 145.961 31.7878 146.837 32.0386 147.215C32.2894 147.594 34.4189 148.843 34.6697 149.974C34.9205 151.105 36.0377 151.73 35.9237 153.358C35.8097 154.986 34.4189 153.23 34.6697 153.608C34.9205 153.987 35.6729 155.236 35.6729 156.367C35.6729 157.498 33.2926 157.494 32.4125 156.741C31.5324 155.989 28.655 154.233 28.4042 152.605L27.4238 148.957L26.293 142.35Z" fill="white" stroke="#263238" stroke-miterlimit="10"/>
<path d="M31.501 151.393L32.112 154.129C32.112 154.129 34.0865 155.647 34.237 156.714" fill="white"/>
<path d="M31.501 151.393L32.112 154.129C32.112 154.129 34.0865 155.647 34.237 156.714" stroke="#263238" stroke-miterlimit="10"/>
<path d="M34.6659 153.609L33.7812 151.849" stroke="#263238" stroke-miterlimit="10"/>
<path d="M41.3547 209.2C41.3547 209.2 40.6388 215.068 41.1951 215.784C41.5088 216.235 41.9082 216.62 42.3707 216.916C42.8331 217.213 43.3494 217.416 43.8901 217.512C45.1578 217.672 47.301 216.956 47.301 216.956C48.7473 217.344 50.2501 217.479 51.7424 217.353C54.0224 217.116 55.5454 216.245 55.705 215.132C55.8646 214.019 53.881 213.55 52.773 212.36C51.6649 211.169 49.8956 209.063 49.8956 209.063L49.4396 207.521C49.4396 207.521 46.7446 208.889 45.0027 208.949C44.0176 209.008 43.029 208.928 42.0661 208.712L41.3547 209.2Z" fill="white" stroke="#263238" stroke-miterlimit="10"/>
<path d="M55.7057 215.146C55.7238 215.015 55.7113 214.883 55.6693 214.758C55.1449 214.977 54.4745 215.241 53.6446 215.542C51.2643 216.418 50.0741 215.702 48.8885 215.702C47.7029 215.702 47.6163 216.97 44.2875 216.099C42.1124 215.529 41.2961 214.795 40.9861 214.348C40.9424 214.836 41.0142 215.328 41.1958 215.784C41.5095 216.235 41.9089 216.62 42.3714 216.916C42.8338 217.213 43.3501 217.415 43.8908 217.512C45.1585 217.672 47.3017 216.956 47.3017 216.956C48.748 217.344 50.2508 217.478 51.7431 217.353C54.0413 217.129 55.5461 216.258 55.7057 215.146Z" fill="white" stroke="#263238" stroke-miterlimit="10"/>
<path d="M37.1281 136.344C37.1281 136.344 33.9361 147.06 35.0761 154.584C36.2161 162.108 41.6881 176.244 41.6881 176.244C41.6881 176.244 41.0041 181.488 41.0041 183.312C41.0041 185.136 39.4081 188.556 40.5481 192.204C41.6881 195.852 41.6881 205.428 41.6881 206.112C41.6881 206.796 41.2321 210.444 41.2321 210.444C41.2321 210.444 42.1441 211.812 45.5641 211.812C48.9841 211.812 49.8961 209.076 49.8961 209.076C49.8961 209.076 53.3161 188.784 53.3161 185.592C53.3161 182.4 56.9641 170.544 58.3321 165.756C59.2469 162.46 60.5721 159.292 62.2765 156.326C63.1885 154.73 62.6641 135.432 62.6641 135.432L36.6721 133.152L37.1281 136.344Z" fill="#737373" stroke="#263238" stroke-miterlimit="10"/>
<path d="M55.0715 210.709C55.0715 210.709 58.4824 212.054 60.1468 212.848C61.8112 213.641 62.9192 213.719 62.9192 214.991C62.9192 216.263 59.9096 217.526 58.0857 217.845C56.2617 218.165 53.325 218.083 53.0104 218.16C52.6957 218.238 46.7449 219.113 46.0336 217.604C45.3222 216.094 46.1111 210.946 46.1111 210.946C49.0847 211.454 52.129 211.373 55.0715 210.709Z" fill="white" stroke="#263238" stroke-miterlimit="10"/>
<path d="M53.0105 218.16C53.3251 218.082 56.2617 218.16 58.0857 217.845C59.9097 217.53 62.9193 216.258 62.9193 214.991C62.9205 214.824 62.8959 214.657 62.8464 214.498C62.0765 214.947 61.2801 215.349 60.4615 215.702C58.2408 216.655 55.3087 217.289 50.8855 217.211C49.1716 217.207 47.465 216.988 45.8057 216.559C45.8311 216.918 45.9142 217.271 46.0519 217.603C46.745 219.113 52.6913 218.242 53.0105 218.16Z" fill="white" stroke="#263238" stroke-miterlimit="10"/>
<path d="M62.8921 137.256C62.8921 137.256 64.2601 155.724 61.5241 169.632C58.7881 183.54 54.2281 202.464 54.0001 203.376C53.7721 204.288 55.5961 206.796 55.5961 206.796V210.444C55.5961 210.444 54.0001 212.04 50.3521 212.496C46.7041 212.952 45.5641 211.812 45.5641 211.812C45.5641 211.812 44.6521 205.656 44.6521 201.324C44.6521 196.992 45.5641 182.172 45.5641 182.172C45.5641 182.172 47.6161 167.124 47.3881 164.844C47.1601 162.564 46.4761 155.496 46.4761 155.496L42.8281 151.164" fill="#737373"/>
<path d="M62.8921 137.256C62.8921 137.256 64.2601 155.724 61.5241 169.632C58.7881 183.54 54.2281 202.464 54.0001 203.376C53.7721 204.288 55.5961 206.796 55.5961 206.796V210.444C55.5961 210.444 54.0001 212.04 50.3521 212.496C46.7041 212.952 45.5641 211.812 45.5641 211.812C45.5641 211.812 44.6521 205.656 44.6521 201.324C44.6521 196.992 45.5641 182.172 45.5641 182.172C45.5641 182.172 47.6161 167.124 47.3881 164.844C47.1601 162.564 46.4761 155.496 46.4761 155.496L42.8281 151.164" stroke="#263238" stroke-miterlimit="10"/>
<path d="M24.5651 133.782L31.738 132.523C31.7061 133.495 31.9113 127.357 31.9113 126.901C31.9113 125.898 34.2916 119.605 34.2916 119.605C34.2916 119.605 36.1703 127.758 36.1703 128.761C36.1703 129.765 35.4179 137.425 36.4211 138.415C37.4243 139.404 40.9355 141.425 48.7103 141.174C56.4851 140.923 62.2535 140.294 63.7583 138.789C65.2631 137.284 63.5075 132.647 63.3798 132.022C63.2522 131.397 65.3862 114.967 65.3862 114.967C65.3862 114.967 73.7858 123.745 78.8018 122.491C83.8178 121.237 81.4374 101.689 81.4374 101.689L81.6882 96.048C81.6882 96.048 83.3162 91.9121 83.3162 91.2828C83.3162 90.6535 81.6882 86.1437 81.6882 86.1437C81.6882 86.1437 80.685 85.2636 80.0558 87.3977C79.7031 88.5439 79.4513 89.7188 79.3034 90.9089C79.3034 90.9089 77.7986 92.0352 77.9354 93.6677C78.0107 94.6524 78.2209 95.6221 78.5601 96.5496L75.1674 107.617C75.1674 107.617 71.4054 103.353 71.1546 102.601C70.9038 101.848 71.027 99.0895 67.8942 97.457C64.7615 95.8245 58.3638 95.7014 58.3638 95.7014L40.6847 95.8291C40.6847 95.8291 32.4083 96.5587 30.5524 98.1866C28.6965 99.8145 22.9053 120.508 22.9053 123.641C22.9053 124.621 23.416 127.658 24.1319 131.415L24.5651 133.782Z" fill="white" stroke="#263238" stroke-miterlimit="10"/>
<path d="M81.6881 86.1523C81.6881 86.1523 81.3097 89.2851 81.5605 89.9143C81.9201 91.0046 82.0062 92.1665 81.8113 93.2979" stroke="#263238" stroke-miterlimit="10"/>
<path d="M78.8018 122.514C83.8178 121.26 81.4374 101.698 81.4374 101.698L81.4922 100.434C80.9441 100.019 80.3086 99.7337 79.6339 99.6001C78.9592 99.4666 78.263 99.4884 77.5979 99.6638L75.1674 107.616C75.1674 107.616 71.4054 103.353 71.1546 102.6C70.9038 101.848 71.027 99.0893 67.8942 97.4568C64.7615 95.8243 58.3638 95.7012 58.3638 95.7012L40.6847 95.8289C40.6847 95.8289 32.4083 96.5585 30.5524 98.1864C28.6965 99.8143 22.9053 120.508 22.9053 123.64C22.9053 125.501 24.7566 134.776 26.3162 142.336C28.1366 142.326 29.9187 141.812 31.4644 140.85C31.6468 135.428 31.9204 127.553 31.9204 126.901C31.9204 125.897 34.3007 119.605 34.3007 119.605C34.3007 119.605 36.1794 127.758 36.1794 128.761C36.1794 129.764 35.427 137.425 36.4302 138.415C37.4334 139.404 40.9446 141.424 48.7194 141.173C56.4942 140.923 62.2626 140.293 63.7674 138.789C65.2722 137.284 63.5166 132.646 63.389 132.022C63.2613 131.397 65.3954 114.967 65.3954 114.967C65.3954 114.967 73.7858 123.768 78.8018 122.514Z" fill="#63BD80" stroke="#263238" stroke-miterlimit="10"/>
<path d="M31.829 112.728L34.2914 119.628L29.2207 110.959" stroke="#263238" stroke-miterlimit="10"/>
<path d="M30.4385 108.834L31.3094 111.274" stroke="#263238" stroke-miterlimit="10"/>
<path d="M47.8027 113.216C48.9108 115.706 50.5387 118.829 52.4767 120.84" stroke="#263238" stroke-miterlimit="10"/>
<path d="M46.248 109.29C46.248 109.29 46.59 110.316 47.2011 111.807" stroke="#263238" stroke-miterlimit="10"/>
<path d="M48.9844 117.648C48.9844 117.648 51.7204 123.12 53.0884 124.183" stroke="#263238" stroke-miterlimit="10"/>
<path d="M69.6768 111.014L70.7164 110.047" stroke="#263238" stroke-miterlimit="10"/>
<path d="M67.9814 109.591L65.3867 114.99L68.7338 111.889" stroke="#263238" stroke-miterlimit="10"/>
<path d="M79.8364 112.633C79.686 111.57 75.167 107.594 75.167 107.594C75.167 107.594 79.8364 109.441 81.054 111.114" stroke="#263238" stroke-miterlimit="10"/>
<path d="M60.119 79.2528C60.119 79.2528 60.3698 82.3901 60.7483 82.9008C61.1268 83.4115 61.373 87.2875 60.7483 88.4184C60.1236 89.5493 59.7451 90.9264 59.3803 91.3003C59.0155 91.6742 57.6247 91.6788 57.1003 91.6788C56.5759 91.6788 50.958 91.428 50.958 91.428L51.0857 83.5255C51.0857 83.5255 52.4719 77.6249 60.119 79.2528Z" fill="white" stroke="#263238" stroke-miterlimit="10"/>
<path d="M50.092 70.4797C50.092 70.4797 44.9483 72.1076 43.822 76.6083C42.6957 81.109 46.33 86.2618 46.33 86.2618C46.33 86.2618 47.3332 89.9098 48.2087 90.6531C49.0842 91.3964 52.5954 90.6531 53.7263 90.4023C54.8572 90.1515 57.3743 83.3799 57.3743 83.3799C57.3743 83.3799 57.3743 85.0078 58.1267 85.0078C58.8791 85.0078 58.756 82.8783 58.756 82.4998C58.756 82.1213 62.2672 79.4902 62.2672 74.9804C62.2672 70.4705 58.3684 68.4733 54.7204 68.7241C51.0724 68.9749 50.092 70.4797 50.092 70.4797Z" fill="#263238" stroke="#263238" stroke-miterlimit="10"/>
<path d="M60.7486 95.4274C60.7486 95.4274 59.9962 92.7963 59.6177 92.4224C59.2393 92.0485 56.8589 90.5391 52.9738 90.2883C49.0887 90.0375 43.3203 90.1652 42.8187 90.416C42.3171 90.6668 42.1894 92.7963 42.1894 92.7963C42.1894 92.7963 40.5615 94.3011 40.183 95.1812C39.8045 96.0613 39.4306 96.4306 42.919 99.3171C46.4074 102.204 48.3135 103.33 51.9478 102.45C55.5821 101.57 60.8489 96.3075 60.8489 96.3075L60.7486 95.4274Z" fill="#63BD80" stroke="#263238" stroke-miterlimit="10"/>
<path d="M51.7793 97.206C54.2474 96.3624 56.622 95.2668 58.8655 93.9365" stroke="#263238" stroke-miterlimit="10"/>
<path d="M42.1895 93.2979C42.1895 93.2979 44.4695 97.8122 48.4595 97.8122C49.0033 97.8056 49.5453 97.7476 50.0783 97.639" stroke="#263238" stroke-miterlimit="10"/>
</svg>
